<svg width="201" height="199" viewBox="0 0 201 199" fill="none" xmlns="http://www.w3.org/2000/svg">
<g style="mix-blend-mode:hard-light" filter="url(#filter0_f_254_4985)">
<path fill-rule="evenodd" clip-rule="evenodd" d="M107.131 82.0003C108.276 82.0003 109.419 82.162 110.506 82.5272C117.203 84.7074 119.617 92.0657 117.601 98.4974C116.457 101.784 114.589 104.784 112.141 107.235C108.637 110.632 104.792 113.648 100.653 116.246L100.2 116.521L99.7278 116.228C95.5744 113.648 91.7077 110.632 88.1712 107.217C85.7397 104.766 83.869 101.784 82.7077 98.4974C80.6573 92.0657 83.0706 84.7074 89.8406 82.489C90.3668 82.3073 90.9093 82.1802 91.4537 82.1093H91.6714C92.1812 82.0348 92.6875 82.0003 93.1955 82.0003H93.3952C94.5383 82.0348 95.6451 82.2347 96.7175 82.5999H96.8246C96.8972 82.6344 96.9515 82.6725 96.9878 82.707C97.3888 82.836 97.7681 82.9814 98.131 83.1813L98.8205 83.4901C98.9871 83.5791 99.1741 83.715 99.3357 83.8325C99.4381 83.907 99.5304 83.974 99.6007 84.017C99.6304 84.0345 99.6604 84.0521 99.6908 84.0698C99.8464 84.1608 100.008 84.2555 100.145 84.3604C102.161 82.8179 104.609 81.9821 107.131 82.0003ZM111.958 95.0817C112.702 95.0617 113.337 94.464 113.391 93.6991V93.4829C113.445 90.9374 111.905 88.6318 109.562 87.7416C108.818 87.4854 108.002 87.8869 107.73 88.65C107.476 89.4131 107.875 90.2488 108.637 90.5196C109.8 90.9556 110.578 92.102 110.578 93.372V93.4284C110.544 93.8444 110.669 94.2459 110.923 94.5548C111.177 94.8637 111.558 95.0436 111.958 95.0817Z" fill="#6A2CAD" fill-opacity="0.01"/>
<path fill-rule="evenodd" clip-rule="evenodd" d="M107.131 82.0003C108.276 82.0003 109.419 82.162 110.506 82.5272C117.203 84.7074 119.617 92.0657 117.601 98.4974C116.457 101.784 114.589 104.784 112.141 107.235C108.637 110.632 104.792 113.648 100.653 116.246L100.2 116.521L99.7278 116.228C95.5744 113.648 91.7077 110.632 88.1712 107.217C85.7397 104.766 83.869 101.784 82.7077 98.4974C80.6573 92.0657 83.0706 84.7074 89.8406 82.489C90.3668 82.3073 90.9093 82.1802 91.4537 82.1093H91.6714C92.1812 82.0348 92.6875 82.0003 93.1955 82.0003H93.3952C94.5383 82.0348 95.6451 82.2347 96.7175 82.5999H96.8246C96.8972 82.6344 96.9515 82.6725 96.9878 82.707C97.3888 82.836 97.7681 82.9814 98.131 83.1813L98.8205 83.4901C98.9871 83.5791 99.1741 83.715 99.3357 83.8325C99.4381 83.907 99.5304 83.974 99.6007 84.017C99.6304 84.0345 99.6604 84.0521 99.6908 84.0698C99.8464 84.1608 100.008 84.2555 100.145 84.3604C102.161 82.8179 104.609 81.9821 107.131 82.0003ZM111.958 95.0817C112.702 95.0617 113.337 94.464 113.391 93.6991V93.4829C113.445 90.9374 111.905 88.6318 109.562 87.7416C108.818 87.4854 108.002 87.8869 107.73 88.65C107.476 89.4131 107.875 90.2488 108.637 90.5196C109.8 90.9556 110.578 92.102 110.578 93.372V93.4284C110.544 93.8444 110.669 94.2459 110.923 94.5548C111.177 94.8637 111.558 95.0436 111.958 95.0817Z" stroke="#6A2CAD" stroke-width="4.438"/>
</g>
<g style="mix-blend-mode:hard-light" filter="url(#filter1_f_254_4985)">
<path fill-rule="evenodd" clip-rule="evenodd" d="M107.131 82.0003C108.276 82.0003 109.419 82.162 110.506 82.5272C117.203 84.7074 119.617 92.0657 117.601 98.4974C116.457 101.784 114.589 104.784 112.141 107.235C108.637 110.632 104.792 113.648 100.653 116.246L100.2 116.521L99.7278 116.228C95.5744 113.648 91.7077 110.632 88.1712 107.217C85.7397 104.766 83.869 101.784 82.7077 98.4974C80.6573 92.0657 83.0706 84.7074 89.8406 82.489C90.3668 82.3073 90.9093 82.1802 91.4537 82.1093H91.6714C92.1812 82.0348 92.6875 82.0003 93.1955 82.0003H93.3952C94.5383 82.0348 95.6451 82.2347 96.7175 82.5999H96.8246C96.8972 82.6344 96.9515 82.6725 96.9878 82.707C97.3888 82.836 97.7681 82.9814 98.131 83.1813L98.8205 83.4901C98.9871 83.5791 99.1741 83.715 99.3357 83.8325C99.4381 83.907 99.5304 83.974 99.6007 84.017C99.6304 84.0345 99.6604 84.0521 99.6908 84.0698C99.8464 84.1608 100.008 84.2555 100.145 84.3604C102.161 82.8179 104.609 81.9821 107.131 82.0003ZM111.958 95.0817C112.702 95.0617 113.337 94.464 113.391 93.6991V93.4829C113.445 90.9374 111.905 88.6318 109.562 87.7416C108.818 87.4854 108.002 87.8869 107.73 88.65C107.476 89.4131 107.875 90.2488 108.637 90.5196C109.8 90.9556 110.578 92.102 110.578 93.372V93.4284C110.544 93.8444 110.669 94.2459 110.923 94.5548C111.177 94.8637 111.558 95.0436 111.958 95.0817Z" fill="#6A2CAD" fill-opacity="0.01"/>
<path fill-rule="evenodd" clip-rule="evenodd" d="M107.131 82.0003C108.276 82.0003 109.419 82.162 110.506 82.5272C117.203 84.7074 119.617 92.0657 117.601 98.4974C116.457 101.784 114.589 104.784 112.141 107.235C108.637 110.632 104.792 113.648 100.653 116.246L100.2 116.521L99.7278 116.228C95.5744 113.648 91.7077 110.632 88.1712 107.217C85.7397 104.766 83.869 101.784 82.7077 98.4974C80.6573 92.0657 83.0706 84.7074 89.8406 82.489C90.3668 82.3073 90.9093 82.1802 91.4537 82.1093H91.6714C92.1812 82.0348 92.6875 82.0003 93.1955 82.0003H93.3952C94.5383 82.0348 95.6451 82.2347 96.7175 82.5999H96.8246C96.8972 82.6344 96.9515 82.6725 96.9878 82.707C97.3888 82.836 97.7681 82.9814 98.131 83.1813L98.8205 83.4901C98.9871 83.5791 99.1741 83.715 99.3357 83.8325C99.4381 83.907 99.5304 83.974 99.6007 84.017C99.6304 84.0345 99.6604 84.0521 99.6908 84.0698C99.8464 84.1608 100.008 84.2555 100.145 84.3604C102.161 82.8179 104.609 81.9821 107.131 82.0003ZM111.958 95.0817C112.702 95.0617 113.337 94.464 113.391 93.6991V93.4829C113.445 90.9374 111.905 88.6318 109.562 87.7416C108.818 87.4854 108.002 87.8869 107.73 88.65C107.476 89.4131 107.875 90.2488 108.637 90.5196C109.8 90.9556 110.578 92.102 110.578 93.372V93.4284C110.544 93.8444 110.669 94.2459 110.923 94.5548C111.177 94.8637 111.558 95.0436 111.958 95.0817Z" stroke="#6A2CAD" stroke-width="5.80354"/>
</g>
<g style="mix-blend-mode:hard-light" filter="url(#filter2_di_254_4985)">
<path fill-rule="evenodd" clip-rule="evenodd" d="M107.131 82.0003C108.276 82.0003 109.419 82.162 110.506 82.5272C117.203 84.7074 119.617 92.0657 117.601 98.4974C116.457 101.784 114.589 104.784 112.141 107.235C108.637 110.632 104.792 113.648 100.653 116.246L100.2 116.521L99.7278 116.228C95.5744 113.648 91.7077 110.632 88.1712 107.217C85.7397 104.766 83.869 101.784 82.7077 98.4974C80.6573 92.0657 83.0706 84.7074 89.8406 82.489C90.3668 82.3073 90.9093 82.1802 91.4537 82.1093H91.6714C92.1812 82.0348 92.6875 82.0003 93.1955 82.0003H93.3952C94.5383 82.0348 95.6451 82.2347 96.7175 82.5999H96.8246C96.8972 82.6344 96.9515 82.6725 96.9878 82.707C97.3888 82.836 97.7681 82.9814 98.131 83.1813L98.8205 83.4901C98.9871 83.5791 99.1741 83.715 99.3357 83.8325C99.4381 83.907 99.5304 83.974 99.6007 84.017C99.6304 84.0345 99.6604 84.0521 99.6908 84.0698C99.8464 84.1608 100.008 84.2555 100.145 84.3604C102.161 82.8179 104.609 81.9821 107.131 82.0003ZM111.958 95.0817C112.702 95.0617 113.337 94.464 113.391 93.6991V93.4829C113.445 90.9374 111.905 88.6318 109.562 87.7416C108.818 87.4854 108.002 87.8869 107.73 88.65C107.476 89.4131 107.875 90.2488 108.637 90.5196C109.8 90.9556 110.578 92.102 110.578 93.372V93.4284C110.544 93.8444 110.669 94.2459 110.923 94.5548C111.177 94.8637 111.558 95.0436 111.958 95.0817Z" fill="#6A2CAD" fill-opacity="0.01"/>
<path fill-rule="evenodd" clip-rule="evenodd" d="M107.131 82.0003C108.276 82.0003 109.419 82.162 110.506 82.5272C117.203 84.7074 119.617 92.0657 117.601 98.4974C116.457 101.784 114.589 104.784 112.141 107.235C108.637 110.632 104.792 113.648 100.653 116.246L100.2 116.521L99.7278 116.228C95.5744 113.648 91.7077 110.632 88.1712 107.217C85.7397 104.766 83.869 101.784 82.7077 98.4974C80.6573 92.0657 83.0706 84.7074 89.8406 82.489C90.3668 82.3073 90.9093 82.1802 91.4537 82.1093H91.6714C92.1812 82.0348 92.6875 82.0003 93.1955 82.0003H93.3952C94.5383 82.0348 95.6451 82.2347 96.7175 82.5999H96.8246C96.8972 82.6344 96.9515 82.6725 96.9878 82.707C97.3888 82.836 97.7681 82.9814 98.131 83.1813L98.8205 83.4901C98.9871 83.5791 99.1741 83.715 99.3357 83.8325C99.4381 83.907 99.5304 83.974 99.6007 84.017C99.6304 84.0345 99.6604 84.0521 99.6908 84.0698C99.8464 84.1608 100.008 84.2555 100.145 84.3604C102.161 82.8179 104.609 81.9821 107.131 82.0003ZM111.958 95.0817C112.702 95.0617 113.337 94.464 113.391 93.6991V93.4829C113.445 90.9374 111.905 88.6318 109.562 87.7416C108.818 87.4854 108.002 87.8869 107.73 88.65C107.476 89.4131 107.875 90.2488 108.637 90.5196C109.8 90.9556 110.578 92.102 110.578 93.372V93.4284C110.544 93.8444 110.669 94.2459 110.923 94.5548C111.177 94.8637 111.558 95.0436 111.958 95.0817Z" stroke="#6A2CAD" stroke-opacity="0.2" stroke-width="4.438"/>
</g>
<g filter="url(#filter3_f_254_4985)">
<path fill-rule="evenodd" clip-rule="evenodd" d="M107.131 82.0003C108.276 82.0003 109.419 82.162 110.506 82.5272C117.203 84.7074 119.617 92.0657 117.601 98.4974C116.457 101.784 114.589 104.784 112.141 107.235C108.637 110.632 104.792 113.648 100.653 116.246L100.2 116.521L99.7278 116.228C95.5744 113.648 91.7077 110.632 88.1712 107.217C85.7397 104.766 83.869 101.784 82.7077 98.4974C80.6573 92.0657 83.0706 84.7074 89.8406 82.489C90.3668 82.3073 90.9093 82.1802 91.4537 82.1093H91.6714C92.1812 82.0348 92.6875 82.0003 93.1955 82.0003H93.3952C94.5383 82.0348 95.6451 82.2347 96.7175 82.5999H96.8246C96.8972 82.6344 96.9515 82.6725 96.9878 82.707C97.3888 82.836 97.7681 82.9814 98.131 83.1813L98.8205 83.4901C98.9871 83.5791 99.1741 83.715 99.3357 83.8325C99.4381 83.907 99.5304 83.974 99.6007 84.017C99.6304 84.0345 99.6604 84.0521 99.6908 84.0698C99.8464 84.1608 100.008 84.2555 100.145 84.3604C102.161 82.8179 104.609 81.9821 107.131 82.0003ZM111.958 95.0817C112.702 95.0617 113.337 94.464 113.391 93.6991V93.4829C113.445 90.9374 111.905 88.6318 109.562 87.7416C108.818 87.4854 108.002 87.8869 107.73 88.65C107.476 89.4131 107.875 90.2488 108.637 90.5196C109.8 90.9556 110.578 92.102 110.578 93.372V93.4284C110.544 93.8444 110.669 94.2459 110.923 94.5548C111.177 94.8637 111.558 95.0436 111.958 95.0817Z" fill="#6A2CAD" fill-opacity="0.01"/>
<path fill-rule="evenodd" clip-rule="evenodd" d="M107.131 82.0003C108.276 82.0003 109.419 82.162 110.506 82.5272C117.203 84.7074 119.617 92.0657 117.601 98.4974C116.457 101.784 114.589 104.784 112.141 107.235C108.637 110.632 104.792 113.648 100.653 116.246L100.2 116.521L99.7278 116.228C95.5744 113.648 91.7077 110.632 88.1712 107.217C85.7397 104.766 83.869 101.784 82.7077 98.4974C80.6573 92.0657 83.0706 84.7074 89.8406 82.489C90.3668 82.3073 90.9093 82.1802 91.4537 82.1093H91.6714C92.1812 82.0348 92.6875 82.0003 93.1955 82.0003H93.3952C94.5383 82.0348 95.6451 82.2347 96.7175 82.5999H96.8246C96.8972 82.6344 96.9515 82.6725 96.9878 82.707C97.3888 82.836 97.7681 82.9814 98.131 83.1813L98.8205 83.4901C98.9871 83.5791 99.1741 83.715 99.3357 83.8325C99.4381 83.907 99.5304 83.974 99.6007 84.017C99.6304 84.0345 99.6604 84.0521 99.6908 84.0698C99.8464 84.1608 100.008 84.2555 100.145 84.3604C102.161 82.8179 104.609 81.9821 107.131 82.0003ZM111.958 95.0817C112.702 95.0617 113.337 94.464 113.391 93.6991V93.4829C113.445 90.9374 111.905 88.6318 109.562 87.7416C108.818 87.4854 108.002 87.8869 107.73 88.65C107.476 89.4131 107.875 90.2488 108.637 90.5196C109.8 90.9556 110.578 92.102 110.578 93.372V93.4284C110.544 93.8444 110.669 94.2459 110.923 94.5548C111.177 94.8637 111.558 95.0436 111.958 95.0817Z" stroke="#6A2CAD" stroke-width="2.73108"/>
</g>
<g filter="url(#filter4_f_254_4985)">
<path fill-rule="evenodd" clip-rule="evenodd" d="M107.131 82.0003C108.276 82.0003 109.419 82.162 110.506 82.5272C117.203 84.7074 119.617 92.0657 117.601 98.4974C116.457 101.784 114.589 104.784 112.141 107.235C108.637 110.632 104.792 113.648 100.653 116.246L100.2 116.521L99.7278 116.228C95.5744 113.648 91.7077 110.632 88.1712 107.217C85.7397 104.766 83.869 101.784 82.7077 98.4974C80.6573 92.0657 83.0706 84.7074 89.8406 82.489C90.3668 82.3073 90.9093 82.1802 91.4537 82.1093H91.6714C92.1812 82.0348 92.6875 82.0003 93.1955 82.0003H93.3952C94.5383 82.0348 95.6451 82.2347 96.7175 82.5999H96.8246C96.8972 82.6344 96.9515 82.6725 96.9878 82.707C97.3888 82.836 97.7681 82.9814 98.131 83.1813L98.8205 83.4901C98.9871 83.5791 99.1741 83.715 99.3357 83.8325C99.4381 83.907 99.5304 83.974 99.6007 84.017C99.6304 84.0345 99.6604 84.0521 99.6908 84.0698C99.8464 84.1608 100.008 84.2555 100.145 84.3604C102.161 82.8179 104.609 81.9821 107.131 82.0003ZM111.958 95.0817C112.702 95.0617 113.337 94.464 113.391 93.6991V93.4829C113.445 90.9374 111.905 88.6318 109.562 87.7416C108.818 87.4854 108.002 87.8869 107.73 88.65C107.476 89.4131 107.875 90.2488 108.637 90.5196C109.8 90.9556 110.578 92.102 110.578 93.372V93.4284C110.544 93.8444 110.669 94.2459 110.923 94.5548C111.177 94.8637 111.558 95.0436 111.958 95.0817Z" fill="#6A2CAD" fill-opacity="0.01"/>
<path fill-rule="evenodd" clip-rule="evenodd" d="M107.131 82.0003C108.276 82.0003 109.419 82.162 110.506 82.5272C117.203 84.7074 119.617 92.0657 117.601 98.4974C116.457 101.784 114.589 104.784 112.141 107.235C108.637 110.632 104.792 113.648 100.653 116.246L100.2 116.521L99.7278 116.228C95.5744 113.648 91.7077 110.632 88.1712 107.217C85.7397 104.766 83.869 101.784 82.7077 98.4974C80.6573 92.0657 83.0706 84.7074 89.8406 82.489C90.3668 82.3073 90.9093 82.1802 91.4537 82.1093H91.6714C92.1812 82.0348 92.6875 82.0003 93.1955 82.0003H93.3952C94.5383 82.0348 95.6451 82.2347 96.7175 82.5999H96.8246C96.8972 82.6344 96.9515 82.6725 96.9878 82.707C97.3888 82.836 97.7681 82.9814 98.131 83.1813L98.8205 83.4901C98.9871 83.5791 99.1741 83.715 99.3357 83.8325C99.4381 83.907 99.5304 83.974 99.6007 84.017C99.6304 84.0345 99.6604 84.0521 99.6908 84.0698C99.8464 84.1608 100.008 84.2555 100.145 84.3604C102.161 82.8179 104.609 81.9821 107.131 82.0003ZM111.958 95.0817C112.702 95.0617 113.337 94.464 113.391 93.6991V93.4829C113.445 90.9374 111.905 88.6318 109.562 87.7416C108.818 87.4854 108.002 87.8869 107.73 88.65C107.476 89.4131 107.875 90.2488 108.637 90.5196C109.8 90.9556 110.578 92.102 110.578 93.372V93.4284C110.544 93.8444 110.669 94.2459 110.923 94.5548C111.177 94.8637 111.558 95.0436 111.958 95.0817Z" stroke="white" stroke-width="1.36554"/>
</g>
<g filter="url(#filter5_b_254_4985)">
<path fill-rule="evenodd" clip-rule="evenodd" d="M107.122 82.0003C108.266 82.0003 109.409 82.1618 110.495 82.5264C117.19 84.7036 119.602 92.0516 117.587 98.4743C116.445 101.756 114.576 104.752 112.129 107.199C108.627 110.592 104.784 113.604 100.646 116.198L100.193 116.472L99.7211 116.18C95.5693 113.604 91.7041 110.592 88.1689 107.181C85.7384 104.734 83.8683 101.756 82.7074 98.4743C80.6578 92.0516 83.0702 84.7036 89.8376 82.4883C90.3636 82.3069 90.906 82.1799 91.4501 82.1091H91.6678C92.1774 82.0348 92.6834 82.0003 93.1913 82.0003H93.3909C94.5336 82.0348 95.64 82.2343 96.712 82.599H96.8191C96.8916 82.6335 96.9459 82.6716 96.9822 82.7061C97.3831 82.8349 97.7622 82.98 98.125 83.1796L98.8142 83.488C98.9808 83.5769 99.1676 83.7126 99.3292 83.83C99.4316 83.9043 99.5238 83.9713 99.5941 84.0142C99.6237 84.0316 99.6538 84.0492 99.6842 84.0669C99.8397 84.1577 100.002 84.2523 100.138 84.3571C102.153 82.8167 104.6 81.9821 107.122 82.0003ZM111.946 95.0634C112.69 95.0434 113.325 94.4465 113.379 93.6827V93.4668C113.434 90.9249 111.894 88.6225 109.552 87.7335C108.808 87.4777 107.992 87.8787 107.72 88.6407C107.466 89.4027 107.865 90.2373 108.627 90.5076C109.79 90.9431 110.568 92.0879 110.568 93.3561V93.4123C110.533 93.8278 110.658 94.2288 110.912 94.5372C111.166 94.8456 111.547 95.0253 111.946 95.0634Z" fill="#6A2CAD" fill-opacity="0.01"/>
</g>
<defs>
<filter id="filter0_f_254_4985" x="0.19722" y="0.186966" width="199.896" height="198.529" filterUnits="userSpaceOnUse" color-interpolation-filters="sRGB">
<feFlood flood-opacity="0" result="BackgroundImageFix"/>
<feBlend mode="normal" in="SourceGraphic" in2="BackgroundImageFix" result="shape"/>
<feGaussianBlur stdDeviation="39.7969" result="effect1_foregroundBlur_254_4985"/>
</filter>
<filter id="filter1_f_254_4985" x="52.5801" y="52.5669" width="95.1309" height="93.8877" filterUnits="userSpaceOnUse" color-interpolation-filters="sRGB">
<feFlood flood-opacity="0" result="BackgroundImageFix"/>
<feBlend mode="normal" in="SourceGraphic" in2="BackgroundImageFix" result="shape"/>
<feGaussianBlur stdDeviation="13.2656" result="effect1_foregroundBlur_254_4985"/>
</filter>
<filter id="filter2_di_254_4985" x="45.3004" y="71.8214" width="109.689" height="108.323" filterUnits="userSpaceOnUse" color-interpolation-filters="sRGB">
<feFlood flood-opacity="0" result="BackgroundImageFix"/>
<feColorMatrix in="SourceAlpha" type="matrix" values="0 0 0 0 0 0 0 0 0 0 0 0 0 0 0 0 0 0 127 0" result="hardAlpha"/>
<feOffset dy="26.5313"/>
<feGaussianBlur stdDeviation="17.2453"/>
<feColorMatrix type="matrix" values="0 0 0 0 0.349489 0 0 0 0 0.300625 0 0 0 0 0.65 0 0 0 1 0"/>
<feBlend mode="color-dodge" in2="BackgroundImageFix" result="effect1_dropShadow_254_4985"/>
<feBlend mode="normal" in="SourceGraphic" in2="effect1_dropShadow_254_4985" result="shape"/>
<feColorMatrix in="SourceAlpha" type="matrix" values="0 0 0 0 0 0 0 0 0 0 0 0 0 0 0 0 0 0 127 0" result="hardAlpha"/>
<feOffset dx="-1.72453" dy="3.44906"/>
<feGaussianBlur stdDeviation="0.862266"/>
<feComposite in2="hardAlpha" operator="arithmetic" k2="-1" k3="1"/>
<feColorMatrix type="matrix" values="0 0 0 0 1 0 0 0 0 1 0 0 0 0 1 0 0 0 0.5 0"/>
<feBlend mode="normal" in2="shape" result="effect2_innerShadow_254_4985"/>
</filter>
<filter id="filter3_f_254_4985" x="79.9579" y="79.9515" width="40.3743" height="38.8533" filterUnits="userSpaceOnUse" color-interpolation-filters="sRGB">
<feFlood flood-opacity="0" result="BackgroundImageFix"/>
<feBlend mode="normal" in="SourceGraphic" in2="BackgroundImageFix" result="shape"/>
<feGaussianBlur stdDeviation="0.341384" result="effect1_foregroundBlur_254_4985"/>
</filter>
<filter id="filter4_f_254_4985" x="80.8651" y="80.8622" width="38.5598" height="36.9143" filterUnits="userSpaceOnUse" color-interpolation-filters="sRGB">
<feFlood flood-opacity="0" result="BackgroundImageFix"/>
<feBlend mode="normal" in="SourceGraphic" in2="BackgroundImageFix" result="shape"/>
<feGaussianBlur stdDeviation="0.22759" result="effect1_foregroundBlur_254_4985"/>
</filter>
<filter id="filter5_b_254_4985" x="66" y="66" width="68.2773" height="66.4722" filterUnits="userSpaceOnUse" color-interpolation-filters="sRGB">
<feFlood flood-opacity="0" result="BackgroundImageFix"/>
<feGaussianBlur in="BackgroundImage" stdDeviation="8"/>
<feComposite in2="SourceAlpha" operator="in" result="effect1_backgroundBlur_254_4985"/>
<feBlend mode="normal" in="SourceGraphic" in2="effect1_backgroundBlur_254_4985" result="shape"/>
</filter>
</defs>
</svg>
