<svg width="85" height="103" viewBox="0 0 85 103" fill="none" xmlns="http://www.w3.org/2000/svg">
<path d="M39.4165 29.8296L39.7633 28.5353L39.7634 28.5351L40.1102 27.2409L41.4045 27.5877L41.405 27.5878L41.4709 27.6054C41.745 27.6775 42.3858 27.8403 43.4066 28.0969M39.4165 29.8296L54.3826 33.8463L55.17 32.7622C54.209 32.0641 53.283 31.4898 52.3959 31.0515C51.5304 30.6239 50.4701 30.1879 49.2261 29.7425L49.2261 29.7425C47.9932 29.3012 46.9679 28.9766 46.1659 28.7813L46.1652 28.7811C45.4344 28.6036 44.5158 28.3754 43.4066 28.0969M39.4165 29.8296L39.4171 29.8297M39.4165 29.8296L39.4171 29.8297M43.4066 28.0969L43.0799 29.3964L43.4062 28.0968C43.4063 28.0968 43.4064 28.0969 43.4066 28.0969ZM39.4171 29.8297L35.567 44.1984L35.2202 45.4926L36.5145 45.8394C36.6709 45.8814 37.2389 46.0428 38.2464 46.3309C39.2533 46.6188 40.0664 46.8371 40.6785 46.9822L40.6785 46.9822C41.2723 47.1229 42.1413 47.3182 43.2782 47.5684C44.4488 47.826 45.4725 47.9954 46.3381 48.0664C47.1526 48.1335 48.1032 48.182 49.1857 48.213C50.3443 48.2466 51.4015 48.1479 52.3245 47.88C53.1519 47.6403 53.9754 47.322 54.7917 46.928C55.7478 46.4666 56.5521 45.7905 57.192 44.92C57.1921 44.9198 57.1922 44.9197 57.1923 44.9196L39.4171 29.8297ZM54.2663 70.19L54.2659 70.1905C53.6517 70.9914 52.9476 71.6662 52.1476 72.198L52.1452 72.1996C51.3203 72.7455 50.3551 73.1307 49.28 73.3775C48.2701 73.6106 47.2987 73.7618 46.3692 73.8301L54.2663 70.19ZM54.2663 70.19C54.9192 69.3379 55.384 68.3514 55.6794 67.2499L55.6794 67.2496C56.0568 65.8411 56.1115 64.4586 55.7986 63.1268C55.5083 61.8853 55.0217 60.7699 54.3241 59.7979L54.3234 59.7969M54.2663 70.19L54.3234 59.7969M43.1422 73.7858L43.141 73.7857C41.9539 73.6913 40.9097 73.5718 40.0084 73.4267L40.008 73.4267C39.1189 73.2834 38.0797 73.079 36.8932 72.817L36.8917 72.8167C35.7167 72.5557 34.7854 72.335 34.1111 72.1543C33.454 71.9782 32.6316 71.7478 31.647 71.4661C30.6603 71.1846 30.0467 71.0113 29.7874 70.9418L28.4931 70.595L28.8399 69.3007L33.4608 52.0552L33.8076 50.7609L35.1019 51.1077C35.353 51.175 36.1452 51.3701 37.5057 51.6973L37.506 51.6974C38.8659 52.0248 39.9783 52.3056 40.8434 52.5374C41.7367 52.7767 42.9301 53.1527 44.4115 53.6607M43.1422 73.7858L51.4752 57.1316C50.34 56.3541 49.2566 55.7077 48.2242 55.1967L48.2235 55.1964C47.188 54.6846 45.9126 54.1739 44.4115 53.6607M43.1422 73.7858C44.3443 73.8803 45.4237 73.9002 46.3681 73.8301L43.1422 73.7858ZM44.4115 53.6607L43.9769 54.9281M44.4115 53.6607C44.4111 53.6605 44.4107 53.6604 44.4104 53.6603L43.9769 54.9281M43.9769 54.9281C45.4455 55.4302 46.6632 55.9199 47.6298 56.3976L34.4083 53.6963L34.7551 52.402C35.0269 52.4748 35.8393 52.6747 37.1924 53.0001C38.5456 53.3259 39.6461 53.6038 40.4966 53.8317C41.3468 54.0595 42.5073 54.4242 43.9769 54.9281ZM54.3234 59.7969C53.624 58.8244 52.6576 57.941 51.4754 57.1317L54.3234 59.7969ZM62.3142 52.0984L58.7598 52.8556L61.9549 54.587C65.4847 56.4999 67.7358 58.8448 68.878 61.5731C69.9853 64.2191 69.8739 67.6841 68.2275 72.12C67.3872 74.3532 66.3361 76.1897 65.0944 77.657C63.8322 79.1445 62.4674 80.2442 61.003 80.9862L61.0021 80.9867C59.5189 81.7395 57.7573 82.2559 55.6965 82.5107L55.6959 82.5108C53.6075 82.77 51.4793 82.8011 49.31 82.606L49.3099 82.606C47.1184 82.4091 44.6323 82.0102 41.8456 81.407L40.5981 81.1371L40.2678 82.3699L37.1286 94.0855L31.8606 92.6739L34.945 81.1627L35.2919 79.8685L33.9976 79.5217C31.279 78.7932 29.2215 78.2241 27.8189 77.8113L26.5017 77.4237L26.1463 78.75L23.0481 90.3126L17.778 88.9005L20.9172 77.1849L21.264 75.8906L19.9697 75.5438C19.3667 75.3822 18.4584 75.1297 17.24 74.7849L17.2381 74.7844C16.0168 74.4407 15.0773 74.1796 14.4222 74.0041L5.75006 71.6804L8.70157 65.2384L13.2706 66.4627C14.3408 66.7494 15.4228 66.743 16.4016 66.2585C17.3737 65.7773 18.0464 64.9221 18.4986 63.902L18.5409 63.8066L18.5679 63.7058L24.0633 43.1965L23.6925 43.0972L23.7106 43.0469L24.0771 43.1451L28.0007 28.502L28.0335 28.3794L28.0428 28.2528C28.1497 26.7896 27.8457 25.4423 26.9982 24.3425C26.1624 23.2579 24.9183 22.5705 23.442 22.175L19.0735 21.0044L20.6203 15.2317L30.1237 17.8266L30.1237 17.8267L30.1299 17.8283C32.3102 18.4125 33.98 18.8414 35.1321 19.1128L36.3973 19.411L36.7337 18.1554L39.8319 6.59258L45.1008 8.00438L42.0709 19.312L41.7156 20.6383L43.0501 20.9612C45.8551 21.6399 47.9258 22.1587 49.2697 22.5188L50.564 22.8656L50.9108 21.5713L53.9133 10.3657L59.1811 11.7772L56.0829 23.34L55.7654 24.5248L56.9176 24.9455C59.49 25.8847 61.7008 26.8773 63.5577 27.9175C65.392 28.9453 67.013 30.1545 68.4221 31.5439L68.423 31.5447C69.7727 32.8733 70.6981 34.385 71.2266 36.0926C71.751 37.7885 71.8512 39.6834 71.4843 41.8078L71.4843 41.8078L71.4826 41.8179C70.9896 44.8095 69.9608 47.0892 68.4696 48.7501C66.9856 50.403 64.9623 51.5343 62.3142 52.0984Z" stroke="#6E40ED" stroke-width="2.67988"/>
</svg>
