<svg width="1920" height="4769" viewBox="0 0 1920 4769" fill="none" xmlns="http://www.w3.org/2000/svg">
<g filter="url(#filter0_bf_321_3156)">
<ellipse rx="195.819" ry="265.755" transform="matrix(1 0 0 -1 1977.82 433.754)" fill="#9245DE"/>
<ellipse rx="211.485" ry="193.581" transform="matrix(1 0 0 -1 2066.22 617.825)" fill="#3EA2FF"/>
</g>
<g filter="url(#filter1_bf_321_3156)">
<ellipse rx="143.68" ry="194.995" transform="matrix(1 0 0 -1 38.6802 -36.0058)" fill="#9245DE"/>
<ellipse rx="143.071" ry="194.465" transform="matrix(1 0 0 -1 175.712 17.0694)" fill="#5F7EFF"/>
<ellipse rx="155.175" ry="142.038" transform="matrix(1 0 0 -1 103.542 99.0536)" fill="#3EA2FF"/>
</g>
<g filter="url(#filter2_bf_321_3156)">
<ellipse rx="174.6" ry="236.957" transform="matrix(1 0 0 -1 -152.4 3321.96)" fill="#9245DE"/>
<ellipse rx="173.859" ry="236.314" transform="matrix(1 0 0 -1 14.1202 3386.45)" fill="#5F7EFF"/>
<ellipse rx="188.568" ry="172.604" transform="matrix(1 0 0 -1 -73.5805 3486.08)" fill="#3EA2FF"/>
</g>
<g filter="url(#filter3_bf_321_3156)">
<ellipse rx="174.6" ry="236.957" transform="matrix(1 0 0 -1 1878.6 3966.96)" fill="#9245DE"/>
<ellipse rx="173.859" ry="236.314" transform="matrix(1 0 0 -1 2045.12 4031.45)" fill="#5F7EFF"/>
<ellipse rx="188.568" ry="172.604" transform="matrix(1 0 0 -1 1957.42 4131.08)" fill="#3EA2FF"/>
</g>
<defs>
<filter id="filter0_bf_321_3156" x="749.948" y="-864.052" width="2641.67" height="2707.51" filterUnits="userSpaceOnUse" color-interpolation-filters="sRGB">
<feFlood flood-opacity="0" result="BackgroundImageFix"/>
<feGaussianBlur in="BackgroundImage" stdDeviation="516.026"/>
<feComposite in2="SourceAlpha" operator="in" result="effect1_backgroundBlur_321_3156"/>
<feBlend mode="normal" in="SourceGraphic" in2="effect1_backgroundBlur_321_3156" result="shape"/>
<feGaussianBlur stdDeviation="309.616" result="effect2_foregroundBlur_321_3156"/>
</filter>
<filter id="filter1_bf_321_3156" x="-1137.05" y="-1263.05" width="2487.89" height="2536.2" filterUnits="userSpaceOnUse" color-interpolation-filters="sRGB">
<feFlood flood-opacity="0" result="BackgroundImageFix"/>
<feGaussianBlur in="BackgroundImage" stdDeviation="516.026"/>
<feComposite in2="SourceAlpha" operator="in" result="effect1_backgroundBlur_321_3156"/>
<feBlend mode="normal" in="SourceGraphic" in2="effect1_backgroundBlur_321_3156" result="shape"/>
<feGaussianBlur stdDeviation="309.616" result="effect2_foregroundBlur_321_3156"/>
</filter>
<filter id="filter2_bf_321_3156" x="-1102.25" y="2309.75" width="2065.48" height="2124.19" filterUnits="userSpaceOnUse" color-interpolation-filters="sRGB">
<feFlood flood-opacity="0" result="BackgroundImageFix"/>
<feGaussianBlur in="BackgroundImage" stdDeviation="387.625"/>
<feComposite in2="SourceAlpha" operator="in" result="effect1_backgroundBlur_321_3156"/>
<feBlend mode="normal" in="SourceGraphic" in2="effect1_backgroundBlur_321_3156" result="shape"/>
<feGaussianBlur stdDeviation="232.575" result="effect2_foregroundBlur_321_3156"/>
</filter>
<filter id="filter3_bf_321_3156" x="928.75" y="2954.75" width="2065.48" height="2124.19" filterUnits="userSpaceOnUse" color-interpolation-filters="sRGB">
<feFlood flood-opacity="0" result="BackgroundImageFix"/>
<feGaussianBlur in="BackgroundImage" stdDeviation="387.625"/>
<feComposite in2="SourceAlpha" operator="in" result="effect1_backgroundBlur_321_3156"/>
<feBlend mode="normal" in="SourceGraphic" in2="effect1_backgroundBlur_321_3156" result="shape"/>
<feGaussianBlur stdDeviation="232.575" result="effect2_foregroundBlur_321_3156"/>
</filter>
</defs>
</svg>
