<svg width="201" height="199" viewBox="0 0 201 199" fill="none" xmlns="http://www.w3.org/2000/svg">
<g style="mix-blend-mode:hard-light" filter="url(#filter0_f_254_2924)">
<path d="M110.885 103.475C110.415 103.931 110.199 104.591 110.306 105.238L111.919 114.177C112.055 114.934 111.736 115.701 111.103 116.139C110.482 116.593 109.657 116.648 108.98 116.284L100.943 112.087C100.664 111.938 100.354 111.858 100.036 111.849H99.5442C99.3737 111.875 99.2067 111.929 99.0543 112.013L91.016 116.23C90.6187 116.43 90.1687 116.5 89.7278 116.43C88.6536 116.226 87.9368 115.201 88.1128 114.12L89.7278 105.181C89.8348 104.529 89.6189 103.866 89.149 103.403L82.5968 97.0436C82.0488 96.5113 81.8582 95.7119 82.1086 94.9906C82.3518 94.2711 82.9724 93.746 83.7218 93.6279L92.7399 92.318C93.4257 92.2471 94.0282 91.8292 94.3367 91.2115L98.3104 83.0538C98.4048 82.8721 98.5264 82.7049 98.6733 82.5632L98.8366 82.4361C98.9219 82.3416 99.0198 82.2634 99.1287 82.1999L99.3265 82.1272L99.6349 82H100.399C101.081 82.0709 101.682 82.4797 101.996 83.0901L106.022 91.2115C106.312 91.8056 106.877 92.218 107.528 92.318L116.546 93.6279C117.308 93.7369 117.945 94.2638 118.197 94.9906C118.435 95.7191 118.23 96.5186 117.671 97.0436L110.885 103.475Z" fill="#6A2CAD" fill-opacity="0.01"/>
<path d="M110.885 103.475C110.415 103.931 110.199 104.591 110.306 105.238L111.919 114.177C112.055 114.934 111.736 115.701 111.103 116.139C110.482 116.593 109.657 116.648 108.98 116.284L100.943 112.087C100.664 111.938 100.354 111.858 100.036 111.849H99.5442C99.3737 111.875 99.2067 111.929 99.0543 112.013L91.016 116.23C90.6187 116.43 90.1687 116.5 89.7278 116.43C88.6536 116.226 87.9368 115.201 88.1128 114.12L89.7278 105.181C89.8348 104.529 89.6189 103.866 89.149 103.403L82.5968 97.0436C82.0488 96.5113 81.8582 95.7119 82.1086 94.9906C82.3518 94.2711 82.9724 93.746 83.7218 93.6279L92.7399 92.318C93.4257 92.2471 94.0282 91.8292 94.3367 91.2115L98.3104 83.0538C98.4048 82.8721 98.5264 82.7049 98.6733 82.5632L98.8366 82.4361C98.9219 82.3416 99.0198 82.2634 99.1287 82.1999L99.3265 82.1272L99.6349 82H100.399C101.081 82.0709 101.682 82.4797 101.996 83.0901L106.022 91.2115C106.312 91.8056 106.877 92.218 107.528 92.318L116.546 93.6279C117.308 93.7369 117.945 94.2638 118.197 94.9906C118.435 95.7191 118.23 96.5186 117.671 97.0436L110.885 103.475Z" stroke="#6A2CAD" stroke-width="4.438"/>
</g>
<g style="mix-blend-mode:hard-light" filter="url(#filter1_f_254_2924)">
<path d="M110.885 103.475C110.415 103.931 110.199 104.591 110.306 105.238L111.919 114.177C112.055 114.934 111.736 115.701 111.103 116.139C110.482 116.593 109.657 116.648 108.98 116.284L100.943 112.087C100.664 111.938 100.354 111.858 100.036 111.849H99.5442C99.3737 111.875 99.2067 111.929 99.0543 112.013L91.016 116.23C90.6187 116.43 90.1687 116.5 89.7278 116.43C88.6536 116.226 87.9368 115.201 88.1128 114.12L89.7278 105.181C89.8348 104.529 89.6189 103.866 89.149 103.403L82.5968 97.0436C82.0488 96.5113 81.8582 95.7119 82.1086 94.9906C82.3518 94.2711 82.9724 93.746 83.7218 93.6279L92.7399 92.318C93.4257 92.2471 94.0282 91.8292 94.3367 91.2115L98.3104 83.0538C98.4048 82.8721 98.5264 82.7049 98.6733 82.5632L98.8366 82.4361C98.9219 82.3416 99.0198 82.2634 99.1287 82.1999L99.3265 82.1272L99.6349 82H100.399C101.081 82.0709 101.682 82.4797 101.996 83.0901L106.022 91.2115C106.312 91.8056 106.877 92.218 107.528 92.318L116.546 93.6279C117.308 93.7369 117.945 94.2638 118.197 94.9906C118.435 95.7191 118.23 96.5186 117.671 97.0436L110.885 103.475Z" fill="#6A2CAD" fill-opacity="0.01"/>
<path d="M110.885 103.475C110.415 103.931 110.199 104.591 110.306 105.238L111.919 114.177C112.055 114.934 111.736 115.701 111.103 116.139C110.482 116.593 109.657 116.648 108.98 116.284L100.943 112.087C100.664 111.938 100.354 111.858 100.036 111.849H99.5442C99.3737 111.875 99.2067 111.929 99.0543 112.013L91.016 116.23C90.6187 116.43 90.1687 116.5 89.7278 116.43C88.6536 116.226 87.9368 115.201 88.1128 114.12L89.7278 105.181C89.8348 104.529 89.6189 103.866 89.149 103.403L82.5968 97.0436C82.0488 96.5113 81.8582 95.7119 82.1086 94.9906C82.3518 94.2711 82.9724 93.746 83.7218 93.6279L92.7399 92.318C93.4257 92.2471 94.0282 91.8292 94.3367 91.2115L98.3104 83.0538C98.4048 82.8721 98.5264 82.7049 98.6733 82.5632L98.8366 82.4361C98.9219 82.3416 99.0198 82.2634 99.1287 82.1999L99.3265 82.1272L99.6349 82H100.399C101.081 82.0709 101.682 82.4797 101.996 83.0901L106.022 91.2115C106.312 91.8056 106.877 92.218 107.528 92.318L116.546 93.6279C117.308 93.7369 117.945 94.2638 118.197 94.9906C118.435 95.7191 118.23 96.5186 117.671 97.0436L110.885 103.475Z" stroke="#6A2CAD" stroke-width="5.80354"/>
</g>
<g style="mix-blend-mode:hard-light" filter="url(#filter2_ddi_254_2924)">
<path d="M110.885 103.475C110.415 103.931 110.199 104.591 110.306 105.238L111.919 114.177C112.055 114.934 111.736 115.701 111.103 116.139C110.482 116.593 109.657 116.648 108.98 116.284L100.943 112.087C100.664 111.938 100.354 111.858 100.036 111.849H99.5442C99.3737 111.875 99.2067 111.929 99.0543 112.013L91.016 116.23C90.6187 116.43 90.1687 116.5 89.7278 116.43C88.6536 116.226 87.9368 115.201 88.1128 114.12L89.7278 105.181C89.8348 104.529 89.6189 103.866 89.149 103.403L82.5968 97.0436C82.0488 96.5113 81.8582 95.7119 82.1086 94.9906C82.3518 94.2711 82.9724 93.746 83.7218 93.6279L92.7399 92.318C93.4257 92.2471 94.0282 91.8292 94.3367 91.2115L98.3104 83.0538C98.4048 82.8721 98.5264 82.7049 98.6733 82.5632L98.8366 82.4361C98.9219 82.3416 99.0198 82.2634 99.1287 82.1999L99.3265 82.1272L99.6349 82H100.399C101.081 82.0709 101.682 82.4797 101.996 83.0901L106.022 91.2115C106.312 91.8056 106.877 92.218 107.528 92.318L116.546 93.6279C117.308 93.7369 117.945 94.2638 118.197 94.9906C118.435 95.7191 118.23 96.5186 117.671 97.0436L110.885 103.475Z" fill="#6A2CAD" fill-opacity="0.01"/>
<path d="M110.885 103.475C110.415 103.931 110.199 104.591 110.306 105.238L111.919 114.177C112.055 114.934 111.736 115.701 111.103 116.139C110.482 116.593 109.657 116.648 108.98 116.284L100.943 112.087C100.664 111.938 100.354 111.858 100.036 111.849H99.5442C99.3737 111.875 99.2067 111.929 99.0543 112.013L91.016 116.23C90.6187 116.43 90.1687 116.5 89.7278 116.43C88.6536 116.226 87.9368 115.201 88.1128 114.12L89.7278 105.181C89.8348 104.529 89.6189 103.866 89.149 103.403L82.5968 97.0436C82.0488 96.5113 81.8582 95.7119 82.1086 94.9906C82.3518 94.2711 82.9724 93.746 83.7218 93.6279L92.7399 92.318C93.4257 92.2471 94.0282 91.8292 94.3367 91.2115L98.3104 83.0538C98.4048 82.8721 98.5264 82.7049 98.6733 82.5632L98.8366 82.4361C98.9219 82.3416 99.0198 82.2634 99.1287 82.1999L99.3265 82.1272L99.6349 82H100.399C101.081 82.0709 101.682 82.4797 101.996 83.0901L106.022 91.2115C106.312 91.8056 106.877 92.218 107.528 92.318L116.546 93.6279C117.308 93.7369 117.945 94.2638 118.197 94.9906C118.435 95.7191 118.23 96.5186 117.671 97.0436L110.885 103.475Z" stroke="#6A2CAD" stroke-opacity="0.2" stroke-width="4.438"/>
</g>
<g filter="url(#filter3_f_254_2924)">
<path d="M110.885 103.475C110.415 103.931 110.199 104.591 110.306 105.238L111.919 114.177C112.055 114.934 111.736 115.701 111.103 116.139C110.482 116.593 109.657 116.648 108.98 116.284L100.943 112.087C100.664 111.938 100.354 111.858 100.036 111.849H99.5442C99.3737 111.875 99.2067 111.929 99.0543 112.013L91.016 116.23C90.6187 116.43 90.1687 116.5 89.7278 116.43C88.6536 116.226 87.9368 115.201 88.1128 114.12L89.7278 105.181C89.8348 104.529 89.6189 103.866 89.149 103.403L82.5968 97.0436C82.0488 96.5113 81.8582 95.7119 82.1086 94.9906C82.3518 94.2711 82.9724 93.746 83.7218 93.6279L92.7399 92.318C93.4257 92.2471 94.0282 91.8292 94.3367 91.2115L98.3104 83.0538C98.4048 82.8721 98.5264 82.7049 98.6733 82.5632L98.8366 82.4361C98.9219 82.3416 99.0198 82.2634 99.1287 82.1999L99.3265 82.1272L99.6349 82H100.399C101.081 82.0709 101.682 82.4797 101.996 83.0901L106.022 91.2115C106.312 91.8056 106.877 92.218 107.528 92.318L116.546 93.6279C117.308 93.7369 117.945 94.2638 118.197 94.9906C118.435 95.7191 118.23 96.5186 117.671 97.0436L110.885 103.475Z" fill="#6A2CAD" fill-opacity="0.01"/>
<path d="M110.885 103.475C110.415 103.931 110.199 104.591 110.306 105.238L111.919 114.177C112.055 114.934 111.736 115.701 111.103 116.139C110.482 116.593 109.657 116.648 108.98 116.284L100.943 112.087C100.664 111.938 100.354 111.858 100.036 111.849H99.5442C99.3737 111.875 99.2067 111.929 99.0543 112.013L91.016 116.23C90.6187 116.43 90.1687 116.5 89.7278 116.43C88.6536 116.226 87.9368 115.201 88.1128 114.12L89.7278 105.181C89.8348 104.529 89.6189 103.866 89.149 103.403L82.5968 97.0436C82.0488 96.5113 81.8582 95.7119 82.1086 94.9906C82.3518 94.2711 82.9724 93.746 83.7218 93.6279L92.7399 92.318C93.4257 92.2471 94.0282 91.8292 94.3367 91.2115L98.3104 83.0538C98.4048 82.8721 98.5264 82.7049 98.6733 82.5632L98.8366 82.4361C98.9219 82.3416 99.0198 82.2634 99.1287 82.1999L99.3265 82.1272L99.6349 82H100.399C101.081 82.0709 101.682 82.4797 101.996 83.0901L106.022 91.2115C106.312 91.8056 106.877 92.218 107.528 92.318L116.546 93.6279C117.308 93.7369 117.945 94.2638 118.197 94.9906C118.435 95.7191 118.23 96.5186 117.671 97.0436L110.885 103.475Z" stroke="#6A2CAD" stroke-width="2.73108"/>
</g>
<g filter="url(#filter4_f_254_2924)">
<path d="M110.885 103.475C110.415 103.931 110.199 104.591 110.306 105.238L111.919 114.177C112.055 114.934 111.736 115.701 111.103 116.139C110.482 116.593 109.657 116.648 108.98 116.284L100.943 112.087C100.664 111.938 100.354 111.858 100.036 111.849H99.5442C99.3737 111.875 99.2067 111.929 99.0543 112.013L91.016 116.23C90.6187 116.43 90.1687 116.5 89.7278 116.43C88.6536 116.226 87.9368 115.201 88.1128 114.12L89.7278 105.181C89.8348 104.529 89.6189 103.866 89.149 103.403L82.5968 97.0436C82.0488 96.5113 81.8582 95.7119 82.1086 94.9906C82.3518 94.2711 82.9724 93.746 83.7218 93.6279L92.7399 92.318C93.4257 92.2471 94.0282 91.8292 94.3367 91.2115L98.3104 83.0538C98.4048 82.8721 98.5264 82.7049 98.6733 82.5632L98.8366 82.4361C98.9219 82.3416 99.0198 82.2634 99.1287 82.1999L99.3265 82.1272L99.6349 82H100.399C101.081 82.0709 101.682 82.4797 101.996 83.0901L106.022 91.2115C106.312 91.8056 106.877 92.218 107.528 92.318L116.546 93.6279C117.308 93.7369 117.945 94.2638 118.197 94.9906C118.435 95.7191 118.23 96.5186 117.671 97.0436L110.885 103.475Z" fill="#6A2CAD" fill-opacity="0.01"/>
<path d="M110.885 103.475C110.415 103.931 110.199 104.591 110.306 105.238L111.919 114.177C112.055 114.934 111.736 115.701 111.103 116.139C110.482 116.593 109.657 116.648 108.98 116.284L100.943 112.087C100.664 111.938 100.354 111.858 100.036 111.849H99.5442C99.3737 111.875 99.2067 111.929 99.0543 112.013L91.016 116.23C90.6187 116.43 90.1687 116.5 89.7278 116.43C88.6536 116.226 87.9368 115.201 88.1128 114.12L89.7278 105.181C89.8348 104.529 89.6189 103.866 89.149 103.403L82.5968 97.0436C82.0488 96.5113 81.8582 95.7119 82.1086 94.9906C82.3518 94.2711 82.9724 93.746 83.7218 93.6279L92.7399 92.318C93.4257 92.2471 94.0282 91.8292 94.3367 91.2115L98.3104 83.0538C98.4048 82.8721 98.5264 82.7049 98.6733 82.5632L98.8366 82.4361C98.9219 82.3416 99.0198 82.2634 99.1287 82.1999L99.3265 82.1272L99.6349 82H100.399C101.081 82.0709 101.682 82.4797 101.996 83.0901L106.022 91.2115C106.312 91.8056 106.877 92.218 107.528 92.318L116.546 93.6279C117.308 93.7369 117.945 94.2638 118.197 94.9906C118.435 95.7191 118.23 96.5186 117.671 97.0436L110.885 103.475Z" stroke="white" stroke-width="1.36554"/>
</g>
<g filter="url(#filter5_b_254_2924)">
<path d="M110.874 103.445C110.404 103.901 110.188 104.559 110.295 105.205L111.908 114.132C112.044 114.888 111.725 115.654 111.092 116.091C110.471 116.545 109.646 116.599 108.97 116.236L100.936 112.045C100.657 111.896 100.347 111.816 100.029 111.807H99.5377C99.3672 111.833 99.2002 111.887 99.0479 111.971L91.0127 116.182C90.6154 116.381 90.1656 116.452 89.7249 116.381C88.6511 116.178 87.9346 115.155 88.1106 114.075L89.7249 105.149C89.8319 104.498 89.616 103.835 89.1463 103.373L82.5965 97.0225C82.0487 96.4909 81.8583 95.6926 82.1086 94.9724C82.3517 94.2539 82.972 93.7295 83.7211 93.6116L92.7358 92.3035C93.4214 92.2327 94.0236 91.8154 94.332 91.1986L98.3043 83.0523C98.3986 82.8709 98.5202 82.7039 98.6671 82.5624L98.8302 82.4354C98.9155 82.3411 99.0134 82.2631 99.1223 82.1996L99.32 82.127L99.6283 82H100.392C101.074 82.0708 101.674 82.479 101.988 83.0886L106.013 91.1986C106.303 91.7919 106.867 92.2037 107.518 92.3035L116.533 93.6116C117.295 93.7205 117.932 94.2466 118.184 94.9724C118.421 95.6999 118.216 96.4982 117.658 97.0225L110.874 103.445Z" fill="#6A2CAD" fill-opacity="0.01"/>
</g>
<defs>
<filter id="filter0_f_254_2924" x="0.187088" y="0.186966" width="199.921" height="198.149" filterUnits="userSpaceOnUse" color-interpolation-filters="sRGB">
<feFlood flood-opacity="0" result="BackgroundImageFix"/>
<feBlend mode="normal" in="SourceGraphic" in2="BackgroundImageFix" result="shape"/>
<feGaussianBlur stdDeviation="39.7969" result="effect1_foregroundBlur_254_2924"/>
</filter>
<filter id="filter1_f_254_2924" x="52.5669" y="52.5669" width="95.161" height="93.389" filterUnits="userSpaceOnUse" color-interpolation-filters="sRGB">
<feFlood flood-opacity="0" result="BackgroundImageFix"/>
<feBlend mode="normal" in="SourceGraphic" in2="BackgroundImageFix" result="shape"/>
<feGaussianBlur stdDeviation="13.2656" result="effect1_foregroundBlur_254_2924"/>
</filter>
<filter id="filter2_ddi_254_2924" x="45.2902" y="71.8214" width="109.714" height="107.942" filterUnits="userSpaceOnUse" color-interpolation-filters="sRGB">
<feFlood flood-opacity="0" result="BackgroundImageFix"/>
<feColorMatrix in="SourceAlpha" type="matrix" values="0 0 0 0 0 0 0 0 0 0 0 0 0 0 0 0 0 0 127 0" result="hardAlpha"/>
<feOffset dy="17.2453"/>
<feGaussianBlur stdDeviation="6.63282"/>
<feColorMatrix type="matrix" values="0 0 0 0 0.114706 0 0 0 0 0.0382353 0 0 0 0 0.261765 0 0 0 0.7 0"/>
<feBlend mode="multiply" in2="BackgroundImageFix" result="effect1_dropShadow_254_2924"/>
<feColorMatrix in="SourceAlpha" type="matrix" values="0 0 0 0 0 0 0 0 0 0 0 0 0 0 0 0 0 0 127 0" result="hardAlpha"/>
<feOffset dy="26.5313"/>
<feGaussianBlur stdDeviation="17.2453"/>
<feColorMatrix type="matrix" values="0 0 0 0 0.229412 0 0 0 0 0.0764706 0 0 0 0 0.523529 0 0 0 1 0"/>
<feBlend mode="color-dodge" in2="effect1_dropShadow_254_2924" result="effect2_dropShadow_254_2924"/>
<feBlend mode="normal" in="SourceGraphic" in2="effect2_dropShadow_254_2924" result="shape"/>
<feColorMatrix in="SourceAlpha" type="matrix" values="0 0 0 0 0 0 0 0 0 0 0 0 0 0 0 0 0 0 127 0" result="hardAlpha"/>
<feOffset dx="-1.72453" dy="3.44906"/>
<feGaussianBlur stdDeviation="0.862266"/>
<feComposite in2="hardAlpha" operator="arithmetic" k2="-1" k3="1"/>
<feColorMatrix type="matrix" values="0 0 0 0 1 0 0 0 0 1 0 0 0 0 1 0 0 0 0.5 0"/>
<feBlend mode="normal" in2="shape" result="effect3_innerShadow_254_2924"/>
</filter>
<filter id="filter3_f_254_2924" x="79.9516" y="79.9515" width="40.3915" height="38.6194" filterUnits="userSpaceOnUse" color-interpolation-filters="sRGB">
<feFlood flood-opacity="0" result="BackgroundImageFix"/>
<feBlend mode="normal" in="SourceGraphic" in2="BackgroundImageFix" result="shape"/>
<feGaussianBlur stdDeviation="0.341384" result="effect1_foregroundBlur_254_2924"/>
</filter>
<filter id="filter4_f_254_2924" x="80.862" y="80.8622" width="38.5709" height="36.7985" filterUnits="userSpaceOnUse" color-interpolation-filters="sRGB">
<feFlood flood-opacity="0" result="BackgroundImageFix"/>
<feBlend mode="normal" in="SourceGraphic" in2="BackgroundImageFix" result="shape"/>
<feGaussianBlur stdDeviation="0.22759" result="effect1_foregroundBlur_254_2924"/>
</filter>
<filter id="filter5_b_254_2924" x="66" y="66" width="68.2812" height="66.4744" filterUnits="userSpaceOnUse" color-interpolation-filters="sRGB">
<feFlood flood-opacity="0" result="BackgroundImageFix"/>
<feGaussianBlur in="BackgroundImage" stdDeviation="8"/>
<feComposite in2="SourceAlpha" operator="in" result="effect1_backgroundBlur_254_2924"/>
<feBlend mode="normal" in="SourceGraphic" in2="effect1_backgroundBlur_254_2924" result="shape"/>
</filter>
</defs>
</svg>
