<svg width="178" height="178" viewBox="0 0 178 178" fill="none" xmlns="http://www.w3.org/2000/svg">
<path d="M88.5 66L89.9568 75.3336C91.0231 82.1645 96.3155 87.5612 103.124 88.7605L113 90.5L103.866 91.6747C96.6923 92.5974 91.0045 98.1736 89.9396 105.328L88.5 115L87.0604 105.328C85.9955 98.1736 80.3077 92.5974 73.1337 91.6747L64 90.5L73.8757 88.7605C80.6845 87.5612 85.9769 82.1645 87.0432 75.3336L88.5 66Z" fill="url(#paint0_radial_254_2560)"/>
<path d="M60.1399 33.6646C60.5844 36.5126 62.791 38.7626 65.6298 39.2626L65.7611 39.2858C62.8754 39.6569 60.5875 41.8999 60.1591 44.7777L60.1399 44.907L60.1207 44.7777C59.6923 41.8999 57.4044 39.6569 54.5187 39.2858L54.65 39.2626C57.4888 38.7626 59.6954 36.5126 60.1399 33.6646Z" fill="white" fill-opacity="0.4"/>
<path d="M143.161 74.3105C143.606 77.1586 145.812 79.4086 148.651 79.9086L148.782 79.9318C145.897 80.3029 143.609 82.5459 143.18 85.4237L143.161 85.553L143.142 85.4237C142.713 82.5459 140.426 80.3029 137.54 79.9318L137.671 79.9086C140.51 79.4086 142.716 77.1586 143.161 74.3105Z" fill="white" fill-opacity="0.4"/>
<path d="M109.434 133.982C109.878 136.83 112.085 139.08 114.924 139.58L115.055 139.603C112.169 139.974 109.881 142.217 109.453 145.095L109.434 145.224L109.414 145.095C108.986 142.217 106.698 139.974 103.812 139.603L103.944 139.58C106.783 139.08 108.989 136.83 109.434 133.982Z" fill="white" fill-opacity="0.4"/>
<path d="M37.655 107.173C38.0996 110.021 40.3061 112.271 43.145 112.771L43.2763 112.795C40.3905 113.166 38.1026 115.409 37.6743 118.286L37.655 118.416L37.6358 118.286C37.2075 115.409 34.9195 113.166 32.0338 112.795L32.1651 112.771C35.0039 112.271 37.2105 110.021 37.655 107.173Z" fill="white" fill-opacity="0.4"/>
<path d="M37.3397 94.4984L28.0893 94.962L27.7413 88.0177L36.9918 87.5541L37.0495 88.7072L28.8226 89.1194L29.0544 93.7447L37.2813 93.3324L37.3397 94.4984Z" fill="white" fill-opacity="0.4"/>
<path d="M37.6364 80.5675L37.1062 85.7161L27.8929 84.7672L28.4231 79.6186L29.4425 79.7236L29.0319 83.7108L31.9094 84.0072L32.2962 80.2522L33.3026 80.3559L32.9159 84.1109L36.2064 84.4497L36.617 80.4625L37.6364 80.5675Z" fill="white" fill-opacity="0.4"/>
<path d="M29.565 74.0076C29.8634 72.8342 30.3113 72.0379 30.9087 71.6188C31.5061 71.1996 32.2238 71.0966 33.062 71.3097C33.4307 71.4035 33.771 71.557 34.0826 71.7701C34.388 71.9727 34.6397 72.2464 34.8375 72.5911C35.0354 72.9359 35.1553 73.3591 35.1974 73.8605C35.231 74.3599 35.1625 74.9448 34.992 75.6153L34.7299 76.6462L38.2248 77.535L37.9371 78.6665L28.9608 76.3837L29.565 74.0076ZM30.5075 74.3543L30.2166 75.4984L33.7618 76.4L33.992 75.4948C34.137 74.9249 34.1987 74.4364 34.1773 74.0294C34.1475 73.6203 34.0219 73.2894 33.8006 73.0368C33.5793 72.7843 33.2507 72.6025 32.8149 72.4917C32.2366 72.3446 31.7581 72.4193 31.3793 72.7156C31.0006 73.0119 30.71 73.5581 30.5075 74.3543Z" fill="white" fill-opacity="0.4"/>
<path d="M32.5351 64.9768C32.8357 64.2683 33.155 63.7039 33.493 63.2836C33.8344 62.8554 34.211 62.5877 34.6228 62.4806C35.038 62.3655 35.5043 62.4178 36.0218 62.6373C36.3562 62.7792 36.6277 62.9695 36.8364 63.2083C37.0405 63.4358 37.1777 63.7101 37.2482 64.0312C37.314 64.341 37.3045 64.6845 37.2196 65.0619L37.2793 65.0872C37.487 64.7526 37.7273 64.4741 38.0002 64.2516C38.2764 64.0212 38.5893 63.8815 38.9388 63.8326C39.2884 63.7836 39.6861 63.8537 40.1319 64.0428C40.6494 64.2623 41.0406 64.5692 41.3055 64.9634C41.5624 65.3542 41.6919 65.8131 41.6938 66.34C41.6912 66.8555 41.5598 67.4198 41.2997 68.0328L40.0281 71.0302L31.5016 67.413L32.5351 64.9768ZM36.2566 66.302C36.5674 65.5696 36.6647 65.019 36.5487 64.6504C36.4247 64.2784 36.1318 63.9945 35.67 63.7986C35.2003 63.5993 34.795 63.6246 34.4541 63.8746C34.1087 64.1132 33.7823 64.5947 33.4749 65.3192L32.8771 66.7283L35.5879 67.8783L36.2566 66.302ZM36.4835 68.2583L39.5765 69.5704L40.306 67.8508C40.6269 67.0945 40.7025 66.5066 40.5329 66.087C40.3633 65.6675 40.0397 65.3564 39.562 65.1538C39.2595 65.0254 38.968 64.9816 38.6877 65.0224C38.4108 65.0552 38.1467 65.2015 37.8956 65.4614C37.6398 65.7099 37.4005 66.0968 37.1776 66.6223L36.4835 68.2583Z" fill="white" fill-opacity="0.4"/>
<path d="M46.3343 58.8673L43.3105 58.3014L41.3726 61.4193L43.2254 63.8692L42.6022 64.8717L36.6133 56.888L37.168 55.9956L46.9711 57.8427L46.3343 58.8673ZM39.3167 57.4533C39.2442 57.4388 39.1149 57.4094 38.9287 57.3649C38.7425 57.3204 38.5526 57.2737 38.3591 57.2247C38.1628 57.1638 38.0114 57.1206 37.905 57.0952C38.0291 57.2232 38.1545 57.3572 38.2814 57.4971C38.4055 57.6252 38.5162 57.75 38.6137 57.8717C38.7157 57.986 38.8017 58.0853 38.8716 58.1694L40.6966 60.541L42.2442 58.0511L39.3167 57.4533Z" fill="white" fill-opacity="0.4"/>
<path d="M46.4897 52.5431L47.8395 56.8653L46.9522 57.8986L45.5717 53.2937C45.2723 53.4698 44.9514 53.6046 44.6089 53.6981C44.2721 53.785 43.9133 53.7847 43.5325 53.6971C43.1518 53.6096 42.7547 53.3883 42.3414 53.0334C41.7049 52.4869 41.4081 51.8502 41.451 51.1233C41.4873 50.3908 41.8801 49.5882 42.6293 48.7155L44.3195 46.7472L51.3465 52.7809L50.586 53.6667L47.6728 51.1653L46.4897 52.5431ZM43.4041 49.3465C43.0829 49.7205 42.8552 50.0721 42.7207 50.4012C42.5863 50.7303 42.5518 51.0427 42.6172 51.3382C42.6883 51.6272 42.8714 51.8984 43.1667 52.1519C43.5997 52.5237 44.0583 52.6667 44.5423 52.5808C45.0264 52.495 45.5276 52.1502 46.0459 51.5466L46.9248 50.523L44.3167 48.2836L43.4041 49.3465Z" fill="white" fill-opacity="0.4"/>
<path d="M84.4783 37.0478L83.3224 37.212L82.1642 29.0565L79.2617 29.4687C79.2686 29.9482 79.2749 30.4539 79.2806 30.9859C79.285 31.5094 79.2846 32.0291 79.2793 32.5452C79.2825 33.0601 79.2815 33.5451 79.2763 34C79.271 34.455 79.2578 34.8543 79.2367 35.1979C79.2069 35.7874 79.1392 36.2949 79.0337 36.7204C78.9282 37.1459 78.753 37.4809 78.5082 37.7253C78.2719 37.9685 77.9355 38.1211 77.4988 38.1831C77.3533 38.2038 77.201 38.2079 77.042 38.1956C76.8928 38.1906 76.7595 38.1745 76.6421 38.1475L76.5053 37.1843C76.6056 37.2137 76.7181 37.2371 76.8428 37.2543C76.9663 37.263 77.0966 37.2576 77.2336 37.2381C77.4905 37.2016 77.6771 37.0703 77.7934 36.8441C77.9172 36.6082 78 36.33 78.0418 36.0096C78.0824 35.6807 78.1108 35.3578 78.127 35.0411C78.1431 34.7855 78.1562 34.4473 78.1664 34.0266C78.1753 33.5974 78.1787 33.099 78.1768 32.5315C78.1833 31.9628 78.1832 31.347 78.1765 30.6841C78.177 30.0115 78.1696 29.3137 78.1543 28.5909L83.176 27.8778L84.4783 37.0478Z" fill="white" fill-opacity="0.4"/>
<path d="M91.7646 37.0247L86.5891 36.9642L86.6975 27.7028L91.873 27.7633L91.861 28.788L87.8529 28.7411L87.819 31.6337L91.5936 31.6779L91.5818 32.6896L87.8072 32.6455L87.7685 35.9531L91.7766 36L91.7646 37.0247Z" fill="white" fill-opacity="0.4"/>
<path d="M100.247 28.7836L100.099 29.8108L96.0801 29.2332L94.9102 37.3738L93.7545 37.2078L95.0721 28.0399L100.247 28.7836Z" fill="white" fill-opacity="0.4"/>
<path d="M105.464 39.7576L105.18 36.6946L101.65 35.6852L99.8017 38.1384L98.6668 37.8139L104.704 29.8664L105.714 30.1553L106.624 40.0893L105.464 39.7576ZM104.901 32.6212C104.895 32.5476 104.888 32.4151 104.88 32.2239C104.871 32.0326 104.864 31.8372 104.858 31.6376C104.863 31.4321 104.863 31.2747 104.858 31.1654C104.769 31.3198 104.675 31.4772 104.575 31.6376C104.486 31.792 104.396 31.9327 104.306 32.0598C104.224 32.1893 104.152 32.2991 104.09 32.3894L102.31 34.7945L105.128 35.6005L104.901 32.6212Z" fill="white" fill-opacity="0.4"/>
<path d="M113.469 43.3032L112.414 42.8033L115.941 35.3594L113.292 34.104C113.033 34.508 112.76 34.9334 112.471 35.3805C112.187 35.8198 111.9 36.2533 111.611 36.6811C111.33 37.1126 111.062 37.5167 110.807 37.8934C110.552 38.2702 110.321 38.5961 110.114 38.8713C109.764 39.3468 109.428 39.733 109.106 40.0299C108.783 40.3269 108.452 40.5099 108.113 40.5789C107.782 40.6517 107.417 40.5936 107.019 40.4048C106.886 40.3418 106.757 40.2614 106.631 40.1635C106.509 40.0771 106.407 39.9903 106.323 39.903L106.74 39.0239C106.807 39.1037 106.889 39.1851 106.983 39.2682C107.081 39.3435 107.193 39.4108 107.318 39.47C107.553 39.5811 107.781 39.5744 108.002 39.4498C108.236 39.3211 108.458 39.1345 108.669 38.8902C108.885 38.6381 109.086 38.3843 109.274 38.1289C109.429 37.9245 109.626 37.6495 109.866 37.304C110.11 36.9507 110.388 36.5367 110.699 36.0621C111.017 35.5912 111.357 35.0772 111.716 34.5203C112.087 33.9593 112.466 33.373 112.851 32.7614L117.435 34.9333L113.469 43.3032Z" fill="white" fill-opacity="0.4"/>
<path d="M115.27 44.3593L120.544 36.7453L121.503 37.41L119.273 40.6305L120.702 41.6203C121.413 42.1127 121.911 42.6001 122.198 43.0826C122.484 43.5651 122.607 44.0338 122.565 44.4889C122.524 44.9439 122.362 45.3741 122.082 45.7793C121.771 46.2272 121.398 46.5468 120.96 46.7381C120.529 46.9344 120.048 46.9846 119.514 46.8888C118.981 46.7929 118.402 46.5284 117.776 46.0951L115.27 44.3593ZM118.249 45.2075C118.867 45.6359 119.412 45.8446 119.882 45.8338C120.357 45.8158 120.76 45.5687 121.09 45.0924C121.316 44.7654 121.418 44.4517 121.395 44.1514C121.383 43.849 121.258 43.5517 121.018 43.2595C120.786 42.9723 120.449 42.6761 120.008 42.3708L118.697 41.4623L116.799 44.2029L118.249 45.2075Z" fill="white" fill-opacity="0.4"/>
<path d="M126.92 54.0367L126.089 53.2165L129.124 50.1423L125.745 46.8069L122.71 49.8811L121.879 49.0609L128.386 42.4694L129.217 43.2896L126.465 46.0776L129.844 49.413L132.596 46.625L133.427 47.4452L126.92 54.0367Z" fill="white" fill-opacity="0.4"/>
<path d="M131.856 60.5303L133.525 57.946L131.373 54.9718L128.404 55.7589L127.712 54.8026L137.369 52.2826L137.985 53.1339L132.563 61.5077L131.856 60.5303ZM135.822 54.5707C135.863 54.5091 135.939 54.4005 136.051 54.245C136.162 54.0895 136.277 53.9315 136.396 53.7709C136.527 53.6123 136.624 53.4885 136.688 53.3997C136.522 53.466 136.351 53.5314 136.173 53.5959C136.008 53.6622 135.85 53.7175 135.701 53.7616C135.556 53.8127 135.432 53.8547 135.328 53.8875L132.442 54.6787L134.16 57.0539L135.822 54.5707Z" fill="white" fill-opacity="0.4"/>
<path d="M137.69 63.0962L133.179 62.6978L132.562 61.4837L137.345 61.9615C137.297 61.6176 137.294 61.2695 137.338 60.9173C137.386 60.5727 137.523 60.2411 137.749 59.9224C137.975 59.6037 138.331 59.3209 138.817 59.0739C139.564 58.6936 140.266 58.6617 140.922 58.9782C141.585 59.2908 142.178 59.9597 142.699 60.9849L143.875 63.2974L135.62 67.4962L135.091 66.4556L138.513 64.7149L137.69 63.0962ZM141.821 61.4609C141.597 61.0215 141.359 60.677 141.106 60.4273C140.853 60.1777 140.577 60.0268 140.279 59.9747C139.985 59.9303 139.664 59.9963 139.317 60.1727C138.809 60.4315 138.502 60.801 138.397 61.2813C138.292 61.7616 138.419 62.3563 138.78 63.0655L139.392 64.268L142.456 62.7096L141.821 61.4609Z" fill="white" fill-opacity="0.4"/>
<path d="M139.727 94.4082L148.846 96.0266L147.885 101.442L146.876 101.263L147.633 96.997L144.785 96.4916L144.545 97.8455C144.383 98.7566 144.143 99.4429 143.823 99.9045C143.513 100.368 143.144 100.662 142.718 100.789C142.3 100.916 141.84 100.936 141.338 100.847C140.784 100.748 140.327 100.553 139.966 100.261C139.604 99.9769 139.359 99.5733 139.232 99.0502C139.105 98.5271 139.112 97.8696 139.253 97.0777L139.727 94.4082ZM140.257 97.1372C140.112 97.9547 140.146 98.5536 140.359 98.9341C140.582 99.316 140.978 99.5576 141.548 99.6589C141.94 99.7284 142.265 99.7026 142.524 99.5816C142.789 99.4707 143.005 99.2454 143.171 98.9059C143.335 98.575 143.469 98.1157 143.573 97.5282L143.789 96.3148L140.506 95.7323L140.257 97.1372Z" fill="white" fill-opacity="0.4"/>
<path d="M146.998 105.289L146.629 106.314L141.844 104.593C141.641 104.52 141.418 104.435 141.177 104.34C140.941 104.255 140.707 104.166 140.474 104.073C140.241 103.98 140.033 103.891 139.852 103.808C139.676 103.735 139.541 103.677 139.446 103.634L139.428 103.683L144.917 111.075L144.478 112.295L135.763 109.161L136.131 108.135L140.867 109.839C141.087 109.918 141.322 110.007 141.571 110.106C141.829 110.207 142.074 110.305 142.307 110.398C142.545 110.502 142.756 110.592 142.941 110.667C143.125 110.743 143.26 110.8 143.347 110.841L143.364 110.792L137.843 103.375L138.282 102.154L146.998 105.289Z" fill="white" fill-opacity="0.4"/>
<path d="M141.776 117.632C141.18 118.687 140.539 119.338 139.853 119.585C139.166 119.833 138.447 119.745 137.694 119.319C137.362 119.132 137.074 118.895 136.829 118.607C136.588 118.332 136.417 118.002 136.316 117.617C136.216 117.233 136.211 116.793 136.302 116.298C136.4 115.807 136.62 115.261 136.96 114.658L137.483 113.732L134.343 111.958L134.918 110.942L142.982 115.498L141.776 117.632ZM140.957 117.051L141.538 116.023L138.353 114.223L137.893 115.037C137.604 115.549 137.416 116.004 137.33 116.402C137.252 116.805 137.286 117.157 137.434 117.459C137.581 117.761 137.85 118.022 138.242 118.243C138.761 118.537 139.243 118.59 139.686 118.404C140.129 118.217 140.553 117.766 140.957 117.051Z" fill="white" fill-opacity="0.4"/>
<path d="M133.248 122.556L139.007 122.651L138.181 123.651L132.465 123.524L135.926 126.382L135.215 127.242L131.754 124.384L132.961 129.973L132.135 130.973L130.962 125.345L124.918 125.166L125.769 124.136L131.694 124.335L128.073 121.345L128.784 120.485L132.405 123.475L131.096 117.684L131.947 116.654L133.248 122.556Z" fill="white" fill-opacity="0.4"/>
<path d="M119.54 129.575L122.239 131.051L125.048 128.688L124.047 125.784L124.95 125.024L128.167 134.472L127.363 135.148L118.616 130.352L119.54 129.575ZM125.773 133.096C125.837 133.132 125.951 133.2 126.114 133.3C126.277 133.4 126.443 133.504 126.612 133.61C126.78 133.729 126.91 133.817 127.004 133.874C126.925 133.714 126.848 133.548 126.77 133.375C126.692 133.215 126.626 133.062 126.571 132.916C126.509 132.776 126.458 132.655 126.418 132.553L125.418 129.732L123.175 131.62L125.773 133.096Z" fill="white" fill-opacity="0.4"/>
<path d="M96.3338 148.635C95.1312 148.775 94.2275 148.641 93.6229 148.232C93.0183 147.823 92.6661 147.189 92.5664 146.33C92.5225 145.952 92.5446 145.58 92.6326 145.213C92.713 144.855 92.8789 144.522 93.1305 144.215C93.3821 143.907 93.7346 143.644 94.1882 143.426C94.6427 143.216 95.2136 143.072 95.9008 142.992L96.9574 142.869L96.5416 139.287L97.7013 139.153L98.7692 148.353L96.3338 148.635ZM96.3218 147.631L97.4943 147.495L97.0726 143.861L96.1448 143.969C95.5607 144.037 95.0823 144.153 94.7097 144.319C94.3381 144.492 94.0737 144.728 93.9166 145.024C93.7596 145.321 93.7069 145.693 93.7588 146.14C93.8276 146.732 94.0679 147.153 94.4798 147.401C94.8917 147.649 95.5057 147.726 96.3218 147.631Z" fill="white" fill-opacity="0.4"/>
<path d="M81.3027 144.198C81.3424 143.481 81.4691 142.834 81.683 142.257C81.8963 141.689 82.1961 141.203 82.5822 140.8C82.9596 140.396 83.4222 140.097 83.97 139.902C84.5092 139.707 85.1285 139.629 85.8279 139.667C86.5532 139.708 87.1774 139.855 87.7003 140.109C88.2227 140.372 88.6495 140.72 88.9806 141.154C89.3112 141.597 89.5466 142.117 89.6867 142.713C89.8269 143.31 89.8772 143.967 89.8375 144.683C89.7849 145.633 89.5836 146.454 89.2335 147.144C88.8834 147.835 88.3822 148.362 87.7299 148.724C87.0689 149.086 86.2549 149.24 85.2878 149.187C84.3639 149.135 83.5977 148.894 82.9894 148.462C82.3806 148.038 81.9362 147.459 81.6564 146.725C81.3675 145.999 81.2496 145.156 81.3027 144.198ZM88.6077 144.602C88.6508 143.825 88.5799 143.15 88.3951 142.577C88.2103 142.004 87.9018 141.553 87.4695 141.226C87.0286 140.899 86.4627 140.716 85.772 140.678C85.0725 140.639 84.4943 140.759 84.0372 141.036C83.5714 141.314 83.2151 141.727 82.9681 142.276C82.7212 142.826 82.5762 143.489 82.5331 144.266C82.4686 145.432 82.6599 146.356 83.1071 147.039C83.5539 147.731 84.2996 148.105 85.3445 148.163C86.0439 148.202 86.6308 148.083 87.1051 147.806C87.5704 147.537 87.9265 147.128 88.1735 146.579C88.4199 146.038 88.5647 145.38 88.6077 144.602Z" fill="white" fill-opacity="0.4"/>
<path d="M74.4042 146.555C74.8849 146.665 75.3383 146.679 75.7646 146.598C76.1889 146.526 76.5724 146.361 76.915 146.101C77.2557 145.851 77.5495 145.514 77.7962 145.091C78.0411 144.677 78.2277 144.187 78.356 143.622C78.5245 142.88 78.5572 142.209 78.4539 141.609C78.3423 141.007 78.0923 140.507 77.7039 140.108C77.3071 139.708 76.7629 139.429 76.0714 139.272C75.675 139.182 75.2921 139.13 74.9225 139.117C74.553 139.105 74.1881 139.11 73.8278 139.135L74.0518 138.148C74.4179 138.098 74.7889 138.085 75.165 138.108C75.5326 138.13 75.9652 138.197 76.4627 138.31C77.382 138.519 78.1063 138.883 78.6358 139.402C79.1652 139.921 79.5065 140.566 79.6596 141.337C79.8043 142.106 79.7694 142.963 79.5549 143.907C79.3998 144.59 79.1653 145.193 78.8514 145.716C78.5292 146.237 78.1398 146.663 77.6833 146.994C77.2184 147.323 76.6912 147.536 76.1017 147.633C75.5103 147.738 74.8645 147.711 74.1646 147.552C73.7007 147.447 73.2643 147.299 72.8553 147.108C72.4462 146.918 72.0922 146.7 71.7932 146.455L72.4669 145.597C72.7165 145.786 73.0026 145.971 73.3254 146.151C73.6398 146.329 73.9994 146.464 74.4042 146.555Z" fill="white" fill-opacity="0.4"/>
<path d="M65.5616 143.668C66.0196 143.851 66.4654 143.935 66.8989 143.921C67.3293 143.916 67.7338 143.811 68.1125 143.608C68.4879 143.414 68.8303 143.126 69.1396 142.747C69.4457 142.375 69.7058 141.92 69.9201 141.382C70.2015 140.675 70.3377 140.017 70.3286 139.408C70.3115 138.797 70.142 138.264 69.82 137.81C69.49 137.353 68.9956 136.993 68.3367 136.731C67.9591 136.581 67.5887 136.47 67.2257 136.4C66.8626 136.33 66.5012 136.28 66.1414 136.248L66.5156 135.308C66.885 135.315 67.2536 135.36 67.6215 135.441C67.9813 135.519 68.3983 135.652 68.8724 135.841C69.7482 136.19 70.4074 136.661 70.8501 137.256C71.2927 137.851 71.53 138.542 71.5618 139.327C71.5856 140.109 71.4185 140.95 71.0603 141.85C70.8013 142.501 70.4762 143.06 70.0852 143.528C69.6861 143.993 69.2355 144.353 68.7333 144.61C68.223 144.863 67.6692 144.991 67.0718 144.995C66.4712 145.008 65.8375 144.881 65.1706 144.616C64.7286 144.44 64.3204 144.226 63.9458 143.975C63.5712 143.723 63.2551 143.453 62.9977 143.164L63.7962 142.421C64.0134 142.647 64.2675 142.874 64.5585 143.102C64.8416 143.326 65.1759 143.515 65.5616 143.668Z" fill="white" fill-opacity="0.4"/>
<path d="M60.2789 142.312L59.3491 141.744L62.0005 137.404C62.1132 137.22 62.2409 137.019 62.3836 136.802C62.5143 136.588 62.6488 136.377 62.7869 136.167C62.9251 135.958 63.0534 135.773 63.1718 135.612C63.2784 135.454 63.3625 135.333 63.4239 135.249L63.3797 135.222L55.0321 139.106L53.9252 138.429L58.7545 130.526L59.6843 131.094L57.06 135.389C56.9383 135.588 56.8038 135.8 56.6566 136.024C56.505 136.256 56.3601 136.476 56.2219 136.686C56.0719 136.898 55.9413 137.087 55.8302 137.252C55.7191 137.417 55.6351 137.538 55.5781 137.615L55.6224 137.642L64.0013 133.732L65.1082 134.408L60.2789 142.312Z" fill="white" fill-opacity="0.4"/>
<path d="M50.8883 136.209L50.0783 135.48L53.4793 131.7C53.6239 131.539 53.7861 131.365 53.9661 131.178C54.1338 130.992 54.3048 130.808 54.4789 130.627C54.6531 130.447 54.8131 130.288 54.959 130.152C55.0927 130.016 55.1975 129.913 55.2733 129.841L55.2347 129.807L46.3172 132.096L45.3528 131.229L51.5475 124.343L52.3576 125.072L48.9913 128.814C48.8351 128.987 48.6642 129.171 48.4784 129.364C48.2869 129.564 48.1041 129.755 47.9299 129.935C47.7435 130.117 47.5806 130.278 47.4412 130.42C47.3017 130.562 47.1969 130.666 47.1269 130.731L47.1655 130.766L56.1186 128.456L57.083 129.323L50.8883 136.209Z" fill="white" fill-opacity="0.4"/>
<defs>
<radialGradient id="paint0_radial_254_2560" cx="0" cy="0" r="1" gradientUnits="userSpaceOnUse" gradientTransform="translate(107.404 77.8103) rotate(143.774) scale(47.5434 43.316)">
<stop stop-color="#7388FF"/>
<stop offset="0.503425" stop-color="#CA73FF"/>
<stop offset="1" stop-color="#FF94B4"/>
</radialGradient>
</defs>
</svg>
