<svg width="284" height="264" viewBox="0 0 284 264" fill="none" xmlns="http://www.w3.org/2000/svg">
<g style="mix-blend-mode:hard-light" filter="url(#filter0_f_254_5048)">
<path d="M156.072 119.295C156.072 127.299 149.7 133.718 141.752 133.718C133.804 133.718 127.431 127.299 127.431 119.295C127.431 111.287 133.804 104.875 141.752 104.875C149.7 104.875 156.072 111.287 156.072 119.295Z" stroke="#6A2CAD" stroke-width="5.65845"/>
<path d="M141.752 159.381C130.078 159.381 120.11 157.528 120.11 150.115C120.11 142.7 130.014 140.779 141.752 140.779C153.425 140.779 163.393 142.633 163.393 150.048C163.393 157.46 153.489 159.381 141.752 159.381Z" stroke="#6A2CAD" stroke-width="5.65845"/>
<path d="M162.192 119.555C162.192 123.635 160.977 127.437 158.844 130.597C158.625 130.922 158.82 131.361 159.207 131.428C159.74 131.52 160.291 131.572 160.852 131.588C166.442 131.735 171.459 128.112 172.845 122.657C174.899 114.554 168.87 107.28 161.193 107.28C160.358 107.28 159.56 107.369 158.783 107.528C158.677 107.553 158.564 107.602 158.503 107.697C158.43 107.814 158.485 107.97 158.558 108.071C160.864 111.326 162.192 115.296 162.192 119.555Z" stroke="#6A2CAD" stroke-width="5.65845"/>
<path d="M171.45 137.281C175.206 138.02 177.677 139.53 178.7 141.723C179.565 143.524 179.565 145.613 178.7 147.411C177.135 150.814 172.087 151.906 170.125 152.188C169.72 152.25 169.394 151.897 169.436 151.489C170.439 142.061 162.467 137.591 160.404 136.563C160.316 136.517 160.297 136.446 160.306 136.403C160.313 136.373 160.349 136.323 160.416 136.314C164.879 136.231 169.677 136.845 171.45 137.281Z" stroke="#6A2CAD" stroke-width="5.65845"/>
<path d="M122.999 131.587C123.559 131.572 124.108 131.523 124.644 131.428C125.031 131.36 125.226 130.922 125.006 130.596C122.874 127.436 121.659 123.635 121.659 119.555C121.659 115.296 122.987 111.326 125.293 108.071C125.366 107.97 125.418 107.813 125.348 107.697C125.287 107.605 125.171 107.552 125.067 107.528C124.288 107.368 123.489 107.279 122.655 107.279C114.978 107.279 108.949 114.554 111.006 122.656C112.392 128.111 117.409 131.735 122.999 131.587Z" stroke="#6A2CAD" stroke-width="5.65845"/>
<path d="M123.543 136.401C123.552 136.447 123.534 136.515 123.448 136.564C121.383 137.592 113.41 142.062 114.413 151.487C114.455 151.898 114.133 152.248 113.727 152.189C111.766 151.907 106.718 150.815 105.152 147.413C104.284 145.612 104.284 143.525 105.152 141.724C106.176 139.531 108.643 138.021 112.399 137.279C114.175 136.846 118.97 136.233 123.436 136.315C123.503 136.325 123.536 136.374 123.543 136.401Z" stroke="#6A2CAD" stroke-width="5.65845"/>
</g>
<g style="mix-blend-mode:hard-light" filter="url(#filter1_f_254_5048)">
<path d="M156.072 119.295C156.072 127.299 149.7 133.718 141.752 133.718C133.804 133.718 127.431 127.299 127.431 119.295C127.431 111.287 133.804 104.875 141.752 104.875C149.7 104.875 156.072 111.287 156.072 119.295Z" stroke="#6A2CAD" stroke-width="7.39951"/>
<path d="M141.752 159.381C130.078 159.381 120.11 157.528 120.11 150.115C120.11 142.7 130.014 140.779 141.752 140.779C153.425 140.779 163.393 142.633 163.393 150.048C163.393 157.46 153.489 159.381 141.752 159.381Z" stroke="#6A2CAD" stroke-width="7.39951"/>
<path d="M162.192 119.555C162.192 123.635 160.977 127.437 158.844 130.597C158.625 130.922 158.82 131.361 159.207 131.428C159.74 131.52 160.291 131.572 160.852 131.588C166.442 131.735 171.459 128.112 172.845 122.657C174.899 114.554 168.87 107.28 161.193 107.28C160.358 107.28 159.56 107.369 158.783 107.528C158.677 107.553 158.564 107.602 158.503 107.697C158.43 107.814 158.485 107.97 158.558 108.071C160.864 111.326 162.192 115.296 162.192 119.555Z" stroke="#6A2CAD" stroke-width="7.39951"/>
<path d="M171.45 137.281C175.206 138.02 177.677 139.53 178.7 141.723C179.565 143.524 179.565 145.613 178.7 147.411C177.135 150.814 172.087 151.906 170.125 152.188C169.72 152.25 169.394 151.897 169.436 151.489C170.439 142.061 162.467 137.591 160.404 136.563C160.316 136.517 160.297 136.446 160.306 136.403C160.313 136.373 160.349 136.323 160.416 136.314C164.879 136.231 169.677 136.845 171.45 137.281Z" stroke="#6A2CAD" stroke-width="7.39951"/>
<path d="M122.999 131.587C123.559 131.572 124.108 131.523 124.644 131.428C125.031 131.36 125.226 130.922 125.006 130.596C122.874 127.436 121.659 123.635 121.659 119.555C121.659 115.296 122.987 111.326 125.293 108.071C125.366 107.97 125.418 107.813 125.348 107.697C125.287 107.605 125.171 107.552 125.067 107.528C124.288 107.368 123.489 107.279 122.655 107.279C114.978 107.279 108.949 114.554 111.006 122.656C112.392 128.111 117.409 131.735 122.999 131.587Z" stroke="#6A2CAD" stroke-width="7.39951"/>
<path d="M123.543 136.401C123.552 136.447 123.534 136.515 123.448 136.564C121.383 137.592 113.41 142.062 114.413 151.487C114.455 151.898 114.133 152.248 113.727 152.189C111.766 151.907 106.718 150.815 105.152 147.413C104.284 145.612 104.284 143.525 105.152 141.724C106.176 139.531 108.643 138.021 112.399 137.279C114.175 136.846 118.97 136.233 123.436 136.315C123.503 136.325 123.536 136.374 123.543 136.401Z" stroke="#6A2CAD" stroke-width="7.39951"/>
</g>
<g style="mix-blend-mode:hard-light" filter="url(#filter2_ddi_254_5048)">
<path d="M156.072 119.295C156.072 127.299 149.7 133.718 141.752 133.718C133.804 133.718 127.431 127.299 127.431 119.295C127.431 111.287 133.804 104.875 141.752 104.875C149.7 104.875 156.072 111.287 156.072 119.295Z" stroke="#6A2CAD" stroke-opacity="0.2" stroke-width="5.65845"/>
<path d="M141.752 159.381C130.078 159.381 120.11 157.528 120.11 150.115C120.11 142.7 130.014 140.779 141.752 140.779C153.425 140.779 163.393 142.633 163.393 150.048C163.393 157.46 153.489 159.381 141.752 159.381Z" stroke="#6A2CAD" stroke-opacity="0.2" stroke-width="5.65845"/>
<path d="M162.192 119.555C162.192 123.635 160.977 127.437 158.844 130.597C158.625 130.922 158.82 131.361 159.207 131.428C159.74 131.52 160.291 131.572 160.852 131.588C166.442 131.735 171.459 128.112 172.845 122.657C174.899 114.554 168.87 107.28 161.193 107.28C160.358 107.28 159.56 107.369 158.783 107.528C158.677 107.553 158.564 107.602 158.503 107.697C158.43 107.814 158.485 107.97 158.558 108.071C160.864 111.326 162.192 115.296 162.192 119.555Z" stroke="#6A2CAD" stroke-opacity="0.2" stroke-width="5.65845"/>
<path d="M171.45 137.281C175.206 138.02 177.677 139.53 178.7 141.723C179.565 143.524 179.565 145.613 178.7 147.411C177.135 150.814 172.087 151.906 170.125 152.188C169.72 152.25 169.394 151.897 169.436 151.489C170.439 142.061 162.467 137.591 160.404 136.563C160.316 136.517 160.297 136.446 160.306 136.403C160.313 136.373 160.349 136.323 160.416 136.314C164.879 136.231 169.677 136.845 171.45 137.281Z" stroke="#6A2CAD" stroke-opacity="0.2" stroke-width="5.65845"/>
<path d="M122.999 131.587C123.559 131.572 124.108 131.523 124.644 131.428C125.031 131.36 125.226 130.922 125.006 130.596C122.874 127.436 121.659 123.635 121.659 119.555C121.659 115.296 122.987 111.326 125.293 108.071C125.366 107.97 125.418 107.813 125.348 107.697C125.287 107.605 125.171 107.552 125.067 107.528C124.288 107.368 123.489 107.279 122.655 107.279C114.978 107.279 108.949 114.554 111.006 122.656C112.392 128.111 117.409 131.735 122.999 131.587Z" stroke="#6A2CAD" stroke-opacity="0.2" stroke-width="5.65845"/>
<path d="M123.543 136.401C123.552 136.447 123.534 136.515 123.448 136.564C121.383 137.592 113.41 142.062 114.413 151.487C114.455 151.898 114.133 152.248 113.727 152.189C111.766 151.907 106.718 150.815 105.152 147.413C104.284 145.612 104.284 143.525 105.152 141.724C106.176 139.531 108.643 138.021 112.399 137.279C114.175 136.846 118.97 136.233 123.436 136.315C123.503 136.325 123.536 136.374 123.543 136.401Z" stroke="#6A2CAD" stroke-opacity="0.2" stroke-width="5.65845"/>
</g>
<g filter="url(#filter3_f_254_5048)">
<path d="M156.072 119.295C156.072 127.299 149.7 133.718 141.752 133.718C133.804 133.718 127.431 127.299 127.431 119.295C127.431 111.287 133.804 104.875 141.752 104.875C149.7 104.875 156.072 111.287 156.072 119.295Z" stroke="#6A2CAD" stroke-width="3.48212"/>
<path d="M141.752 159.381C130.078 159.381 120.11 157.528 120.11 150.115C120.11 142.7 130.014 140.779 141.752 140.779C153.425 140.779 163.393 142.633 163.393 150.048C163.393 157.46 153.489 159.381 141.752 159.381Z" stroke="#6A2CAD" stroke-width="3.48212"/>
<path d="M162.192 119.555C162.192 123.635 160.977 127.437 158.844 130.597C158.625 130.922 158.82 131.361 159.207 131.428C159.74 131.52 160.291 131.572 160.852 131.588C166.442 131.735 171.459 128.112 172.845 122.657C174.899 114.554 168.87 107.28 161.193 107.28C160.358 107.28 159.56 107.369 158.783 107.528C158.677 107.553 158.564 107.602 158.503 107.697C158.43 107.814 158.485 107.97 158.558 108.071C160.864 111.326 162.192 115.296 162.192 119.555Z" stroke="#6A2CAD" stroke-width="3.48212"/>
<path d="M171.45 137.281C175.206 138.02 177.677 139.53 178.7 141.723C179.565 143.524 179.565 145.613 178.7 147.411C177.135 150.814 172.087 151.906 170.125 152.188C169.72 152.25 169.394 151.897 169.436 151.489C170.439 142.061 162.467 137.591 160.404 136.563C160.316 136.517 160.297 136.446 160.306 136.403C160.313 136.373 160.349 136.323 160.416 136.314C164.879 136.231 169.677 136.845 171.45 137.281Z" stroke="#6A2CAD" stroke-width="3.48212"/>
<path d="M122.999 131.587C123.559 131.572 124.108 131.523 124.644 131.428C125.031 131.36 125.226 130.922 125.006 130.596C122.874 127.436 121.659 123.635 121.659 119.555C121.659 115.296 122.987 111.326 125.293 108.071C125.366 107.97 125.418 107.813 125.348 107.697C125.287 107.605 125.171 107.552 125.067 107.528C124.288 107.368 123.489 107.279 122.655 107.279C114.978 107.279 108.949 114.554 111.006 122.656C112.392 128.111 117.409 131.735 122.999 131.587Z" stroke="#6A2CAD" stroke-width="3.48212"/>
<path d="M123.543 136.401C123.552 136.447 123.534 136.515 123.448 136.564C121.383 137.592 113.41 142.062 114.413 151.487C114.455 151.898 114.133 152.248 113.727 152.189C111.766 151.907 106.718 150.815 105.152 147.413C104.284 145.612 104.284 143.525 105.152 141.724C106.176 139.531 108.643 138.021 112.399 137.279C114.175 136.846 118.97 136.233 123.436 136.315C123.503 136.325 123.536 136.374 123.543 136.401Z" stroke="#6A2CAD" stroke-width="3.48212"/>
</g>
<g filter="url(#filter4_f_254_5048)">
<path d="M156.072 119.295C156.072 127.299 149.7 133.718 141.752 133.718C133.804 133.718 127.431 127.299 127.431 119.295C127.431 111.287 133.804 104.875 141.752 104.875C149.7 104.875 156.072 111.287 156.072 119.295Z" stroke="white" stroke-width="1.74106"/>
<path d="M141.752 159.381C130.078 159.381 120.11 157.528 120.11 150.115C120.11 142.7 130.014 140.779 141.752 140.779C153.425 140.779 163.393 142.633 163.393 150.048C163.393 157.46 153.489 159.381 141.752 159.381Z" stroke="white" stroke-width="1.74106"/>
<path d="M162.192 119.555C162.192 123.635 160.977 127.437 158.844 130.597C158.625 130.922 158.82 131.361 159.207 131.428C159.74 131.52 160.291 131.572 160.852 131.588C166.442 131.735 171.459 128.112 172.845 122.657C174.899 114.554 168.87 107.28 161.193 107.28C160.358 107.28 159.56 107.369 158.783 107.528C158.677 107.553 158.564 107.602 158.503 107.697C158.43 107.814 158.485 107.97 158.558 108.071C160.864 111.326 162.192 115.296 162.192 119.555Z" stroke="white" stroke-width="1.74106"/>
<path d="M171.45 137.281C175.206 138.02 177.677 139.53 178.7 141.723C179.565 143.524 179.565 145.613 178.7 147.411C177.135 150.814 172.087 151.906 170.125 152.188C169.72 152.25 169.394 151.897 169.436 151.489C170.439 142.061 162.467 137.591 160.404 136.563C160.316 136.517 160.297 136.446 160.306 136.403C160.313 136.373 160.349 136.323 160.416 136.314C164.879 136.231 169.677 136.845 171.45 137.281Z" stroke="white" stroke-width="1.74106"/>
<path d="M122.999 131.587C123.559 131.572 124.108 131.523 124.644 131.428C125.031 131.36 125.226 130.922 125.006 130.596C122.874 127.436 121.659 123.635 121.659 119.555C121.659 115.296 122.987 111.326 125.293 108.071C125.366 107.97 125.418 107.813 125.348 107.697C125.287 107.605 125.171 107.552 125.067 107.528C124.288 107.368 123.489 107.279 122.655 107.279C114.978 107.279 108.949 114.554 111.006 122.656C112.392 128.111 117.409 131.735 122.999 131.587Z" stroke="white" stroke-width="1.74106"/>
<path d="M123.543 136.401C123.552 136.447 123.534 136.515 123.448 136.564C121.383 137.592 113.41 142.062 114.413 151.487C114.455 151.898 114.133 152.248 113.727 152.189C111.766 151.907 106.718 150.815 105.152 147.413C104.284 145.612 104.284 143.525 105.152 141.724C106.176 139.531 108.643 138.021 112.399 137.279C114.175 136.846 118.97 136.233 123.436 136.315C123.503 136.325 123.536 136.374 123.543 136.401Z" stroke="white" stroke-width="1.74106"/>
</g>
<g filter="url(#filter5_b_254_5048)">
<path d="M156.053 119.275C156.053 127.268 149.683 133.677 141.738 133.677C133.793 133.677 127.422 127.268 127.422 119.275C127.422 111.278 133.793 104.875 141.738 104.875C149.683 104.875 156.053 111.278 156.053 119.275Z" fill="#6A2CAD" fill-opacity="0.01"/>
<path d="M141.738 159.304C130.069 159.304 120.105 157.454 120.105 150.052C120.105 142.647 130.005 140.729 141.738 140.729C153.407 140.729 163.371 142.58 163.371 149.985C163.371 157.387 153.471 159.304 141.738 159.304Z" fill="#6A2CAD" fill-opacity="0.01"/>
<path d="M162.171 119.534C162.171 123.609 160.956 127.405 158.824 130.561C158.605 130.885 158.8 131.324 159.186 131.391C159.719 131.483 160.271 131.535 160.831 131.55C166.419 131.697 171.434 128.079 172.82 122.632C174.872 114.54 168.846 107.276 161.172 107.276C160.337 107.276 159.54 107.365 158.763 107.525C158.657 107.549 158.544 107.598 158.483 107.693C158.41 107.809 158.465 107.966 158.538 108.067C160.843 111.317 162.171 115.282 162.171 119.534Z" fill="#6A2CAD" fill-opacity="0.01"/>
<path d="M171.425 137.235C175.18 137.974 177.649 139.481 178.673 141.672C179.537 143.47 179.537 145.556 178.673 147.352C177.107 150.749 172.061 151.84 170.1 152.122C169.695 152.183 169.369 151.831 169.412 151.423C170.414 142.009 162.445 137.545 160.383 136.518C160.295 136.472 160.277 136.402 160.286 136.359C160.292 136.328 160.328 136.279 160.395 136.27C164.856 136.187 169.653 136.8 171.425 137.235Z" fill="#6A2CAD" fill-opacity="0.01"/>
<path d="M122.992 131.55C123.553 131.535 124.101 131.486 124.637 131.391C125.023 131.323 125.218 130.885 124.999 130.56C122.867 127.405 121.652 123.609 121.652 119.534C121.652 115.282 122.98 111.317 125.285 108.067C125.358 107.965 125.41 107.809 125.34 107.693C125.279 107.601 125.163 107.549 125.06 107.524C124.28 107.365 123.482 107.276 122.648 107.276C114.974 107.276 108.948 114.54 111.003 122.631C112.389 128.079 117.404 131.697 122.992 131.55Z" fill="#6A2CAD" fill-opacity="0.01"/>
<path d="M123.536 136.357C123.545 136.403 123.526 136.471 123.441 136.52C121.377 137.546 113.407 142.01 114.409 151.422C114.452 151.832 114.129 152.181 113.724 152.123C111.763 151.841 106.717 150.751 105.152 147.353C104.284 145.554 104.284 143.471 105.152 141.673C106.175 139.482 108.642 137.975 112.396 137.233C114.172 136.801 118.965 136.189 123.429 136.271C123.496 136.281 123.53 136.33 123.536 136.357Z" fill="#6A2CAD" fill-opacity="0.01"/>
</g>
<defs>
<filter id="filter0_f_254_5048" x="0.189766" y="0.563545" width="283.471" height="263.129" filterUnits="userSpaceOnUse" color-interpolation-filters="sRGB">
<feFlood flood-opacity="0" result="BackgroundImageFix"/>
<feBlend mode="normal" in="SourceGraphic" in2="BackgroundImageFix" result="shape"/>
<feGaussianBlur stdDeviation="50.7411" result="effect1_foregroundBlur_254_5048"/>
</filter>
<filter id="filter1_f_254_5048" x="66.9734" y="67.3479" width="149.903" height="129.56" filterUnits="userSpaceOnUse" color-interpolation-filters="sRGB">
<feFlood flood-opacity="0" result="BackgroundImageFix"/>
<feBlend mode="normal" in="SourceGraphic" in2="BackgroundImageFix" result="shape"/>
<feGaussianBlur stdDeviation="16.9137" result="effect1_foregroundBlur_254_5048"/>
</filter>
<filter id="filter2_ddi_254_5048" x="57.6963" y="91.8974" width="168.458" height="148.116" filterUnits="userSpaceOnUse" color-interpolation-filters="sRGB">
<feFlood flood-opacity="0" result="BackgroundImageFix"/>
<feColorMatrix in="SourceAlpha" type="matrix" values="0 0 0 0 0 0 0 0 0 0 0 0 0 0 0 0 0 0 127 0" result="hardAlpha"/>
<feOffset dy="21.9878"/>
<feGaussianBlur stdDeviation="8.45684"/>
<feColorMatrix type="matrix" values="0 0 0 0 0.0382353 0 0 0 0 0.0647059 0 0 0 0 0.261765 0 0 0 0.7 0"/>
<feBlend mode="multiply" in2="BackgroundImageFix" result="effect1_dropShadow_254_5048"/>
<feColorMatrix in="SourceAlpha" type="matrix" values="0 0 0 0 0 0 0 0 0 0 0 0 0 0 0 0 0 0 127 0" result="hardAlpha"/>
<feOffset dy="33.8274"/>
<feGaussianBlur stdDeviation="21.9878"/>
<feColorMatrix type="matrix" values="0 0 0 0 0.0764706 0 0 0 0 0.129412 0 0 0 0 0.523529 0 0 0 1 0"/>
<feBlend mode="color-dodge" in2="effect1_dropShadow_254_5048" result="effect2_dropShadow_254_5048"/>
<feBlend mode="normal" in="SourceGraphic" in2="effect2_dropShadow_254_5048" result="shape"/>
<feColorMatrix in="SourceAlpha" type="matrix" values="0 0 0 0 0 0 0 0 0 0 0 0 0 0 0 0 0 0 127 0" result="hardAlpha"/>
<feOffset dx="-2.19878" dy="4.39756"/>
<feGaussianBlur stdDeviation="1.09939"/>
<feComposite in2="hardAlpha" operator="arithmetic" k2="-1" k3="1"/>
<feColorMatrix type="matrix" values="0 0 0 0 1 0 0 0 0 1 0 0 0 0 1 0 0 0 0.5 0"/>
<feBlend mode="normal" in2="shape" result="effect3_innerShadow_254_5048"/>
</filter>
<filter id="filter3_f_254_5048" x="101.889" y="102.264" width="80.0711" height="59.7291" filterUnits="userSpaceOnUse" color-interpolation-filters="sRGB">
<feFlood flood-opacity="0" result="BackgroundImageFix"/>
<feBlend mode="normal" in="SourceGraphic" in2="BackgroundImageFix" result="shape"/>
<feGaussianBlur stdDeviation="0.435265" result="effect1_foregroundBlur_254_5048"/>
</filter>
<filter id="filter4_f_254_5048" x="103.051" y="103.424" width="77.7496" height="57.4078" filterUnits="userSpaceOnUse" color-interpolation-filters="sRGB">
<feFlood flood-opacity="0" result="BackgroundImageFix"/>
<feBlend mode="normal" in="SourceGraphic" in2="BackgroundImageFix" result="shape"/>
<feGaussianBlur stdDeviation="0.290177" result="effect1_foregroundBlur_254_5048"/>
</filter>
<filter id="filter5_b_254_5048" x="84.101" y="84.475" width="115.62" height="95.2295" filterUnits="userSpaceOnUse" color-interpolation-filters="sRGB">
<feFlood flood-opacity="0" result="BackgroundImageFix"/>
<feGaussianBlur in="BackgroundImage" stdDeviation="10.2"/>
<feComposite in2="SourceAlpha" operator="in" result="effect1_backgroundBlur_254_5048"/>
<feBlend mode="normal" in="SourceGraphic" in2="effect1_backgroundBlur_254_5048" result="shape"/>
</filter>
</defs>
</svg>
