<svg width="220" height="230" viewBox="0 0 220 230" fill="none" xmlns="http://www.w3.org/2000/svg">
<g style="mix-blend-mode:hard-light" filter="url(#filter0_f_254_5053)">
<path fill-rule="evenodd" clip-rule="evenodd" d="M127.713 100.315V105.307C133.312 107.057 137.392 112.132 137.392 118.194V134.265C137.392 141.77 131.178 147.854 123.517 147.854H96.0028C88.3387 147.854 82.125 141.77 82.125 134.265V118.194C82.125 112.132 86.2081 107.057 91.8042 105.307V100.315C91.8372 90.6107 99.8645 82.75 109.709 82.75C119.685 82.75 127.713 90.6107 127.713 100.315ZM109.775 88.411C116.481 88.411 121.932 93.7485 121.932 100.315V104.605H97.5853V100.25C97.6184 93.7161 103.069 88.411 109.775 88.411ZM112.649 129.804C112.649 131.389 111.361 132.651 109.742 132.651C108.156 132.651 106.868 131.389 106.868 129.804V122.623C106.868 121.07 108.156 119.808 109.742 119.808C111.361 119.808 112.649 121.07 112.649 122.623V129.804Z" stroke="#6A2CAD" stroke-width="4.438"/>
</g>
<g style="mix-blend-mode:hard-light" filter="url(#filter1_f_254_5053)">
<path fill-rule="evenodd" clip-rule="evenodd" d="M127.713 100.315V105.307C133.312 107.057 137.392 112.132 137.392 118.194V134.265C137.392 141.77 131.178 147.854 123.517 147.854H96.0028C88.3387 147.854 82.125 141.77 82.125 134.265V118.194C82.125 112.132 86.2081 107.057 91.8042 105.307V100.315C91.8372 90.6107 99.8645 82.75 109.709 82.75C119.685 82.75 127.713 90.6107 127.713 100.315ZM109.775 88.411C116.481 88.411 121.932 93.7485 121.932 100.315V104.605H97.5853V100.25C97.6184 93.7161 103.069 88.411 109.775 88.411ZM112.649 129.804C112.649 131.389 111.361 132.651 109.742 132.651C108.156 132.651 106.868 131.389 106.868 129.804V122.623C106.868 121.07 108.156 119.808 109.742 119.808C111.361 119.808 112.649 121.07 112.649 122.623V129.804Z" stroke="#6A2CAD" stroke-width="5.80354"/>
</g>
<g style="mix-blend-mode:hard-light" filter="url(#filter2_ddi_254_5053)">
<path fill-rule="evenodd" clip-rule="evenodd" d="M127.713 100.315V105.307C133.312 107.057 137.392 112.132 137.392 118.194V134.265C137.392 141.77 131.178 147.854 123.517 147.854H96.0028C88.3387 147.854 82.125 141.77 82.125 134.265V118.194C82.125 112.132 86.2081 107.057 91.8042 105.307V100.315C91.8372 90.6107 99.8645 82.75 109.709 82.75C119.685 82.75 127.713 90.6107 127.713 100.315ZM109.775 88.411C116.481 88.411 121.932 93.7485 121.932 100.315V104.605H97.5853V100.25C97.6184 93.7161 103.069 88.411 109.775 88.411ZM112.649 129.804C112.649 131.389 111.361 132.651 109.742 132.651C108.156 132.651 106.868 131.389 106.868 129.804V122.623C106.868 121.07 108.156 119.808 109.742 119.808C111.361 119.808 112.649 121.07 112.649 122.623V129.804Z" stroke="#6A2CAD" stroke-opacity="0.2" stroke-width="4.438"/>
</g>
<g filter="url(#filter3_f_254_5053)">
<path fill-rule="evenodd" clip-rule="evenodd" d="M127.713 100.315V105.307C133.312 107.057 137.392 112.132 137.392 118.194V134.265C137.392 141.77 131.178 147.854 123.517 147.854H96.0028C88.3387 147.854 82.125 141.77 82.125 134.265V118.194C82.125 112.132 86.2081 107.057 91.8042 105.307V100.315C91.8372 90.6107 99.8645 82.75 109.709 82.75C119.685 82.75 127.713 90.6107 127.713 100.315ZM109.775 88.411C116.481 88.411 121.932 93.7485 121.932 100.315V104.605H97.5853V100.25C97.6184 93.7161 103.069 88.411 109.775 88.411ZM112.649 129.804C112.649 131.389 111.361 132.651 109.742 132.651C108.156 132.651 106.868 131.389 106.868 129.804V122.623C106.868 121.07 108.156 119.808 109.742 119.808C111.361 119.808 112.649 121.07 112.649 122.623V129.804Z" stroke="#6A2CAD" stroke-width="2.73108"/>
</g>
<g filter="url(#filter4_f_254_5053)">
<path fill-rule="evenodd" clip-rule="evenodd" d="M127.713 100.315V105.307C133.312 107.057 137.392 112.132 137.392 118.194V134.265C137.392 141.77 131.178 147.854 123.517 147.854H96.0028C88.3387 147.854 82.125 141.77 82.125 134.265V118.194C82.125 112.132 86.2081 107.057 91.8042 105.307V100.315C91.8372 90.6107 99.8645 82.75 109.709 82.75C119.685 82.75 127.713 90.6107 127.713 100.315ZM109.775 88.411C116.481 88.411 121.932 93.7485 121.932 100.315V104.605H97.5853V100.25C97.6184 93.7161 103.069 88.411 109.775 88.411ZM112.649 129.804C112.649 131.389 111.361 132.651 109.742 132.651C108.156 132.651 106.868 131.389 106.868 129.804V122.623C106.868 121.07 108.156 119.808 109.742 119.808C111.361 119.808 112.649 121.07 112.649 122.623V129.804Z" stroke="white" stroke-width="1.36554"/>
</g>
<g filter="url(#filter5_b_254_5053)">
<path fill-rule="evenodd" clip-rule="evenodd" d="M127.696 100.291V105.275C133.293 107.022 137.371 112.091 137.371 118.144V134.193C137.371 141.687 131.16 147.763 123.502 147.763H95.9977C88.3366 147.763 82.125 141.687 82.125 134.193V118.144C82.125 112.091 86.2067 107.022 91.8007 105.275V100.291C91.8337 90.5996 99.858 82.75 109.699 82.75C119.671 82.75 127.696 90.5996 127.696 100.291ZM109.765 88.403C116.468 88.403 121.917 93.733 121.917 100.291V104.574H97.5797V100.226C97.6127 93.7007 103.061 88.403 109.765 88.403ZM112.638 129.738C112.638 131.321 111.35 132.581 109.732 132.581C108.147 132.581 106.859 131.321 106.859 129.738V122.567C106.859 121.016 108.147 119.756 109.732 119.756C111.35 119.756 112.638 121.016 112.638 122.567V129.738Z" fill="#6A2CAD" fill-opacity="0.01"/>
</g>
<defs>
<filter id="filter0_f_254_5053" x="0.312454" y="0.93721" width="218.893" height="228.73" filterUnits="userSpaceOnUse" color-interpolation-filters="sRGB">
<feFlood flood-opacity="0" result="BackgroundImageFix"/>
<feBlend mode="normal" in="SourceGraphic" in2="BackgroundImageFix" result="shape"/>
<feGaussianBlur stdDeviation="39.7969" result="effect1_foregroundBlur_254_5053"/>
</filter>
<filter id="filter1_f_254_5053" x="52.6924" y="53.3169" width="114.133" height="123.97" filterUnits="userSpaceOnUse" color-interpolation-filters="sRGB">
<feFlood flood-opacity="0" result="BackgroundImageFix"/>
<feBlend mode="normal" in="SourceGraphic" in2="BackgroundImageFix" result="shape"/>
<feGaussianBlur stdDeviation="13.2656" result="effect1_foregroundBlur_254_5053"/>
</filter>
<filter id="filter2_ddi_254_5053" x="45.4156" y="72.5716" width="128.686" height="138.524" filterUnits="userSpaceOnUse" color-interpolation-filters="sRGB">
<feFlood flood-opacity="0" result="BackgroundImageFix"/>
<feColorMatrix in="SourceAlpha" type="matrix" values="0 0 0 0 0 0 0 0 0 0 0 0 0 0 0 0 0 0 127 0" result="hardAlpha"/>
<feOffset dy="17.2453"/>
<feGaussianBlur stdDeviation="6.63282"/>
<feColorMatrix type="matrix" values="0 0 0 0 0.114706 0 0 0 0 0.0382353 0 0 0 0 0.261765 0 0 0 0.7 0"/>
<feBlend mode="multiply" in2="BackgroundImageFix" result="effect1_dropShadow_254_5053"/>
<feColorMatrix in="SourceAlpha" type="matrix" values="0 0 0 0 0 0 0 0 0 0 0 0 0 0 0 0 0 0 127 0" result="hardAlpha"/>
<feOffset dy="26.5313"/>
<feGaussianBlur stdDeviation="17.2453"/>
<feColorMatrix type="matrix" values="0 0 0 0 0.229412 0 0 0 0 0.0764706 0 0 0 0 0.523529 0 0 0 1 0"/>
<feBlend mode="color-dodge" in2="effect1_dropShadow_254_5053" result="effect2_dropShadow_254_5053"/>
<feBlend mode="normal" in="SourceGraphic" in2="effect2_dropShadow_254_5053" result="shape"/>
<feColorMatrix in="SourceAlpha" type="matrix" values="0 0 0 0 0 0 0 0 0 0 0 0 0 0 0 0 0 0 127 0" result="hardAlpha"/>
<feOffset dx="-1.72453" dy="3.44906"/>
<feGaussianBlur stdDeviation="0.862266"/>
<feComposite in2="hardAlpha" operator="arithmetic" k2="-1" k3="1"/>
<feColorMatrix type="matrix" values="0 0 0 0 1 0 0 0 0 1 0 0 0 0 1 0 0 0 0.5 0"/>
<feBlend mode="normal" in2="shape" result="effect3_innerShadow_254_5053"/>
</filter>
<filter id="filter3_f_254_5053" x="80.077" y="80.7018" width="59.3636" height="69.2007" filterUnits="userSpaceOnUse" color-interpolation-filters="sRGB">
<feFlood flood-opacity="0" result="BackgroundImageFix"/>
<feBlend mode="normal" in="SourceGraphic" in2="BackgroundImageFix" result="shape"/>
<feGaussianBlur stdDeviation="0.341384" result="effect1_foregroundBlur_254_5053"/>
</filter>
<filter id="filter4_f_254_5053" x="80.9872" y="81.612" width="57.5432" height="67.3803" filterUnits="userSpaceOnUse" color-interpolation-filters="sRGB">
<feFlood flood-opacity="0" result="BackgroundImageFix"/>
<feBlend mode="normal" in="SourceGraphic" in2="BackgroundImageFix" result="shape"/>
<feGaussianBlur stdDeviation="0.22759" result="effect1_foregroundBlur_254_5053"/>
</filter>
<filter id="filter5_b_254_5053" x="66.125" y="66.75" width="87.2461" height="97.0129" filterUnits="userSpaceOnUse" color-interpolation-filters="sRGB">
<feFlood flood-opacity="0" result="BackgroundImageFix"/>
<feGaussianBlur in="BackgroundImage" stdDeviation="8"/>
<feComposite in2="SourceAlpha" operator="in" result="effect1_backgroundBlur_254_5053"/>
<feBlend mode="normal" in="SourceGraphic" in2="effect1_backgroundBlur_254_5053" result="shape"/>
</filter>
</defs>
</svg>
