<svg width="222" height="222" viewBox="0 0 222 222" fill="none" xmlns="http://www.w3.org/2000/svg">
<g style="mix-blend-mode:hard-light" filter="url(#filter0_f_254_5058)">
<path d="M138.337 84.1742C136.9 82.6973 134.773 82.1471 132.79 82.7263L86.5451 96.1917C84.4528 96.7738 82.9697 98.4446 82.5702 100.567C82.1621 102.728 83.5878 105.47 85.4502 106.617L99.9099 115.515C101.393 116.428 103.307 116.199 104.534 114.959L121.092 98.2767C121.926 97.408 123.305 97.408 124.139 98.2767C124.972 99.1165 124.972 100.477 124.139 101.346L107.552 118.032C106.322 119.268 106.092 121.194 106.998 122.688L115.833 137.312C116.867 139.049 118.649 140.034 120.604 140.034C120.834 140.034 121.092 140.034 121.322 140.005C123.564 139.715 125.346 138.181 126.007 136.009L139.717 89.7631C140.32 87.7939 139.774 85.651 138.337 84.1742Z" stroke="#6A2CAD" stroke-width="4.438"/>
</g>
<g style="mix-blend-mode:hard-light" filter="url(#filter1_f_254_5058)">
<path d="M138.337 84.1742C136.9 82.6973 134.773 82.1471 132.79 82.7263L86.5451 96.1917C84.4528 96.7738 82.9697 98.4446 82.5702 100.567C82.1621 102.728 83.5878 105.47 85.4502 106.617L99.9099 115.515C101.393 116.428 103.307 116.199 104.534 114.959L121.092 98.2767C121.926 97.408 123.305 97.408 124.139 98.2767C124.972 99.1165 124.972 100.477 124.139 101.346L107.552 118.032C106.322 119.268 106.092 121.194 106.998 122.688L115.833 137.312C116.867 139.049 118.649 140.034 120.604 140.034C120.834 140.034 121.092 140.034 121.322 140.005C123.564 139.715 125.346 138.181 126.007 136.009L139.717 89.7631C140.32 87.7939 139.774 85.651 138.337 84.1742Z" stroke="#6A2CAD" stroke-width="5.80354"/>
</g>
<g style="mix-blend-mode:hard-light" filter="url(#filter2_di_254_5058)">
<path d="M138.337 84.1742C136.9 82.6973 134.773 82.1471 132.79 82.7263L86.5451 96.1917C84.4528 96.7738 82.9697 98.4446 82.5702 100.567C82.1621 102.728 83.5878 105.47 85.4502 106.617L99.9099 115.515C101.393 116.428 103.307 116.199 104.534 114.959L121.092 98.2767C121.926 97.408 123.305 97.408 124.139 98.2767C124.972 99.1165 124.972 100.477 124.139 101.346L107.552 118.032C106.322 119.268 106.092 121.194 106.998 122.688L115.833 137.312C116.867 139.049 118.649 140.034 120.604 140.034C120.834 140.034 121.092 140.034 121.322 140.005C123.564 139.715 125.346 138.181 126.007 136.009L139.717 89.7631C140.32 87.7939 139.774 85.651 138.337 84.1742Z" stroke="#6A2CAD" stroke-opacity="0.2" stroke-width="4.438"/>
</g>
<g filter="url(#filter3_f_254_5058)">
<path d="M138.337 84.1742C136.9 82.6973 134.773 82.1471 132.79 82.7263L86.5451 96.1917C84.4528 96.7738 82.9697 98.4446 82.5702 100.567C82.1621 102.728 83.5878 105.47 85.4502 106.617L99.9099 115.515C101.393 116.428 103.307 116.199 104.534 114.959L121.092 98.2767C121.926 97.408 123.305 97.408 124.139 98.2767C124.972 99.1165 124.972 100.477 124.139 101.346L107.552 118.032C106.322 119.268 106.092 121.194 106.998 122.688L115.833 137.312C116.867 139.049 118.649 140.034 120.604 140.034C120.834 140.034 121.092 140.034 121.322 140.005C123.564 139.715 125.346 138.181 126.007 136.009L139.717 89.7631C140.32 87.7939 139.774 85.651 138.337 84.1742Z" stroke="#6A2CAD" stroke-width="2.73108"/>
</g>
<g filter="url(#filter4_f_254_5058)">
<path d="M138.337 84.1742C136.9 82.6973 134.773 82.1471 132.79 82.7263L86.5451 96.1917C84.4528 96.7738 82.9697 98.4446 82.5702 100.567C82.1621 102.728 83.5878 105.47 85.4502 106.617L99.9099 115.515C101.393 116.428 103.307 116.199 104.534 114.959L121.092 98.2767C121.926 97.408 123.305 97.408 124.139 98.2767C124.972 99.1165 124.972 100.477 124.139 101.346L107.552 118.032C106.322 119.268 106.092 121.194 106.998 122.688L115.833 137.312C116.867 139.049 118.649 140.034 120.604 140.034C120.834 140.034 121.092 140.034 121.322 140.005C123.564 139.715 125.346 138.181 126.007 136.009L139.717 89.7631C140.32 87.7939 139.774 85.651 138.337 84.1742Z" stroke="white" stroke-width="1.36554"/>
</g>
<g filter="url(#filter5_b_254_5058)">
<path d="M138.316 84.1718C136.88 82.6971 134.754 82.1476 132.771 82.726L86.5438 96.1725C84.4522 96.7538 82.9695 98.4223 82.5702 100.542C82.1622 102.699 83.5873 105.438 85.449 106.583L99.9033 115.469C101.386 116.38 103.299 116.151 104.526 114.914L121.078 98.2546C121.911 97.3871 123.29 97.3871 124.123 98.2546C124.957 99.0932 124.957 100.452 124.123 101.32L107.543 117.982C106.313 119.217 106.083 121.14 106.989 122.632L115.82 137.235C116.855 138.97 118.636 139.953 120.59 139.953C120.82 139.953 121.078 139.953 121.308 139.924C123.549 139.635 125.33 138.103 125.991 135.934L139.695 89.7529C140.299 87.7865 139.753 85.6466 138.316 84.1718Z" fill="#6A2CAD" fill-opacity="0.01"/>
</g>
<defs>
<filter id="filter0_f_254_5058" x="0.686966" y="0.68721" width="221.086" height="221.16" filterUnits="userSpaceOnUse" color-interpolation-filters="sRGB">
<feFlood flood-opacity="0" result="BackgroundImageFix"/>
<feBlend mode="normal" in="SourceGraphic" in2="BackgroundImageFix" result="shape"/>
<feGaussianBlur stdDeviation="39.7969" result="effect1_foregroundBlur_254_5058"/>
</filter>
<filter id="filter1_f_254_5058" x="53.0664" y="53.0671" width="116.327" height="116.4" filterUnits="userSpaceOnUse" color-interpolation-filters="sRGB">
<feFlood flood-opacity="0" result="BackgroundImageFix"/>
<feBlend mode="normal" in="SourceGraphic" in2="BackgroundImageFix" result="shape"/>
<feGaussianBlur stdDeviation="13.2656" result="effect1_foregroundBlur_254_5058"/>
</filter>
<filter id="filter2_di_254_5058" x="45.7901" y="72.3216" width="130.879" height="130.953" filterUnits="userSpaceOnUse" color-interpolation-filters="sRGB">
<feFlood flood-opacity="0" result="BackgroundImageFix"/>
<feColorMatrix in="SourceAlpha" type="matrix" values="0 0 0 0 0 0 0 0 0 0 0 0 0 0 0 0 0 0 127 0" result="hardAlpha"/>
<feOffset dy="26.5313"/>
<feGaussianBlur stdDeviation="17.2453"/>
<feColorMatrix type="matrix" values="0 0 0 0 0.229412 0 0 0 0 0.0764706 0 0 0 0 0.523529 0 0 0 1 0"/>
<feBlend mode="color-dodge" in2="BackgroundImageFix" result="effect1_dropShadow_254_5058"/>
<feBlend mode="normal" in="SourceGraphic" in2="effect1_dropShadow_254_5058" result="shape"/>
<feColorMatrix in="SourceAlpha" type="matrix" values="0 0 0 0 0 0 0 0 0 0 0 0 0 0 0 0 0 0 127 0" result="hardAlpha"/>
<feOffset dx="-1.72453" dy="3.44906"/>
<feGaussianBlur stdDeviation="0.862266"/>
<feComposite in2="hardAlpha" operator="arithmetic" k2="-1" k3="1"/>
<feColorMatrix type="matrix" values="0 0 0 0 1 0 0 0 0 1 0 0 0 0 1 0 0 0 0.5 0"/>
<feBlend mode="normal" in2="shape" result="effect2_innerShadow_254_5058"/>
</filter>
<filter id="filter3_f_254_5058" x="80.4515" y="80.4518" width="61.5565" height="61.6307" filterUnits="userSpaceOnUse" color-interpolation-filters="sRGB">
<feFlood flood-opacity="0" result="BackgroundImageFix"/>
<feBlend mode="normal" in="SourceGraphic" in2="BackgroundImageFix" result="shape"/>
<feGaussianBlur stdDeviation="0.341384" result="effect1_foregroundBlur_254_5058"/>
</filter>
<filter id="filter4_f_254_5058" x="81.3622" y="81.362" width="59.7351" height="59.81" filterUnits="userSpaceOnUse" color-interpolation-filters="sRGB">
<feFlood flood-opacity="0" result="BackgroundImageFix"/>
<feBlend mode="normal" in="SourceGraphic" in2="BackgroundImageFix" result="shape"/>
<feGaussianBlur stdDeviation="0.22759" result="effect1_foregroundBlur_254_5058"/>
</filter>
<filter id="filter5_b_254_5058" x="66.5" y="66.5" width="89.438" height="89.4534" filterUnits="userSpaceOnUse" color-interpolation-filters="sRGB">
<feFlood flood-opacity="0" result="BackgroundImageFix"/>
<feGaussianBlur in="BackgroundImage" stdDeviation="8"/>
<feComposite in2="SourceAlpha" operator="in" result="effect1_backgroundBlur_254_5058"/>
<feBlend mode="normal" in="SourceGraphic" in2="effect1_backgroundBlur_254_5058" result="shape"/>
</filter>
</defs>
</svg>
