<svg width="55" height="55" viewBox="0 0 55 55" fill="none" xmlns="http://www.w3.org/2000/svg">
<circle cx="27.5" cy="27.5" r="27.5" fill="#F6921A"/>
<path d="M35.3697 28.0663C34.8553 27.3754 34.079 26.9008 33.041 26.6428C34.3629 25.9424 34.9438 24.7537 34.7843 23.0764C34.731 22.4682 34.5692 21.9411 34.2985 21.4943C34.0276 21.0474 33.662 20.6881 33.2004 20.4163C32.7392 20.1442 32.2375 19.937 31.6966 19.7942C31.1556 19.6514 30.5344 19.5477 29.8336 19.4832V16H27.7845V19.3865C27.4297 19.3865 26.8885 19.3957 26.1612 19.4141V16H24.1118V19.4832C23.819 19.4925 23.3888 19.4972 22.821 19.4972L20 19.4832V21.7501H21.477C22.1512 21.7501 22.546 22.0635 22.6613 22.69V26.6571C22.7501 26.6571 22.821 26.6618 22.8743 26.671H22.6613V32.2274C22.5904 32.6972 22.3332 32.9324 21.8896 32.9324H20.4127L20.0001 35.4619H22.6615C22.8301 35.4619 23.0739 35.4642 23.3934 35.4684C23.7127 35.4731 23.9522 35.4754 24.1119 35.4754V39H26.1616V35.5168C26.5341 35.5263 27.0752 35.5308 27.7849 35.5308V39H29.8341V35.4754C30.5617 35.4386 31.207 35.3698 31.7701 35.2681C32.3334 35.1664 32.8725 35.0077 33.3869 34.791C33.9013 34.5746 34.3315 34.3049 34.6774 33.9824C35.0235 33.6601 35.3094 33.2499 35.536 32.7522C35.7619 32.2545 35.9062 31.6786 35.9681 31.0242C36.0839 29.7436 35.8842 28.7576 35.3697 28.0663ZM26.201 21.9018C26.2632 21.9018 26.4384 21.8994 26.7267 21.8948C27.0151 21.89 27.2546 21.8855 27.4453 21.8808C27.6361 21.8763 27.8933 21.8878 28.2173 21.9155C28.5411 21.9431 28.8138 21.98 29.0355 22.026C29.2572 22.072 29.5014 22.1481 29.7673 22.2541C30.0337 22.3599 30.2465 22.489 30.4059 22.641C30.5658 22.7931 30.701 22.9867 30.8117 23.2217C30.9227 23.4566 30.9782 23.7261 30.9782 24.0302C30.9782 24.2882 30.9384 24.5232 30.8586 24.7353C30.779 24.9472 30.6589 25.1246 30.4994 25.2674C30.3399 25.4103 30.1755 25.5348 30.0069 25.6407C29.8385 25.7466 29.6232 25.8319 29.3615 25.8963C29.1 25.9609 28.8716 26.0116 28.6765 26.0484C28.4813 26.0852 28.2374 26.1107 27.9446 26.1244C27.6518 26.1382 27.4299 26.1476 27.2792 26.1521C27.1283 26.1567 26.9221 26.1567 26.6603 26.1521C26.3985 26.1476 26.2456 26.1451 26.2012 26.1451V21.9017H26.201V21.9018ZM31.7968 31.3146C31.7123 31.5266 31.6038 31.7111 31.4709 31.8678C31.3377 32.0242 31.1624 32.1626 30.9451 32.2822C30.7279 32.4022 30.517 32.4987 30.3132 32.5725C30.109 32.6465 29.8627 32.7106 29.5747 32.7661C29.286 32.8215 29.0333 32.8604 28.8158 32.8836C28.5985 32.9067 28.3391 32.925 28.0374 32.939C27.7359 32.9525 27.5007 32.9595 27.3322 32.9595C27.1636 32.9595 26.9506 32.957 26.6934 32.9525C26.4359 32.9482 26.272 32.9459 26.2009 32.9459V28.2738C26.2718 28.2738 26.4825 28.2693 26.833 28.2599C27.1836 28.2506 27.4695 28.2463 27.6913 28.2463C27.9131 28.2463 28.2193 28.2599 28.6098 28.2877C28.9999 28.3152 29.3281 28.3565 29.5945 28.4117C29.8605 28.4671 30.1509 28.5522 30.466 28.6676C30.7809 28.7827 31.036 28.9232 31.2313 29.089C31.4265 29.2552 31.5905 29.4668 31.7235 29.7249C31.8569 29.9828 31.9234 30.2778 31.9234 30.6096C31.9233 30.8679 31.8812 31.1025 31.7968 31.3146Z" fill="white"/>
</svg>
