<svg width="153" height="50" viewBox="0 0 153 50" fill="none" xmlns="http://www.w3.org/2000/svg">
<path d="M7.75623 15.359L1.61015 23.4585C1.21429 23.9802 1 24.6171 1 25.272V47C1 48.6569 2.34314 50 4 50H149C150.657 50 152 48.6569 152 47V1L140.677 5.62713C140.161 5.83787 139.597 5.90084 139.047 5.80898L135.823 5.26998C127.006 3.79614 117.957 5.65503 110.435 10.4849L105.906 13.393C105.423 13.7036 104.86 13.8687 104.285 13.8687H87.8344C83.3961 13.8687 79.1142 15.5084 75.8112 18.473L71.2251 22.5892C64.4077 28.708 53.7569 27.3989 48.6242 19.8113C46.1104 16.0951 41.9163 13.8687 37.4297 13.8687H30.0096C29.5283 13.8687 29.064 13.6907 28.7061 13.3689C22.4851 7.77628 12.8129 8.69507 7.75623 15.359Z" fill="url(#paint0_linear_282_3174)"/>
<path d="M1 24.1493L9.86743 12.5203C13.7937 7.37137 21.2747 6.66044 26.1006 10.9777V10.9777C28.1365 12.799 30.7723 13.806 33.504 13.806H36.8681C41.7074 13.806 46.2328 16.2017 48.9534 20.2039V20.2039C53.9201 27.5104 64.1841 28.7727 70.7732 22.8876L75.2771 18.8649C78.9249 15.6068 83.6446 13.806 88.5355 13.806H96.4709C102.149 13.806 107.708 12.1814 112.493 9.12411L113.382 8.55582C119.009 4.9601 125.769 3.5766 132.356 4.67241V4.67241C137.281 5.49166 142.336 4.92979 146.961 3.04918L152 1" stroke="#F98FB9"/>
<defs>
<linearGradient id="paint0_linear_282_3174" x1="76.5" y1="1" x2="76.5" y2="50" gradientUnits="userSpaceOnUse">
<stop stop-color="#282939"/>
<stop offset="1" stop-color="#1B1C31"/>
</linearGradient>
</defs>
</svg>
