<svg width="227" height="51" viewBox="0 0 227 51" fill="none" xmlns="http://www.w3.org/2000/svg">
<path d="M12.8933 13.874L2.00122 23.6055C1.36418 24.1746 1 24.9884 1 25.8426V47.5C1 49.1569 2.34314 50.5 4 50.5H223C224.657 50.5 226 49.1569 226 47.5V1L208.513 5.84467C208.142 5.94727 207.756 5.97776 207.374 5.93448L191.063 4.08596C184.786 3.37453 178.432 4.32753 172.639 6.84922L156.787 13.7506C156.409 13.9151 156.001 14 155.589 14H125.164C121.863 14 118.626 14.9074 115.807 16.623L99.1968 26.7302C91.7044 31.2892 82.0651 30.1276 75.8703 23.919L70.9547 18.9925C67.7655 15.7962 63.4358 14 58.9206 14H43.9545C43.4037 14 42.8635 13.8484 42.3932 13.5617L39.0006 11.494C30.7241 6.44961 20.1213 7.41617 12.8933 13.874Z" fill="url(#paint0_linear_254_2406)"/>
<path d="M1 24.5L13.6295 13.2162C20.4203 7.14905 30.3817 6.24095 38.1576 10.9802V10.9802C41.3981 12.9552 45.1198 14 48.9147 14H55.9744C62.3758 14 68.5142 16.5466 73.0356 21.0781V21.0781C80.8937 28.9536 93.1212 30.4271 102.625 24.644L111.266 19.3859C117.056 15.8632 123.702 14 130.479 14H144.161C152.111 14 159.997 12.3531 167.286 9.17978V9.17978C176.568 5.13898 186.777 3.60015 196.836 4.74016V4.74016C204.178 5.5723 211.612 4.98601 218.733 3.01317L226 1" stroke="#F98FB9" stroke-width="1.5"/>
<defs>
<linearGradient id="paint0_linear_254_2406" x1="113.5" y1="1" x2="113.5" y2="50.5" gradientUnits="userSpaceOnUse">
<stop stop-color="#282939"/>
<stop offset="1" stop-color="#1B1C31"/>
</linearGradient>
</defs>
</svg>
