<svg width="55" height="55" viewBox="0 0 55 55" fill="none" xmlns="http://www.w3.org/2000/svg">
<circle cx="27.5" cy="27.5" r="27.5" fill="#0033AD"/>
<path d="M26.6428 40.1536C26.6476 40.0466 26.6735 39.9416 26.7188 39.8448C26.7642 39.7479 26.8282 39.6611 26.9071 39.5893C26.986 39.5175 27.0782 39.4622 27.1785 39.4266C27.2788 39.3911 27.385 39.3759 27.4911 39.382C27.5973 39.3881 27.7011 39.4153 27.7967 39.4622C27.8923 39.509 27.9777 39.5745 28.048 39.6549C28.1183 39.7352 28.1721 39.8289 28.2062 39.9303C28.2403 40.0317 28.2542 40.139 28.2469 40.2459C28.2324 40.4585 28.1353 40.6567 27.9767 40.7977C27.8181 40.9386 27.6107 41.0108 27.3996 40.9987C27.1885 40.9865 26.9907 40.891 26.849 40.7328C26.7073 40.5746 26.6332 40.3665 26.6428 40.1536ZM20.0632 39.2776C20.1551 39.1365 20.2989 39.038 20.4629 39.0037C20.6269 38.9694 20.7977 39.0022 20.9377 39.0949C21.0777 39.1875 21.1755 39.3324 21.2095 39.4977C21.2435 39.663 21.211 39.8351 21.1191 39.9762C21.0736 40.0461 21.0148 40.1062 20.9462 40.1532C20.8777 40.2002 20.8006 40.2332 20.7193 40.2501C20.6381 40.2671 20.5544 40.2678 20.4729 40.2521C20.3914 40.2365 20.3138 40.2048 20.2445 40.1589C20.1752 40.1131 20.1155 40.0539 20.0688 39.9848C20.0222 39.9156 19.9895 39.8379 19.9727 39.7561C19.9559 39.6742 19.9552 39.5898 19.9707 39.5077C19.9862 39.4256 20.0177 39.3474 20.0632 39.2775V39.2776ZM34.1756 39.0281C34.2496 38.9903 34.3303 38.9677 34.413 38.9614C34.4957 38.9551 34.5788 38.9653 34.6576 38.9915C34.7364 39.0177 34.8093 39.0592 34.8721 39.1138C34.935 39.1685 34.9865 39.235 35.0237 39.3097C35.08 39.4221 35.1019 39.5488 35.0867 39.6738C35.0715 39.7987 35.0199 39.9163 34.9384 40.0117C34.8569 40.1071 34.7492 40.176 34.6288 40.2097C34.5084 40.2434 34.3809 40.2403 34.2622 40.2009C34.1436 40.1615 34.0392 40.0876 33.9623 39.9884C33.8853 39.8892 33.8393 39.7692 33.8301 39.6437C33.8208 39.5181 33.8487 39.3926 33.9102 39.2831C33.9717 39.1735 34.064 39.0847 34.1756 39.0281ZM21.5884 35.909C21.73 35.691 21.9518 35.5387 22.2049 35.4854C22.458 35.4321 22.7217 35.4823 22.938 35.625C23.1544 35.768 23.3056 35.9916 23.3584 36.2469C23.4112 36.5021 23.3613 36.768 23.2197 36.9862C23.0772 37.2024 22.8556 37.3531 22.6033 37.4052C22.3509 37.4574 22.0884 37.4068 21.8729 37.2645C21.6575 37.1223 21.5067 36.8999 21.4533 36.6459C21.4 36.392 21.4486 36.127 21.5884 35.909ZM32.1944 35.5464C32.3085 35.4878 32.4329 35.4524 32.5606 35.4423C32.6883 35.4322 32.8167 35.4475 32.9384 35.4875C33.0602 35.5274 33.173 35.5912 33.2703 35.6751C33.3676 35.759 33.4475 35.8614 33.5055 35.9765C33.5927 36.1487 33.6277 36.343 33.6059 36.5351C33.5842 36.7272 33.5068 36.9086 33.3834 37.0566C33.26 37.2046 33.0961 37.3127 32.912 37.3674C32.728 37.422 32.5321 37.4208 32.3488 37.3639C32.1654 37.307 32.0028 37.197 31.8812 37.0474C31.7595 36.8979 31.6843 36.7156 31.6649 36.5233C31.6455 36.3309 31.6828 36.1371 31.772 35.9659C31.8613 35.7948 31.9986 35.654 32.1669 35.5611L32.1944 35.5464ZM26.3969 34.9462C26.4962 34.7402 26.654 34.5685 26.8502 34.453C27.0464 34.3375 27.2723 34.2832 27.4991 34.2971C28.1303 34.3351 28.6119 34.8811 28.5755 35.5174C28.5659 35.6884 28.5187 35.8551 28.4375 36.0054C28.3562 36.1558 28.2428 36.2861 28.1055 36.387C27.9682 36.4878 27.8104 36.5567 27.6435 36.5886C27.4766 36.6206 27.3047 36.6148 27.1403 36.5716C26.9759 36.5285 26.823 36.4492 26.6927 36.3393C26.5624 36.2294 26.4579 36.0918 26.3868 35.9363C26.3156 35.7808 26.2797 35.6113 26.2814 35.4401C26.2832 35.2688 26.3226 35.1002 26.3969 34.9462ZM16.2435 33.1552C16.4332 33.0601 16.6525 33.0443 16.8537 33.1114C17.0549 33.1784 17.2216 33.3229 17.3176 33.5133C17.4136 33.7036 17.4311 33.9245 17.3663 34.1278C17.3014 34.3312 17.1595 34.5004 16.9714 34.5988C16.7833 34.6971 16.5643 34.7166 16.362 34.653C16.1597 34.5893 15.9906 34.4478 15.8914 34.259C15.7923 34.0703 15.7711 33.8497 15.8325 33.6454C15.894 33.441 16.033 33.2693 16.2194 33.1678L16.2433 33.1552H16.2435ZM37.7493 33.3855C37.8066 33.2954 37.881 33.2177 37.9683 33.1568C38.0556 33.0959 38.154 33.053 38.2579 33.0307C38.3617 33.0083 38.4689 33.007 38.5733 33.0266C38.6777 33.0463 38.7771 33.0866 38.8659 33.1453C38.9547 33.204 39.0311 33.2798 39.0907 33.3683C39.1502 33.4569 39.1918 33.5565 39.2129 33.6614C39.234 33.7663 39.2343 33.8743 39.2138 33.9793C39.1932 34.0843 39.1522 34.1841 39.0931 34.273C38.9753 34.4503 38.7929 34.5735 38.5854 34.616C38.378 34.6584 38.1623 34.6167 37.9852 34.4997C37.8082 34.3828 37.6841 34.2002 37.6399 33.9915C37.5957 33.7829 37.635 33.5651 37.7493 33.3855ZM24.2792 29.7947C24.6615 29.5867 25.1017 29.5132 25.5302 29.5857C25.9587 29.6583 26.3509 29.8728 26.6447 30.1953C26.9386 30.5178 27.1174 30.9298 27.1527 31.3663C27.188 31.8027 27.0778 32.2385 26.8397 32.6047C26.6626 32.8787 26.4202 33.1036 26.1347 33.2589C25.8492 33.4142 25.5296 33.495 25.2052 33.4938C24.7707 33.4935 24.3488 33.3471 24.0062 33.0779C23.6636 32.8087 23.4199 32.432 23.3136 32.0075C23.2073 31.583 23.2446 31.1348 23.4195 30.7341C23.5944 30.3333 23.8969 30.0027 24.2792 29.7947ZM29.2117 29.6468C29.6547 29.5031 30.134 29.5235 30.5633 29.7045C30.9926 29.8855 31.3437 30.215 31.5532 30.6337C32.0351 31.603 31.6488 32.7827 30.6889 33.2724C30.4163 33.4117 30.1154 33.4853 29.8098 33.4875C29.3445 33.4874 28.8945 33.3199 28.5409 33.0151C28.1872 32.7103 27.9533 32.2882 27.8811 31.8249C27.809 31.3616 27.9034 30.8876 28.1473 30.4882C28.3913 30.0889 28.7687 29.7905 29.2117 29.6468ZM19.8101 30.7393C19.9209 30.6097 20.0588 30.5063 20.2139 30.4368C20.3691 30.3673 20.5376 30.3333 20.7073 30.3374C20.877 30.3414 21.0438 30.3833 21.1955 30.4601C21.3472 30.5369 21.4801 30.6467 21.5847 30.7815C21.6893 30.9163 21.7629 31.0728 21.8002 31.2397C21.8375 31.4066 21.8376 31.5798 21.8005 31.7468C21.7634 31.9137 21.6901 32.0704 21.5857 32.2053C21.4813 32.3403 21.3485 32.4502 21.1969 32.5272C20.9598 32.6476 20.6886 32.6815 20.4295 32.623C20.1704 32.5646 19.9394 32.4174 19.7758 32.2066C19.6123 31.9957 19.5263 31.7343 19.5326 31.4668C19.5388 31.1993 19.6369 30.9422 19.8101 30.7393ZM33.3755 30.8284C33.7234 30.2942 34.4351 30.1455 34.965 30.4962C35.4941 30.8476 35.6413 31.5639 35.2947 32.0983C34.9468 32.6323 34.235 32.7811 33.7051 32.4305C33.1751 32.0798 33.0275 31.3626 33.3755 30.8284ZM20.9409 27.406C21.0018 26.3359 21.9013 25.512 22.9641 25.5526C24.0267 25.5933 24.8616 26.4836 24.8421 27.5551C24.8228 28.6146 23.975 29.466 22.928 29.4861L22.8922 29.4865H22.7855C21.7194 29.4237 20.9024 28.5117 20.9445 27.4406L20.9462 27.4049L20.9409 27.406ZM30.1518 27.3839C30.2137 26.2987 31.1368 25.4695 32.2135 25.5319C32.4693 25.5451 32.7199 25.6095 32.9507 25.7214C33.1815 25.8332 33.3879 25.9903 33.5578 26.1834C33.8066 26.464 33.9702 26.8106 34.0295 27.1821C34.0887 27.5536 34.041 27.9344 33.892 28.2794C33.743 28.6244 33.499 28.9192 33.1889 29.1287C32.8788 29.3382 32.5155 29.4537 32.1423 29.4615L32.1025 29.4619H31.9894C30.9126 29.3996 30.0898 28.4693 30.1517 27.3841L30.1518 27.3839ZM16.2956 27.4734C16.3102 27.2132 16.4268 26.9696 16.6197 26.796C16.8126 26.6225 17.066 26.5332 17.3242 26.5479C17.5824 26.5629 17.8242 26.6806 17.9964 26.8752C18.1687 27.0697 18.2572 27.3252 18.2426 27.5855C18.2279 27.8457 18.1112 28.0894 17.9182 28.2629C17.7252 28.4363 17.4717 28.5255 17.2135 28.5106C16.9553 28.4957 16.7135 28.3781 16.5414 28.1836C16.3692 27.9891 16.2808 27.7336 16.2956 27.4734ZM36.7564 27.4289C36.7724 27.1696 36.8896 26.9274 37.0823 26.755C37.275 26.5826 37.5276 26.4941 37.7849 26.5088C38.0422 26.5235 38.2833 26.6403 38.4554 26.8336C38.6275 27.0269 38.7167 27.281 38.7034 27.5404C38.6886 27.8007 38.5718 28.0444 38.3788 28.218C38.1858 28.3916 37.9322 28.4809 37.6739 28.4662C37.4158 28.4512 37.1741 28.3336 37.002 28.1391C36.83 27.9445 36.7416 27.6891 36.7564 27.429V27.4289ZM13.6422 26.9052L13.6657 26.9061C13.7485 26.9106 13.8296 26.9316 13.9044 26.9678C13.9791 27.004 14.046 27.0548 14.1012 27.1171C14.1564 27.1795 14.1989 27.2522 14.2261 27.3311C14.2534 27.41 14.2649 27.4936 14.26 27.577C14.2529 27.7015 14.2096 27.821 14.1356 27.9209C14.0616 28.0207 13.9601 28.0964 13.8437 28.1385C13.7274 28.1807 13.6013 28.1874 13.4811 28.1579C13.361 28.1283 13.2521 28.0639 13.1681 27.9725C13.084 27.8811 13.0285 27.7668 13.0084 27.6438C12.9883 27.5208 13.0045 27.3946 13.055 27.2809C13.1056 27.1671 13.1882 27.0709 13.2926 27.0041C13.397 26.9373 13.5185 26.9029 13.6422 26.9052ZM41.3785 26.8395L41.4047 26.8406C41.5719 26.8505 41.7282 26.9269 41.8396 27.0528C41.951 27.1788 42.0083 27.3441 41.999 27.5125C41.9919 27.6371 41.9486 27.7568 41.8746 27.8567C41.8005 27.9567 41.6989 28.0325 41.5825 28.0748C41.466 28.117 41.3398 28.1239 41.2195 28.0944C41.0992 28.065 40.9902 28.0006 40.9059 27.9092C40.8216 27.8178 40.7659 27.7035 40.7455 27.5804C40.7252 27.4574 40.7412 27.331 40.7916 27.217C40.8419 27.1031 40.9244 27.0065 41.0287 26.9394C41.1331 26.8723 41.2547 26.8376 41.3785 26.8395ZM25.1882 21.5299C25.5495 21.5281 25.9041 21.6278 26.2124 21.8177C26.5206 22.0076 26.7704 22.2803 26.9336 22.6051C27.0844 22.9053 27.1563 23.2394 27.1426 23.5756C27.1288 23.9118 27.0297 24.2388 26.8549 24.5254C26.6801 24.812 26.4352 25.0487 26.1438 25.2129C25.8524 25.377 25.5241 25.4631 25.1902 25.463C24.8281 25.4642 24.4729 25.3634 24.1646 25.1721C23.8562 24.9808 23.607 24.7066 23.4449 24.3803C23.2958 24.0804 23.2253 23.7471 23.2399 23.412C23.2545 23.0769 23.3539 22.7511 23.5285 22.4656C23.7031 22.18 23.9473 21.9442 24.2377 21.7804C24.5282 21.6167 24.8553 21.5304 25.1882 21.5299ZM29.7938 21.5159C30.2283 21.5165 30.6501 21.6631 30.9925 21.9325C31.335 22.2018 31.5785 22.5786 31.6846 23.0031C31.7906 23.4277 31.7532 23.8758 31.5782 24.2764C31.4031 24.6771 31.1005 25.0075 30.7182 25.2154C30.3358 25.4232 29.8956 25.4966 29.4673 25.424C29.0389 25.3513 28.6468 25.1368 28.353 24.8143C28.0592 24.4917 27.8806 24.0797 27.8453 23.6433C27.81 23.207 27.9202 22.7712 28.1583 22.4051C28.3363 22.1317 28.579 21.9073 28.8645 21.7521C29.15 21.5969 29.4694 21.5157 29.7938 21.5159ZM19.7033 22.9148C20.051 22.3805 20.7625 22.2313 21.2926 22.5817C21.8228 22.932 21.9709 23.6491 21.6234 24.1834C21.2758 24.7177 20.5642 24.8671 20.0341 24.5168C19.9079 24.4336 19.7992 24.3262 19.7142 24.2006C19.6293 24.075 19.5697 23.9338 19.539 23.785C19.5083 23.6362 19.507 23.4827 19.5352 23.3334C19.5633 23.1841 19.6205 23.0419 19.7033 22.9148ZM33.8032 22.4858C33.9378 22.4173 34.0845 22.3762 34.2349 22.3649C34.3853 22.3536 34.5364 22.3723 34.6796 22.4199C34.8228 22.4676 34.9553 22.5432 35.0695 22.6425C35.1837 22.7418 35.2773 22.8628 35.345 22.9986C35.6301 23.5693 35.4022 24.265 34.836 24.5524C34.2697 24.8398 33.5795 24.6101 33.2942 24.0395C33.0091 23.4688 33.237 22.7731 33.8032 22.4857V22.4858ZM15.9062 20.7406C16.023 20.5611 16.2059 20.4356 16.4145 20.3919C16.5178 20.3702 16.6243 20.3693 16.7279 20.3891C16.8316 20.4089 16.9304 20.4492 17.0186 20.5075C17.1068 20.5658 17.1828 20.641 17.2422 20.7289C17.3015 20.8168 17.3432 20.9156 17.3646 21.0197C17.3861 21.1238 17.3871 21.2311 17.3674 21.3356C17.3477 21.4401 17.3078 21.5396 17.25 21.6285C17.1331 21.8081 16.9503 21.9336 16.7417 21.9773C16.5331 22.021 16.3158 21.9794 16.1376 21.8617C15.9594 21.744 15.8349 21.5597 15.7915 21.3495C15.7481 21.1392 15.7894 20.9202 15.9062 20.7406ZM38.0314 20.413C38.2214 20.3193 38.4402 20.3049 38.6406 20.3728C38.841 20.4407 39.0068 20.5855 39.102 20.7758C39.1971 20.9661 39.214 21.1865 39.149 21.3892C39.084 21.592 38.9423 21.7607 38.7546 21.8589C38.5642 21.9554 38.3435 21.9718 38.141 21.9045C37.9386 21.8372 37.771 21.6916 37.675 21.4997C37.5793 21.3079 37.5631 21.0857 37.6299 20.8819C37.6968 20.6781 37.8412 20.5094 38.0314 20.4129V20.413ZM26.335 19.4955C26.3713 18.8579 26.9137 18.3705 27.5465 18.4068C28.1791 18.4431 28.663 18.9894 28.6272 19.6273C28.5915 20.2649 28.0496 20.7527 27.4169 20.717C26.7835 20.6806 26.2992 20.1338 26.335 19.4955ZM21.9257 17.7115C22.04 17.6534 22.1646 17.6186 22.2923 17.609C22.42 17.5995 22.5483 17.6154 22.67 17.6558C22.7916 17.6962 22.9041 17.7604 23.0011 17.8447C23.0981 17.9289 23.1777 18.0316 23.2353 18.1469C23.2929 18.2621 23.3275 18.3877 23.3369 18.5164C23.3464 18.6451 23.3306 18.7744 23.2905 18.897C23.2504 19.0196 23.1867 19.133 23.1031 19.2307C23.0195 19.3285 22.9176 19.4087 22.8032 19.4668C22.5723 19.5841 22.3045 19.6041 22.0589 19.5224C21.8133 19.4407 21.61 19.2641 21.4936 19.0313C21.3772 18.7986 21.3574 18.5287 21.4384 18.2812C21.5194 18.0337 21.6947 17.8287 21.9257 17.7115ZM31.7762 18.0268C31.8818 17.864 32.0329 17.7364 32.2105 17.6601C32.3881 17.5838 32.5841 17.5623 32.7738 17.5983C32.9634 17.6343 33.1383 17.7262 33.2762 17.8623C33.4141 17.9984 33.5089 18.1726 33.5485 18.363C33.5882 18.5534 33.5709 18.7513 33.499 18.9318C33.427 19.1123 33.3036 19.2673 33.1443 19.3771C32.985 19.4869 32.7969 19.5467 32.6039 19.5488C32.4109 19.551 32.2216 19.4954 32.0599 19.3891C31.9524 19.3186 31.8597 19.2274 31.7872 19.1207C31.7147 19.014 31.6638 18.8939 31.6374 18.7673C31.6111 18.6408 31.6098 18.5102 31.6336 18.3831C31.6574 18.256 31.7058 18.1349 31.7762 18.0268ZM20.2495 14.8504C20.3987 14.7752 20.5713 14.7624 20.7297 14.815C20.8881 14.8675 21.0195 14.9811 21.0952 15.1309C21.1708 15.2807 21.1846 15.4546 21.1335 15.6146C21.0824 15.7746 20.9706 15.9077 20.8224 15.9849C20.7481 16.0232 20.667 16.0463 20.5837 16.0529C20.5005 16.0594 20.4168 16.0493 20.3375 16.0232C20.2582 15.997 20.1847 15.9552 20.1215 15.9003C20.0582 15.8454 20.0064 15.7785 19.9689 15.7033C19.8942 15.5526 19.8818 15.3783 19.9344 15.2184C19.987 15.0586 20.1003 14.9263 20.2495 14.8504ZM33.8789 15.0377C33.9243 14.9677 33.9829 14.9074 34.0514 14.8603C34.1199 14.8131 34.1969 14.7801 34.2781 14.7629C34.3593 14.7458 34.443 14.7449 34.5245 14.7604C34.606 14.7759 34.6837 14.8074 34.7531 14.8531C34.8226 14.8989 34.8824 14.9579 34.9292 15.027C34.9759 15.096 35.0088 15.1736 35.0258 15.2554C35.0428 15.3373 35.0436 15.4216 35.0283 15.5038C35.0129 15.5859 34.9816 15.6642 34.9363 15.7342C34.8446 15.8755 34.701 15.9744 34.5371 16.009C34.3732 16.0436 34.2023 16.0112 34.0621 15.9188C33.9218 15.8265 33.8238 15.6818 33.7894 15.5165C33.7551 15.3513 33.7873 15.1791 33.8789 15.0378V15.0377ZM27.2059 14.049C27.3059 14.0123 27.4121 13.9959 27.5184 14.0009C27.6247 14.0058 27.7289 14.032 27.8251 14.0779C27.9212 14.1239 28.0074 14.1886 28.0785 14.2683C28.1497 14.348 28.2044 14.4412 28.2395 14.5424C28.2746 14.6437 28.2895 14.7509 28.2831 14.858C28.2768 14.965 28.2494 15.0697 28.2026 15.166C28.1557 15.2623 28.0904 15.3482 28.0103 15.4189C27.9303 15.4895 27.8371 15.5434 27.7362 15.5775C27.5359 15.645 27.3173 15.6304 27.1276 15.5367C26.9379 15.443 26.7925 15.2778 26.7228 15.0769C26.6531 14.876 26.6647 14.6554 26.7551 14.463C26.8455 14.2707 27.0075 14.1219 27.2059 14.049Z" fill="white"/>
</svg>
