<svg width="55" height="55" viewBox="0 0 55 55" fill="none" xmlns="http://www.w3.org/2000/svg">
<circle cx="27.5" cy="27.5" r="27.5" fill="#232830"/>
<path d="M19.2242 33.2448C19.3811 33.0902 19.5968 33 19.8256 33H40.5738C40.9529 33 41.1425 33.451 40.8745 33.7152L36.7758 37.7552C36.6189 37.9098 36.4032 38 36.1744 38H15.4262C15.0471 38 14.8575 37.549 15.1255 37.2848L19.2242 33.2448Z" fill="white"/>
<path d="M19.2242 18.2448C19.3876 18.0902 19.6033 18 19.8256 18H40.5738C40.9529 18 41.1425 18.451 40.8745 18.7152L36.7758 22.7552C36.6189 22.9098 36.4032 23 36.1744 23H15.4262C15.0471 23 14.8575 22.549 15.1255 22.2848L19.2242 18.2448Z" fill="white"/>
<path d="M36.7758 25.2448C36.6189 25.0902 36.4032 25 36.1744 25H15.4262C15.0471 25 14.8575 25.451 15.1255 25.7152L19.2242 29.7552C19.3811 29.9098 19.5968 30 19.8256 30H40.5738C40.9529 30 41.1425 29.549 40.8745 29.2848L36.7758 25.2448Z" fill="white"/>
</svg>
