<svg width="430" height="438" viewBox="0 0 430 438" fill="none" xmlns="http://www.w3.org/2000/svg">
<g filter="url(#filter0_b_254_6567)">
<path d="M0 40C0 17.9086 17.9086 0 40 0H370C392.091 0 410 17.9086 410 40V405C410 409.971 405.971 414 401 414H19C8.5066 414 0 405.493 0 395L0 40Z" fill="#151923"/>
<path d="M0.5 40C0.5 18.1848 18.1848 0.5 40 0.5H370C391.815 0.5 409.5 18.1848 409.5 40V405C409.5 409.694 405.694 413.5 401 413.5H19C8.78274 413.5 0.5 405.217 0.5 395V40Z" stroke="url(#paint0_radial_254_6567)"/>
<path d="M0.5 40C0.5 18.1848 18.1848 0.5 40 0.5H370C391.815 0.5 409.5 18.1848 409.5 40V405C409.5 409.694 405.694 413.5 401 413.5H19C8.78274 413.5 0.5 405.217 0.5 395V40Z" stroke="url(#paint1_radial_254_6567)"/>
<path d="M0.5 40C0.5 18.1848 18.1848 0.5 40 0.5H370C391.815 0.5 409.5 18.1848 409.5 40V405C409.5 409.694 405.694 413.5 401 413.5H19C8.78274 413.5 0.5 405.217 0.5 395V40Z" stroke="url(#paint2_radial_254_6567)"/>
</g>
<rect x="360" y="228" width="2" height="126" rx="1" fill="url(#paint3_linear_254_6567)"/>
<g filter="url(#filter1_bf_254_6567)">
<ellipse rx="13.7778" ry="18.6984" transform="matrix(1 0 0 -1 353.778 364.698)" fill="#9245DE"/>
<ellipse rx="13.7193" ry="18.6476" transform="matrix(1 0 0 -1 366.919 369.788)" fill="#5F7EFF"/>
</g>
<path d="M371 370.993C367.077 371.349 364.823 371.677 363.439 372.761C361.813 374.029 361.428 376.353 361 381C360.558 376.182 360.158 373.872 358.375 372.632C356.991 371.663 354.752 371.349 351 371.007C354.909 370.651 357.177 370.323 358.546 369.254C360.187 367.971 360.572 365.661 361 361C361.399 365.291 361.756 367.586 363.083 368.912C364.409 370.237 366.72 370.608 371 370.993Z" fill="white"/>
<defs>
<filter id="filter0_b_254_6567" x="-40" y="-40" width="490" height="494" filterUnits="userSpaceOnUse" color-interpolation-filters="sRGB">
<feFlood flood-opacity="0" result="BackgroundImageFix"/>
<feGaussianBlur in="BackgroundImage" stdDeviation="20"/>
<feComposite in2="SourceAlpha" operator="in" result="effect1_backgroundBlur_254_6567"/>
<feBlend mode="normal" in="SourceGraphic" in2="effect1_backgroundBlur_254_6567" result="shape"/>
</filter>
<filter id="filter1_bf_254_6567" x="252.82" y="258.82" width="214.999" height="216.795" filterUnits="userSpaceOnUse" color-interpolation-filters="sRGB">
<feFlood flood-opacity="0" result="BackgroundImageFix"/>
<feGaussianBlur in="BackgroundImage" stdDeviation="43.59"/>
<feComposite in2="SourceAlpha" operator="in" result="effect1_backgroundBlur_254_6567"/>
<feBlend mode="normal" in="SourceGraphic" in2="effect1_backgroundBlur_254_6567" result="shape"/>
<feGaussianBlur stdDeviation="24.355" result="effect2_foregroundBlur_254_6567"/>
</filter>
<radialGradient id="paint0_radial_254_6567" cx="0" cy="0" r="1" gradientUnits="userSpaceOnUse" gradientTransform="translate(-218.307 42.3532) rotate(35.3734) scale(474.214 281.043)">
<stop stop-color="white"/>
<stop offset="1" stop-color="white" stop-opacity="0.06"/>
</radialGradient>
<radialGradient id="paint1_radial_254_6567" cx="0" cy="0" r="1" gradientUnits="userSpaceOnUse" gradientTransform="translate(530.033 277.073) rotate(161.17) scale(343.005 234.114)">
<stop stop-color="#8470FF"/>
<stop offset="1" stop-color="#865CFF" stop-opacity="0"/>
</radialGradient>
<radialGradient id="paint2_radial_254_6567" cx="0" cy="0" r="1" gradientUnits="userSpaceOnUse" gradientTransform="translate(209.464 -94.6183) rotate(47.5668) scale(230.328 165.382)">
<stop/>
<stop offset="1" stop-color="white" stop-opacity="0"/>
</radialGradient>
<linearGradient id="paint3_linear_254_6567" x1="387" y1="228" x2="415.5" y2="413.5" gradientUnits="userSpaceOnUse">
<stop stop-color="#E1E1E1" stop-opacity="0"/>
<stop offset="0.984375" stop-color="#D9D9D9"/>
</linearGradient>
</defs>
</svg>
