<svg width="410" height="414" viewBox="0 0 410 414" fill="none" xmlns="http://www.w3.org/2000/svg">
<g filter="url(#filter0_b_323_10443)">
<path d="M0 40C0 17.9086 17.9086 0 40 0H370C392.091 0 410 17.9086 410 40V405C410 409.971 405.971 414 401 414H19C8.5066 414 0 405.493 0 395L0 40Z" fill="#151923"/>
<path d="M40 0.5H370C391.815 0.5 409.5 18.1848 409.5 40V405C409.5 409.694 405.694 413.5 401 413.5H19C8.78274 413.5 0.5 405.217 0.5 395V40C0.5 18.1848 18.1848 0.5 40 0.5Z" stroke="url(#paint0_radial_323_10443)"/>
<path d="M40 0.5H370C391.815 0.5 409.5 18.1848 409.5 40V405C409.5 409.694 405.694 413.5 401 413.5H19C8.78274 413.5 0.5 405.217 0.5 395V40C0.5 18.1848 18.1848 0.5 40 0.5Z" stroke="url(#paint1_radial_323_10443)"/>
<path d="M40 0.5H370C391.815 0.5 409.5 18.1848 409.5 40V405C409.5 409.694 405.694 413.5 401 413.5H19C8.78274 413.5 0.5 405.217 0.5 395V40C0.5 18.1848 18.1848 0.5 40 0.5Z" stroke="url(#paint2_radial_323_10443)"/>
</g>
<defs>
<filter id="filter0_b_323_10443" x="-40" y="-40" width="490" height="494" filterUnits="userSpaceOnUse" color-interpolation-filters="sRGB">
<feFlood flood-opacity="0" result="BackgroundImageFix"/>
<feGaussianBlur in="BackgroundImage" stdDeviation="20"/>
<feComposite in2="SourceAlpha" operator="in" result="effect1_backgroundBlur_323_10443"/>
<feBlend mode="normal" in="SourceGraphic" in2="effect1_backgroundBlur_323_10443" result="shape"/>
</filter>
<radialGradient id="paint0_radial_323_10443" cx="0" cy="0" r="1" gradientUnits="userSpaceOnUse" gradientTransform="translate(-218.307 42.3532) rotate(35.3734) scale(474.214 281.043)">
<stop stop-color="white"/>
<stop offset="1" stop-color="white" stop-opacity="0.06"/>
</radialGradient>
<radialGradient id="paint1_radial_323_10443" cx="0" cy="0" r="1" gradientUnits="userSpaceOnUse" gradientTransform="translate(530.033 277.073) rotate(161.17) scale(343.005 234.114)">
<stop stop-color="#8470FF"/>
<stop offset="1" stop-color="#865CFF" stop-opacity="0"/>
</radialGradient>
<radialGradient id="paint2_radial_323_10443" cx="0" cy="0" r="1" gradientUnits="userSpaceOnUse" gradientTransform="translate(209.464 -94.6183) rotate(47.5668) scale(230.328 165.382)">
<stop/>
<stop offset="1" stop-color="white" stop-opacity="0"/>
</radialGradient>
</defs>
</svg>
