<svg width="374" height="188" viewBox="0 0 374 188" fill="none" xmlns="http://www.w3.org/2000/svg">
<g filter="url(#filter0_b_350_6419)">
<path d="M0 36.912C0 14.7623 19.5741 -2.27847 41.5126 0.771811L342.537 42.6255C360.574 45.1332 374 60.5555 374 78.7656V179.79C374 184.324 370.324 188 365.79 188H17.3317C7.75965 188 0 180.24 0 170.668V36.912Z" fill="#151923"/>
<path d="M0.456098 36.912C0.456098 15.0392 19.7855 -1.78859 41.4498 1.22356L342.474 43.0772C360.285 45.5536 373.544 60.7832 373.544 78.7656V179.79C373.544 184.072 370.072 187.544 365.79 187.544H17.3317C8.01155 187.544 0.456098 179.988 0.456098 170.668V36.912Z" stroke="url(#paint0_radial_350_6419)" stroke-width="0.912195"/>
<path d="M0.456098 36.912C0.456098 15.0392 19.7855 -1.78859 41.4498 1.22356L342.474 43.0772C360.285 45.5536 373.544 60.7832 373.544 78.7656V179.79C373.544 184.072 370.072 187.544 365.79 187.544H17.3317C8.01155 187.544 0.456098 179.988 0.456098 170.668V36.912Z" stroke="url(#paint1_radial_350_6419)" stroke-width="0.912195"/>
<path d="M0.456098 36.912C0.456098 15.0392 19.7855 -1.78859 41.4498 1.22356L342.474 43.0772C360.285 45.5536 373.544 60.7832 373.544 78.7656V179.79C373.544 184.072 370.072 187.544 365.79 187.544H17.3317C8.01155 187.544 0.456098 179.988 0.456098 170.668V36.912Z" stroke="url(#paint2_radial_350_6419)" stroke-width="0.912195"/>
</g>
<defs>
<filter id="filter0_b_350_6419" x="-36.4878" y="-36.0703" width="446.976" height="260.558" filterUnits="userSpaceOnUse" color-interpolation-filters="sRGB">
<feFlood flood-opacity="0" result="BackgroundImageFix"/>
<feGaussianBlur in="BackgroundImage" stdDeviation="18.2439"/>
<feComposite in2="SourceAlpha" operator="in" result="effect1_backgroundBlur_350_6419"/>
<feBlend mode="normal" in="SourceGraphic" in2="effect1_backgroundBlur_350_6419" result="shape"/>
</filter>
<radialGradient id="paint0_radial_350_6419" cx="0" cy="0" r="1" gradientUnits="userSpaceOnUse" gradientTransform="translate(-199.139 14.7444) rotate(19.9424) scale(375.22 151.045)">
<stop stop-color="white"/>
<stop offset="1" stop-color="white" stop-opacity="0.06"/>
</radialGradient>
<radialGradient id="paint1_radial_350_6419" cx="0" cy="0" r="1" gradientUnits="userSpaceOnUse" gradientTransform="translate(483.493 124.167) rotate(170.114) scale(300.606 113.599)">
<stop stop-color="#8470FF"/>
<stop offset="1" stop-color="#865CFF" stop-opacity="0"/>
</radialGradient>
<radialGradient id="paint2_radial_350_6419" cx="0" cy="0" r="1" gradientUnits="userSpaceOnUse" gradientTransform="translate(191.072 -49.1095) rotate(29.2064) scale(162.411 99.7387)">
<stop/>
<stop offset="1" stop-color="white" stop-opacity="0"/>
</radialGradient>
</defs>
</svg>
