<svg width="410" height="397" viewBox="0 0 410 397" fill="none" xmlns="http://www.w3.org/2000/svg">
<g filter="url(#filter0_b_323_10512)">
<path d="M0 40.2271C0 12.4353 27.6434 -6.88656 53.7433 2.66217L383.743 123.394C399.513 129.163 410 144.167 410 160.959V388C410 392.971 405.971 397 401 397H19C8.5066 397 0 388.493 0 378L0 40.2271Z" fill="#151923"/>
<path d="M0.5 40.2271C0.5 12.7827 27.7978 -6.29764 53.5715 3.13173L383.571 123.863C399.144 129.561 409.5 144.377 409.5 160.959V388C409.5 392.694 405.694 396.5 401 396.5H19C8.78274 396.5 0.5 388.217 0.5 378V40.2271Z" stroke="url(#paint0_radial_323_10512)"/>
<path d="M0.5 40.2271C0.5 12.7827 27.7978 -6.29764 53.5715 3.13173L383.571 123.863C399.144 129.561 409.5 144.377 409.5 160.959V388C409.5 392.694 405.694 396.5 401 396.5H19C8.78274 396.5 0.5 388.217 0.5 378V40.2271Z" stroke="url(#paint1_radial_323_10512)"/>
<path d="M0.5 40.2271C0.5 12.7827 27.7978 -6.29764 53.5715 3.13173L383.571 123.863C399.144 129.561 409.5 144.377 409.5 160.959V388C409.5 392.694 405.694 396.5 401 396.5H19C8.78274 396.5 0.5 388.217 0.5 378V40.2271Z" stroke="url(#paint2_radial_323_10512)"/>
</g>
<defs>
<filter id="filter0_b_323_10512" x="-40" y="-39.8079" width="490" height="476.808" filterUnits="userSpaceOnUse" color-interpolation-filters="sRGB">
<feFlood flood-opacity="0" result="BackgroundImageFix"/>
<feGaussianBlur in="BackgroundImage" stdDeviation="20"/>
<feComposite in2="SourceAlpha" operator="in" result="effect1_backgroundBlur_323_10512"/>
<feBlend mode="normal" in="SourceGraphic" in2="effect1_backgroundBlur_323_10512" result="shape"/>
</filter>
<radialGradient id="paint0_radial_323_10512" cx="0" cy="0" r="1" gradientUnits="userSpaceOnUse" gradientTransform="translate(-218.307 25.3532) rotate(35.3734) scale(474.214 281.043)">
<stop stop-color="white"/>
<stop offset="1" stop-color="white" stop-opacity="0.06"/>
</radialGradient>
<radialGradient id="paint1_radial_323_10512" cx="0" cy="0" r="1" gradientUnits="userSpaceOnUse" gradientTransform="translate(530.033 260.073) rotate(161.17) scale(343.005 234.114)">
<stop stop-color="#8470FF"/>
<stop offset="1" stop-color="#865CFF" stop-opacity="0"/>
</radialGradient>
<radialGradient id="paint2_radial_323_10512" cx="0" cy="0" r="1" gradientUnits="userSpaceOnUse" gradientTransform="translate(209.464 -111.618) rotate(47.5668) scale(230.328 165.382)">
<stop/>
<stop offset="1" stop-color="white" stop-opacity="0"/>
</radialGradient>
</defs>
</svg>
