<svg width="139" height="210" viewBox="0 0 139 210" fill="none" xmlns="http://www.w3.org/2000/svg">
<rect x="69" width="2" height="126" rx="1" fill="url(#paint0_linear_323_10446)"/>
<g filter="url(#filter0_bf_323_10446)">
<ellipse rx="13.7778" ry="18.6984" transform="matrix(1 0 0 -1 62.7778 136.698)" fill="#9245DE"/>
<ellipse rx="13.7193" ry="18.6476" transform="matrix(1 0 0 -1 75.9185 141.788)" fill="#5F7EFF"/>
</g>
<path d="M80 142.993C76.077 143.349 73.8231 143.677 72.4394 144.761C70.8131 146.029 70.428 148.353 70 153C69.5578 148.182 69.1583 145.872 67.3752 144.632C65.9914 143.663 63.7518 143.349 60 143.007C63.9087 142.651 66.1769 142.323 67.5464 141.254C69.1869 139.971 69.572 137.661 70 133C70.3994 137.291 70.7561 139.586 72.0827 140.912C73.4094 142.237 75.7204 142.608 80 142.993Z" fill="white"/>
<defs>
<filter id="filter0_bf_323_10446" x="-38.18" y="30.82" width="214.999" height="216.795" filterUnits="userSpaceOnUse" color-interpolation-filters="sRGB">
<feFlood flood-opacity="0" result="BackgroundImageFix"/>
<feGaussianBlur in="BackgroundImage" stdDeviation="43.59"/>
<feComposite in2="SourceAlpha" operator="in" result="effect1_backgroundBlur_323_10446"/>
<feBlend mode="normal" in="SourceGraphic" in2="effect1_backgroundBlur_323_10446" result="shape"/>
<feGaussianBlur stdDeviation="24.355" result="effect2_foregroundBlur_323_10446"/>
</filter>
<linearGradient id="paint0_linear_323_10446" x1="96" y1="-5.93566e-08" x2="124.5" y2="185.5" gradientUnits="userSpaceOnUse">
<stop stop-color="#E1E1E1" stop-opacity="0"/>
<stop offset="0.984375" stop-color="#D9D9D9"/>
</linearGradient>
</defs>
</svg>
