<svg width="45" height="45" viewBox="0 0 45 45" fill="none" xmlns="http://www.w3.org/2000/svg">
<g style="mix-blend-mode:hard-light">
<path fill-rule="evenodd" clip-rule="evenodd" d="M30.3736 7.3396C32.6059 7.3396 34.7534 8.22303 36.3332 9.80822C37.9146 11.3901 38.7986 13.5236 38.7986 15.7572V28.9254C38.7986 33.576 35.0197 37.3431 30.3736 37.3431H13.928C9.28183 37.3431 5.50464 33.576 5.50464 28.9254V15.7572C5.50464 11.1067 9.26519 7.3396 13.928 7.3396H30.3736ZM33.0221 18.2409L33.1553 18.1075C33.5531 17.6241 33.5531 16.924 33.137 16.4406C32.9056 16.1923 32.5876 16.0406 32.2563 16.0073C31.9067 15.9889 31.5738 16.1073 31.3224 16.3406L23.8163 22.3413C22.8508 23.1431 21.4674 23.1431 20.4869 22.3413L12.9958 16.3406C12.4781 15.9573 11.7622 16.0073 11.3311 16.4573C10.8816 16.9074 10.8317 17.6241 11.2129 18.1242L11.431 18.3409L19.0053 24.2582C19.9376 24.9916 21.0679 25.3917 22.2515 25.3917C23.4318 25.3917 24.5821 24.9916 25.5127 24.2582L33.0221 18.2409Z" stroke="#6A2CAD" stroke-width="4.07159"/>
</g>
<g style="mix-blend-mode:hard-light">
<path fill-rule="evenodd" clip-rule="evenodd" d="M30.3736 7.3396C32.6059 7.3396 34.7534 8.22303 36.3332 9.80822C37.9146 11.3901 38.7986 13.5236 38.7986 15.7572V28.9254C38.7986 33.576 35.0197 37.3431 30.3736 37.3431H13.928C9.28183 37.3431 5.50464 33.576 5.50464 28.9254V15.7572C5.50464 11.1067 9.26519 7.3396 13.928 7.3396H30.3736ZM33.0221 18.2409L33.1553 18.1075C33.5531 17.6241 33.5531 16.924 33.137 16.4406C32.9056 16.1923 32.5876 16.0406 32.2563 16.0073C31.9067 15.9889 31.5738 16.1073 31.3224 16.3406L23.8163 22.3413C22.8508 23.1431 21.4674 23.1431 20.4869 22.3413L12.9958 16.3406C12.4781 15.9573 11.7622 16.0073 11.3311 16.4573C10.8816 16.9074 10.8317 17.6241 11.2129 18.1242L11.431 18.3409L19.0053 24.2582C19.9376 24.9916 21.0679 25.3917 22.2515 25.3917C23.4318 25.3917 24.5821 24.9916 25.5127 24.2582L33.0221 18.2409Z" stroke="#6A2CAD" stroke-width="5.32439"/>
</g>
<g style="mix-blend-mode:hard-light" filter="url(#filter0_i_254_2020)">
<path fill-rule="evenodd" clip-rule="evenodd" d="M30.3736 7.3396C32.6059 7.3396 34.7534 8.22303 36.3332 9.80822C37.9146 11.3901 38.7986 13.5236 38.7986 15.7572V28.9254C38.7986 33.576 35.0197 37.3431 30.3736 37.3431H13.928C9.28183 37.3431 5.50464 33.576 5.50464 28.9254V15.7572C5.50464 11.1067 9.26519 7.3396 13.928 7.3396H30.3736ZM33.0221 18.2409L33.1553 18.1075C33.5531 17.6241 33.5531 16.924 33.137 16.4406C32.9056 16.1923 32.5876 16.0406 32.2563 16.0073C31.9067 15.9889 31.5738 16.1073 31.3224 16.3406L23.8163 22.3413C22.8508 23.1431 21.4674 23.1431 20.4869 22.3413L12.9958 16.3406C12.4781 15.9573 11.7622 16.0073 11.3311 16.4573C10.8816 16.9074 10.8317 17.6241 11.2129 18.1242L11.431 18.3409L19.0053 24.2582C19.9376 24.9916 21.0679 25.3917 22.2515 25.3917C23.4318 25.3917 24.5821 24.9916 25.5127 24.2582L33.0221 18.2409Z" stroke="#6A2CAD" stroke-opacity="0.2" stroke-width="4.07159"/>
</g>
<g filter="url(#filter1_f_254_2020)">
<path fill-rule="evenodd" clip-rule="evenodd" d="M30.3736 7.3396C32.6059 7.3396 34.7534 8.22303 36.3332 9.80822C37.9146 11.3901 38.7986 13.5236 38.7986 15.7572V28.9254C38.7986 33.576 35.0197 37.3431 30.3736 37.3431H13.928C9.28183 37.3431 5.50464 33.576 5.50464 28.9254V15.7572C5.50464 11.1067 9.26519 7.3396 13.928 7.3396H30.3736ZM33.0221 18.2409L33.1553 18.1075C33.5531 17.6241 33.5531 16.924 33.137 16.4406C32.9056 16.1923 32.5876 16.0406 32.2563 16.0073C31.9067 15.9889 31.5738 16.1073 31.3224 16.3406L23.8163 22.3413C22.8508 23.1431 21.4674 23.1431 20.4869 22.3413L12.9958 16.3406C12.4781 15.9573 11.7622 16.0073 11.3311 16.4573C10.8816 16.9074 10.8317 17.6241 11.2129 18.1242L11.431 18.3409L19.0053 24.2582C19.9376 24.9916 21.0679 25.3917 22.2515 25.3917C23.4318 25.3917 24.5821 24.9916 25.5127 24.2582L33.0221 18.2409Z" stroke="#6A2CAD" stroke-width="2.50559"/>
</g>
<g filter="url(#filter2_f_254_2020)">
<path fill-rule="evenodd" clip-rule="evenodd" d="M30.3736 7.3396C32.6059 7.3396 34.7534 8.22303 36.3332 9.80822C37.9146 11.3901 38.7986 13.5236 38.7986 15.7572V28.9254C38.7986 33.576 35.0197 37.3431 30.3736 37.3431H13.928C9.28183 37.3431 5.50464 33.576 5.50464 28.9254V15.7572C5.50464 11.1067 9.26519 7.3396 13.928 7.3396H30.3736ZM33.0221 18.2409L33.1553 18.1075C33.5531 17.6241 33.5531 16.924 33.137 16.4406C32.9056 16.1923 32.5876 16.0406 32.2563 16.0073C31.9067 15.9889 31.5738 16.1073 31.3224 16.3406L23.8163 22.3413C22.8508 23.1431 21.4674 23.1431 20.4869 22.3413L12.9958 16.3406C12.4781 15.9573 11.7622 16.0073 11.3311 16.4573C10.8816 16.9074 10.8317 17.6241 11.2129 18.1242L11.431 18.3409L19.0053 24.2582C19.9376 24.9916 21.0679 25.3917 22.2515 25.3917C23.4318 25.3917 24.5821 24.9916 25.5127 24.2582L33.0221 18.2409Z" stroke="white" stroke-width="1.2528"/>
</g>
<g filter="url(#filter3_b_254_2020)">
<path fill-rule="evenodd" clip-rule="evenodd" d="M30.3642 7.3396C32.5957 7.3396 34.7424 8.22179 36.3216 9.80475C37.9025 11.3844 38.7861 13.515 38.7861 15.7454V28.8952C38.7861 33.5392 35.0086 37.301 30.3642 37.301H13.9248C9.28041 37.301 5.50464 33.5392 5.50464 28.8952V15.7454C5.50464 11.1014 9.26377 7.3396 13.9248 7.3396H30.3642ZM33.0117 18.2256L33.1449 18.0924C33.5426 17.6097 33.5426 16.9106 33.1266 16.4279C32.8953 16.1799 32.5774 16.0284 32.2463 15.9951C31.8968 15.9768 31.564 16.095 31.3127 16.328L23.8094 22.3203C22.8443 23.1209 21.4614 23.1209 20.4813 22.3203L12.993 16.328C12.4754 15.9452 11.7599 15.9951 11.3289 16.4445C10.8796 16.894 10.8297 17.6097 11.2107 18.1091L11.4287 18.3254L19.0003 24.2345C19.9321 24.9669 21.062 25.3664 22.2452 25.3664C23.425 25.3664 24.5749 24.9669 25.5051 24.2345L33.0117 18.2256Z" fill="#6A2CAD" fill-opacity="0.01"/>
</g>
<defs>
<filter id="filter0_i_254_2020" x="1.88669" y="5.30371" width="38.9477" height="35.6573" filterUnits="userSpaceOnUse" color-interpolation-filters="sRGB">
<feFlood flood-opacity="0" result="BackgroundImageFix"/>
<feBlend mode="normal" in="SourceGraphic" in2="BackgroundImageFix" result="shape"/>
<feColorMatrix in="SourceAlpha" type="matrix" values="0 0 0 0 0 0 0 0 0 0 0 0 0 0 0 0 0 0 127 0" result="hardAlpha"/>
<feOffset dx="-1.58215" dy="3.1643"/>
<feGaussianBlur stdDeviation="0.791076"/>
<feComposite in2="hardAlpha" operator="arithmetic" k2="-1" k3="1"/>
<feColorMatrix type="matrix" values="0 0 0 0 1 0 0 0 0 1 0 0 0 0 1 0 0 0 0.5 0"/>
<feBlend mode="normal" in2="shape" result="effect1_innerShadow_254_2020"/>
</filter>
<filter id="filter1_f_254_2020" x="3.62543" y="5.46052" width="37.0524" height="33.7618" filterUnits="userSpaceOnUse" color-interpolation-filters="sRGB">
<feFlood flood-opacity="0" result="BackgroundImageFix"/>
<feBlend mode="normal" in="SourceGraphic" in2="BackgroundImageFix" result="shape"/>
<feGaussianBlur stdDeviation="0.313199" result="effect1_foregroundBlur_254_2020"/>
</filter>
<filter id="filter2_f_254_2020" x="4.46064" y="6.29554" width="35.382" height="32.0915" filterUnits="userSpaceOnUse" color-interpolation-filters="sRGB">
<feFlood flood-opacity="0" result="BackgroundImageFix"/>
<feBlend mode="normal" in="SourceGraphic" in2="BackgroundImageFix" result="shape"/>
<feGaussianBlur stdDeviation="0.208799" result="effect1_foregroundBlur_254_2020"/>
</filter>
<filter id="filter3_b_254_2020" x="-9.17437" y="-7.33941" width="62.6395" height="59.3195" filterUnits="userSpaceOnUse" color-interpolation-filters="sRGB">
<feFlood flood-opacity="0" result="BackgroundImageFix"/>
<feGaussianBlur in="BackgroundImage" stdDeviation="7.33951"/>
<feComposite in2="SourceAlpha" operator="in" result="effect1_backgroundBlur_254_2020"/>
<feBlend mode="normal" in="SourceGraphic" in2="effect1_backgroundBlur_254_2020" result="shape"/>
</filter>
</defs>
</svg>
