<svg width="40" height="40" viewBox="0 0 40 40" fill="none" xmlns="http://www.w3.org/2000/svg">
<g style="mix-blend-mode:hard-light">
<path d="M34.4606 6.08286C33.7141 5.31565 32.6092 5.02982 31.5789 5.33069L7.55494 12.3259C6.46797 12.6283 5.69752 13.4963 5.48998 14.599C5.27796 15.7212 6.01861 17.1458 6.98614 17.7415L14.4979 22.3644C15.2683 22.8382 16.2627 22.7194 16.9003 22.0755L25.502 13.409C25.935 12.9577 26.6516 12.9577 27.0846 13.409C27.5176 13.8453 27.5176 14.5523 27.0846 15.0036L18.4679 23.6717C17.8289 24.314 17.7095 25.3144 18.1799 26.0906L22.7697 33.6876C23.3072 34.5902 24.2329 35.1017 25.2482 35.1017C25.3676 35.1017 25.502 35.1017 25.6214 35.0866C26.786 34.9362 27.7117 34.1389 28.0552 33.0106L35.1773 8.98625C35.4909 7.96329 35.2072 6.85008 34.4606 6.08286Z" stroke="#6A2CAD" stroke-width="3.65039"/>
</g>
<g style="mix-blend-mode:hard-light">
<path d="M34.4606 6.08286C33.7141 5.31565 32.6092 5.02982 31.5789 5.33069L7.55494 12.3259C6.46797 12.6283 5.69752 13.4963 5.48998 14.599C5.27796 15.7212 6.01861 17.1458 6.98614 17.7415L14.4979 22.3644C15.2683 22.8382 16.2627 22.7194 16.9003 22.0755L25.502 13.409C25.935 12.9577 26.6516 12.9577 27.0846 13.409C27.5176 13.8453 27.5176 14.5523 27.0846 15.0036L18.4679 23.6717C17.8289 24.314 17.7095 25.3144 18.1799 26.0906L22.7697 33.6876C23.3072 34.5902 24.2329 35.1017 25.2482 35.1017C25.3676 35.1017 25.502 35.1017 25.6214 35.0866C26.786 34.9362 27.7117 34.1389 28.0552 33.0106L35.1773 8.98625C35.4909 7.96329 35.2072 6.85008 34.4606 6.08286Z" stroke="#6A2CAD" stroke-width="4.77359"/>
</g>
<g style="mix-blend-mode:hard-light" filter="url(#filter0_i_254_2022)">
<path d="M34.4606 6.08286C33.7141 5.31565 32.6092 5.02982 31.5789 5.33069L7.55494 12.3259C6.46797 12.6283 5.69752 13.4963 5.48998 14.599C5.27796 15.7212 6.01861 17.1458 6.98614 17.7415L14.4979 22.3644C15.2683 22.8382 16.2627 22.7194 16.9003 22.0755L25.502 13.409C25.935 12.9577 26.6516 12.9577 27.0846 13.409C27.5176 13.8453 27.5176 14.5523 27.0846 15.0036L18.4679 23.6717C17.8289 24.314 17.7095 25.3144 18.1799 26.0906L22.7697 33.6876C23.3072 34.5902 24.2329 35.1017 25.2482 35.1017C25.3676 35.1017 25.502 35.1017 25.6214 35.0866C26.786 34.9362 27.7117 34.1389 28.0552 33.0106L35.1773 8.98625C35.4909 7.96329 35.2072 6.85008 34.4606 6.08286Z" stroke="#8350E5" stroke-opacity="0.2" stroke-width="3.65039"/>
</g>
<g filter="url(#filter1_f_254_2022)">
<path d="M34.4606 6.08286C33.7141 5.31565 32.6092 5.02982 31.5789 5.33069L7.55494 12.3259C6.46797 12.6283 5.69752 13.4963 5.48998 14.599C5.27796 15.7212 6.01861 17.1458 6.98614 17.7415L14.4979 22.3644C15.2683 22.8382 16.2627 22.7194 16.9003 22.0755L25.502 13.409C25.935 12.9577 26.6516 12.9577 27.0846 13.409C27.5176 13.8453 27.5176 14.5523 27.0846 15.0036L18.4679 23.6717C17.8289 24.314 17.7095 25.3144 18.1799 26.0906L22.7697 33.6876C23.3072 34.5902 24.2329 35.1017 25.2482 35.1017C25.3676 35.1017 25.502 35.1017 25.6214 35.0866C26.786 34.9362 27.7117 34.1389 28.0552 33.0106L35.1773 8.98625C35.4909 7.96329 35.2072 6.85008 34.4606 6.08286Z" stroke="#6A2CAD" stroke-width="2.24639"/>
</g>
<g filter="url(#filter2_f_254_2022)">
<path d="M34.4606 6.08286C33.7141 5.31565 32.6092 5.02982 31.5789 5.33069L7.55494 12.3259C6.46797 12.6283 5.69752 13.4963 5.48998 14.599C5.27796 15.7212 6.01861 17.1458 6.98614 17.7415L14.4979 22.3644C15.2683 22.8382 16.2627 22.7194 16.9003 22.0755L25.502 13.409C25.935 12.9577 26.6516 12.9577 27.0846 13.409C27.5176 13.8453 27.5176 14.5523 27.0846 15.0036L18.4679 23.6717C17.8289 24.314 17.7095 25.3144 18.1799 26.0906L22.7697 33.6876C23.3072 34.5902 24.2329 35.1017 25.2482 35.1017C25.3676 35.1017 25.502 35.1017 25.6214 35.0866C26.786 34.9362 27.7117 34.1389 28.0552 33.0106L35.1773 8.98625C35.4909 7.96329 35.2072 6.85008 34.4606 6.08286Z" stroke="white" stroke-width="1.1232"/>
</g>
<g filter="url(#filter3_b_254_2022)">
<path d="M34.4497 6.08165C33.7035 5.31551 32.599 5.03008 31.5692 5.33053L7.55423 12.3159C6.46766 12.6179 5.69743 13.4847 5.48997 14.5858C5.27803 15.7065 6.01836 17.1291 6.98552 17.724L14.4944 22.3403C15.2646 22.8135 16.2586 22.6949 16.896 22.0519L25.4945 13.3975C25.9273 12.9469 26.6437 12.9469 27.0766 13.3975C27.5094 13.8332 27.5094 14.5392 27.0766 14.9899L18.4631 23.6458C17.8243 24.2872 17.705 25.2862 18.1751 26.0614L22.7632 33.6477C23.3005 34.549 24.2259 35.0598 25.2409 35.0598C25.3603 35.0598 25.4945 35.0598 25.6139 35.0447C26.778 34.8945 27.7034 34.0983 28.0467 32.9716L35.1661 8.98096C35.4796 7.95944 35.196 6.84779 34.4497 6.08165Z" fill="#6A2CAD" fill-opacity="0.01"/>
</g>
<defs>
<filter id="filter0_i_254_2022" x="2.2096" y="3.38794" width="34.9192" height="34.9575" filterUnits="userSpaceOnUse" color-interpolation-filters="sRGB">
<feFlood flood-opacity="0" result="BackgroundImageFix"/>
<feBlend mode="normal" in="SourceGraphic" in2="BackgroundImageFix" result="shape"/>
<feColorMatrix in="SourceAlpha" type="matrix" values="0 0 0 0 0 0 0 0 0 0 0 0 0 0 0 0 0 0 127 0" result="hardAlpha"/>
<feOffset dx="-1.41848" dy="2.83696"/>
<feGaussianBlur stdDeviation="0.709241"/>
<feComposite in2="hardAlpha" operator="arithmetic" k2="-1" k3="1"/>
<feColorMatrix type="matrix" values="0 0 0 0 1 0 0 0 0 1 0 0 0 0 1 0 0 0 0.5 0"/>
<feBlend mode="normal" in2="shape" result="effect1_innerShadow_254_2022"/>
</filter>
<filter id="filter1_f_254_2022" x="3.76859" y="3.52825" width="33.2197" height="33.2582" filterUnits="userSpaceOnUse" color-interpolation-filters="sRGB">
<feFlood flood-opacity="0" result="BackgroundImageFix"/>
<feBlend mode="normal" in="SourceGraphic" in2="BackgroundImageFix" result="shape"/>
<feGaussianBlur stdDeviation="0.280799" result="effect1_foregroundBlur_254_2022"/>
</filter>
<filter id="filter2_f_254_2022" x="4.51745" y="4.27721" width="31.7219" height="31.7605" filterUnits="userSpaceOnUse" color-interpolation-filters="sRGB">
<feFlood flood-opacity="0" result="BackgroundImageFix"/>
<feBlend mode="normal" in="SourceGraphic" in2="BackgroundImageFix" result="shape"/>
<feGaussianBlur stdDeviation="0.1872" result="effect1_foregroundBlur_254_2022"/>
</filter>
<filter id="filter3_b_254_2022" x="-7.70697" y="-7.94736" width="56.1596" height="56.1677" filterUnits="userSpaceOnUse" color-interpolation-filters="sRGB">
<feFlood flood-opacity="0" result="BackgroundImageFix"/>
<feGaussianBlur in="BackgroundImage" stdDeviation="6.58025"/>
<feComposite in2="SourceAlpha" operator="in" result="effect1_backgroundBlur_254_2022"/>
<feBlend mode="normal" in="SourceGraphic" in2="effect1_backgroundBlur_254_2022" result="shape"/>
</filter>
</defs>
</svg>
