<svg width="39" height="39" viewBox="0 0 39 39" fill="none" xmlns="http://www.w3.org/2000/svg">
<g style="mix-blend-mode:hard-light">
<path d="M28.2426 23.33C27.2786 23.1224 26.5162 23.5705 25.841 23.9619C25.1495 24.3652 23.8345 25.4332 23.0808 25.1599C19.2221 23.569 15.5928 20.1872 14.0217 16.3079C13.7448 15.5371 14.8066 14.2122 15.2063 13.5116C15.5943 12.8334 16.0326 12.0626 15.8327 11.0902C15.6521 10.2164 13.3154 7.23934 12.4892 6.42524C11.9443 5.88749 11.3861 5.59173 10.8131 5.54393C8.65862 5.45132 6.2524 8.32977 5.8304 9.01839C4.77316 10.4867 4.77908 12.4406 5.84816 14.8097C8.42462 21.173 18.1693 30.7764 24.5482 33.4532C25.7254 34.0044 26.8019 34.2807 27.7689 34.2807C28.715 34.2807 29.5576 34.0163 30.2816 33.492C30.828 33.1768 33.8206 30.6479 33.7421 28.4327C33.6947 27.868 33.4001 27.3034 32.87 26.7567C32.063 25.9217 29.1088 23.5123 28.2426 23.33Z" stroke="#6A2CAD" stroke-width="3.50999"/>
</g>
<g style="mix-blend-mode:hard-light">
<path d="M28.2426 23.33C27.2786 23.1224 26.5162 23.5705 25.841 23.9619C25.1495 24.3652 23.8345 25.4332 23.0808 25.1599C19.2221 23.569 15.5928 20.1872 14.0217 16.3079C13.7448 15.5371 14.8066 14.2122 15.2063 13.5116C15.5943 12.8334 16.0326 12.0626 15.8327 11.0902C15.6521 10.2164 13.3154 7.23934 12.4892 6.42524C11.9443 5.88749 11.3861 5.59173 10.8131 5.54393C8.65862 5.45132 6.2524 8.32977 5.8304 9.01839C4.77316 10.4867 4.77908 12.4406 5.84816 14.8097C8.42462 21.173 18.1693 30.7764 24.5482 33.4532C25.7254 34.0044 26.8019 34.2807 27.7689 34.2807C28.715 34.2807 29.5576 34.0163 30.2816 33.492C30.828 33.1768 33.8206 30.6479 33.7421 28.4327C33.6947 27.868 33.4001 27.3034 32.87 26.7567C32.063 25.9217 29.1088 23.5123 28.2426 23.33Z" stroke="#6A2CAD" stroke-width="4.58999"/>
</g>
<g style="mix-blend-mode:hard-light" filter="url(#filter0_i_254_2021)">
<path d="M28.2426 23.33C27.2786 23.1224 26.5162 23.5705 25.841 23.9619C25.1495 24.3652 23.8345 25.4332 23.0808 25.1599C19.2221 23.569 15.5928 20.1872 14.0217 16.3079C13.7448 15.5371 14.8066 14.2122 15.2063 13.5116C15.5943 12.8334 16.0326 12.0626 15.8327 11.0902C15.6521 10.2164 13.3154 7.23934 12.4892 6.42524C11.9443 5.88749 11.3861 5.59173 10.8131 5.54393C8.65862 5.45132 6.2524 8.32977 5.8304 9.01839C4.77316 10.4867 4.77908 12.4406 5.84816 14.8097C8.42462 21.173 18.1693 30.7764 24.5482 33.4532C25.7254 34.0044 26.8019 34.2807 27.7689 34.2807C28.715 34.2807 29.5576 34.0163 30.2816 33.492C30.828 33.1768 33.8206 30.6479 33.7421 28.4327C33.6947 27.868 33.4001 27.3034 32.87 26.7567C32.063 25.9217 29.1088 23.5123 28.2426 23.33Z" stroke="#6A2CAD" stroke-opacity="0.2" stroke-width="3.50999"/>
</g>
<g filter="url(#filter1_f_254_2021)">
<path d="M28.2426 23.33C27.2786 23.1224 26.5162 23.5705 25.841 23.9619C25.1495 24.3652 23.8345 25.4332 23.0808 25.1599C19.2221 23.569 15.5928 20.1872 14.0217 16.3079C13.7448 15.5371 14.8066 14.2122 15.2063 13.5116C15.5943 12.8334 16.0326 12.0626 15.8327 11.0902C15.6521 10.2164 13.3154 7.23934 12.4892 6.42524C11.9443 5.88749 11.3861 5.59173 10.8131 5.54393C8.65862 5.45132 6.2524 8.32977 5.8304 9.01839C4.77316 10.4867 4.77908 12.4406 5.84816 14.8097C8.42462 21.173 18.1693 30.7764 24.5482 33.4532C25.7254 34.0044 26.8019 34.2807 27.7689 34.2807C28.715 34.2807 29.5576 34.0163 30.2816 33.492C30.828 33.1768 33.8206 30.6479 33.7421 28.4327C33.6947 27.868 33.4001 27.3034 32.87 26.7567C32.063 25.9217 29.1088 23.5123 28.2426 23.33Z" stroke="#6A2CAD" stroke-width="2.15999"/>
</g>
<g filter="url(#filter2_f_254_2021)">
<path d="M28.2426 23.33C27.2786 23.1224 26.5162 23.5705 25.841 23.9619C25.1495 24.3652 23.8345 25.4332 23.0808 25.1599C19.2221 23.569 15.5928 20.1872 14.0217 16.3079C13.7448 15.5371 14.8066 14.2122 15.2063 13.5116C15.5943 12.8334 16.0326 12.0626 15.8327 11.0902C15.6521 10.2164 13.3154 7.23934 12.4892 6.42524C11.9443 5.88749 11.3861 5.59173 10.8131 5.54393C8.65862 5.45132 6.2524 8.32977 5.8304 9.01839C4.77316 10.4867 4.77908 12.4406 5.84816 14.8097C8.42462 21.173 18.1693 30.7764 24.5482 33.4532C25.7254 34.0044 26.8019 34.2807 27.7689 34.2807C28.715 34.2807 29.5576 34.0163 30.2816 33.492C30.828 33.1768 33.8206 30.6479 33.7421 28.4327C33.6947 27.868 33.4001 27.3034 32.87 26.7567C32.063 25.9217 29.1088 23.5123 28.2426 23.33Z" stroke="white" stroke-width="1.08"/>
</g>
<g filter="url(#filter3_b_254_2021)">
<path d="M28.2339 23.3051C27.2704 23.0977 26.508 23.5452 25.8331 23.9361C25.1418 24.3388 23.8274 25.4053 23.074 25.1324C19.2167 23.5437 15.5889 20.1666 14.0184 16.2928C13.7416 15.5231 14.8029 14.2 15.2025 13.5004C15.5903 12.8232 16.0284 12.0535 15.8286 11.0825C15.648 10.2098 13.3124 7.23699 12.4864 6.42403C11.9417 5.88704 11.3837 5.59166 10.8109 5.54393C8.65725 5.45145 6.2519 8.32586 5.83005 9.01351C4.77321 10.4798 4.77923 12.4309 5.84791 14.7967C8.4234 21.1511 18.1644 30.741 24.5409 33.414C25.7176 33.9645 26.7937 34.2404 27.7603 34.2404C28.7061 34.2404 29.5484 33.9764 30.2722 33.4528C30.8184 33.1381 33.8098 30.6127 33.7313 28.4006C33.6839 27.8367 33.3894 27.2729 32.8595 26.7269C32.0528 25.8931 29.0998 23.4871 28.2339 23.3051Z" fill="#6A2CAD" fill-opacity="0.01"/>
</g>
<defs>
<filter id="filter0_i_254_2021" x="1.9229" y="3.78662" width="33.5757" height="33.6129" filterUnits="userSpaceOnUse" color-interpolation-filters="sRGB">
<feFlood flood-opacity="0" result="BackgroundImageFix"/>
<feBlend mode="normal" in="SourceGraphic" in2="BackgroundImageFix" result="shape"/>
<feColorMatrix in="SourceAlpha" type="matrix" values="0 0 0 0 0 0 0 0 0 0 0 0 0 0 0 0 0 0 127 0" result="hardAlpha"/>
<feOffset dx="-1.36392" dy="2.72785"/>
<feGaussianBlur stdDeviation="0.681962"/>
<feComposite in2="hardAlpha" operator="arithmetic" k2="-1" k3="1"/>
<feColorMatrix type="matrix" values="0 0 0 0 1 0 0 0 0 1 0 0 0 0 1 0 0 0 0.5 0"/>
<feBlend mode="normal" in2="shape" result="effect1_innerShadow_254_2021"/>
</filter>
<filter id="filter1_f_254_2021" x="3.42185" y="3.92167" width="31.9417" height="31.9789" filterUnits="userSpaceOnUse" color-interpolation-filters="sRGB">
<feFlood flood-opacity="0" result="BackgroundImageFix"/>
<feBlend mode="normal" in="SourceGraphic" in2="BackgroundImageFix" result="shape"/>
<feGaussianBlur stdDeviation="0.269999" result="effect1_foregroundBlur_254_2021"/>
</filter>
<filter id="filter2_f_254_2021" x="4.14188" y="4.64171" width="30.5017" height="30.5391" filterUnits="userSpaceOnUse" color-interpolation-filters="sRGB">
<feFlood flood-opacity="0" result="BackgroundImageFix"/>
<feBlend mode="normal" in="SourceGraphic" in2="BackgroundImageFix" result="shape"/>
<feGaussianBlur stdDeviation="0.18" result="effect1_foregroundBlur_254_2021"/>
</filter>
<filter id="filter3_b_254_2021" x="-7.61244" y="-7.11257" width="53.9996" height="54.0074" filterUnits="userSpaceOnUse" color-interpolation-filters="sRGB">
<feFlood flood-opacity="0" result="BackgroundImageFix"/>
<feGaussianBlur in="BackgroundImage" stdDeviation="6.32716"/>
<feComposite in2="SourceAlpha" operator="in" result="effect1_backgroundBlur_254_2021"/>
<feBlend mode="normal" in="SourceGraphic" in2="effect1_backgroundBlur_254_2021" result="shape"/>
</filter>
</defs>
</svg>
