<svg width="28" height="28" viewBox="0 0 28 28" fill="none" xmlns="http://www.w3.org/2000/svg">
<path fill-rule="evenodd" clip-rule="evenodd" d="M26.5604 3.82707C26.7172 3.67049 26.8416 3.48455 26.9265 3.27988C27.0114 3.07522 27.0552 2.85583 27.0554 2.63424C27.0555 2.41266 27.012 2.19322 26.9273 1.98845C26.8426 1.78368 26.7185 1.59759 26.5619 1.44081C26.4053 1.28403 26.2194 1.15962 26.0147 1.0747C25.81 0.989777 25.5906 0.945998 25.369 0.945861C25.1475 0.945725 24.928 0.989235 24.7232 1.07391C24.5185 1.15858 24.3324 1.28275 24.1756 1.43934L13.9999 11.6151L3.82707 1.43934C3.51044 1.12271 3.08099 0.944824 2.63321 0.944824C2.18542 0.944824 1.75597 1.12271 1.43934 1.43934C1.12271 1.75597 0.944824 2.18542 0.944824 2.63321C0.944824 3.08099 1.12271 3.51044 1.43934 3.82707L11.6151 13.9999L1.43934 24.1727C1.28256 24.3295 1.15819 24.5156 1.07334 24.7204C0.988495 24.9253 0.944824 25.1448 0.944824 25.3665C0.944824 25.5883 0.988495 25.8078 1.07334 26.0127C1.15819 26.2175 1.28256 26.4036 1.43934 26.5604C1.75597 26.877 2.18542 27.0549 2.63321 27.0549C2.85493 27.0549 3.07448 27.0112 3.27932 26.9264C3.48417 26.8416 3.67029 26.7172 3.82707 26.5604L13.9999 16.3847L24.1756 26.5604C24.4922 26.8766 24.9215 27.0542 25.369 27.0539C25.8166 27.0536 26.2456 26.8756 26.5619 26.5589C26.8781 26.2423 27.0556 25.813 27.0554 25.3655C27.0551 24.918 26.877 24.4889 26.5604 24.1727L16.3847 13.9999L26.5604 3.82707Z" fill="#FF93BD"/>
</svg>
