<svg width="257" height="180" viewBox="0 0 257 180" fill="none" xmlns="http://www.w3.org/2000/svg">
<g filter="url(#filter0_f_302_138)">
<ellipse cx="128.723" cy="82.7841" rx="91" ry="46.5" transform="rotate(-21.5725 128.723 82.7841)" fill="url(#paint0_radial_302_138)"/>
</g>
<circle cx="128" cy="83" r="43" fill="black"/>
<g style="mix-blend-mode:lighten">
<path d="M32.8531 84.906C32.1545 84.906 31.5058 84.7812 30.907 84.5317C30.3082 84.2573 29.7843 83.8955 29.3352 83.4465C28.8861 82.9974 28.5243 82.4734 28.2499 81.8746C28.0004 81.2759 27.8757 80.6272 27.8757 79.9286C27.8757 79.23 28.0004 78.5813 28.2499 77.9826C28.5243 77.3838 28.8861 76.8598 29.3352 76.4107C29.7843 75.9617 30.3082 75.6124 30.907 75.3629C31.5058 75.0884 32.1545 74.9512 32.8531 74.9512H55.5694C56.0684 74.9512 56.4925 75.1259 56.8418 75.4752C57.1911 75.8244 57.3657 76.2486 57.3657 76.7476C57.3657 77.2466 57.1911 77.6707 56.8418 78.02C56.4925 78.3693 56.0684 78.5439 55.5694 78.5439H32.7782C32.404 78.5439 32.0671 78.6811 31.7678 78.9556C31.4933 79.2051 31.3561 79.5294 31.3561 79.9286C31.3561 80.3028 31.4933 80.6272 31.7678 80.9016C32.0671 81.1761 32.404 81.3133 32.7782 81.3133H53.4736C54.1722 81.3133 54.8209 81.4505 55.4197 81.7249C56.0434 81.9744 56.5798 82.3237 57.0289 82.7728C57.478 83.2219 57.8273 83.7583 58.0768 84.382C58.3512 84.9808 58.4884 85.6295 58.4884 86.3281C58.4884 87.0267 58.3512 87.6754 58.0768 88.2741C57.8273 88.8729 57.478 89.3969 57.0289 89.8459C56.5798 90.295 56.0434 90.6443 55.4197 90.8938C54.8209 91.1433 54.1722 91.2681 53.4736 91.2681H30.7947C30.2957 91.2681 29.8716 91.0934 29.5223 90.7441C29.173 90.3948 28.9984 89.9707 28.9984 89.4717C28.9984 88.9727 29.173 88.5486 29.5223 88.1993C29.8716 87.85 30.2957 87.6754 30.7947 87.6754H53.6233C53.9976 87.6754 54.3219 87.5506 54.5964 87.3011C54.8708 87.0267 55.008 86.7023 55.008 86.3281C55.008 85.9289 54.8708 85.5921 54.5964 85.3176C54.3219 85.0432 53.9976 84.906 53.6233 84.906H32.8531ZM97.2585 74.9512C97.7575 74.9512 98.1816 75.1259 98.5309 75.4752C98.8802 75.8244 99.0548 76.2486 99.0548 76.7476C99.0548 77.2216 98.8927 77.6333 98.5683 77.9826C98.244 78.3069 97.8573 78.494 97.4082 78.5439H89.886C89.1375 78.5938 88.5137 78.7809 88.0148 79.1053C87.5407 79.4047 87.1665 79.7789 86.892 80.228C86.6176 80.6771 86.4305 81.1636 86.3307 81.6875C86.2309 82.2115 86.181 82.6855 86.181 83.1096V89.4717C86.181 89.9707 86.0063 90.3948 85.6571 90.7441C85.3078 91.0934 84.8836 91.2681 84.3846 91.2681C83.8857 91.2681 83.4615 91.0934 83.1122 90.7441C82.7629 90.3948 82.5883 89.9707 82.5883 89.4717V83.1096C82.5883 82.3362 82.6881 81.5628 82.8877 80.7894C83.0873 79.991 83.3867 79.2425 83.7859 78.5439H71.5108C71.0118 78.5439 70.5877 78.3693 70.2384 78.02C69.8891 77.6707 69.7145 77.2466 69.7145 76.7476C69.7145 76.2486 69.8891 75.8244 70.2384 75.4752C70.5877 75.1259 71.0118 74.9512 71.5108 74.9512H97.2585ZM120.154 83.1096C120.154 82.6106 120.329 82.1865 120.678 81.8372C121.027 81.4879 121.451 81.3133 121.95 81.3133H136.284C136.907 81.3133 137.494 81.438 138.043 81.6875C138.592 81.9121 139.066 82.2364 139.465 82.6605C139.889 83.0597 140.213 83.5462 140.438 84.1201C140.662 84.669 140.775 85.2553 140.775 85.879V86.7023C140.775 87.3261 140.662 87.9248 140.438 88.4987C140.213 89.0476 139.889 89.5341 139.465 89.9582C139.066 90.3574 138.592 90.6817 138.043 90.9312C137.494 91.1558 136.907 91.2681 136.284 91.2681H116.786C115.763 91.2681 114.852 91.0186 114.054 90.5196C113.256 90.0206 112.569 89.3844 111.996 88.611C111.447 87.8126 111.023 86.9269 110.723 85.9539C110.424 84.9808 110.274 84.0328 110.274 83.1096C110.274 82.1616 110.424 81.2135 110.723 80.2654C111.048 79.2924 111.509 78.4192 112.108 77.6457C112.707 76.8474 113.43 76.1987 114.278 75.6997C115.127 75.2007 116.087 74.9512 117.16 74.9512H138.978C139.477 74.9512 139.901 75.1259 140.251 75.4752C140.6 75.8244 140.775 76.2486 140.775 76.7476C140.775 77.2466 140.6 77.6707 140.251 78.02C139.901 78.3693 139.477 78.5439 138.978 78.5439H117.983C117.11 78.5439 116.399 78.7061 115.85 79.0304C115.326 79.3298 114.902 79.7041 114.578 80.1531C114.278 80.6022 114.066 81.1012 113.942 81.6501C113.842 82.174 113.792 82.6605 113.792 83.1096C113.792 83.5587 113.842 84.0577 113.942 84.6066C114.066 85.1305 114.278 85.617 114.578 86.0661C114.902 86.5152 115.326 86.9019 115.85 87.2263C116.399 87.5257 117.11 87.6754 117.983 87.6754H136.134C136.433 87.6754 136.695 87.5381 136.92 87.2637C137.169 86.9892 137.294 86.6649 137.294 86.2907C137.294 85.9164 137.182 85.5921 136.957 85.3176C136.758 85.0432 136.483 84.906 136.134 84.906H121.95C121.451 84.906 121.027 84.7313 120.678 84.382C120.329 84.0328 120.154 83.6086 120.154 83.1096ZM183.589 89.4717C183.589 89.9707 183.414 90.3948 183.065 90.7441C182.716 91.0934 182.292 91.2681 181.793 91.2681C181.294 91.2681 180.87 91.0934 180.52 90.7441C180.171 90.3948 179.996 89.9707 179.996 89.4717V81.3133C179.996 80.2904 179.934 79.7789 179.809 79.7789C179.709 79.7789 179.36 80.1157 178.761 80.7894L170.528 90.1453C170.204 90.5196 169.805 90.8065 169.331 91.0061C168.857 91.1807 168.345 91.2681 167.796 91.2681C167.247 91.2681 166.736 91.1807 166.262 91.0061C165.788 90.8065 165.389 90.5196 165.064 90.1453L156.831 80.7894C156.257 80.1157 155.908 79.7789 155.783 79.7789C155.658 79.7789 155.596 80.2904 155.596 81.3133V89.4717C155.596 89.9707 155.421 90.3948 155.072 90.7441C154.723 91.0934 154.299 91.2681 153.8 91.2681C153.301 91.2681 152.876 91.0934 152.527 90.7441C152.178 90.3948 152.003 89.9707 152.003 89.4717V78.5439C152.003 77.5459 152.29 76.6977 152.864 75.9991C153.438 75.3005 154.224 74.9512 155.222 74.9512C155.821 74.9512 156.357 75.1009 156.831 75.4003C157.305 75.6997 157.742 76.0615 158.141 76.4856L166.748 86.2907C166.873 86.4154 167.023 86.5526 167.197 86.7023C167.397 86.8271 167.597 86.8895 167.796 86.8895C167.996 86.8895 168.183 86.8271 168.358 86.7023C168.557 86.5526 168.719 86.4154 168.844 86.2907L177.414 76.4856H177.452C177.801 76.0116 178.225 75.6373 178.724 75.3629C179.223 75.0884 179.772 74.9512 180.371 74.9512C181.369 74.9512 182.154 75.3005 182.728 75.9991C183.302 76.6977 183.589 77.5459 183.589 78.5439V89.4717ZM205.906 87.2263C205.906 86.5776 206.131 86.0287 206.58 85.5796C207.029 85.1305 207.578 84.906 208.227 84.906C208.875 84.906 209.424 85.1305 209.873 85.5796C210.322 86.0287 210.547 86.5776 210.547 87.2263C210.547 87.8749 210.322 88.4238 209.873 88.8729C209.424 89.322 208.875 89.5466 208.227 89.5466C207.578 89.5466 207.029 89.322 206.58 88.8729C206.131 88.4238 205.906 87.8749 205.906 87.2263ZM198.01 90.5944C197.636 91.0435 197.174 91.2681 196.625 91.2681C196.126 91.2681 195.702 91.0934 195.353 90.7441C195.003 90.3948 194.829 89.9707 194.829 89.4717C194.829 89.0226 194.954 88.6609 195.203 88.3864L204.297 76.1488C204.721 75.5749 205.283 75.1134 205.981 74.7641C206.68 74.3899 207.428 74.2027 208.227 74.2027C208.975 74.2027 209.686 74.3649 210.36 74.6892C211.033 75.0136 211.582 75.4627 212.006 76.0365L221.1 88.1993C221.25 88.3739 221.375 88.5735 221.475 88.7981C221.574 88.9977 221.624 89.2222 221.624 89.4717C221.624 89.9707 221.45 90.3948 221.1 90.7441C220.751 91.0934 220.327 91.2681 219.828 91.2681C219.229 91.2681 218.755 91.031 218.406 90.557L209.686 78.9182C209.511 78.7186 209.287 78.5065 209.012 78.2819C208.763 78.0325 208.501 77.9077 208.227 77.9077C207.952 77.9077 207.678 78.0325 207.403 78.2819C207.154 78.5065 206.954 78.7186 206.804 78.9182L198.01 90.5944Z" fill="white"/>
<path d="M30.907 84.5317L30.4904 85.4408L30.5062 85.4481L30.5224 85.4548L30.907 84.5317ZM29.3352 83.4464L28.6281 84.1536L29.3352 83.4464ZM28.2499 81.8746L27.3268 82.2593L27.3336 82.2754L27.3408 82.2913L28.2499 81.8746ZM28.2499 77.9826L27.3408 77.5659L27.3336 77.5818L27.3268 77.5979L28.2499 77.9826ZM29.3352 76.4107L28.6281 75.7036L29.3352 76.4107ZM30.907 75.3629L31.2916 76.286L31.3078 76.2792L31.3237 76.2719L30.907 75.3629ZM56.8418 75.4752L57.5489 74.768L57.5489 74.768L56.8418 75.4752ZM31.7678 78.9556L32.4404 79.6955L32.4435 79.6927L31.7678 78.9556ZM31.7678 80.9016L31.0607 81.6087L31.076 81.6241L31.092 81.6388L31.7678 80.9016ZM55.4197 81.7249L55.003 82.634L55.0254 82.6443L55.0483 82.6534L55.4197 81.7249ZM58.0768 84.382L57.1483 84.7534L57.1575 84.7763L57.1677 84.7987L58.0768 84.382ZM58.0768 88.2741L57.1677 87.8575L57.1604 87.8734L57.1537 87.8895L58.0768 88.2741ZM57.0289 89.8459L56.3218 89.1388L57.0289 89.8459ZM55.4197 90.8938L55.0483 89.9653L55.0417 89.968L55.0351 89.9707L55.4197 90.8938ZM29.5223 88.1993L30.2294 88.9064L29.5223 88.1993ZM54.5964 87.3011L55.269 88.0411L55.2866 88.025L55.3035 88.0082L54.5964 87.3011ZM54.5964 85.3176L55.3035 84.6105L55.3035 84.6105L54.5964 85.3176ZM32.8531 83.906C32.2762 83.906 31.7594 83.8036 31.2916 83.6087L30.5224 85.4548C31.2522 85.7589 32.0327 85.906 32.8531 85.906V83.906ZM31.3237 83.6227C30.8289 83.3959 30.4042 83.1013 30.0423 82.7393L28.6281 84.1536C29.1643 84.6898 29.7876 85.1187 30.4904 85.4408L31.3237 83.6227ZM30.0423 82.7393C29.6804 82.3774 29.3858 81.9528 29.159 81.458L27.3408 82.2913C27.6629 82.9941 28.0919 83.6173 28.6281 84.1536L30.0423 82.7393ZM29.173 81.49C28.9781 81.0222 28.8757 80.5054 28.8757 79.9286H26.8757C26.8757 80.7489 27.0228 81.5295 27.3268 82.2593L29.173 81.49ZM28.8757 79.9286C28.8757 79.3518 28.9781 78.835 29.173 78.3672L27.3268 77.5979C27.0228 78.3277 26.8757 79.1083 26.8757 79.9286H28.8757ZM29.159 78.3992C29.3858 77.9044 29.6804 77.4798 30.0423 77.1179L28.6281 75.7036C28.0919 76.2399 27.6629 76.8631 27.3408 77.5659L29.159 78.3992ZM30.0423 77.1179C30.397 76.7631 30.8108 76.4863 31.2916 76.286L30.5224 74.4398C29.8057 74.7384 29.1715 75.1602 28.6281 75.7036L30.0423 77.1179ZM31.3237 76.2719C31.7839 76.061 32.2894 75.9512 32.8531 75.9512V73.9512C32.0195 73.9512 31.2277 74.1159 30.4904 74.4538L31.3237 76.2719ZM32.8531 75.9512H55.5694V73.9512H32.8531V75.9512ZM55.5694 75.9512C55.8062 75.9512 55.9751 76.0226 56.1347 76.1823L57.5489 74.768C57.0099 74.2291 56.3306 73.9512 55.5694 73.9512V75.9512ZM56.1347 76.1823C56.2943 76.3419 56.3657 76.5108 56.3657 76.7476H58.3657C58.3657 75.9864 58.0879 75.307 57.5489 74.768L56.1347 76.1823ZM56.3657 76.7476C56.3657 76.9844 56.2943 77.1532 56.1347 77.3129L57.5489 78.7271C58.0879 78.1881 58.3657 77.5087 58.3657 76.7476H56.3657ZM56.1347 77.3129C55.9751 77.4725 55.8062 77.5439 55.5694 77.5439V79.5439C56.3306 79.5439 57.0099 79.266 57.5489 78.7271L56.1347 77.3129ZM55.5694 77.5439H32.7782V79.5439H55.5694V77.5439ZM32.7782 77.5439C32.1315 77.5439 31.5587 77.7906 31.092 78.2184L32.4435 79.6927C32.5756 79.5717 32.6764 79.5439 32.7782 79.5439V77.5439ZM31.0951 78.2156C30.595 78.6703 30.3561 79.2718 30.3561 79.9286H32.3561C32.3561 79.787 32.3917 79.7398 32.4404 79.6955L31.0951 78.2156ZM30.3561 79.9286C30.3561 80.5788 30.6064 81.1545 31.0607 81.6087L32.4749 80.1945C32.3802 80.0998 32.3561 80.0268 32.3561 79.9286H30.3561ZM31.092 81.6388C31.5587 82.0666 32.1315 82.3133 32.7782 82.3133V80.3133C32.6764 80.3133 32.5756 80.2855 32.4435 80.1645L31.092 81.6388ZM32.7782 82.3133H53.4736V80.3133H32.7782V82.3133ZM53.4736 82.3133C54.0373 82.3133 54.5428 82.4231 55.003 82.634L55.8363 80.8159C55.099 80.4779 54.3071 80.3133 53.4736 80.3133V82.3133ZM55.0483 82.6534C55.5537 82.8556 55.9739 83.1321 56.3218 83.4799L57.736 82.0657C57.1857 81.5154 56.5332 81.0933 55.7911 80.7965L55.0483 82.6534ZM56.3218 83.4799C56.6697 83.8278 56.9462 84.2481 57.1483 84.7534L59.0053 84.0107C58.7084 83.2686 58.2863 82.616 57.736 82.0657L56.3218 83.4799ZM57.1677 84.7987C57.3786 85.2589 57.4884 85.7644 57.4884 86.3281H59.4884C59.4884 85.4946 59.3238 84.7028 58.9859 83.9654L57.1677 84.7987ZM57.4884 86.3281C57.4884 86.8918 57.3786 87.3973 57.1677 87.8575L58.9859 88.6908C59.3238 87.9534 59.4884 87.1616 59.4884 86.3281H57.4884ZM57.1537 87.8895C56.9534 88.3704 56.6765 88.7841 56.3218 89.1388L57.736 90.553C58.2795 90.0096 58.7012 89.3755 58.9999 88.6588L57.1537 87.8895ZM56.3218 89.1388C55.9739 89.4867 55.5537 89.7632 55.0483 89.9653L55.7911 91.8223C56.5332 91.5255 57.1857 91.1034 57.736 90.553L56.3218 89.1388ZM55.0351 89.9707C54.5673 90.1656 54.0505 90.2681 53.4736 90.2681V92.2681C54.294 92.2681 55.0745 92.121 55.8043 91.8169L55.0351 89.9707ZM53.4736 90.2681H30.7947V92.2681H53.4736V90.2681ZM30.7947 90.2681C30.5579 90.2681 30.3891 90.1966 30.2294 90.037L28.8152 91.4512C29.3542 91.9902 30.0336 92.2681 30.7947 92.2681V90.2681ZM30.2294 90.037C30.0698 89.8774 29.9984 89.7085 29.9984 89.4717H27.9984C27.9984 90.2329 28.2763 90.9123 28.8152 91.4512L30.2294 90.037ZM29.9984 89.4717C29.9984 89.2349 30.0698 89.066 30.2294 88.9064L28.8152 87.4922C28.2763 88.0311 27.9984 88.7105 27.9984 89.4717H29.9984ZM30.2294 88.9064C30.3891 88.7468 30.5579 88.6754 30.7947 88.6754V86.6754C30.0336 86.6754 29.3542 86.9532 28.8152 87.4922L30.2294 88.9064ZM30.7947 88.6754H53.6233V86.6754H30.7947V88.6754ZM53.6233 88.6754C54.2439 88.6754 54.8087 88.4595 55.269 88.0411L53.9237 86.5612C53.8351 86.6417 53.7513 86.6754 53.6233 86.6754V88.6754ZM55.3035 88.0082C55.7577 87.554 56.008 86.9783 56.008 86.3281H54.008C54.008 86.4263 53.9839 86.4993 53.8893 86.594L55.3035 88.0082ZM56.008 86.3281C56.008 85.6722 55.7713 85.0784 55.3035 84.6105L53.8893 86.0248C53.9703 86.1058 54.008 86.1857 54.008 86.3281H56.008ZM55.3035 84.6105C54.8493 84.1563 54.2736 83.906 53.6233 83.906V85.906C53.7216 85.906 53.7946 85.9301 53.8893 86.0248L55.3035 84.6105ZM53.6233 83.906H32.8531V85.906H53.6233V83.906ZM98.5309 75.4752L99.238 74.768V74.768L98.5309 75.4752ZM98.5683 77.9826L99.2754 78.6897L99.2885 78.6766L99.3011 78.663L98.5683 77.9826ZM97.4082 78.5439V79.5439H97.4636L97.5186 79.5378L97.4082 78.5439ZM89.886 78.5439V77.5439H89.8527L89.8194 77.5461L89.886 78.5439ZM88.0148 79.1053L88.5488 79.9508L88.5598 79.9437L88.0148 79.1053ZM86.892 80.228L86.0388 79.7065L86.0388 79.7065L86.892 80.228ZM82.8877 80.7894L83.856 81.0392L83.8578 81.0319L82.8877 80.7894ZM83.7859 78.5439L84.6541 79.0401L85.509 77.5439H83.7859V78.5439ZM70.2384 78.02L70.9455 77.3129L70.2384 78.02ZM70.2384 75.4752L69.5313 74.768V74.768L70.2384 75.4752ZM97.2585 75.9512C97.4953 75.9512 97.6642 76.0226 97.8238 76.1823L99.238 74.768C98.699 74.2291 98.0197 73.9512 97.2585 73.9512V75.9512ZM97.8238 76.1823C97.9834 76.3419 98.0548 76.5108 98.0548 76.7476H100.055C100.055 75.9864 99.777 75.307 99.238 74.768L97.8238 76.1823ZM98.0548 76.7476C98.0548 76.9676 97.9892 77.1366 97.8355 77.3021L99.3011 78.663C99.7961 78.1299 100.055 77.4756 100.055 76.7476H98.0548ZM97.8612 77.2754C97.6948 77.4419 97.5175 77.5256 97.2977 77.55L97.5186 79.5378C98.1971 79.4624 98.7932 79.1719 99.2754 78.6897L97.8612 77.2754ZM97.4082 77.5439H89.886V79.5439H97.4082V77.5439ZM89.8194 77.5461C88.9441 77.6045 88.1447 77.8281 87.4698 78.2668L88.5598 79.9437C88.8828 79.7337 89.3308 79.5831 89.9525 79.5417L89.8194 77.5461ZM87.4808 78.2598C86.8855 78.6357 86.3985 79.1179 86.0388 79.7065L87.7453 80.7494C87.9345 80.44 88.1959 80.1736 88.5488 79.9508L87.4808 78.2598ZM86.0388 79.7065C85.7007 80.2598 85.4704 80.8598 85.3483 81.5004L87.313 81.8746C87.3906 81.4674 87.5345 81.0944 87.7453 80.7494L86.0388 79.7065ZM85.3483 81.5004C85.2397 82.0711 85.181 82.6091 85.181 83.1096H87.181C87.181 82.7619 87.2221 82.3519 87.313 81.8746L85.3483 81.5004ZM85.181 83.1096V89.4717H87.181V83.1096H85.181ZM85.181 89.4717C85.181 89.7085 85.1096 89.8774 84.9499 90.037L86.3642 91.4512C86.9031 90.9123 87.181 90.2329 87.181 89.4717H85.181ZM84.9499 90.037C84.7903 90.1966 84.6214 90.2681 84.3846 90.2681V92.2681C85.1458 92.2681 85.8252 91.9902 86.3642 91.4512L84.9499 90.037ZM84.3846 90.2681C84.1478 90.2681 83.979 90.1966 83.8193 90.037L82.4051 91.4512C82.9441 91.9902 83.6235 92.2681 84.3846 92.2681V90.2681ZM83.8193 90.037C83.6597 89.8774 83.5883 89.7085 83.5883 89.4717H81.5883C81.5883 90.2329 81.8662 90.9123 82.4051 91.4512L83.8193 90.037ZM83.5883 89.4717V83.1096H81.5883V89.4717H83.5883ZM83.5883 83.1096C83.5883 82.4232 83.6767 81.7337 83.856 81.0392L81.9194 80.5395C81.6994 81.3918 81.5883 82.2492 81.5883 83.1096H83.5883ZM83.8578 81.0319C84.0357 80.3203 84.3014 79.6574 84.6541 79.0401L82.9176 78.0478C82.472 78.8276 82.1388 79.6617 81.9175 80.5468L83.8578 81.0319ZM83.7859 77.5439H71.5108V79.5439H83.7859V77.5439ZM71.5108 77.5439C71.274 77.5439 71.1051 77.4725 70.9455 77.3129L69.5313 78.7271C70.0702 79.266 70.7496 79.5439 71.5108 79.5439V77.5439ZM70.9455 77.3129C70.7859 77.1532 70.7145 76.9844 70.7145 76.7476H68.7145C68.7145 77.5087 68.9923 78.1881 69.5313 78.7271L70.9455 77.3129ZM70.7145 76.7476C70.7145 76.5108 70.7859 76.3419 70.9455 76.1823L69.5313 74.768C68.9923 75.307 68.7145 75.9864 68.7145 76.7476H70.7145ZM70.9455 76.1823C71.1051 76.0226 71.274 75.9512 71.5108 75.9512V73.9512C70.7496 73.9512 70.0702 74.2291 69.5313 74.768L70.9455 76.1823ZM71.5108 75.9512H97.2585V73.9512H71.5108V75.9512ZM138.043 81.6875L137.629 82.5979L137.646 82.6058L137.664 82.6131L138.043 81.6875ZM139.465 82.6605L138.737 83.3459L138.757 83.368L138.779 83.3887L139.465 82.6605ZM140.438 84.1201L139.507 84.4845L139.509 84.4916L139.512 84.4987L140.438 84.1201ZM140.438 88.4987L141.363 88.8773L141.366 88.8702L141.369 88.8631L140.438 88.4987ZM139.465 89.9582L140.172 90.6653V90.6653L139.465 89.9582ZM138.043 90.9312L138.421 91.8568L138.439 91.8495L138.456 91.8416L138.043 90.9312ZM114.054 90.5196L113.524 91.3676L114.054 90.5196ZM111.996 88.611L111.172 89.1775L111.182 89.1923L111.193 89.2068L111.996 88.611ZM110.723 85.9539L109.767 86.2479L110.723 85.9539ZM110.723 80.2654L109.775 79.9492L109.772 79.9567L109.77 79.9643L110.723 80.2654ZM112.108 77.6457L112.899 78.2579L112.903 78.2519L112.908 78.2457L112.108 77.6457ZM114.278 75.6997L113.771 74.8378L114.278 75.6997ZM140.251 75.4752L139.544 76.1823V76.1823L140.251 75.4752ZM140.251 78.02L139.544 77.3129V77.3129L140.251 78.02ZM115.85 79.0304L116.346 79.8987L116.353 79.8951L116.359 79.8914L115.85 79.0304ZM114.578 80.1531L113.767 79.5677L113.756 79.5828L113.746 79.5984L114.578 80.1531ZM113.942 81.6501L112.967 81.4285L112.963 81.4457L112.959 81.463L113.942 81.6501ZM113.942 84.6066L112.958 84.7855L112.963 84.812L112.969 84.8382L113.942 84.6066ZM114.578 86.0661L113.746 86.6208L113.756 86.6364L113.767 86.6516L114.578 86.0661ZM115.85 87.2263L115.324 88.0765L115.347 88.091L115.371 88.1042L115.85 87.2263ZM136.92 87.2637L136.18 86.591L136.162 86.6103L136.146 86.6305L136.92 87.2637ZM136.957 85.3176L136.149 85.9058L136.165 85.9288L136.183 85.9509L136.957 85.3176ZM120.678 84.382L119.971 85.0892H119.971L120.678 84.382ZM121.154 83.1096C121.154 82.8728 121.225 82.704 121.385 82.5443L119.971 81.1301C119.432 81.6691 119.154 82.3485 119.154 83.1096H121.154ZM121.385 82.5443C121.545 82.3847 121.714 82.3133 121.95 82.3133V80.3133C121.189 80.3133 120.51 80.5912 119.971 81.1301L121.385 82.5443ZM121.95 82.3133H136.284V80.3133H121.95V82.3133ZM136.284 82.3133C136.77 82.3133 137.214 82.4095 137.629 82.5979L138.456 80.7772C137.773 80.4665 137.045 80.3133 136.284 80.3133V82.3133ZM137.664 82.6131C138.083 82.7845 138.437 83.0278 138.737 83.3459L140.193 81.9752C139.694 81.445 139.1 81.0397 138.421 80.762L137.664 82.6131ZM138.779 83.3887C139.089 83.6805 139.333 84.0405 139.507 84.4845L141.369 83.7557C141.094 83.052 140.688 82.4389 140.15 81.9323L138.779 83.3887ZM139.512 84.4987C139.685 84.9213 139.775 85.3783 139.775 85.879H141.775C141.775 85.1323 141.64 84.4167 141.363 83.7414L139.512 84.4987ZM139.775 85.879V86.7023H141.775V85.879H139.775ZM139.775 86.7023C139.775 87.2029 139.685 87.678 139.507 88.1343L141.369 88.8631C141.64 88.1717 141.775 87.4492 141.775 86.7023H139.775ZM139.512 88.12C139.339 88.5446 139.089 88.9198 138.758 89.2511L140.172 90.6653C140.689 90.1484 141.088 89.5505 141.363 88.8773L139.512 88.12ZM138.758 89.2511C138.449 89.5599 138.076 89.8176 137.629 90.0209L138.456 91.8416C139.107 91.5459 139.682 91.1549 140.172 90.6653L138.758 89.2511ZM137.664 90.0057C137.241 90.1785 136.784 90.2681 136.284 90.2681V92.2681C137.03 92.2681 137.746 92.133 138.421 91.8568L137.664 90.0057ZM136.284 90.2681H116.786V92.2681H136.284V90.2681ZM116.786 90.2681C115.934 90.2681 115.21 90.0627 114.584 89.6716L113.524 91.3676C114.495 91.9744 115.592 92.2681 116.786 92.2681V90.2681ZM114.584 89.6716C113.894 89.2404 113.3 88.6905 112.799 88.0151L111.193 89.2068C111.839 90.0783 112.617 90.8008 113.524 91.3676L114.584 89.6716ZM112.82 88.0444C112.331 87.3338 111.95 86.5408 111.679 85.6598L109.767 86.2479C110.095 87.313 110.562 88.2913 111.172 89.1775L112.82 88.0444ZM111.679 85.6598C111.406 84.7723 111.274 83.9234 111.274 83.1096H109.274C109.274 84.1421 109.442 85.1893 109.767 86.2479L111.679 85.6598ZM111.274 83.1096C111.274 82.2686 111.407 81.422 111.677 80.5665L109.77 79.9643C109.441 81.005 109.274 82.0545 109.274 83.1096H111.274ZM111.672 80.5816C111.962 79.7102 112.372 78.938 112.899 78.2579L111.317 77.0336C110.646 77.9003 110.133 78.8746 109.775 79.9492L111.672 80.5816ZM112.908 78.2457C113.428 77.5517 114.053 76.9926 114.785 76.5616L113.771 74.8378C112.808 75.4048 111.985 76.1431 111.308 77.0457L112.908 78.2457ZM114.785 76.5616C115.466 76.1611 116.249 75.9512 117.16 75.9512V73.9512C115.926 73.9512 114.787 74.2403 113.771 74.8378L114.785 76.5616ZM117.16 75.9512H138.978V73.9512H117.16V75.9512ZM138.978 75.9512C139.215 75.9512 139.384 76.0226 139.544 76.1823L140.958 74.768C140.419 74.2291 139.739 73.9512 138.978 73.9512V75.9512ZM139.544 76.1823C139.703 76.3419 139.775 76.5108 139.775 76.7476H141.775C141.775 75.9864 141.497 75.307 140.958 74.768L139.544 76.1823ZM139.775 76.7476C139.775 76.9844 139.703 77.1532 139.544 77.3129L140.958 78.7271C141.497 78.1881 141.775 77.5087 141.775 76.7476H139.775ZM139.544 77.3129C139.384 77.4725 139.215 77.5439 138.978 77.5439V79.5439C139.739 79.5439 140.419 79.266 140.958 78.7271L139.544 77.3129ZM138.978 77.5439H117.983V79.5439H138.978V77.5439ZM117.983 77.5439C116.995 77.5439 116.091 77.7265 115.342 78.1695L116.359 79.8914C116.707 79.6857 117.226 79.5439 117.983 79.5439V77.5439ZM115.354 78.1622C114.718 78.5259 114.182 78.993 113.767 79.5677L115.389 80.7386C115.622 80.4152 115.935 80.1337 116.346 79.8987L115.354 78.1622ZM113.746 79.5984C113.376 80.1532 113.117 80.7659 112.967 81.4285L114.917 81.8717C115.016 81.4365 115.181 81.0512 115.41 80.7078L113.746 79.5984ZM112.959 81.463C112.85 82.0375 112.792 82.5874 112.792 83.1096H114.792C114.792 82.7337 114.834 82.3106 114.924 81.8372L112.959 81.463ZM112.792 83.1096C112.792 83.6311 112.85 84.1911 112.958 84.7855L114.926 84.4277C114.834 83.9243 114.792 83.4864 114.792 83.1096H112.792ZM112.969 84.8382C113.121 85.4776 113.381 86.0734 113.746 86.6208L115.41 85.5114C115.176 85.1606 115.012 84.7835 114.914 84.375L112.969 84.8382ZM113.767 86.6516C114.176 87.218 114.701 87.6911 115.324 88.0765L116.377 86.376C115.951 86.1127 115.628 85.8124 115.389 85.4806L113.767 86.6516ZM115.371 88.1042C116.114 88.5092 117.006 88.6754 117.983 88.6754V86.6754C117.215 86.6754 116.684 86.5422 116.329 86.3484L115.371 88.1042ZM117.983 88.6754H136.134V86.6754H117.983V88.6754ZM136.134 88.6754C136.79 88.6754 137.318 88.3559 137.694 87.8969L136.146 86.6305C136.102 86.6838 136.082 86.6916 136.091 86.6866C136.096 86.6842 136.104 86.6808 136.114 86.6782C136.124 86.6757 136.132 86.6754 136.134 86.6754V88.6754ZM137.66 87.9364C138.078 87.476 138.294 86.9112 138.294 86.2907H136.294C136.294 86.4186 136.26 86.5025 136.18 86.591L137.66 87.9364ZM138.294 86.2907C138.294 85.6994 138.111 85.1479 137.731 84.6844L136.183 85.9509C136.253 86.0363 136.294 86.1335 136.294 86.2907H138.294ZM137.766 84.7295C137.372 84.1875 136.792 83.906 136.134 83.906V85.906C136.156 85.906 136.166 85.9081 136.167 85.9084C136.168 85.9085 136.167 85.9083 136.164 85.9074C136.162 85.9065 136.158 85.9052 136.155 85.9033C136.151 85.9014 136.147 85.8994 136.144 85.8973C136.141 85.8952 136.139 85.8935 136.138 85.8926C136.136 85.8906 136.14 85.8935 136.149 85.9058L137.766 84.7295ZM136.134 83.906H121.95V85.906H136.134V83.906ZM121.95 83.906C121.714 83.906 121.545 83.8346 121.385 83.6749L119.971 85.0892C120.51 85.6281 121.189 85.906 121.95 85.906V83.906ZM121.385 83.6749C121.225 83.5153 121.154 83.3464 121.154 83.1096H119.154C119.154 83.8708 119.432 84.5502 119.971 85.0892L121.385 83.6749ZM178.761 80.7894L178.014 80.125L178.011 80.1287L178.761 80.7894ZM170.528 90.1453L169.777 89.4847L169.772 89.4904L170.528 90.1453ZM169.331 91.0061L169.676 91.9444L169.698 91.9366L169.719 91.9277L169.331 91.0061ZM166.262 91.0061L165.874 91.9277L165.895 91.9366L165.916 91.9444L166.262 91.0061ZM165.064 90.1453L165.82 89.4904L165.815 89.4847L165.064 90.1453ZM156.831 80.7894L156.07 81.4378L156.075 81.4439L156.08 81.45L156.831 80.7894ZM155.072 90.7441L154.365 90.037L155.072 90.7441ZM152.527 90.7441L153.234 90.037L152.527 90.7441ZM152.864 75.9991L152.091 75.3643L152.864 75.9991ZM156.831 75.4003L156.297 76.2458L156.831 75.4003ZM158.141 76.4856L158.892 75.8259L158.881 75.8129L158.869 75.8002L158.141 76.4856ZM166.748 86.2907L165.997 86.9504L166.018 86.9748L166.041 86.9978L166.748 86.2907ZM167.197 86.7023L166.547 87.4616L166.604 87.5105L166.667 87.5503L167.197 86.7023ZM168.358 86.7023L168.939 87.5161L168.948 87.5093L168.958 87.5023L168.358 86.7023ZM168.844 86.2907L169.551 86.9978L169.575 86.974L169.597 86.9488L168.844 86.2907ZM177.414 76.4856V75.4856H176.96L176.661 75.8275L177.414 76.4856ZM177.452 76.4856V77.4856H177.957L178.257 77.0788L177.452 76.4856ZM178.724 75.3629L179.206 76.2391L178.724 75.3629ZM182.728 75.9991L183.501 75.3643L182.728 75.9991ZM182.589 89.4717C182.589 89.7085 182.518 89.8774 182.358 90.037L183.772 91.4512C184.311 90.9123 184.589 90.2329 184.589 89.4717H182.589ZM182.358 90.037C182.198 90.1966 182.03 90.2681 181.793 90.2681V92.2681C182.554 92.2681 183.233 91.9902 183.772 91.4512L182.358 90.037ZM181.793 90.2681C181.556 90.2681 181.387 90.1966 181.227 90.037L179.813 91.4512C180.352 91.9902 181.032 92.2681 181.793 92.2681V90.2681ZM181.227 90.037C181.068 89.8774 180.996 89.7085 180.996 89.4717H178.996C178.996 90.2329 179.274 90.9123 179.813 91.4512L181.227 90.037ZM180.996 89.4717V81.3133H178.996V89.4717H180.996ZM180.996 81.3133C180.996 80.7926 180.981 80.3595 180.942 80.0414C180.924 79.8922 180.894 79.7049 180.83 79.5312C180.8 79.448 180.738 79.2987 180.614 79.1536C180.48 78.9968 180.21 78.7789 179.809 78.7789V80.7789C179.44 80.7789 179.199 80.577 179.093 80.4521C178.996 80.339 178.959 80.2376 178.952 80.2184C178.935 80.1726 178.944 80.1771 178.957 80.2836C178.981 80.4769 178.996 80.8111 178.996 81.3133H180.996ZM179.809 78.7789C179.553 78.7789 179.362 78.8746 179.299 78.9072C179.212 78.9526 179.139 79.0035 179.088 79.0421C178.983 79.1204 178.877 79.2162 178.778 79.3117C178.576 79.507 178.319 79.7822 178.014 80.125L179.509 81.4537C179.803 81.1228 180.02 80.8929 180.167 80.7514C180.202 80.7171 180.231 80.6909 180.253 80.6715C180.263 80.662 180.272 80.6548 180.278 80.6496C180.281 80.6471 180.284 80.6452 180.285 80.6439C180.287 80.6426 180.288 80.642 180.288 80.6421C180.288 80.6421 180.286 80.6429 180.284 80.6445C180.282 80.646 180.279 80.6485 180.274 80.6516C180.265 80.6574 180.247 80.6688 180.221 80.6822C180.196 80.6949 180.153 80.7159 180.094 80.7349C180.038 80.7529 179.938 80.7789 179.809 80.7789V78.7789ZM178.011 80.1287L169.777 89.4847L171.279 90.806L179.512 81.45L178.011 80.1287ZM169.772 89.4904C169.552 89.7442 169.281 89.942 168.942 90.0844L169.719 91.9277C170.328 91.671 170.855 91.295 171.284 90.8003L169.772 89.4904ZM168.985 90.0677C168.631 90.1982 168.237 90.2681 167.796 90.2681V92.2681C168.453 92.2681 169.082 92.1632 169.676 91.9444L168.985 90.0677ZM167.796 90.2681C167.355 90.2681 166.962 90.1982 166.607 90.0677L165.916 91.9444C166.51 92.1632 167.14 92.2681 167.796 92.2681V90.2681ZM166.65 90.0844C166.312 89.942 166.04 89.7442 165.82 89.4904L164.309 90.8003C164.737 91.295 165.264 91.671 165.874 91.9277L166.65 90.0844ZM165.815 89.4847L157.582 80.1287L156.08 81.45L164.314 90.806L165.815 89.4847ZM157.592 80.1409C157.298 79.7959 157.043 79.5141 156.833 79.3117C156.73 79.2125 156.616 79.1106 156.498 79.0269C156.439 78.985 156.359 78.933 156.262 78.8881C156.178 78.8488 156.006 78.7789 155.783 78.7789V80.7789C155.591 80.7789 155.458 80.7195 155.418 80.7013C155.391 80.6884 155.371 80.677 155.36 80.6702C155.348 80.6632 155.341 80.6584 155.34 80.6572C155.337 80.6555 155.345 80.6611 155.365 80.6785C155.385 80.6954 155.411 80.7191 155.444 80.7514C155.584 80.8858 155.79 81.1092 156.07 81.4378L157.592 80.1409ZM155.783 78.7789C155.382 78.7789 155.113 78.9968 154.979 79.1536C154.855 79.2987 154.793 79.448 154.762 79.5312C154.699 79.7049 154.668 79.8922 154.65 80.0414C154.611 80.3595 154.596 80.7926 154.596 81.3133H156.596C156.596 80.8111 156.612 80.4769 156.635 80.2836C156.648 80.1771 156.657 80.1726 156.64 80.2184C156.633 80.2376 156.596 80.339 156.5 80.4521C156.393 80.577 156.153 80.7789 155.783 80.7789V78.7789ZM154.596 81.3133V89.4717H156.596V81.3133H154.596ZM154.596 89.4717C154.596 89.7085 154.525 89.8774 154.365 90.037L155.779 91.4512C156.318 90.9123 156.596 90.2329 156.596 89.4717H154.596ZM154.365 90.037C154.205 90.1966 154.036 90.2681 153.8 90.2681V92.2681C154.561 92.2681 155.24 91.9902 155.779 91.4512L154.365 90.037ZM153.8 90.2681C153.563 90.2681 153.394 90.1966 153.234 90.037L151.82 91.4512C152.359 91.9902 153.038 92.2681 153.8 92.2681V90.2681ZM153.234 90.037C153.075 89.8774 153.003 89.7085 153.003 89.4717H151.003C151.003 90.2329 151.281 90.9123 151.82 91.4512L153.234 90.037ZM153.003 89.4717V78.5439H151.003V89.4717H153.003ZM153.003 78.5439C153.003 77.7518 153.225 77.1346 153.637 76.6338L152.091 75.3643C151.355 76.2607 151.003 77.3401 151.003 78.5439H153.003ZM153.637 76.6338C153.999 76.1924 154.488 75.9512 155.222 75.9512V73.9512C153.96 73.9512 152.876 74.4086 152.091 75.3643L153.637 76.6338ZM155.222 75.9512C155.645 75.9512 155.994 76.0543 156.297 76.2458L157.365 74.5548C156.72 74.1476 155.996 73.9512 155.222 73.9512V75.9512ZM156.297 76.2458C156.697 76.4985 157.069 76.8058 157.413 77.171L158.869 75.8002C158.414 75.3171 157.913 74.9009 157.365 74.5548L156.297 76.2458ZM157.389 77.1453L165.997 86.9504L167.5 85.6309L158.892 75.8259L157.389 77.1453ZM166.041 86.9978C166.188 87.1451 166.358 87.2999 166.547 87.4616L167.848 85.9431C167.687 85.8053 167.558 85.6857 167.455 85.5836L166.041 86.9978ZM166.667 87.5503C166.997 87.7564 167.378 87.8895 167.796 87.8895V85.8895C167.802 85.8895 167.803 85.8907 167.795 85.8882C167.786 85.8854 167.764 85.877 167.727 85.8543L166.667 87.5503ZM167.796 87.8895C168.22 87.8895 168.608 87.7523 168.939 87.5161L167.776 85.8886C167.769 85.8936 167.765 85.8956 167.765 85.896C167.764 85.8963 167.766 85.8953 167.77 85.894C167.774 85.8926 167.779 85.8914 167.784 85.8905C167.79 85.8897 167.794 85.8895 167.796 85.8895V87.8895ZM168.958 87.5023C169.181 87.3349 169.382 87.1665 169.551 86.9978L168.137 85.5836C168.056 85.6643 167.933 85.7704 167.758 85.9023L168.958 87.5023ZM169.597 86.9488L178.167 77.1437L176.661 75.8275L168.091 85.6326L169.597 86.9488ZM177.414 77.4856H177.452V75.4856H177.414V77.4856ZM178.257 77.0788C178.523 76.7173 178.838 76.4413 179.206 76.2391L178.242 74.4867C177.612 74.8333 177.079 75.3058 176.646 75.8924L178.257 77.0788ZM179.206 76.2391C179.55 76.0501 179.931 75.9512 180.371 75.9512V73.9512C179.612 73.9512 178.896 74.1268 178.242 74.4867L179.206 76.2391ZM180.371 75.9512C181.105 75.9512 181.593 76.1924 181.956 76.6338L183.501 75.3643C182.716 74.4086 181.633 73.9512 180.371 73.9512V75.9512ZM181.956 76.6338C182.367 77.1346 182.589 77.7518 182.589 78.5439H184.589C184.589 77.3401 184.237 76.2607 183.501 75.3643L181.956 76.6338ZM182.589 78.5439V89.4717H184.589V78.5439H182.589ZM206.58 85.5796L207.287 86.2867V86.2867L206.58 85.5796ZM209.873 85.5796L209.166 86.2867V86.2867L209.873 85.5796ZM209.873 88.8729L209.166 88.1658L209.873 88.8729ZM206.58 88.8729L207.287 88.1658L206.58 88.8729ZM198.01 90.5944L198.778 91.2346L198.794 91.2157L198.809 91.1961L198.01 90.5944ZM195.353 90.7441L196.06 90.037L195.353 90.7441ZM195.203 88.3864L195.943 89.0591L195.976 89.0225L196.006 88.9829L195.203 88.3864ZM204.297 76.1488L205.1 76.7452L205.101 76.7432L204.297 76.1488ZM205.981 74.7641L206.428 75.6585L206.441 75.6522L206.453 75.6456L205.981 74.7641ZM210.36 74.6892L210.794 73.7882L210.36 74.6892ZM212.006 76.0365L211.202 76.6309L211.206 76.6353L212.006 76.0365ZM221.1 88.1993L220.3 88.7981L220.319 88.8248L220.341 88.8501L221.1 88.1993ZM221.475 88.7981L220.561 89.2042L220.57 89.225L220.58 89.2453L221.475 88.7981ZM218.406 90.557L219.211 89.9638L219.206 89.9574L218.406 90.557ZM209.686 78.9182L210.486 78.3186L210.464 78.2882L210.439 78.2596L209.686 78.9182ZM209.012 78.2819L208.305 78.9891L208.341 79.0243L208.379 79.0559L209.012 78.2819ZM207.403 78.2819L208.072 79.0252L208.076 79.0219L207.403 78.2819ZM206.804 78.9182L207.603 79.5198L207.604 79.5182L206.804 78.9182ZM206.906 87.2263C206.906 86.8364 207.03 86.5438 207.287 86.2867L205.873 84.8725C205.232 85.5136 204.906 86.3187 204.906 87.2263H206.906ZM207.287 86.2867C207.544 86.0296 207.837 85.906 208.227 85.906V83.906C207.319 83.906 206.514 84.2314 205.873 84.8725L207.287 86.2867ZM208.227 85.906C208.616 85.906 208.909 86.0296 209.166 86.2867L210.58 84.8725C209.939 84.2314 209.134 83.906 208.227 83.906V85.906ZM209.166 86.2867C209.423 86.5438 209.547 86.8364 209.547 87.2263H211.547C211.547 86.3187 211.221 85.5136 210.58 84.8725L209.166 86.2867ZM209.547 87.2263C209.547 87.6161 209.423 87.9087 209.166 88.1658L210.58 89.58C211.221 88.939 211.547 88.1338 211.547 87.2263H209.547ZM209.166 88.1658C208.909 88.4229 208.616 88.5466 208.227 88.5466V90.5466C209.134 90.5466 209.939 90.2211 210.58 89.58L209.166 88.1658ZM208.227 88.5466C207.837 88.5466 207.544 88.4229 207.287 88.1658L205.873 89.58C206.514 90.2211 207.319 90.5466 208.227 90.5466V88.5466ZM207.287 88.1658C207.03 87.9087 206.906 87.6161 206.906 87.2263H204.906C204.906 88.1338 205.232 88.939 205.873 89.58L207.287 88.1658ZM197.242 89.9542C197.043 90.1923 196.856 90.2681 196.625 90.2681V92.2681C197.492 92.2681 198.228 91.8947 198.778 91.2346L197.242 89.9542ZM196.625 90.2681C196.388 90.2681 196.219 90.1966 196.06 90.037L194.646 91.4512C195.185 91.9902 195.864 92.2681 196.625 92.2681V90.2681ZM196.06 90.037C195.9 89.8774 195.829 89.7085 195.829 89.4717H193.829C193.829 90.2329 194.107 90.9123 194.646 91.4512L196.06 90.037ZM195.829 89.4717C195.829 89.2162 195.895 89.1123 195.943 89.0591L194.463 87.7137C194.013 88.2094 193.829 88.829 193.829 89.4717H195.829ZM196.006 88.9829L205.1 76.7452L203.494 75.5523L194.4 87.7899L196.006 88.9829ZM205.101 76.7432C205.423 76.3077 205.857 75.9441 206.428 75.6585L205.534 73.8697C204.708 74.2827 204.019 74.8421 203.493 75.5544L205.101 76.7432ZM206.453 75.6456C207.006 75.3497 207.592 75.2027 208.227 75.2027V73.2027C207.265 73.2027 206.354 73.43 205.509 73.8826L206.453 75.6456ZM208.227 75.2027C208.825 75.2027 209.388 75.3311 209.926 75.5903L210.794 73.7882C209.984 73.3987 209.125 73.2027 208.227 73.2027V75.2027ZM209.926 75.5903C210.46 75.8475 210.879 76.1942 211.202 76.6309L212.811 75.4421C212.285 74.7312 211.607 74.1797 210.794 73.7882L209.926 75.5903ZM211.206 76.6353L220.3 88.7981L221.901 87.6005L212.807 75.4377L211.206 76.6353ZM220.341 88.8501C220.424 88.9462 220.498 89.0622 220.561 89.2042L222.388 88.3919C222.252 88.0848 222.077 87.8016 221.86 87.5485L220.341 88.8501ZM220.58 89.2453C220.603 89.2904 220.624 89.3589 220.624 89.4717H222.624C222.624 89.0855 222.546 88.705 222.369 88.3509L220.58 89.2453ZM220.624 89.4717C220.624 89.7085 220.553 89.8774 220.393 90.037L221.808 91.4512C222.346 90.9123 222.624 90.2329 222.624 89.4717H220.624ZM220.393 90.037C220.234 90.1966 220.065 90.2681 219.828 90.2681V92.2681C220.589 92.2681 221.269 91.9902 221.808 91.4512L220.393 90.037ZM219.828 90.2681C219.541 90.2681 219.368 90.177 219.211 89.9638L217.601 91.1502C218.142 91.8851 218.918 92.2681 219.828 92.2681V90.2681ZM219.206 89.9574L210.486 78.3186L208.886 79.5177L217.606 91.1566L219.206 89.9574ZM210.439 78.2596C210.218 78.0071 209.95 77.7567 209.646 77.508L208.379 79.0559C208.624 79.2563 208.805 79.43 208.934 79.5767L210.439 78.2596ZM209.72 77.5748C209.339 77.1939 208.836 76.9077 208.227 76.9077V78.9077C208.219 78.9077 208.211 78.9067 208.204 78.9051C208.197 78.9035 208.195 78.9023 208.199 78.9041C208.208 78.9082 208.244 78.928 208.305 78.9891L209.72 77.5748ZM208.227 76.9077C207.627 76.9077 207.124 77.1848 206.731 77.542L208.076 79.0219C208.153 78.9516 208.205 78.9224 208.229 78.9116C208.249 78.9025 208.246 78.9077 208.227 78.9077V76.9077ZM206.734 77.5387C206.452 77.7928 206.204 78.0524 206.004 78.3182L207.604 79.5182C207.705 79.3847 207.856 79.2202 208.072 79.0252L206.734 77.5387ZM206.006 78.3165L197.211 89.9928L198.809 91.1961L207.603 79.5198L206.006 78.3165Z" fill="black"/>
</g>
<defs>
<filter id="filter0_f_302_138" x="0.788273" y="-13.4762" width="255.869" height="192.521" filterUnits="userSpaceOnUse" color-interpolation-filters="sRGB">
<feFlood flood-opacity="0" result="BackgroundImageFix"/>
<feBlend mode="normal" in="SourceGraphic" in2="BackgroundImageFix" result="shape"/>
<feGaussianBlur stdDeviation="20.7911" result="effect1_foregroundBlur_302_138"/>
</filter>
<radialGradient id="paint0_radial_302_138" cx="0" cy="0" r="1" gradientUnits="userSpaceOnUse" gradientTransform="translate(128.723 82.7841) rotate(90) scale(46.5 91)">
<stop offset="0.354167" stop-color="#FF46B5"/>
<stop offset="0.854167" stop-color="#5821EF" stop-opacity="0.69"/>
<stop offset="1" stop-color="#5821EF" stop-opacity="0.69"/>
</radialGradient>
</defs>
</svg>
