<svg width="272" height="272" viewBox="0 0 272 272" fill="none" xmlns="http://www.w3.org/2000/svg">
<g style="mix-blend-mode:hard-light" filter="url(#filter0_f_254_5059)">
<path fill-rule="evenodd" clip-rule="evenodd" d="M135.696 160.332C122.133 160.332 111.125 149.334 111.125 135.728C111.125 122.147 122.133 111.125 135.696 111.125C149.284 111.125 160.268 122.147 160.268 135.728C160.268 149.334 149.284 160.332 135.696 160.332ZM143.535 144.856C143.83 145.028 144.149 145.127 144.493 145.127C145.107 145.127 145.722 144.807 146.066 144.217C146.582 143.355 146.311 142.224 145.427 141.682L136.679 136.466V125.1C136.679 124.066 135.844 123.254 134.836 123.254C133.829 123.254 132.994 124.066 132.994 125.1V137.524C132.994 138.164 133.338 138.755 133.903 139.099L143.535 144.856Z" stroke="#6A2CAD" stroke-width="6.00979"/>
</g>
<g style="mix-blend-mode:hard-light" filter="url(#filter1_f_254_5059)">
<path fill-rule="evenodd" clip-rule="evenodd" d="M135.696 160.332C122.133 160.332 111.125 149.334 111.125 135.728C111.125 122.147 122.133 111.125 135.696 111.125C149.284 111.125 160.268 122.147 160.268 135.728C160.268 149.334 149.284 160.332 135.696 160.332ZM143.535 144.856C143.83 145.028 144.149 145.127 144.493 145.127C145.107 145.127 145.722 144.807 146.066 144.217C146.582 143.355 146.311 142.224 145.427 141.682L136.679 136.466V125.1C136.679 124.066 135.844 123.254 134.836 123.254C133.829 123.254 132.994 124.066 132.994 125.1V137.524C132.994 138.164 133.338 138.755 133.903 139.099L143.535 144.856Z" stroke="#6A2CAD" stroke-width="7.85895"/>
</g>
<g style="mix-blend-mode:hard-light" filter="url(#filter2_ddi_254_5059)">
<path fill-rule="evenodd" clip-rule="evenodd" d="M135.696 160.332C122.133 160.332 111.125 149.334 111.125 135.728C111.125 122.147 122.133 111.125 135.696 111.125C149.284 111.125 160.268 122.147 160.268 135.728C160.268 149.334 149.284 160.332 135.696 160.332ZM143.535 144.856C143.83 145.028 144.149 145.127 144.493 145.127C145.107 145.127 145.722 144.807 146.066 144.217C146.582 143.355 146.311 142.224 145.427 141.682L136.679 136.466V125.1C136.679 124.066 135.844 123.254 134.836 123.254C133.829 123.254 132.994 124.066 132.994 125.1V137.524C132.994 138.164 133.338 138.755 133.903 139.099L143.535 144.856Z" stroke="#6A2CAD" stroke-opacity="0.2" stroke-width="6.00979"/>
</g>
<g filter="url(#filter3_f_254_5059)">
<path fill-rule="evenodd" clip-rule="evenodd" d="M135.696 160.332C122.133 160.332 111.125 149.334 111.125 135.728C111.125 122.147 122.133 111.125 135.696 111.125C149.284 111.125 160.268 122.147 160.268 135.728C160.268 149.334 149.284 160.332 135.696 160.332ZM143.535 144.856C143.83 145.028 144.149 145.127 144.493 145.127C145.107 145.127 145.722 144.807 146.066 144.217C146.582 143.355 146.311 142.224 145.427 141.682L136.679 136.466V125.1C136.679 124.066 135.844 123.254 134.836 123.254C133.829 123.254 132.994 124.066 132.994 125.1V137.524C132.994 138.164 133.338 138.755 133.903 139.099L143.535 144.856Z" stroke="#6A2CAD" stroke-width="3.69833"/>
</g>
<g filter="url(#filter4_f_254_5059)">
<path fill-rule="evenodd" clip-rule="evenodd" d="M135.696 160.332C122.133 160.332 111.125 149.334 111.125 135.728C111.125 122.147 122.133 111.125 135.696 111.125C149.284 111.125 160.268 122.147 160.268 135.728C160.268 149.334 149.284 160.332 135.696 160.332ZM143.535 144.856C143.83 145.028 144.149 145.127 144.493 145.127C145.107 145.127 145.722 144.807 146.066 144.217C146.582 143.355 146.311 142.224 145.427 141.682L136.679 136.466V125.1C136.679 124.066 135.844 123.254 134.836 123.254C133.829 123.254 132.994 124.066 132.994 125.1V137.524C132.994 138.164 133.338 138.755 133.903 139.099L143.535 144.856Z" stroke="white" stroke-width="1.84917"/>
</g>
<g filter="url(#filter5_b_254_5059)">
<path fill-rule="evenodd" clip-rule="evenodd" d="M135.687 160.263C122.129 160.263 111.125 149.28 111.125 135.694C111.125 122.132 122.129 111.125 135.687 111.125C149.27 111.125 160.249 122.132 160.249 135.694C160.249 149.28 149.27 160.263 135.687 160.263Z" fill="#6A2CAD" fill-opacity="0.01"/>
</g>
<defs>
<filter id="filter0_f_254_5059" x="0.336853" y="0.336853" width="270.719" height="270.783" filterUnits="userSpaceOnUse" color-interpolation-filters="sRGB">
<feFlood flood-opacity="0" result="BackgroundImageFix"/>
<feBlend mode="normal" in="SourceGraphic" in2="BackgroundImageFix" result="shape"/>
<feGaussianBlur stdDeviation="53.8916" result="effect1_foregroundBlur_254_5059"/>
</filter>
<filter id="filter1_f_254_5059" x="71.2676" y="71.2678" width="128.857" height="128.921" filterUnits="userSpaceOnUse" color-interpolation-filters="sRGB">
<feFlood flood-opacity="0" result="BackgroundImageFix"/>
<feBlend mode="normal" in="SourceGraphic" in2="BackgroundImageFix" result="shape"/>
<feGaussianBlur stdDeviation="17.9639" result="effect1_foregroundBlur_254_5059"/>
</filter>
<filter id="filter2_ddi_254_5059" x="61.414" y="97.3418" width="148.565" height="148.629" filterUnits="userSpaceOnUse" color-interpolation-filters="sRGB">
<feFlood flood-opacity="0" result="BackgroundImageFix"/>
<feColorMatrix in="SourceAlpha" type="matrix" values="0 0 0 0 0 0 0 0 0 0 0 0 0 0 0 0 0 0 127 0" result="hardAlpha"/>
<feOffset dy="23.353"/>
<feGaussianBlur stdDeviation="8.98194"/>
<feColorMatrix type="matrix" values="0 0 0 0 0.114706 0 0 0 0 0.0382353 0 0 0 0 0.261765 0 0 0 0.7 0"/>
<feBlend mode="multiply" in2="BackgroundImageFix" result="effect1_dropShadow_254_5059"/>
<feColorMatrix in="SourceAlpha" type="matrix" values="0 0 0 0 0 0 0 0 0 0 0 0 0 0 0 0 0 0 127 0" result="hardAlpha"/>
<feOffset dy="35.9278"/>
<feGaussianBlur stdDeviation="23.353"/>
<feColorMatrix type="matrix" values="0 0 0 0 0.229412 0 0 0 0 0.0764706 0 0 0 0 0.523529 0 0 0 1 0"/>
<feBlend mode="color-dodge" in2="effect1_dropShadow_254_5059" result="effect2_dropShadow_254_5059"/>
<feBlend mode="normal" in="SourceGraphic" in2="effect2_dropShadow_254_5059" result="shape"/>
<feColorMatrix in="SourceAlpha" type="matrix" values="0 0 0 0 0 0 0 0 0 0 0 0 0 0 0 0 0 0 127 0" result="hardAlpha"/>
<feOffset dx="-2.3353" dy="4.67061"/>
<feGaussianBlur stdDeviation="1.16765"/>
<feComposite in2="hardAlpha" operator="arithmetic" k2="-1" k3="1"/>
<feColorMatrix type="matrix" values="0 0 0 0 1 0 0 0 0 1 0 0 0 0 1 0 0 0 0.5 0"/>
<feBlend mode="normal" in2="shape" result="effect3_innerShadow_254_5059"/>
</filter>
<filter id="filter3_f_254_5059" x="108.351" y="108.351" width="54.691" height="54.7542" filterUnits="userSpaceOnUse" color-interpolation-filters="sRGB">
<feFlood flood-opacity="0" result="BackgroundImageFix"/>
<feBlend mode="normal" in="SourceGraphic" in2="BackgroundImageFix" result="shape"/>
<feGaussianBlur stdDeviation="0.462291" result="effect1_foregroundBlur_254_5059"/>
</filter>
<filter id="filter4_f_254_5059" x="109.584" y="109.584" width="52.225" height="52.2887" filterUnits="userSpaceOnUse" color-interpolation-filters="sRGB">
<feFlood flood-opacity="0" result="BackgroundImageFix"/>
<feBlend mode="normal" in="SourceGraphic" in2="BackgroundImageFix" result="shape"/>
<feGaussianBlur stdDeviation="0.308194" result="effect1_foregroundBlur_254_5059"/>
</filter>
<filter id="filter5_b_254_5059" x="89.4583" y="89.4583" width="92.4574" height="92.471" filterUnits="userSpaceOnUse" color-interpolation-filters="sRGB">
<feFlood flood-opacity="0" result="BackgroundImageFix"/>
<feGaussianBlur in="BackgroundImage" stdDeviation="10.8333"/>
<feComposite in2="SourceAlpha" operator="in" result="effect1_backgroundBlur_254_5059"/>
<feBlend mode="normal" in="SourceGraphic" in2="effect1_backgroundBlur_254_5059" result="shape"/>
</filter>
</defs>
</svg>
