<svg width="331" height="62" viewBox="0 0 331 62" fill="none" xmlns="http://www.w3.org/2000/svg">
<path d="M31.2242 0.561035C14.4224 0.561035 0.805214 14.1782 0.805214 30.9801C0.805214 47.7819 14.4224 61.3991 31.2242 61.3991C48.0261 61.3991 61.6433 47.7819 61.6433 30.9801C61.6433 14.1782 48.081 0.561035 31.2242 0.561035ZM17.4972 24.7205C18.6503 24.2813 19.8034 24.0616 21.0663 24.1166C26.9414 24.1166 31.7184 28.8386 31.7733 34.7138C31.7733 34.7138 31.7733 34.7138 31.7733 34.7687C31.7733 36.0316 31.5537 37.2945 31.0595 38.5025C30.6752 39.2712 29.9064 39.7653 29.0828 39.7653C28.4788 39.7653 27.9298 39.4908 27.5454 39.1064C27.161 38.7221 26.8865 38.1181 26.8865 37.569C26.8865 37.2396 26.9414 36.965 27.0512 36.6905C27.0512 36.6905 27.161 36.3061 27.161 36.2512C27.2709 35.812 27.3258 35.3178 27.3258 34.8785C27.3258 31.4742 24.5804 28.6739 21.1212 28.6739C20.6819 28.6739 20.1877 28.7288 19.7485 28.8386L19.3092 28.9485C18.211 29.3877 16.9482 28.8386 16.5089 27.7405C16.1245 26.5325 16.5089 25.2696 17.4972 24.7205ZM17.4972 44.9267C17.2227 44.9267 16.9482 44.8718 16.7285 44.762C12.9948 43.0049 10.5788 39.2712 10.5239 35.1531V17.4178C10.5239 16.2098 11.5123 15.1666 12.7752 15.1666C14.038 15.1666 15.0264 16.1549 15.0264 17.4178V35.0981C15.0264 37.3494 16.2344 39.381 18.211 40.4791L18.4856 40.6439C19.3092 40.9733 19.8583 41.742 19.8583 42.6754C19.8583 43.9383 18.8699 44.9267 17.6071 44.9267C17.5521 44.9267 17.4972 44.9267 17.4423 44.9267H17.4972ZM43.7982 45.915C40.8331 45.8601 38.0877 44.4325 36.3856 42.0166C34.6834 44.4325 31.8831 45.8601 28.973 45.915C23.7018 45.915 19.3641 41.2478 19.3641 35.3727V34.0549C19.3641 32.8469 20.3525 31.8586 21.5604 31.8586C22.7684 31.8586 23.7567 32.8469 23.7567 34.0549V35.2629C23.7567 38.6672 26.1178 41.4675 28.973 41.4675C31.8282 41.4675 34.1893 38.6672 34.1893 35.2629V25.8187C34.1893 24.6107 35.1776 23.6224 36.3856 23.6224C37.5936 23.6224 38.5819 24.6107 38.5819 25.8187V35.2629C38.5819 38.6672 40.9429 41.4675 43.7982 41.4675C46.6534 41.4675 49.0144 38.6672 49.0144 35.2629V25.8187C49.0144 24.6107 50.0028 23.6224 51.2107 23.6224C52.4187 23.6224 53.4071 24.6107 53.4071 25.8187V35.2629C53.4071 41.138 49.1242 45.915 43.7982 45.915Z" fill="white"/>
<path d="M87.8893 14.2331C94.5331 14.0135 100.079 19.2846 100.244 25.9285C100.244 26.203 100.244 26.4776 100.244 26.7521C100.353 33.5607 94.9724 39.2162 88.1089 39.3809C83.8261 39.4908 79.8178 37.3494 77.5117 33.7254L77.1822 38.777H75.4252V6.16162H77.6215V19.6141C79.8727 16.2098 83.7712 14.1782 87.8893 14.2331ZM97.9923 26.807C98.212 21.2613 93.9291 16.6491 88.3834 16.4294C88.1638 16.4294 87.9442 16.4294 87.7794 16.4294C82.0141 16.4294 77.3469 21.0966 77.3469 26.8619C77.3469 32.6273 82.0141 37.2395 87.7794 37.2945C93.2702 37.4043 97.8825 33.0665 97.9923 27.5208C97.9923 27.2463 97.9923 27.0267 97.9923 26.807ZM113.312 39.3261C106.997 39.3261 102.989 35.153 102.989 28.6739V14.7273H105.185V28.3994C105.185 33.8352 108.26 37.1846 113.312 37.1846C118.363 37.1846 121.438 33.8352 121.438 28.3994V14.7273H123.634V28.6739C123.634 35.0981 119.626 39.2711 113.312 39.3261ZM135.604 39.3261C130.059 39.3261 126.599 36.5257 126.325 32.0233H128.466C128.796 35.3727 131.541 37.2945 135.714 37.2945C139.832 37.2945 142.742 35.3727 142.742 32.3527C142.742 28.619 139.118 27.9601 135.385 27.3012C131.212 26.5874 126.819 25.7638 126.819 20.8221C126.819 16.8687 130.333 14.2331 135.549 14.2331C140.766 14.2331 144.115 16.9236 144.335 21.2064H142.193C141.974 18.1316 139.503 16.2098 135.44 16.2098C131.376 16.2098 128.906 18.0217 128.906 20.7671C128.906 24.0616 132.145 24.6107 135.824 25.2147C140.052 25.9285 144.829 26.7521 144.829 32.2429C144.884 36.5257 141.15 39.3261 135.604 39.3261ZM148.892 14.7273H151.088V38.8319H148.892V14.7273ZM167.561 14.2331C173.326 14.2331 176.95 18.4061 176.95 24.5009V38.8319H174.754V24.8852C174.754 19.3944 171.898 16.2098 167.012 16.2098C162.235 16.3196 158.446 20.273 158.501 25.05V38.777H156.305V14.6724H157.842L158.281 19.5592C160.093 16.2098 163.607 14.1782 167.451 14.1782H167.561V14.2331ZM203.855 27.5757H182.002C182.276 33.1214 186.943 37.4043 192.489 37.1297C196.058 36.965 199.243 34.9334 200.89 31.8037H203.196C201.384 36.361 196.937 39.381 191.995 39.3261C185.296 39.381 179.86 34 179.805 27.3012C179.805 27.1365 179.805 26.9717 179.805 26.7521C179.586 20.0533 184.802 14.4527 191.501 14.2331C191.665 14.2331 191.83 14.2331 191.995 14.2331C199.023 14.2331 203.91 19.7239 203.91 26.6972C203.91 26.9718 203.855 27.3012 203.855 27.5757ZM182.002 25.5441H201.714C201.494 20.3279 197.156 16.2098 191.94 16.2647C186.669 16.2098 182.276 20.3279 182.002 25.5441ZM215.056 39.3261C209.51 39.3261 206.051 36.5257 205.777 32.0233H207.918C208.248 35.3727 210.993 37.2945 215.166 37.2945C219.284 37.2945 222.194 35.3727 222.194 32.3527C222.194 28.619 218.57 27.9601 214.837 27.3012C210.663 26.5874 206.271 25.7638 206.271 20.877C206.271 16.9236 209.785 14.288 215.001 14.288C220.217 14.288 223.567 16.9785 223.787 21.2613H221.7C221.48 18.1865 219.01 16.2647 214.946 16.2647C210.883 16.2647 208.412 18.0767 208.412 20.8221C208.412 24.1165 211.652 24.6656 215.331 25.2696C219.559 25.9834 224.336 26.807 224.336 32.2978C224.336 36.5257 220.657 39.3261 215.056 39.3261ZM235.482 39.3261C229.991 39.3261 226.477 36.5257 226.202 32.0233H228.344C228.673 35.3727 231.419 37.2945 235.592 37.2945C239.71 37.2945 242.62 35.3727 242.62 32.3527C242.62 28.619 238.996 27.9601 235.262 27.3012C231.089 26.5874 226.697 25.7638 226.697 20.877C226.697 16.9236 230.211 14.288 235.427 14.288C240.643 14.288 243.993 16.9785 244.212 21.2613H242.126C241.906 18.1865 239.435 16.2647 235.427 16.2647C231.419 16.2647 228.893 18.0767 228.893 20.8221C228.893 24.1165 232.133 24.6656 235.866 25.2696C240.039 25.9834 244.871 26.807 244.871 32.2978C244.761 36.5257 241.083 39.3261 235.482 39.3261ZM281.824 14.7273L273.753 38.8319H269.744L263.54 24.1714L257.335 38.8319H253.327L245.256 14.7273H250.362L255.798 30.98L262.716 15.0018H264.254L271.282 31.0899L276.883 14.7273H281.824ZM283.856 14.7273H288.798V38.8319H283.856V14.7273ZM306.368 14.6175V19.2846H303.733C299.614 19.2846 297.528 21.6457 297.528 25.9834V38.8319H292.586V14.7822H295.936L296.759 18.0767C298.461 15.7705 301.262 14.4527 304.117 14.6724H306.368V14.6175ZM330.253 26.8619C330.253 27.411 330.198 27.9601 330.143 28.5092H310.596C310.98 32.2429 314.22 35.0432 317.954 34.8785C320.589 34.9883 323.06 33.6156 324.433 31.3644H329.649C327.453 37.8435 320.425 41.3027 313.945 39.1064C308.729 37.3494 305.325 32.3527 305.544 26.9168C305.325 20.1632 310.651 14.5076 317.405 14.288C317.569 14.288 317.734 14.288 317.899 14.288C325.256 14.288 330.198 19.9984 330.198 26.9718L330.253 26.8619ZM317.954 18.6257C314.44 18.5159 311.365 20.9868 310.706 24.446H325.256C324.598 20.9868 321.523 18.5159 317.954 18.6257ZM78.8844 54.5356H73.7779L72.7347 57.1162H71.6365L75.8095 47.0132H76.7429L81.0807 57.1162H79.9825L78.8844 54.5356ZM74.2172 53.6021H78.5549L76.3586 48.3859L74.2172 53.6021ZM93.7095 54.3708C93.6546 55.9632 92.3917 57.1711 90.7994 57.1711C90.7445 57.1711 90.6896 57.1711 90.6347 57.1711H86.7362V47.0681H90.6896C92.1172 46.9582 93.3252 48.0564 93.435 49.484C93.4899 50.5273 92.9957 51.4607 92.0623 51.9549C93.1055 52.2843 93.7644 53.2727 93.7095 54.3708ZM87.7245 48.0015V51.3509H90.6896C91.623 51.3509 92.3917 50.5822 92.3917 49.6487C92.3917 48.7153 91.623 47.9466 90.6896 47.9466H87.7245V48.0015ZM92.7212 54.2061C92.7212 53.1628 91.8426 52.3392 90.7994 52.3392H90.7445H87.7245V56.073H90.7445C91.7877 56.1279 92.6663 55.3043 92.7212 54.261C92.7212 54.261 92.7212 54.261 92.7212 54.2061ZM102.11 56.1279V57.1162H96.2902V47.0132H101.946V47.9466H97.2785V51.4058H101.506V52.3392H97.2785V56.1279H102.11ZM108.04 52.9981H105.46V57.1162H104.417V47.0132H108.205C109.907 46.9583 111.335 48.2761 111.445 49.9782C111.445 50.0331 111.445 50.088 111.445 50.1429C111.39 51.5156 110.402 52.7236 109.084 52.9981L111.555 57.1711H110.456L108.04 52.9981ZM105.46 52.0647H108.205C109.358 52.1745 110.347 51.3509 110.456 50.1978C110.566 49.0448 109.743 48.0564 108.59 47.9466C108.48 47.9466 108.37 47.9466 108.26 47.9466H105.515L105.46 52.0647ZM116.441 52.3392H114.904V57.1162H113.916V47.0132H114.904V51.4058H116.441L119.901 47.0132H121.218L117.375 51.8451L121.548 57.1162H120.23L116.441 52.3392ZM122.262 54.0414H123.305C123.305 55.4141 124.403 56.2377 125.94 56.2377C127.478 56.2377 128.411 55.469 128.411 54.3159C128.411 53.1629 127.148 52.7785 125.776 52.3941C124.403 52.0098 122.481 51.6254 122.481 49.6487C122.481 47.9466 123.799 46.9033 125.831 46.9033C127.423 46.6837 128.906 47.7819 129.125 49.3742C129.125 49.5389 129.18 49.6487 129.18 49.8135H128.192C128.192 48.6055 127.258 47.8368 125.886 47.8368C124.513 47.8368 123.525 48.4957 123.525 49.5938C123.525 50.692 124.787 51.1313 126.16 51.4607C127.533 51.7352 129.51 52.2294 129.51 54.3159C129.51 56.3475 127.972 57.281 125.995 57.281C124.238 57.5006 122.591 56.2926 122.317 54.4806C122.317 54.3159 122.262 54.2061 122.262 54.0414ZM139.503 47.0132V57.1162H138.46V52.3941H132.859V57.1162H131.871V47.0132H132.859V51.4058H138.514V47.0132H139.503ZM142.633 47.0132H143.676V57.1162H142.633V47.0132ZM150.32 52.9981H147.739V57.1162H146.696V47.0132H150.484C152.187 46.9583 153.614 48.2761 153.724 49.9782C153.724 50.0331 153.724 50.088 153.724 50.1429C153.724 51.5705 152.736 52.7785 151.363 53.053L153.889 57.1711H152.736L150.32 52.9981ZM147.739 52.0647H150.484C151.637 52.1745 152.626 51.3509 152.736 50.1978C152.845 49.0448 152.022 48.0564 150.869 47.9466C150.759 47.9466 150.649 47.9466 150.539 47.9466H147.794V52.0647H147.739ZM162.07 56.1279V57.1162H156.25V47.0132H161.905V47.9466H157.238V51.4058H161.466V52.3392H157.238V56.1279H162.07ZM176.236 47.0132V57.1162H175.248V52.3941H169.592V57.1162H168.549V47.0132H169.537V51.4058H175.193V47.0132H176.236ZM185.461 54.5356H180.354L179.256 57.1162H178.213L182.386 47.0132H183.319L187.602 57.1162H186.504L185.461 54.5356ZM180.739 53.6021H185.076L182.88 48.3859L180.739 53.6021ZM194.85 47.9466H191.775V57.1162H190.787V47.9466H187.712V47.0132H195.015L194.85 47.9466ZM204.514 47.0132V57.1162H203.471V52.3941H197.925V57.1162H196.882V47.0132H197.925V51.4058H203.471V47.0132H204.514ZM213.683 54.5356H208.632L207.589 57.1162H206.545L210.718 47.0132H211.652L215.935 57.1162H214.837L213.683 54.5356ZM209.071 53.6021H213.409L211.158 48.3859L209.071 53.6021ZM230.321 47.0132L227.081 57.1162H226.202L223.292 49.3742L220.437 57.1162H219.559L216.264 47.0132H217.307L219.998 55.469L223.073 47.2877H223.512L226.587 55.469L229.222 47.0132H230.321ZM237.953 54.5356H232.791L231.748 57.1162H230.65L234.823 47.0132H235.866L240.149 57.1162H238.941L237.953 54.5356ZM233.231 53.6021H237.568L235.372 48.3859L233.231 53.6021ZM244.816 53.1079V57.1162H243.773V53.1079L240.039 47.0132H241.137L244.322 52.1745L247.507 47.0132H248.605L244.816 53.1079ZM253.711 52.0647C253.602 49.3193 255.743 46.9583 258.488 46.8484C258.598 46.8484 258.763 46.8484 258.873 46.8484C261.069 46.7935 263.046 48.2211 263.595 50.3076H262.552C262.002 48.7702 260.465 47.7819 258.818 47.8368C256.512 47.8368 254.59 49.7037 254.59 52.0647C254.59 54.3708 256.457 56.2926 258.818 56.2926C260.52 56.3475 262.057 55.3043 262.606 53.657H263.65C263.101 55.8533 261.069 57.3359 258.818 57.281C256.072 57.3908 253.711 55.2494 253.602 52.504C253.711 52.3392 253.711 52.2294 253.711 52.0647ZM265.187 52.0647C265.132 49.1546 267.493 46.7386 270.403 46.7386C273.314 46.6837 275.729 49.0448 275.729 51.9549C275.729 54.865 273.423 57.281 270.513 57.281H270.458C267.658 57.3908 265.297 55.1944 265.187 52.3392C265.187 52.2294 265.187 52.1745 265.187 52.0647ZM274.686 52.0647C274.686 49.7037 272.819 47.8368 270.458 47.8368C268.097 47.8368 266.23 49.7037 266.23 52.0647C266.23 54.4257 268.097 56.2926 270.458 56.2926C272.71 56.3475 274.631 54.5905 274.686 52.2843C274.686 52.2294 274.686 52.1196 274.686 52.0647ZM288.688 57.1162L287.26 48.7702L283.636 56.7868H283.362L279.738 48.7702L278.365 57.0613H277.322L279.079 46.9583H280.067L283.581 54.8101L287.095 46.9583H288.084L289.786 57.0613L288.688 57.1162ZM298.956 50.1978C299.01 51.9 297.693 53.3276 295.99 53.4374C295.881 53.4374 295.771 53.4374 295.661 53.4374H293.135V57.1711H292.147V47.0681H295.716C297.418 46.9582 298.901 48.2761 299.01 49.9782C298.956 49.9782 298.956 50.088 298.956 50.1978ZM297.912 50.1978C297.912 48.9898 296.924 48.0015 295.716 48.0015C295.661 48.0015 295.606 48.0015 295.606 48.0015H293.135V52.3941H295.606C296.814 52.4491 297.857 51.5156 297.912 50.3076C297.912 50.2527 297.912 50.1978 297.912 50.1978ZM306.533 54.5356H301.426L300.328 57.1162H299.285L303.458 47.0132H304.391L308.674 57.1162H307.576L306.533 54.5356ZM301.811 53.6021H306.148L304.007 48.3859L301.811 53.6021ZM318.613 47.0132V57.1162H317.789L311.749 48.7702V57.1162H310.761V47.0132H311.694L317.734 55.2494V47.0132H318.613ZM325.531 53.1079V57.1162H324.488V53.1079L320.754 47.0132H321.852L325.037 52.1745L328.221 47.0132H329.32L325.531 53.1079Z" fill="white"/>
</svg>
