<svg width="1920" height="3675" viewBox="0 0 1920 3675" fill="none" xmlns="http://www.w3.org/2000/svg">
<g filter="url(#filter0_bf_366_3149)">
<ellipse rx="174.6" ry="236.957" transform="matrix(1 0 0 -1 -129.4 971.957)" fill="#9245DE"/>
<ellipse rx="173.859" ry="236.314" transform="matrix(1 0 0 -1 37.1201 1036.45)" fill="#5F7EFF"/>
<ellipse rx="188.568" ry="172.604" transform="matrix(1 0 0 -1 -50.5807 1136.08)" fill="#3EA2FF"/>
</g>
<g filter="url(#filter1_bf_366_3149)">
<ellipse rx="174.6" ry="236.957" transform="matrix(1 0 0 -1 -160.4 2872.96)" fill="#9245DE"/>
<ellipse rx="173.859" ry="236.314" transform="matrix(1 0 0 -1 6.12012 2937.45)" fill="#5F7EFF"/>
<ellipse rx="188.568" ry="172.604" transform="matrix(1 0 0 -1 -81.5807 3037.08)" fill="#3EA2FF"/>
</g>
<g filter="url(#filter2_bf_366_3149)">
<ellipse rx="174.6" ry="236.957" transform="matrix(1 0 0 -1 1839.6 2502.96)" fill="#9245DE"/>
<ellipse rx="173.859" ry="236.314" transform="matrix(1 0 0 -1 2006.12 2567.45)" fill="#5F7EFF"/>
<ellipse rx="188.568" ry="172.604" transform="matrix(1 0 0 -1 1918.42 2667.08)" fill="#3EA2FF"/>
</g>
<defs>
<filter id="filter0_bf_366_3149" x="-1079.25" y="-40.2501" width="2065.48" height="2124.19" filterUnits="userSpaceOnUse" color-interpolation-filters="sRGB">
<feFlood flood-opacity="0" result="BackgroundImageFix"/>
<feGaussianBlur in="BackgroundImage" stdDeviation="387.625"/>
<feComposite in2="SourceAlpha" operator="in" result="effect1_backgroundBlur_366_3149"/>
<feBlend mode="normal" in="SourceGraphic" in2="effect1_backgroundBlur_366_3149" result="shape"/>
<feGaussianBlur stdDeviation="232.575" result="effect2_foregroundBlur_366_3149"/>
</filter>
<filter id="filter1_bf_366_3149" x="-1110.25" y="1860.75" width="2065.48" height="2124.19" filterUnits="userSpaceOnUse" color-interpolation-filters="sRGB">
<feFlood flood-opacity="0" result="BackgroundImageFix"/>
<feGaussianBlur in="BackgroundImage" stdDeviation="387.625"/>
<feComposite in2="SourceAlpha" operator="in" result="effect1_backgroundBlur_366_3149"/>
<feBlend mode="normal" in="SourceGraphic" in2="effect1_backgroundBlur_366_3149" result="shape"/>
<feGaussianBlur stdDeviation="232.575" result="effect2_foregroundBlur_366_3149"/>
</filter>
<filter id="filter2_bf_366_3149" x="889.75" y="1490.75" width="2065.48" height="2124.19" filterUnits="userSpaceOnUse" color-interpolation-filters="sRGB">
<feFlood flood-opacity="0" result="BackgroundImageFix"/>
<feGaussianBlur in="BackgroundImage" stdDeviation="387.625"/>
<feComposite in2="SourceAlpha" operator="in" result="effect1_backgroundBlur_366_3149"/>
<feBlend mode="normal" in="SourceGraphic" in2="effect1_backgroundBlur_366_3149" result="shape"/>
<feGaussianBlur stdDeviation="232.575" result="effect2_foregroundBlur_366_3149"/>
</filter>
</defs>
</svg>
