<svg width="414" height="2941" viewBox="0 0 414 2941" fill="none" xmlns="http://www.w3.org/2000/svg">
<g filter="url(#filter0_bf_435_5046)">
<ellipse rx="73.4264" ry="99.6501" transform="matrix(1 0 0 -1 403.426 2208.65)" fill="#9245DE"/>
<ellipse rx="73.115" ry="99.3797" transform="matrix(1 0 0 -1 473.455 2235.77)" fill="#5F7EFF"/>
<ellipse rx="79.3005" ry="72.5872" transform="matrix(1 0 0 -1 436.573 2277.67)" fill="#3EA2FF"/>
</g>
<g filter="url(#filter1_bf_435_5046)">
<ellipse rx="73.4264" ry="99.6501" transform="matrix(1 0 0 -1 45.4264 2563.65)" fill="#9245DE"/>
<ellipse rx="73.115" ry="99.3797" transform="matrix(1 0 0 -1 115.455 2590.77)" fill="#5F7EFF"/>
<ellipse rx="79.3005" ry="72.5872" transform="matrix(1 0 0 -1 78.573 2632.67)" fill="#3EA2FF"/>
</g>
<g filter="url(#filter2_bf_435_5046)">
<ellipse rx="73.4264" ry="99.6501" transform="matrix(1 0 0 -1 -38.5736 530.65)" fill="#9245DE"/>
<ellipse rx="73.115" ry="99.3797" transform="matrix(1 0 0 -1 31.4549 557.774)" fill="#5F7EFF"/>
<ellipse rx="79.3005" ry="72.5872" transform="matrix(1 0 0 -1 -5.42702 599.671)" fill="#3EA2FF"/>
</g>
<defs>
<filter id="filter0_bf_435_5046" x="-702.052" y="1076.95" width="2280.67" height="2305.36" filterUnits="userSpaceOnUse" color-interpolation-filters="sRGB">
<feFlood flood-opacity="0" result="BackgroundImageFix"/>
<feGaussianBlur in="BackgroundImage" stdDeviation="516.026"/>
<feComposite in2="SourceAlpha" operator="in" result="effect1_backgroundBlur_435_5046"/>
<feBlend mode="normal" in="SourceGraphic" in2="effect1_backgroundBlur_435_5046" result="shape"/>
<feGaussianBlur stdDeviation="117.5" result="effect2_foregroundBlur_435_5046"/>
</filter>
<filter id="filter1_bf_435_5046" x="-1060.05" y="1431.95" width="2280.67" height="2305.36" filterUnits="userSpaceOnUse" color-interpolation-filters="sRGB">
<feFlood flood-opacity="0" result="BackgroundImageFix"/>
<feGaussianBlur in="BackgroundImage" stdDeviation="516.026"/>
<feComposite in2="SourceAlpha" operator="in" result="effect1_backgroundBlur_435_5046"/>
<feBlend mode="normal" in="SourceGraphic" in2="effect1_backgroundBlur_435_5046" result="shape"/>
<feGaussianBlur stdDeviation="117.5" result="effect2_foregroundBlur_435_5046"/>
</filter>
<filter id="filter2_bf_435_5046" x="-1144.05" y="-601.052" width="2280.67" height="2305.36" filterUnits="userSpaceOnUse" color-interpolation-filters="sRGB">
<feFlood flood-opacity="0" result="BackgroundImageFix"/>
<feGaussianBlur in="BackgroundImage" stdDeviation="516.026"/>
<feComposite in2="SourceAlpha" operator="in" result="effect1_backgroundBlur_435_5046"/>
<feBlend mode="normal" in="SourceGraphic" in2="effect1_backgroundBlur_435_5046" result="shape"/>
<feGaussianBlur stdDeviation="117.5" result="effect2_foregroundBlur_435_5046"/>
</filter>
</defs>
</svg>
