<svg width="175" height="45" viewBox="0 0 175 45" fill="none" xmlns="http://www.w3.org/2000/svg">
<rect width="29.7467" height="29.7467" rx="3" transform="matrix(0.708033 -0.706179 0.708033 0.706179 0.876953 23.9937)" fill="#FAF8F8"/>
<ellipse cx="21.9857" cy="23.994" rx="12.0621" ry="12.0306" fill="#1F1F1F"/>
<rect x="14.4465" y="16.4744" width="15.1848" height="15.1451" rx="3" fill="#FAF8F8"/>
<ellipse cx="21.9636" cy="23.9722" rx="5.25629" ry="5.24227" fill="#1F1F1F"/>
<rect width="3.40263" height="3.40263" rx="1" transform="matrix(0.708008 -0.706205 0.708008 0.706205 19.7241 23.9937)" fill="#FAF8F8"/>
<path d="M56.9602 39.9995H54.7462V27.3995C55.0102 27.3995 55.6882 27.3935 56.7802 27.3815C57.8842 27.3695 58.4842 27.3635 58.5802 27.3635C61.6282 27.3635 63.1522 28.6595 63.1522 31.2515C63.1522 32.2235 62.9062 33.0155 62.4142 33.6275C61.9222 34.2275 61.3582 34.6355 60.7222 34.8515L64.6642 39.9995H61.9822L58.5082 35.2835H56.9602V39.9995ZM58.4722 29.4335C58.2562 29.4335 57.7522 29.4455 56.9602 29.4695V33.2135H58.4002C59.0842 33.2135 59.6542 33.0455 60.1102 32.7095C60.5782 32.3615 60.8122 31.8815 60.8122 31.2695C60.8122 30.0455 60.0322 29.4335 58.4722 29.4335ZM71.6156 37.7315L72.2096 39.1895C71.4176 39.8615 70.3856 40.1975 69.1136 40.1975C67.8056 40.1975 66.7496 39.8075 65.9456 39.0275C65.1536 38.2475 64.7576 37.2215 64.7576 35.9495C64.7576 34.7375 65.1476 33.7295 65.9276 32.9255C66.7076 32.1095 67.7456 31.7015 69.0416 31.7015C70.1096 31.7015 71.0156 32.0555 71.7596 32.7635C72.5036 33.4595 72.8756 34.3595 72.8756 35.4635C72.8756 35.9195 72.8336 36.2915 72.7496 36.5795H66.8996C66.9836 37.1795 67.2476 37.6475 67.6916 37.9835C68.1356 38.3075 68.6816 38.4695 69.3296 38.4695C70.2416 38.4695 71.0036 38.2235 71.6156 37.7315ZM68.9516 33.4295C67.7756 33.4295 67.0676 34.0175 66.8276 35.1935H70.8056C70.8176 34.6895 70.6556 34.2695 70.3196 33.9335C69.9836 33.5975 69.5276 33.4295 68.9516 33.4295ZM80.1961 43.5995V39.5855C79.5601 39.9935 78.8941 40.1975 78.1981 40.1975C76.9141 40.1975 75.8881 39.8135 75.1201 39.0455C74.3641 38.2655 73.9861 37.2335 73.9861 35.9495C73.9861 34.7495 74.4241 33.7415 75.3001 32.9255C76.1761 32.1095 77.2861 31.7015 78.6301 31.7015C80.0221 31.7015 81.2341 32.0255 82.2661 32.6735V43.5995H80.1961ZM78.4681 38.2715C79.1641 38.2715 79.7401 38.0255 80.1961 37.5335V34.0415C79.6441 33.7775 79.1161 33.6455 78.6121 33.6455C77.8561 33.6455 77.2621 33.8795 76.8301 34.3475C76.4101 34.8035 76.2001 35.3675 76.2001 36.0395C76.2001 36.6875 76.4041 37.2215 76.8121 37.6415C77.2321 38.0615 77.7841 38.2715 78.4681 38.2715ZM91.8708 31.8995V39.9995H89.8008V39.0095C89.1528 39.8015 88.2888 40.1975 87.2088 40.1975C86.3688 40.1975 85.6848 39.9155 85.1568 39.3515C84.6288 38.7875 84.3648 37.9535 84.3648 36.8495V31.8995H86.4348V36.4175C86.4348 37.6535 86.9508 38.2715 87.9828 38.2715C88.6908 38.2715 89.2968 37.9415 89.8008 37.2815V31.8995H91.8708ZM100.532 37.7315L101.126 39.1895C100.334 39.8615 99.3016 40.1975 98.0296 40.1975C96.7216 40.1975 95.6656 39.8075 94.8616 39.0275C94.0696 38.2475 93.6736 37.2215 93.6736 35.9495C93.6736 34.7375 94.0636 33.7295 94.8436 32.9255C95.6236 32.1095 96.6616 31.7015 97.9576 31.7015C99.0256 31.7015 99.9316 32.0555 100.676 32.7635C101.42 33.4595 101.792 34.3595 101.792 35.4635C101.792 35.9195 101.75 36.2915 101.666 36.5795H95.8156C95.8996 37.1795 96.1636 37.6475 96.6076 37.9835C97.0516 38.3075 97.5976 38.4695 98.2456 38.4695C99.1576 38.4695 99.9196 38.2235 100.532 37.7315ZM97.8676 33.4295C96.6916 33.4295 95.9836 34.0175 95.7436 35.1935H99.7216C99.7336 34.6895 99.5716 34.2695 99.2356 33.9335C98.8996 33.5975 98.4436 33.4295 97.8676 33.4295ZM107.257 38.2715C107.461 38.1395 107.563 37.9535 107.563 37.7135C107.563 37.4735 107.413 37.2815 107.113 37.1375C106.813 36.9815 106.447 36.8495 106.015 36.7415C105.595 36.6215 105.169 36.4835 104.737 36.3275C104.305 36.1595 103.939 35.8955 103.639 35.5355C103.339 35.1755 103.189 34.7195 103.189 34.1675C103.189 33.3995 103.465 32.7995 104.017 32.3675C104.581 31.9235 105.295 31.7015 106.159 31.7015C107.479 31.7015 108.505 32.0435 109.237 32.7275L108.463 34.2035C107.803 33.6875 107.071 33.4295 106.267 33.4295C105.967 33.4295 105.721 33.5015 105.529 33.6455C105.349 33.7775 105.259 33.9395 105.259 34.1315C105.259 34.3715 105.409 34.5695 105.709 34.7255C106.009 34.8815 106.369 35.0135 106.789 35.1215C107.221 35.2295 107.653 35.3615 108.085 35.5175C108.517 35.6735 108.883 35.9315 109.183 36.2915C109.483 36.6395 109.633 37.0775 109.633 37.6055C109.633 38.3975 109.333 39.0275 108.733 39.4955C108.145 39.9635 107.353 40.1975 106.357 40.1975C105.661 40.1975 104.971 40.0475 104.287 39.7475C103.615 39.4475 103.177 39.1355 102.973 38.8115L103.981 37.4615C104.221 37.7255 104.599 37.9595 105.115 38.1635C105.631 38.3675 106.093 38.4695 106.501 38.4695C106.813 38.4695 107.065 38.4035 107.257 38.2715ZM111.277 36.9215V29.6495H113.347V31.8995H115.957V33.8435H113.347V36.7955C113.347 37.7675 113.671 38.2535 114.319 38.2535C114.727 38.2535 115.141 38.0975 115.561 37.7855L116.191 39.3875C115.543 39.9155 114.745 40.1795 113.797 40.1795C112.909 40.1795 112.267 39.9095 111.871 39.3695C111.475 38.8175 111.277 38.0015 111.277 36.9215ZM122.832 39.9995V27.3995H123.03C123.318 27.3995 123.798 27.3935 124.47 27.3815C125.142 27.3575 125.67 27.3455 126.054 27.3455C127.278 27.3455 128.352 27.5135 129.276 27.8495C130.2 28.1735 130.938 28.6295 131.49 29.2175C132.042 29.7935 132.45 30.4475 132.714 31.1795C132.99 31.8995 133.128 32.6795 133.128 33.5195C133.128 35.4155 132.498 36.9755 131.238 38.1995C129.99 39.4235 128.214 40.0355 125.91 40.0355C125.61 40.0355 125.136 40.0295 124.488 40.0175C123.84 40.0055 123.342 39.9995 122.994 39.9995H122.832ZM126.018 28.2815C125.742 28.2815 125.484 28.2875 125.244 28.2995C125.004 28.2995 124.746 28.3055 124.47 28.3175C124.206 28.3295 123.99 28.3355 123.822 28.3355V39.0635C125.19 39.0875 125.898 39.0995 125.946 39.0995C127.902 39.0995 129.414 38.5835 130.482 37.5515C131.55 36.5075 132.084 35.1635 132.084 33.5195C132.084 31.9715 131.574 30.7115 130.554 29.7395C129.534 28.7675 128.022 28.2815 126.018 28.2815ZM141.848 38.2895L142.154 39.0095C141.422 39.7775 140.426 40.1615 139.166 40.1615C137.882 40.1615 136.844 39.7775 136.052 39.0095C135.26 38.2415 134.864 37.2215 134.864 35.9495C134.864 34.7255 135.224 33.7175 135.944 32.9255C136.676 32.1335 137.684 31.7375 138.968 31.7375C140.024 31.7375 140.9 32.0735 141.596 32.7455C142.292 33.4175 142.64 34.2995 142.64 35.3915C142.64 35.6795 142.622 35.9315 142.586 36.1475H135.908C135.944 37.1195 136.262 37.8875 136.862 38.4515C137.462 39.0035 138.248 39.2795 139.22 39.2795C140.336 39.2795 141.212 38.9495 141.848 38.2895ZM138.878 32.6195C138.002 32.6195 137.3 32.8775 136.772 33.3935C136.244 33.8975 135.938 34.5575 135.854 35.3735H141.686C141.674 34.5215 141.416 33.8495 140.912 33.3575C140.408 32.8655 139.73 32.6195 138.878 32.6195ZM149.073 37.8755C149.073 37.5035 148.917 37.2035 148.605 36.9755C148.305 36.7475 147.933 36.5675 147.489 36.4355C147.057 36.3035 146.619 36.1595 146.175 36.0035C145.731 35.8355 145.353 35.5775 145.041 35.2295C144.741 34.8815 144.591 34.4315 144.591 33.8795C144.591 33.2315 144.831 32.7155 145.311 32.3315C145.791 31.9355 146.421 31.7375 147.201 31.7375C148.317 31.7375 149.163 32.0375 149.739 32.6375L149.343 33.3395C148.791 32.8235 148.083 32.5655 147.219 32.5655C146.727 32.5655 146.331 32.6915 146.031 32.9435C145.731 33.1955 145.581 33.5015 145.581 33.8615C145.581 34.2575 145.731 34.5755 146.031 34.8155C146.343 35.0555 146.715 35.2475 147.147 35.3915C147.591 35.5235 148.035 35.6675 148.479 35.8235C148.923 35.9795 149.295 36.2255 149.595 36.5615C149.907 36.8855 150.063 37.3115 150.063 37.8395C150.063 38.5955 149.781 39.1715 149.217 39.5675C148.665 39.9635 147.975 40.1615 147.147 40.1615C146.595 40.1615 146.043 40.0415 145.491 39.8015C144.939 39.5615 144.567 39.2915 144.375 38.9915L144.897 38.3795C145.113 38.6555 145.455 38.8835 145.923 39.0635C146.391 39.2435 146.835 39.3335 147.255 39.3335C147.759 39.3335 148.185 39.2075 148.533 38.9555C148.893 38.7035 149.073 38.3435 149.073 37.8755ZM152.853 39.9995V31.8995H153.789V39.9995H152.853ZM152.691 28.7495C152.691 28.5695 152.757 28.4255 152.889 28.3175C153.021 28.2095 153.177 28.1555 153.357 28.1555C153.513 28.1555 153.651 28.2155 153.771 28.3355C153.903 28.4435 153.969 28.5815 153.969 28.7495C153.969 28.9535 153.909 29.1155 153.789 29.2355C153.669 29.3555 153.525 29.4155 153.357 29.4155C153.165 29.4155 153.003 29.3555 152.871 29.2355C152.751 29.1155 152.691 28.9535 152.691 28.7495ZM155.926 41.1875C155.926 40.5635 156.142 40.0475 156.574 39.6395C157.018 39.2195 157.63 38.9255 158.41 38.7575C158.23 38.5415 158.14 38.2835 158.14 37.9835C158.14 37.6715 158.242 37.4015 158.446 37.1735C157.918 36.9455 157.504 36.6035 157.204 36.1475C156.904 35.6915 156.754 35.1755 156.754 34.5995C156.754 33.7715 157.048 33.0875 157.636 32.5475C158.224 32.0075 158.998 31.7375 159.958 31.7375C160.726 31.7375 161.404 31.9415 161.992 32.3495H162.01L164.314 31.7375V32.6195L162.676 33.0335C163 33.5135 163.162 34.0355 163.162 34.5995C163.162 35.4155 162.862 36.0995 162.262 36.6515C161.674 37.1915 160.906 37.4615 159.958 37.4615C159.646 37.4615 159.376 37.4375 159.148 37.3895C159.04 37.5455 158.986 37.7435 158.986 37.9835C158.986 38.2475 159.064 38.4635 159.22 38.6315C159.556 38.6075 159.808 38.5955 159.976 38.5955C161.2 38.5955 162.178 38.8235 162.91 39.2795C163.654 39.7235 164.026 40.3595 164.026 41.1875C164.026 42.0035 163.654 42.6335 162.91 43.0775C162.166 43.5215 161.188 43.7435 159.976 43.7435C158.752 43.7435 157.768 43.5215 157.024 43.0775C156.292 42.6455 155.926 42.0155 155.926 41.1875ZM156.88 41.1875C156.88 41.7155 157.156 42.1295 157.708 42.4295C158.272 42.7415 159.028 42.8975 159.976 42.8975C160.924 42.8975 161.674 42.7415 162.226 42.4295C162.79 42.1295 163.072 41.7155 163.072 41.1875C163.072 40.6595 162.79 40.2395 162.226 39.9275C161.674 39.6035 160.924 39.4415 159.976 39.4415C159.04 39.4415 158.29 39.5975 157.726 39.9095C157.162 40.2215 156.88 40.6475 156.88 41.1875ZM158.338 33.1595C157.918 33.5435 157.708 34.0235 157.708 34.5995C157.708 35.1755 157.918 35.6555 158.338 36.0395C158.758 36.4235 159.298 36.6155 159.958 36.6155C160.618 36.6155 161.158 36.4235 161.578 36.0395C161.998 35.6555 162.208 35.1755 162.208 34.5995C162.208 34.0235 161.992 33.5435 161.56 33.1595C161.14 32.7755 160.606 32.5835 159.958 32.5835C159.31 32.5835 158.77 32.7755 158.338 33.1595ZM165.92 39.9995V31.8995H166.856V33.0335C167.18 32.6735 167.606 32.3735 168.134 32.1335C168.674 31.8815 169.22 31.7555 169.772 31.7555C170.888 31.7555 171.728 32.0495 172.292 32.6375C172.868 33.2135 173.156 34.1255 173.156 35.3735V39.9995H172.22V35.5535C172.22 33.6095 171.332 32.6375 169.556 32.6375C169.028 32.6375 168.518 32.7575 168.026 32.9975C167.534 33.2375 167.144 33.5315 166.856 33.8795V39.9995H165.92Z" fill="#FAF8F8"/>
<path d="M60.7602 5.64751C61.4749 6.31951 61.8322 7.16751 61.8322 8.19151C61.8322 9.21551 61.4749 10.0635 60.7602 10.7355C60.0562 11.3968 59.1229 11.7275 57.9602 11.7275H55.8002V15.9995H54.5842V4.63951H57.9602C59.1229 4.63951 60.0562 4.97551 60.7602 5.64751ZM59.8962 9.91951C60.3656 9.47151 60.6002 8.89551 60.6002 8.19151C60.6002 7.48751 60.3656 6.91151 59.8962 6.46351C59.4376 6.00484 58.7922 5.77551 57.9602 5.77551H55.8002V10.5915H57.9602C58.7922 10.5915 59.4376 10.3675 59.8962 9.91951ZM66.8289 16.1595C65.7089 16.1595 64.7649 15.7542 63.9969 14.9435C63.2289 14.1328 62.8449 13.1515 62.8449 11.9995C62.8449 10.8475 63.2289 9.86618 63.9969 9.05551C64.7649 8.24484 65.7089 7.83951 66.8289 7.83951C67.4369 7.83951 68.0075 7.97818 68.5409 8.25551C69.0849 8.53284 69.5009 8.89551 69.7889 9.34351V7.99951H70.9089V15.9995H69.7889V14.6555C69.5009 15.1035 69.0849 15.4662 68.5409 15.7435C68.0075 16.0208 67.4369 16.1595 66.8289 16.1595ZM64.8129 14.2235C65.3675 14.8208 66.0769 15.1195 66.9409 15.1195C67.8049 15.1195 68.5089 14.8208 69.0529 14.2235C69.6075 13.6155 69.8849 12.8742 69.8849 11.9995C69.8849 11.1248 69.6075 10.3888 69.0529 9.79151C68.5089 9.18351 67.8049 8.87951 66.9409 8.87951C66.0769 8.87951 65.3675 9.18351 64.8129 9.79151C64.2689 10.3888 63.9969 11.1248 63.9969 11.9995C63.9969 12.8742 64.2689 13.6155 64.8129 14.2235ZM76.0415 16.1595C75.2308 16.1595 74.5375 15.9675 73.9615 15.5835C73.3855 15.1888 73.0228 14.6448 72.8735 13.9515H73.9935C74.2922 14.7728 74.9802 15.1835 76.0575 15.1835C76.6975 15.1835 77.1828 15.0448 77.5135 14.7675C77.8442 14.4902 78.0095 14.1435 78.0095 13.7275C78.0095 13.2795 77.8442 12.9328 77.5135 12.6875C77.1828 12.4422 76.7135 12.3195 76.1055 12.3195H75.1935V11.3275H76.1215C76.6228 11.3275 77.0122 11.2262 77.2895 11.0235C77.5775 10.8102 77.7215 10.4955 77.7215 10.0795C77.7215 9.67418 77.5668 9.36484 77.2575 9.15151C76.9482 8.92751 76.5428 8.81551 76.0415 8.81551C75.0282 8.81551 74.3988 9.22084 74.1535 10.0315H73.0495C73.1775 9.32751 73.5188 8.78884 74.0735 8.41551C74.6282 8.03151 75.2842 7.83951 76.0415 7.83951C76.8948 7.83951 77.5668 8.04218 78.0575 8.44751C78.5588 8.84218 78.8095 9.36484 78.8095 10.0155C78.8095 10.8262 78.4628 11.4235 77.7695 11.8075C78.6868 12.2022 79.1455 12.8688 79.1455 13.8075C79.1455 14.4902 78.8682 15.0555 78.3135 15.5035C77.7695 15.9408 77.0122 16.1595 76.0415 16.1595ZM82.4181 19.3435H81.2981V7.99951H82.4181V9.34351C82.7061 8.89551 83.1168 8.53284 83.6501 8.25551C84.1941 7.97818 84.7701 7.83951 85.3781 7.83951C86.4981 7.83951 87.4421 8.24484 88.2101 9.05551C88.9781 9.86618 89.3621 10.8475 89.3621 11.9995C89.3621 13.1515 88.9781 14.1328 88.2101 14.9435C87.4421 15.7542 86.4981 16.1595 85.3781 16.1595C84.7701 16.1595 84.1941 16.0208 83.6501 15.7435C83.1168 15.4662 82.7061 15.1035 82.4181 14.6555V19.3435ZM83.1381 14.2235C83.6928 14.8208 84.4021 15.1195 85.2661 15.1195C86.1301 15.1195 86.8341 14.8208 87.3781 14.2235C87.9328 13.6155 88.2101 12.8742 88.2101 11.9995C88.2101 11.1248 87.9328 10.3888 87.3781 9.79151C86.8341 9.18351 86.1301 8.87951 85.2661 8.87951C84.4021 8.87951 83.6928 9.18351 83.1381 9.79151C82.5941 10.3888 82.3221 11.1248 82.3221 11.9995C82.3221 12.8742 82.5941 13.6155 83.1381 14.2235ZM94.7664 16.1595C93.6464 16.1595 92.7024 15.7542 91.9344 14.9435C91.1664 14.1328 90.7824 13.1515 90.7824 11.9995C90.7824 10.8475 91.1664 9.86618 91.9344 9.05551C92.7024 8.24484 93.6464 7.83951 94.7664 7.83951C95.3744 7.83951 95.945 7.97818 96.4784 8.25551C97.0224 8.53284 97.4384 8.89551 97.7264 9.34351V7.99951H98.8464V15.9995H97.7264V14.6555C97.4384 15.1035 97.0224 15.4662 96.4784 15.7435C95.945 16.0208 95.3744 16.1595 94.7664 16.1595ZM92.7504 14.2235C93.305 14.8208 94.0144 15.1195 94.8784 15.1195C95.7424 15.1195 96.4464 14.8208 96.9904 14.2235C97.545 13.6155 97.8224 12.8742 97.8224 11.9995C97.8224 11.1248 97.545 10.3888 96.9904 9.79151C96.4464 9.18351 95.7424 8.87951 94.8784 8.87951C94.0144 8.87951 93.305 9.18351 92.7504 9.79151C92.2064 10.3888 91.9344 11.1248 91.9344 11.9995C91.9344 12.8742 92.2064 13.6155 92.7504 14.2235ZM108.427 14.9435C107.648 15.7542 106.646 16.1595 105.419 16.1595C104.192 16.1595 103.195 15.7488 102.427 14.9275C101.659 14.0955 101.275 13.0342 101.275 11.7435V10.8155C101.275 8.87418 101.611 7.41284 102.283 6.43151C102.966 5.43951 104.102 4.79418 105.691 4.49551L108.731 3.93551V5.00751L105.931 5.51951C104.726 5.74351 103.872 6.15951 103.371 6.76751C102.87 7.37551 102.539 8.29818 102.379 9.53551C103.115 8.46884 104.171 7.93551 105.547 7.93551C106.752 7.93551 107.728 8.32484 108.475 9.10351C109.232 9.88218 109.611 10.8315 109.611 11.9515C109.611 13.1355 109.216 14.1328 108.427 14.9435ZM103.259 14.2235C103.814 14.8208 104.534 15.1195 105.419 15.1195C106.304 15.1195 107.03 14.8208 107.595 14.2235C108.171 13.6155 108.459 12.8582 108.459 11.9515C108.459 11.0768 108.176 10.3622 107.611 9.80751C107.046 9.25284 106.326 8.97551 105.451 8.97551C104.566 8.97551 103.84 9.25818 103.275 9.82351C102.71 10.3888 102.427 11.0928 102.427 11.9355C102.427 12.8635 102.704 13.6262 103.259 14.2235ZM118.185 14.9595C117.395 15.7595 116.398 16.1595 115.193 16.1595C113.987 16.1595 112.99 15.7595 112.201 14.9595C111.411 14.1488 111.017 13.1622 111.017 11.9995C111.017 10.8368 111.411 9.85551 112.201 9.05551C112.99 8.24484 113.987 7.83951 115.193 7.83951C116.398 7.83951 117.395 8.24484 118.185 9.05551C118.974 9.85551 119.369 10.8368 119.369 11.9995C119.369 13.1622 118.974 14.1488 118.185 14.9595ZM113.001 14.2235C113.566 14.8208 114.297 15.1195 115.193 15.1195C116.089 15.1195 116.814 14.8208 117.369 14.2235C117.934 13.6155 118.217 12.8742 118.217 11.9995C118.217 11.1248 117.934 10.3888 117.369 9.79151C116.814 9.18351 116.089 8.87951 115.193 8.87951C114.297 8.87951 113.566 9.18351 113.001 9.79151C112.446 10.3888 112.169 11.1248 112.169 11.9995C112.169 12.8742 112.446 13.6155 113.001 14.2235ZM122.772 15.9995V9.05551H120.132V7.99951H126.644V9.05551H123.892V15.9995H122.772ZM131.391 16.1595C130.271 16.1595 129.327 15.7542 128.559 14.9435C127.791 14.1328 127.407 13.1515 127.407 11.9995C127.407 10.8475 127.791 9.86618 128.559 9.05551C129.327 8.24484 130.271 7.83951 131.391 7.83951C131.999 7.83951 132.57 7.97818 133.103 8.25551C133.647 8.53284 134.063 8.89551 134.351 9.34351V7.99951H135.471V15.9995H134.351V14.6555C134.063 15.1035 133.647 15.4662 133.103 15.7435C132.57 16.0208 131.999 16.1595 131.391 16.1595ZM129.375 14.2235C129.93 14.8208 130.639 15.1195 131.503 15.1195C132.367 15.1195 133.071 14.8208 133.615 14.2235C134.17 13.6155 134.447 12.8742 134.447 11.9995C134.447 11.1248 134.17 10.3888 133.615 9.79151C133.071 9.18351 132.367 8.87951 131.503 8.87951C130.639 8.87951 129.93 9.18351 129.375 9.79151C128.831 10.3888 128.559 11.1248 128.559 11.9995C128.559 12.8742 128.831 13.6155 129.375 14.2235ZM138.22 15.9995V7.99951H139.34V11.3755H144.028V7.99951H145.148V15.9995H144.028V12.4315H139.34V15.9995H138.22ZM154.403 14.9595C153.614 15.7595 152.617 16.1595 151.411 16.1595C150.206 16.1595 149.209 15.7595 148.419 14.9595C147.63 14.1488 147.235 13.1622 147.235 11.9995C147.235 10.8368 147.63 9.85551 148.419 9.05551C149.209 8.24484 150.206 7.83951 151.411 7.83951C152.617 7.83951 153.614 8.24484 154.403 9.05551C155.193 9.85551 155.587 10.8368 155.587 11.9995C155.587 13.1622 155.193 14.1488 154.403 14.9595ZM149.219 14.2235C149.785 14.8208 150.515 15.1195 151.411 15.1195C152.307 15.1195 153.033 14.8208 153.587 14.2235C154.153 13.6155 154.435 12.8742 154.435 11.9995C154.435 11.1248 154.153 10.3888 153.587 9.79151C153.033 9.18351 152.307 8.87951 151.411 8.87951C150.515 8.87951 149.785 9.18351 149.219 9.79151C148.665 10.3888 148.387 11.1248 148.387 11.9995C148.387 12.8742 148.665 13.6155 149.219 14.2235Z" fill="#72757A"/>
</svg>
