<svg width="178" height="40" viewBox="0 0 178 40" fill="none" xmlns="http://www.w3.org/2000/svg">
<path d="M54.2568 26L51.7188 21.626H49.8288V26H47.3448V13.4H52.3848C53.5488 13.4 54.5388 13.808 55.3548 14.624C56.1708 15.44 56.5788 16.424 56.5788 17.576C56.5788 18.356 56.3568 19.082 55.9128 19.754C55.4688 20.414 54.8808 20.912 54.1488 21.248L56.9388 26H54.2568ZM49.8288 15.722V19.448H52.3848C52.8528 19.448 53.2548 19.268 53.5908 18.908C53.9268 18.536 54.0948 18.092 54.0948 17.576C54.0948 17.06 53.9268 16.622 53.5908 16.262C53.2548 15.902 52.8528 15.722 52.3848 15.722H49.8288ZM59.7984 22.454C60.1104 23.582 60.9564 24.146 62.3364 24.146C63.2244 24.146 63.8964 23.846 64.3524 23.246L66.2244 24.326C65.3364 25.61 64.0284 26.252 62.3004 26.252C60.8124 26.252 59.6184 25.802 58.7184 24.902C57.8184 24.002 57.3684 22.868 57.3684 21.5C57.3684 20.144 57.8124 19.016 58.7004 18.116C59.5884 17.204 60.7284 16.748 62.1204 16.748C63.4404 16.748 64.5264 17.204 65.3784 18.116C66.2424 19.028 66.6744 20.156 66.6744 21.5C66.6744 21.8 66.6444 22.118 66.5844 22.454H59.7984ZM59.7624 20.654H64.3524C64.2204 20.042 63.9444 19.586 63.5244 19.286C63.1164 18.986 62.6484 18.836 62.1204 18.836C61.4964 18.836 60.9804 18.998 60.5724 19.322C60.1644 19.634 59.8944 20.078 59.7624 20.654ZM75.0471 17H77.3691V29.6H75.0471V24.938C74.3631 25.814 73.3911 26.252 72.1311 26.252C70.9191 26.252 69.8811 25.796 69.0171 24.884C68.1651 23.96 67.7391 22.832 67.7391 21.5C67.7391 20.168 68.1651 19.046 69.0171 18.134C69.8811 17.21 70.9191 16.748 72.1311 16.748C73.3911 16.748 74.3631 17.186 75.0471 18.062V17ZM70.7631 23.336C71.2431 23.804 71.8431 24.038 72.5631 24.038C73.2831 24.038 73.8771 23.804 74.3451 23.336C74.8131 22.856 75.0471 22.244 75.0471 21.5C75.0471 20.756 74.8131 20.15 74.3451 19.682C73.8771 19.202 73.2831 18.962 72.5631 18.962C71.8431 18.962 71.2431 19.202 70.7631 19.682C70.2951 20.15 70.0611 20.756 70.0611 21.5C70.0611 22.244 70.2951 22.856 70.7631 23.336ZM85.4327 17H87.7547V26H85.4327V24.992C84.8687 25.832 83.9747 26.252 82.7507 26.252C81.7667 26.252 80.9507 25.922 80.3027 25.262C79.6667 24.602 79.3487 23.69 79.3487 22.526V17H81.6707V22.238C81.6707 22.838 81.8327 23.3 82.1567 23.624C82.4807 23.936 82.9127 24.092 83.4527 24.092C84.0527 24.092 84.5327 23.906 84.8927 23.534C85.2527 23.162 85.4327 22.604 85.4327 21.86V17ZM91.8433 22.454C92.1553 23.582 93.0013 24.146 94.3813 24.146C95.2693 24.146 95.9413 23.846 96.3973 23.246L98.2693 24.326C97.3813 25.61 96.0733 26.252 94.3453 26.252C92.8573 26.252 91.6633 25.802 90.7633 24.902C89.8633 24.002 89.4133 22.868 89.4133 21.5C89.4133 20.144 89.8573 19.016 90.7453 18.116C91.6333 17.204 92.7733 16.748 94.1653 16.748C95.4853 16.748 96.5713 17.204 97.4233 18.116C98.2873 19.028 98.7193 20.156 98.7193 21.5C98.7193 21.8 98.6893 22.118 98.6293 22.454H91.8433ZM91.8073 20.654H96.3973C96.2653 20.042 95.9893 19.586 95.5693 19.286C95.1613 18.986 94.6933 18.836 94.1653 18.836C93.5413 18.836 93.0253 18.998 92.6173 19.322C92.2093 19.634 91.9393 20.078 91.8073 20.654ZM102.131 19.556C102.131 19.796 102.287 19.994 102.599 20.15C102.923 20.294 103.313 20.426 103.769 20.546C104.225 20.654 104.681 20.798 105.137 20.978C105.593 21.146 105.977 21.434 106.289 21.842C106.613 22.25 106.775 22.76 106.775 23.372C106.775 24.296 106.427 25.01 105.731 25.514C105.047 26.006 104.189 26.252 103.157 26.252C101.309 26.252 100.049 25.538 99.3768 24.11L101.393 22.976C101.657 23.756 102.245 24.146 103.157 24.146C103.985 24.146 104.399 23.888 104.399 23.372C104.399 23.132 104.237 22.94 103.913 22.796C103.601 22.64 103.217 22.502 102.761 22.382C102.305 22.262 101.849 22.112 101.393 21.932C100.937 21.752 100.547 21.47 100.223 21.086C99.9108 20.69 99.7548 20.198 99.7548 19.61C99.7548 18.722 100.079 18.026 100.727 17.522C101.387 17.006 102.203 16.748 103.175 16.748C103.907 16.748 104.573 16.916 105.173 17.252C105.773 17.576 106.247 18.044 106.595 18.656L104.615 19.736C104.327 19.124 103.847 18.818 103.175 18.818C102.875 18.818 102.623 18.884 102.419 19.016C102.227 19.148 102.131 19.328 102.131 19.556ZM113.152 19.232H111.118V22.976C111.118 23.288 111.196 23.516 111.352 23.66C111.508 23.804 111.736 23.888 112.036 23.912C112.336 23.924 112.708 23.918 113.152 23.894V26C111.556 26.18 110.428 26.03 109.768 25.55C109.12 25.07 108.796 24.212 108.796 22.976V19.232H107.23V17H108.796V15.182L111.118 14.48V17H113.152V19.232ZM125.266 13.4C126.982 13.4 128.398 14.012 129.514 15.236C130.642 16.448 131.206 17.936 131.206 19.7C131.206 21.464 130.642 22.958 129.514 24.182C128.398 25.394 126.982 26 125.266 26H120.64V13.4H125.266ZM125.266 25.388C126.802 25.388 128.068 24.842 129.064 23.75C130.06 22.646 130.558 21.296 130.558 19.7C130.558 18.104 130.06 16.76 129.064 15.668C128.068 14.564 126.802 14.012 125.266 14.012H121.306V25.388H125.266ZM137.603 16.802C138.923 16.802 139.991 17.27 140.807 18.206C141.635 19.142 142.049 20.252 142.049 21.536C142.049 21.68 142.043 21.782 142.031 21.842H133.661C133.733 22.958 134.147 23.864 134.903 24.56C135.659 25.244 136.589 25.586 137.693 25.586C138.449 25.586 139.115 25.43 139.691 25.118C140.279 24.794 140.717 24.368 141.005 23.84L141.563 24.164C141.203 24.788 140.681 25.286 139.997 25.658C139.325 26.018 138.557 26.198 137.693 26.198C136.325 26.198 135.203 25.76 134.327 24.884C133.451 23.996 133.013 22.868 133.013 21.5C133.013 20.168 133.445 19.052 134.309 18.152C135.173 17.252 136.271 16.802 137.603 16.802ZM137.603 17.414C136.499 17.414 135.575 17.774 134.831 18.494C134.099 19.202 133.703 20.12 133.643 21.248H141.401C141.317 20.084 140.915 19.154 140.195 18.458C139.487 17.762 138.623 17.414 137.603 17.414ZM144.321 19.34C144.321 19.82 144.513 20.198 144.897 20.474C145.293 20.738 145.767 20.936 146.319 21.068C146.871 21.188 147.423 21.32 147.975 21.464C148.527 21.608 148.995 21.86 149.379 22.22C149.775 22.568 149.973 23.042 149.973 23.642C149.973 24.374 149.673 24.986 149.073 25.478C148.485 25.958 147.723 26.198 146.787 26.198C145.011 26.198 143.883 25.544 143.403 24.236L143.925 23.93C144.297 25.034 145.251 25.586 146.787 25.586C147.519 25.586 148.125 25.412 148.605 25.064C149.085 24.704 149.325 24.23 149.325 23.642C149.325 23.15 149.127 22.766 148.731 22.49C148.347 22.214 147.879 22.016 147.327 21.896C146.775 21.764 146.223 21.626 145.671 21.482C145.119 21.338 144.645 21.092 144.249 20.744C143.865 20.396 143.673 19.928 143.673 19.34C143.673 18.62 143.949 18.02 144.501 17.54C145.065 17.048 145.803 16.802 146.715 16.802C147.423 16.802 148.035 16.964 148.551 17.288C149.079 17.6 149.457 18.026 149.685 18.566L149.163 18.872C148.971 18.404 148.659 18.044 148.227 17.792C147.795 17.54 147.291 17.414 146.715 17.414C146.019 17.414 145.443 17.594 144.987 17.954C144.543 18.302 144.321 18.764 144.321 19.34ZM152.926 14.39C152.818 14.498 152.686 14.552 152.53 14.552C152.374 14.552 152.242 14.498 152.134 14.39C152.026 14.27 151.972 14.138 151.972 13.994C151.972 13.838 152.026 13.706 152.134 13.598C152.242 13.478 152.374 13.418 152.53 13.418C152.686 13.418 152.818 13.478 152.926 13.598C153.034 13.706 153.088 13.838 153.088 13.994C153.088 14.138 153.034 14.27 152.926 14.39ZM152.206 26V17H152.854V26H152.206ZM164.089 17H164.737V25.514C164.737 26.834 164.329 27.878 163.513 28.646C162.697 29.414 161.617 29.798 160.273 29.798C159.241 29.798 158.359 29.6 157.627 29.204C156.895 28.808 156.373 28.286 156.061 27.638L156.601 27.332C156.853 27.872 157.285 28.316 157.897 28.664C158.521 29.012 159.313 29.186 160.273 29.186C161.473 29.186 162.409 28.856 163.081 28.196C163.753 27.536 164.089 26.642 164.089 25.514V23.606C163.717 24.398 163.171 25.028 162.451 25.496C161.731 25.964 160.909 26.198 159.985 26.198C158.689 26.198 157.585 25.748 156.673 24.848C155.761 23.936 155.305 22.82 155.305 21.5C155.305 20.18 155.761 19.07 156.673 18.17C157.585 17.258 158.689 16.802 159.985 16.802C160.909 16.802 161.731 17.036 162.451 17.504C163.171 17.972 163.717 18.602 164.089 19.394V17ZM157.123 24.416C157.915 25.196 158.881 25.586 160.021 25.586C161.161 25.586 162.121 25.196 162.901 24.416C163.693 23.624 164.089 22.652 164.089 21.5C164.089 20.348 163.693 19.382 162.901 18.602C162.121 17.81 161.161 17.414 160.021 17.414C158.881 17.414 157.915 17.81 157.123 18.602C156.343 19.382 155.953 20.348 155.953 21.5C155.953 22.652 156.343 23.624 157.123 24.416ZM171.777 16.802C172.821 16.802 173.655 17.126 174.279 17.774C174.915 18.422 175.233 19.28 175.233 20.348V26H174.603V20.348C174.603 19.472 174.345 18.764 173.829 18.224C173.313 17.684 172.611 17.414 171.723 17.414C170.739 17.414 169.935 17.75 169.311 18.422C168.687 19.094 168.375 20.024 168.375 21.212V26H167.727V17H168.375V18.998C168.687 18.266 169.137 17.72 169.725 17.36C170.325 16.988 171.009 16.802 171.777 16.802Z" fill="#FAF8F8"/>
<rect y="20" width="28.2843" height="28.2843" rx="3" transform="rotate(-45 0 20)" fill="#FAF8F8"/>
<rect x="1.99976" y="20" width="25.456" height="25.456" rx="12.728" transform="rotate(-45 1.99976 20)" fill="#1F1F1F"/>
<rect x="12.8566" y="12.8577" width="14.3993" height="14.3993" rx="1.1625" fill="#FAF8F8"/>
<rect x="12.2858" y="20" width="10.9093" height="10.9093" rx="5.45464" transform="rotate(-45 12.2858 20)" fill="#1F1F1F"/>
<rect x="16.9706" y="20.0574" width="4.3637" height="4.3637" rx="2.18185" transform="rotate(-45 16.9706 20.0574)" fill="#FAF8F8"/>
</svg>
