<svg width="306" height="40" viewBox="0 0 306 40" fill="none" xmlns="http://www.w3.org/2000/svg">
<path d="M7.76 15.648C8.47467 16.32 8.832 17.168 8.832 18.192C8.832 19.216 8.47467 20.064 7.76 20.736C7.056 21.3973 6.12267 21.728 4.96 21.728H2.8V26H1.584V14.64H4.96C6.12267 14.64 7.056 14.976 7.76 15.648ZM6.896 19.92C7.36533 19.472 7.6 18.896 7.6 18.192C7.6 17.488 7.36533 16.912 6.896 16.464C6.43733 16.0053 5.792 15.776 4.96 15.776H2.8V20.592H4.96C5.792 20.592 6.43733 20.368 6.896 19.92ZM13.8286 26.16C12.7086 26.16 11.7646 25.7547 10.9966 24.944C10.2286 24.1333 9.84463 23.152 9.84463 22C9.84463 20.848 10.2286 19.8667 10.9966 19.056C11.7646 18.2453 12.7086 17.84 13.8286 17.84C14.4366 17.84 15.0073 17.9787 15.5406 18.256C16.0846 18.5333 16.5006 18.896 16.7886 19.344V18H17.9086V26H16.7886V24.656C16.5006 25.104 16.0846 25.4667 15.5406 25.744C15.0073 26.0213 14.4366 26.16 13.8286 26.16ZM11.8126 24.224C12.3673 24.8213 13.0766 25.12 13.9406 25.12C14.8046 25.12 15.5086 24.8213 16.0526 24.224C16.6073 23.616 16.8846 22.8747 16.8846 22C16.8846 21.1253 16.6073 20.3893 16.0526 19.792C15.5086 19.184 14.8046 18.88 13.9406 18.88C13.0766 18.88 12.3673 19.184 11.8126 19.792C11.2686 20.3893 10.9966 21.1253 10.9966 22C10.9966 22.8747 11.2686 23.616 11.8126 24.224ZM23.0413 26.16C22.2306 26.16 21.5373 25.968 20.9613 25.584C20.3853 25.1893 20.0226 24.6453 19.8733 23.952H20.9933C21.2919 24.7733 21.9799 25.184 23.0573 25.184C23.6973 25.184 24.1826 25.0453 24.5133 24.768C24.8439 24.4907 25.0093 24.144 25.0093 23.728C25.0093 23.28 24.8439 22.9333 24.5133 22.688C24.1826 22.4427 23.7133 22.32 23.1053 22.32H22.1933V21.328H23.1213C23.6226 21.328 24.0119 21.2267 24.2893 21.024C24.5773 20.8107 24.7213 20.496 24.7213 20.08C24.7213 19.6747 24.5666 19.3653 24.2573 19.152C23.9479 18.928 23.5426 18.816 23.0413 18.816C22.0279 18.816 21.3986 19.2213 21.1533 20.032H20.0493C20.1773 19.328 20.5186 18.7893 21.0733 18.416C21.6279 18.032 22.2839 17.84 23.0413 17.84C23.8946 17.84 24.5666 18.0427 25.0573 18.448C25.5586 18.8427 25.8093 19.3653 25.8093 20.016C25.8093 20.8267 25.4626 21.424 24.7693 21.808C25.6866 22.2027 26.1453 22.8693 26.1453 23.808C26.1453 24.4907 25.8679 25.056 25.3133 25.504C24.7693 25.9413 24.0119 26.16 23.0413 26.16ZM29.4179 29.344H28.2979V18H29.4179V19.344C29.7059 18.896 30.1165 18.5333 30.6499 18.256C31.1939 17.9787 31.7699 17.84 32.3779 17.84C33.4979 17.84 34.4419 18.2453 35.2099 19.056C35.9779 19.8667 36.3619 20.848 36.3619 22C36.3619 23.152 35.9779 24.1333 35.2099 24.944C34.4419 25.7547 33.4979 26.16 32.3779 26.16C31.7699 26.16 31.1939 26.0213 30.6499 25.744C30.1165 25.4667 29.7059 25.104 29.4179 24.656V29.344ZM30.1379 24.224C30.6925 24.8213 31.4019 25.12 32.2659 25.12C33.1299 25.12 33.8339 24.8213 34.3779 24.224C34.9325 23.616 35.2099 22.8747 35.2099 22C35.2099 21.1253 34.9325 20.3893 34.3779 19.792C33.8339 19.184 33.1299 18.88 32.2659 18.88C31.4019 18.88 30.6925 19.184 30.1379 19.792C29.5939 20.3893 29.3219 21.1253 29.3219 22C29.3219 22.8747 29.5939 23.616 30.1379 24.224ZM41.7661 26.16C40.6461 26.16 39.7021 25.7547 38.9341 24.944C38.1661 24.1333 37.7821 23.152 37.7821 22C37.7821 20.848 38.1661 19.8667 38.9341 19.056C39.7021 18.2453 40.6461 17.84 41.7661 17.84C42.3741 17.84 42.9448 17.9787 43.4781 18.256C44.0221 18.5333 44.4381 18.896 44.7261 19.344V18H45.8461V26H44.7261V24.656C44.4381 25.104 44.0221 25.4667 43.4781 25.744C42.9448 26.0213 42.3741 26.16 41.7661 26.16ZM39.7501 24.224C40.3048 24.8213 41.0141 25.12 41.8781 25.12C42.7421 25.12 43.4461 24.8213 43.9901 24.224C44.5448 23.616 44.8221 22.8747 44.8221 22C44.8221 21.1253 44.5448 20.3893 43.9901 19.792C43.4461 19.184 42.7421 18.88 41.8781 18.88C41.0141 18.88 40.3048 19.184 39.7501 19.792C39.2061 20.3893 38.9341 21.1253 38.9341 22C38.9341 22.8747 39.2061 23.616 39.7501 24.224ZM55.4268 24.944C54.6481 25.7547 53.6454 26.16 52.4188 26.16C51.1921 26.16 50.1948 25.7493 49.4268 24.928C48.6588 24.096 48.2747 23.0347 48.2747 21.744V20.816C48.2747 18.8747 48.6108 17.4133 49.2828 16.432C49.9654 15.44 51.1014 14.7947 52.6908 14.496L55.7308 13.936V15.008L52.9308 15.52C51.7254 15.744 50.8721 16.16 50.3708 16.768C49.8694 17.376 49.5388 18.2987 49.3788 19.536C50.1148 18.4693 51.1708 17.936 52.5468 17.936C53.7521 17.936 54.7281 18.3253 55.4748 19.104C56.2321 19.8827 56.6108 20.832 56.6108 21.952C56.6108 23.136 56.2161 24.1333 55.4268 24.944ZM50.2588 24.224C50.8134 24.8213 51.5334 25.12 52.4188 25.12C53.3041 25.12 54.0294 24.8213 54.5948 24.224C55.1708 23.616 55.4588 22.8587 55.4588 21.952C55.4588 21.0773 55.1761 20.3627 54.6108 19.808C54.0454 19.2533 53.3254 18.976 52.4508 18.976C51.5654 18.976 50.8401 19.2587 50.2748 19.824C49.7094 20.3893 49.4268 21.0933 49.4268 21.936C49.4268 22.864 49.7041 23.6267 50.2588 24.224ZM65.1845 24.96C64.3952 25.76 63.3978 26.16 62.1925 26.16C60.9872 26.16 59.9898 25.76 59.2005 24.96C58.4112 24.1493 58.0165 23.1627 58.0165 22C58.0165 20.8373 58.4112 19.856 59.2005 19.056C59.9898 18.2453 60.9872 17.84 62.1925 17.84C63.3978 17.84 64.3952 18.2453 65.1845 19.056C65.9738 19.856 66.3685 20.8373 66.3685 22C66.3685 23.1627 65.9738 24.1493 65.1845 24.96ZM60.0005 24.224C60.5658 24.8213 61.2965 25.12 62.1925 25.12C63.0885 25.12 63.8138 24.8213 64.3685 24.224C64.9338 23.616 65.2165 22.8747 65.2165 22C65.2165 21.1253 64.9338 20.3893 64.3685 19.792C63.8138 19.184 63.0885 18.88 62.1925 18.88C61.2965 18.88 60.5658 19.184 60.0005 19.792C59.4458 20.3893 59.1685 21.1253 59.1685 22C59.1685 22.8747 59.4458 23.616 60.0005 24.224ZM69.7714 26V19.056H67.1314V18H73.6434V19.056H70.8914V26H69.7714ZM78.3911 26.16C77.2711 26.16 76.3271 25.7547 75.5591 24.944C74.7911 24.1333 74.4071 23.152 74.4071 22C74.4071 20.848 74.7911 19.8667 75.5591 19.056C76.3271 18.2453 77.2711 17.84 78.3911 17.84C78.9991 17.84 79.5698 17.9787 80.1031 18.256C80.6471 18.5333 81.0631 18.896 81.3511 19.344V18H82.4711V26H81.3511V24.656C81.0631 25.104 80.6471 25.4667 80.1031 25.744C79.5698 26.0213 78.9991 26.16 78.3911 26.16ZM76.3751 24.224C76.9298 24.8213 77.6391 25.12 78.5031 25.12C79.3671 25.12 80.0711 24.8213 80.6151 24.224C81.1698 23.616 81.4471 22.8747 81.4471 22C81.4471 21.1253 81.1698 20.3893 80.6151 19.792C80.0711 19.184 79.3671 18.88 78.5031 18.88C77.6391 18.88 76.9298 19.184 76.3751 19.792C75.8311 20.3893 75.5591 21.1253 75.5591 22C75.5591 22.8747 75.8311 23.616 76.3751 24.224ZM85.2198 26V18H86.3398V21.376H91.0278V18H92.1478V26H91.0278V22.432H86.3398V26H85.2198ZM101.403 24.96C100.614 25.76 99.6166 26.16 98.4113 26.16C97.2059 26.16 96.2086 25.76 95.4193 24.96C94.6299 24.1493 94.2353 23.1627 94.2353 22C94.2353 20.8373 94.6299 19.856 95.4193 19.056C96.2086 18.2453 97.2059 17.84 98.4113 17.84C99.6166 17.84 100.614 18.2453 101.403 19.056C102.193 19.856 102.587 20.8373 102.587 22C102.587 23.1627 102.193 24.1493 101.403 24.96ZM96.2193 24.224C96.7846 24.8213 97.5153 25.12 98.4113 25.12C99.3073 25.12 100.033 24.8213 100.587 24.224C101.153 23.616 101.435 22.8747 101.435 22C101.435 21.1253 101.153 20.3893 100.587 19.792C100.033 19.184 99.3073 18.88 98.4113 18.88C97.5153 18.88 96.7846 19.184 96.2193 19.792C95.6646 20.3893 95.3873 21.1253 95.3873 22C95.3873 22.8747 95.6646 23.616 96.2193 24.224Z" fill="#72757A"/>
<path d="M184.939 25H182.257L179.719 20.626H177.829V25H175.345V12.4H180.385C181.549 12.4 182.539 12.808 183.355 13.624C184.171 14.44 184.579 15.424 184.579 16.576C184.579 17.356 184.357 18.082 183.913 18.754C183.469 19.414 182.881 19.912 182.149 20.248L184.939 25ZM180.385 14.722H177.829V18.448H180.385C180.853 18.448 181.255 18.268 181.591 17.908C181.927 17.536 182.095 17.092 182.095 16.576C182.095 16.06 181.927 15.622 181.591 15.262C181.255 14.902 180.853 14.722 180.385 14.722ZM194.584 21.454H187.798C188.098 22.582 188.944 23.146 190.336 23.146C191.224 23.146 191.896 22.846 192.352 22.246L194.224 23.326C193.336 24.61 192.028 25.252 190.3 25.252C188.812 25.252 187.618 24.802 186.718 23.902C185.818 23.002 185.368 21.868 185.368 20.5C185.368 19.156 185.812 18.028 186.7 17.116C187.576 16.204 188.716 15.748 190.12 15.748C191.452 15.748 192.538 16.204 193.378 17.116C194.242 18.028 194.674 19.156 194.674 20.5C194.674 20.752 194.644 21.07 194.584 21.454ZM187.762 19.654H192.352C192.22 19.066 191.95 18.616 191.542 18.304C191.146 17.992 190.672 17.836 190.12 17.836C189.496 17.836 188.98 17.998 188.572 18.322C188.164 18.634 187.894 19.078 187.762 19.654ZM203.047 17.062V16H205.369V28.6H203.047V23.938C202.363 24.814 201.391 25.252 200.131 25.252C198.919 25.252 197.881 24.796 197.017 23.884C196.165 22.96 195.739 21.832 195.739 20.5C195.739 19.18 196.165 18.058 197.017 17.134C197.881 16.21 198.919 15.748 200.131 15.748C201.391 15.748 202.363 16.186 203.047 17.062ZM198.763 22.336C199.255 22.804 199.855 23.038 200.563 23.038C201.283 23.038 201.877 22.804 202.345 22.336C202.813 21.856 203.047 21.244 203.047 20.5C203.047 19.756 202.813 19.15 202.345 18.682C201.877 18.202 201.283 17.962 200.563 17.962C199.843 17.962 199.243 18.202 198.763 18.682C198.295 19.15 198.061 19.756 198.061 20.5C198.061 21.244 198.295 21.856 198.763 22.336ZM213.433 20.86V16H215.755V25H213.433V23.992C212.881 24.832 211.987 25.252 210.751 25.252C209.767 25.252 208.951 24.922 208.303 24.262C207.667 23.59 207.349 22.678 207.349 21.526V16H209.671V21.238C209.671 21.826 209.827 22.282 210.139 22.606C210.463 22.93 210.901 23.092 211.453 23.092C212.065 23.092 212.545 22.906 212.893 22.534C213.253 22.15 213.433 21.592 213.433 20.86ZM226.629 21.454H219.843C220.143 22.582 220.989 23.146 222.381 23.146C223.269 23.146 223.941 22.846 224.397 22.246L226.269 23.326C225.381 24.61 224.073 25.252 222.345 25.252C220.857 25.252 219.663 24.802 218.763 23.902C217.863 23.002 217.413 21.868 217.413 20.5C217.413 19.156 217.857 18.028 218.745 17.116C219.621 16.204 220.761 15.748 222.165 15.748C223.497 15.748 224.583 16.204 225.423 17.116C226.287 18.028 226.719 19.156 226.719 20.5C226.719 20.752 226.689 21.07 226.629 21.454ZM219.807 19.654H224.397C224.265 19.066 223.995 18.616 223.587 18.304C223.191 17.992 222.717 17.836 222.165 17.836C221.541 17.836 221.025 17.998 220.617 18.322C220.209 18.634 219.939 19.078 219.807 19.654ZM230.131 18.556C230.131 18.94 230.677 19.27 231.769 19.546C232.153 19.63 232.501 19.732 232.813 19.852C233.125 19.96 233.437 20.122 233.749 20.338C234.073 20.542 234.325 20.818 234.505 21.166C234.685 21.514 234.775 21.916 234.775 22.372C234.775 23.296 234.427 24.01 233.731 24.514C233.035 25.006 232.177 25.252 231.157 25.252C229.309 25.252 228.049 24.538 227.377 23.11L229.393 21.976C229.669 22.756 230.257 23.146 231.157 23.146C231.985 23.146 232.399 22.888 232.399 22.372C232.399 21.988 231.853 21.658 230.761 21.382C230.353 21.274 230.005 21.166 229.717 21.058C229.429 20.95 229.117 20.794 228.781 20.59C228.445 20.374 228.187 20.104 228.007 19.78C227.839 19.444 227.755 19.054 227.755 18.61C227.755 17.722 228.079 17.026 228.727 16.522C229.387 16.006 230.203 15.748 231.175 15.748C231.907 15.748 232.573 15.916 233.173 16.252C233.773 16.576 234.247 17.044 234.595 17.656L232.615 18.736C232.327 18.124 231.847 17.818 231.175 17.818C230.875 17.818 230.623 17.89 230.419 18.034C230.227 18.166 230.131 18.34 230.131 18.556ZM241.152 16V18.232H239.118V21.976C239.118 22.288 239.196 22.516 239.352 22.66C239.508 22.804 239.736 22.888 240.036 22.912C240.336 22.924 240.708 22.918 241.152 22.894V25C239.58 25.18 238.458 25.036 237.786 24.568C237.126 24.088 236.796 23.224 236.796 21.976V18.232H235.23V16H236.796V14.182L239.118 13.48V16H241.152ZM248.64 12.4H253.266C254.982 12.4 256.398 13.012 257.514 14.236C258.642 15.436 259.206 16.924 259.206 18.7C259.206 20.476 258.642 21.97 257.514 23.182C256.398 24.394 254.982 25 253.266 25H248.64V12.4ZM249.306 24.388H253.266C254.814 24.388 256.08 23.842 257.064 22.75C258.06 21.646 258.558 20.296 258.558 18.7C258.558 17.116 258.06 15.772 257.064 14.668C256.068 13.564 254.802 13.012 253.266 13.012H249.306V24.388ZM265.603 15.802C266.923 15.802 267.991 16.27 268.807 17.206C269.635 18.142 270.049 19.252 270.049 20.536C270.049 20.704 270.043 20.806 270.031 20.842H261.661C261.733 21.946 262.147 22.852 262.903 23.56C263.659 24.244 264.589 24.586 265.693 24.586C266.437 24.586 267.103 24.43 267.691 24.118C268.279 23.806 268.717 23.38 269.005 22.84L269.563 23.164C269.203 23.788 268.681 24.286 267.997 24.658C267.313 25.018 266.545 25.198 265.693 25.198C264.325 25.198 263.203 24.76 262.327 23.884C261.451 23.008 261.013 21.88 261.013 20.5C261.013 19.168 261.445 18.052 262.309 17.152C263.173 16.252 264.271 15.802 265.603 15.802ZM265.603 16.414C264.499 16.414 263.575 16.774 262.831 17.494C262.087 18.202 261.691 19.12 261.643 20.248H269.401C269.317 19.084 268.915 18.154 268.195 17.458C267.499 16.762 266.635 16.414 265.603 16.414ZM272.321 18.34C272.321 19.168 272.987 19.744 274.319 20.068C275.555 20.332 276.389 20.578 276.821 20.806C277.589 21.226 277.973 21.838 277.973 22.642C277.973 23.374 277.673 23.986 277.073 24.478C276.485 24.958 275.723 25.198 274.787 25.198C273.011 25.198 271.883 24.544 271.403 23.236L271.925 22.93C272.309 24.034 273.263 24.586 274.787 24.586C275.519 24.586 276.125 24.406 276.605 24.046C277.085 23.686 277.325 23.218 277.325 22.642C277.325 21.766 276.659 21.184 275.327 20.896C275.255 20.884 275.093 20.848 274.841 20.788C274.589 20.728 274.415 20.686 274.319 20.662C274.235 20.638 274.073 20.596 273.833 20.536C273.605 20.464 273.437 20.41 273.329 20.374C273.233 20.326 273.089 20.26 272.897 20.176C272.717 20.092 272.579 20.014 272.483 19.942C272.399 19.858 272.291 19.762 272.159 19.654C272.039 19.534 271.949 19.414 271.889 19.294C271.829 19.162 271.775 19.018 271.727 18.862C271.691 18.694 271.673 18.52 271.673 18.34C271.673 17.62 271.949 17.02 272.501 16.54C273.065 16.048 273.803 15.802 274.715 15.802C275.423 15.802 276.035 15.964 276.551 16.288C277.079 16.6 277.457 17.026 277.685 17.566L277.163 17.872C276.971 17.404 276.659 17.044 276.227 16.792C275.795 16.54 275.291 16.414 274.715 16.414C274.019 16.414 273.443 16.594 272.987 16.954C272.543 17.302 272.321 17.764 272.321 18.34ZM279.972 12.994C279.972 12.766 280.062 12.604 280.242 12.508C280.434 12.412 280.62 12.412 280.8 12.508C280.992 12.604 281.088 12.766 281.088 12.994C281.088 13.138 281.034 13.27 280.926 13.39C280.818 13.498 280.686 13.552 280.53 13.552C280.374 13.552 280.242 13.498 280.134 13.39C280.026 13.27 279.972 13.138 279.972 12.994ZM280.854 25H280.206V16H280.854V25ZM292.089 18.394V16H292.737V24.514C292.737 25.822 292.329 26.866 291.513 27.646C290.709 28.414 289.629 28.798 288.273 28.798C287.253 28.798 286.377 28.6 285.645 28.204C284.913 27.82 284.385 27.298 284.061 26.638L284.601 26.332C284.865 26.896 285.309 27.346 285.933 27.682C286.569 28.018 287.349 28.186 288.273 28.186C289.461 28.186 290.391 27.856 291.063 27.196C291.747 26.536 292.089 25.642 292.089 24.514V22.606C291.717 23.41 291.165 24.046 290.433 24.514C289.713 24.97 288.897 25.198 287.985 25.198C286.701 25.198 285.597 24.748 284.673 23.848C283.761 22.936 283.305 21.82 283.305 20.5C283.305 19.18 283.761 18.07 284.673 17.17C285.585 16.258 286.689 15.802 287.985 15.802C288.897 15.802 289.713 16.036 290.433 16.504C291.165 16.96 291.717 17.59 292.089 18.394ZM285.123 23.416C285.927 24.196 286.893 24.586 288.021 24.586C289.161 24.586 290.121 24.196 290.901 23.416C291.693 22.624 292.089 21.652 292.089 20.5C292.089 19.336 291.693 18.37 290.901 17.602C290.121 16.81 289.161 16.414 288.021 16.414C286.881 16.414 285.915 16.81 285.123 17.602C284.343 18.382 283.953 19.348 283.953 20.5C283.953 21.64 284.343 22.612 285.123 23.416ZM299.777 15.802C300.809 15.802 301.643 16.126 302.279 16.774C302.915 17.434 303.233 18.292 303.233 19.348V25H302.603V19.348C302.603 18.472 302.345 17.764 301.829 17.224C301.313 16.684 300.611 16.414 299.723 16.414C298.727 16.414 297.917 16.756 297.293 17.44C296.681 18.112 296.375 19.036 296.375 20.212V25H295.727V16H296.375V17.998C297.011 16.534 298.145 15.802 299.777 15.802Z" fill="#FAF8F8"/>
<rect x="128" y="20" width="28.2843" height="28.2843" rx="3" transform="rotate(-45 128 20)" fill="#FAF8F8"/>
<rect x="130" y="20" width="25.456" height="25.456" rx="12.728" transform="rotate(-45 130 20)" fill="#1F1F1F"/>
<rect x="140.856" y="12.8577" width="14.3993" height="14.3993" rx="1.1625" fill="#FAF8F8"/>
<rect x="140.286" y="20" width="10.9093" height="10.9093" rx="5.45464" transform="rotate(-45 140.286 20)" fill="#1F1F1F"/>
<rect x="144.971" y="20.0574" width="4.3637" height="4.3637" rx="2.18185" transform="rotate(-45 144.971 20.0574)" fill="#FAF8F8"/>
</svg>
