<svg width="1920" height="1431" viewBox="0 0 1920 1431" fill="none" xmlns="http://www.w3.org/2000/svg">
<path d="M2026.4 -733.223C2539.46 -484.208 2210.45 -25.1635 1818 169.857C1597.65 291.223 1694.46 583.227 1421.34 733.444C1148.22 883.662 1129.55 399.365 704.758 623.161C279.962 846.958 -151.095 176.488 101.105 -123.789C353.305 -424.066 185.362 -428.271 222.695 -917.425C260.028 -1406.58 1003.79 -1632.14 1220.31 -1223.14C1436.84 -814.144 1470.99 -1002.79 2026.4 -733.223Z" stroke="url(#paint0_linear_391_3159)" stroke-opacity="0.06" stroke-width="2"/>
<path d="M1147.99 -381.979C1198.87 -360.556 1208.19 -243.206 1137.58 -217.49C1072.93 -193.942 1049.06 -133.069 1011.19 -112.28C911.497 -57.5496 922.062 -100.631 855.943 -95.1105C775.484 -88.3932 647.034 -164.353 735.319 -264.786C807.929 -347.387 746.084 -357.938 782.68 -435.417C819.275 -512.896 911.194 -556.443 990.858 -486.414C1020.77 -460.117 1063.24 -417.659 1147.99 -381.979Z" stroke="url(#paint1_linear_391_3159)" stroke-opacity="0.06" stroke-width="2"/>
<path d="M1948.56 -699.539C2419.61 -471.214 2121.35 -43.2327 1758.16 136.396C1551.97 248.87 1637.8 519.862 1386.07 658.313C1128.71 799.85 1112.71 355.663 720.517 559.617C327.025 763.679 -76.5229 147.255 160.776 -134.854C396.65 -415.342 238.351 -420.124 275.617 -871.853C312.884 -1323.58 997.386 -1532.59 1201.47 -1154.41C1401.03 -780.207 1435.94 -947.84 1948.56 -699.539Z" stroke="url(#paint2_linear_391_3159)" stroke-opacity="0.06" stroke-width="2"/>
<path d="M1870.71 -665.851C2299.75 -458.216 2032.25 -61.298 1698.32 102.94C1506.27 206.521 1581.14 456.501 1350.79 583.186C1109.2 716.042 1095.85 311.966 736.271 496.076C374.083 680.404 -1.95541 118.026 220.442 -145.915C439.989 -406.615 291.337 -411.973 328.536 -826.277C365.735 -1240.58 990.978 -1433.05 1182.62 -1085.68C1365.21 -746.266 1400.88 -892.89 1870.71 -665.851Z" stroke="url(#paint3_linear_391_3159)" stroke-opacity="0.06" stroke-width="2"/>
<path d="M1792.87 -632.167C2179.89 -445.223 1943.14 -79.3679 1638.47 69.4785C1460.58 164.167 1524.48 393.135 1315.52 508.054C1089.69 632.23 1079 268.264 752.027 432.531C421.142 597.124 72.6136 88.7931 280.11 -156.981C483.33 -397.892 344.323 -403.827 381.455 -780.706C418.587 -1157.59 984.573 -1333.5 1163.77 -1016.95C1329.4 -712.329 1365.82 -837.944 1792.87 -632.167Z" stroke="url(#paint4_linear_391_3159)" stroke-opacity="0.06" stroke-width="2"/>
<path d="M1715.02 -598.483C2060.02 -432.229 1854.03 -97.4366 1578.62 36.0184C1414.89 121.814 1467.81 329.771 1280.24 432.923C1070.18 548.418 1062.14 224.563 767.776 368.987C468.194 513.846 147.176 59.5609 339.771 -168.045C526.665 -389.168 397.303 -395.68 434.368 -735.134C471.433 -1074.59 978.16 -1233.96 1144.92 -948.225C1293.58 -678.392 1330.76 -782.997 1715.02 -598.483Z" stroke="url(#paint5_linear_391_3159)" stroke-opacity="0.06" stroke-width="2"/>
<path d="M1635.79 -566.005C1938.77 -420.441 1763.54 -116.712 1517.39 1.35115C1367.81 78.2545 1409.76 265.199 1243.57 356.586C1049.28 463.4 1043.9 179.655 782.144 304.235C513.865 429.36 220.356 29.1215 398.05 -180.317C568.618 -381.651 448.901 -388.74 485.899 -690.769C522.896 -992.798 970.366 -1135.62 1124.68 -880.704C1256.38 -645.661 1294.32 -729.258 1635.79 -566.005Z" stroke="url(#paint6_linear_391_3159)" stroke-opacity="0.06" stroke-width="2"/>
<path d="M1554.93 -534.967C1815.9 -410.093 1671.43 -137.428 1454.53 -34.7554C1319.11 33.2554 1350.09 199.188 1205.29 278.808C1026.76 376.942 1024.04 133.308 794.887 238.045C557.912 343.435 291.913 -2.75728 454.705 -194.028C608.947 -375.573 498.875 -383.24 535.806 -647.843C572.736 -912.447 960.947 -1038.73 1102.82 -814.622C1217.56 -614.37 1256.25 -676.958 1554.93 -534.967Z" stroke="url(#paint7_linear_391_3159)" stroke-opacity="0.06" stroke-width="2"/>
<path d="M1473.98 -504.008C1692.93 -399.824 1579.22 -158.221 1391.58 -70.9404C1270.31 -11.822 1290.32 133.099 1166.91 200.953C1004.15 290.406 1004.08 86.8821 807.537 171.776C601.865 257.431 363.375 -34.7142 511.266 -207.818C649.181 -369.574 548.755 -377.817 585.619 -604.996C622.482 -832.175 951.435 -941.908 1080.87 -748.618C1178.64 -583.157 1218.08 -624.736 1473.98 -504.008Z" stroke="url(#paint8_linear_391_3159)" stroke-opacity="0.06" stroke-width="2"/>
<path d="M1392.9 -473.157C1569.83 -389.664 1486.87 -179.124 1328.49 -107.234C1221.38 -57.0085 1230.42 66.9003 1128.39 122.988C981.399 203.76 983.993 40.3474 820.053 105.398C645.684 171.318 434.704 -66.7803 567.694 -221.716C689.283 -363.684 598.502 -372.504 635.299 -562.258C672.095 -752.012 941.789 -845.198 1058.78 -682.724C1139.59 -552.054 1179.79 -572.623 1392.9 -473.157Z" stroke="url(#paint9_linear_391_3159)" stroke-opacity="0.06" stroke-width="2"/>
<path d="M1311.62 -442.474C1446.54 -379.671 1394.34 -200.195 1265.22 -143.697C1172.25 -102.363 1170.33 0.533532 1089.69 44.8552C958.458 116.947 963.708 -6.35563 832.375 38.8512C689.31 85.0376 505.84 -99.0148 623.928 -235.783C729.191 -357.962 648.055 -367.359 684.784 -519.688C721.514 -672.017 931.95 -748.657 1036.5 -616.998C1100.34 -521.118 1141.3 -520.679 1311.62 -442.474Z" stroke="url(#paint10_linear_391_3159)" stroke-opacity="0.06" stroke-width="2"/>
<path d="M1230.04 -412.037C1322.94 -369.924 1301.5 -221.511 1201.63 -180.404C1122.83 -147.963 1109.93 -66.078 1050.67 -33.5225C935.212 29.8882 943.119 -53.3035 844.393 -27.9399C732.632 -1.48808 576.671 -131.494 679.858 -250.095C768.794 -352.485 697.305 -362.459 733.967 -477.363C770.629 -592.267 921.807 -652.36 1013.91 -551.516C1060.79 -490.428 1102.5 -468.979 1230.04 -412.037Z" stroke="url(#paint11_linear_391_3159)" stroke-opacity="0.06" stroke-width="2"/>
<g filter="url(#filter0_bf_391_3159)">
<ellipse rx="143.68" ry="194.995" transform="matrix(1 0 0 -1 70.6802 112.994)" fill="#9245DE"/>
<ellipse rx="143.071" ry="194.465" transform="matrix(1 0 0 -1 207.712 166.069)" fill="#5F7EFF"/>
<ellipse rx="155.175" ry="142.038" transform="matrix(1 0 0 -1 135.542 248.054)" fill="#3EA2FF"/>
</g>
<g filter="url(#filter1_bf_391_3159)">
<ellipse rx="195.819" ry="265.755" transform="matrix(1 0 0 -1 1977.82 433.755)" fill="#9245DE"/>
<ellipse rx="211.485" ry="193.581" transform="matrix(1 0 0 -1 2066.22 617.825)" fill="#3EA2FF"/>
</g>
<defs>
<filter id="filter0_bf_391_3159" x="-1105.05" y="-1114.05" width="2487.89" height="2536.2" filterUnits="userSpaceOnUse" color-interpolation-filters="sRGB">
<feFlood flood-opacity="0" result="BackgroundImageFix"/>
<feGaussianBlur in="BackgroundImage" stdDeviation="516.026"/>
<feComposite in2="SourceAlpha" operator="in" result="effect1_backgroundBlur_391_3159"/>
<feBlend mode="normal" in="SourceGraphic" in2="effect1_backgroundBlur_391_3159" result="shape"/>
<feGaussianBlur stdDeviation="309.616" result="effect2_foregroundBlur_391_3159"/>
</filter>
<filter id="filter1_bf_391_3159" x="749.948" y="-864.052" width="2641.67" height="2707.51" filterUnits="userSpaceOnUse" color-interpolation-filters="sRGB">
<feFlood flood-opacity="0" result="BackgroundImageFix"/>
<feGaussianBlur in="BackgroundImage" stdDeviation="516.026"/>
<feComposite in2="SourceAlpha" operator="in" result="effect1_backgroundBlur_391_3159"/>
<feBlend mode="normal" in="SourceGraphic" in2="effect1_backgroundBlur_391_3159" result="shape"/>
<feGaussianBlur stdDeviation="309.616" result="effect2_foregroundBlur_391_3159"/>
</filter>
<linearGradient id="paint0_linear_391_3159" x1="1475.69" y1="-708.714" x2="845.807" y2="-1762.35" gradientUnits="userSpaceOnUse">
<stop stop-color="#EAE8F5"/>
<stop offset="1" stop-color="#BFBDCD"/>
</linearGradient>
<linearGradient id="paint1_linear_391_3159" x1="1033.26" y1="-371.122" x2="902.816" y2="-582.207" gradientUnits="userSpaceOnUse">
<stop stop-color="#EAE8F5"/>
<stop offset="1" stop-color="#BFBDCD"/>
</linearGradient>
<linearGradient id="paint2_linear_391_3159" x1="1436.4" y1="-677.255" x2="852.266" y2="-1652.84" gradientUnits="userSpaceOnUse">
<stop stop-color="#EAE8F5"/>
<stop offset="1" stop-color="#BFBDCD"/>
</linearGradient>
<linearGradient id="paint3_linear_391_3159" x1="1397.1" y1="-645.791" x2="858.724" y2="-1543.32" gradientUnits="userSpaceOnUse">
<stop stop-color="#EAE8F5"/>
<stop offset="1" stop-color="#BFBDCD"/>
</linearGradient>
<linearGradient id="paint4_linear_391_3159" x1="1357.8" y1="-614.331" x2="865.186" y2="-1433.82" gradientUnits="userSpaceOnUse">
<stop stop-color="#EAE8F5"/>
<stop offset="1" stop-color="#BFBDCD"/>
</linearGradient>
<linearGradient id="paint5_linear_391_3159" x1="1318.49" y1="-582.868" x2="871.645" y2="-1324.31" gradientUnits="userSpaceOnUse">
<stop stop-color="#EAE8F5"/>
<stop offset="1" stop-color="#BFBDCD"/>
</linearGradient>
<linearGradient id="paint6_linear_391_3159" x1="1278.57" y1="-551.936" x2="877.255" y2="-1216.32" gradientUnits="userSpaceOnUse">
<stop stop-color="#EAE8F5"/>
<stop offset="1" stop-color="#BFBDCD"/>
</linearGradient>
<linearGradient id="paint7_linear_391_3159" x1="1237.93" y1="-521.644" x2="881.863" y2="-1110.14" gradientUnits="userSpaceOnUse">
<stop stop-color="#EAE8F5"/>
<stop offset="1" stop-color="#BFBDCD"/>
</linearGradient>
<linearGradient id="paint8_linear_391_3159" x1="1197.23" y1="-491.385" x2="886.404" y2="-1004.06" gradientUnits="userSpaceOnUse">
<stop stop-color="#EAE8F5"/>
<stop offset="1" stop-color="#BFBDCD"/>
</linearGradient>
<linearGradient id="paint9_linear_391_3159" x1="1156.47" y1="-461.17" x2="890.848" y2="-898.125" gradientUnits="userSpaceOnUse">
<stop stop-color="#EAE8F5"/>
<stop offset="1" stop-color="#BFBDCD"/>
</linearGradient>
<linearGradient id="paint10_linear_391_3159" x1="1115.61" y1="-431.027" x2="895.145" y2="-792.407" gradientUnits="userSpaceOnUse">
<stop stop-color="#EAE8F5"/>
<stop offset="1" stop-color="#BFBDCD"/>
</linearGradient>
<linearGradient id="paint11_linear_391_3159" x1="1074.58" y1="-400.986" x2="899.197" y2="-687.021" gradientUnits="userSpaceOnUse">
<stop stop-color="#EAE8F5"/>
<stop offset="1" stop-color="#BFBDCD"/>
</linearGradient>
</defs>
</svg>
