<svg width="414" height="1031" viewBox="0 0 414 1031" fill="none" xmlns="http://www.w3.org/2000/svg">
<path d="M997.939 -315.758C1349.53 -145.113 1124.07 169.46 855.133 303.103C704.131 386.272 770.47 586.376 583.306 689.317C396.142 792.258 383.353 460.379 92.2498 613.743C-198.853 767.106 -494.247 307.647 -321.42 101.874C-148.593 -103.899 -263.681 -106.781 -238.097 -441.987C-212.514 -777.194 297.169 -931.764 445.548 -651.488C593.927 -371.211 617.333 -500.483 997.939 -315.758Z" stroke="url(#paint0_linear_427_5047)" stroke-opacity="0.06" stroke-width="2"/>
<path d="M395.987 -75.0581C430.856 -60.3776 437.238 20.0399 388.855 37.6622C344.55 53.7993 328.195 95.5144 302.243 109.761C233.924 147.266 241.163 117.744 195.853 121.526C140.717 126.13 52.6927 74.0764 113.193 5.25174C162.951 -51.3533 120.57 -58.5835 145.648 -111.678C170.726 -164.773 233.716 -194.614 288.308 -146.625C308.809 -128.604 337.91 -99.509 395.987 -75.0581Z" stroke="url(#paint1_linear_427_5047)" stroke-opacity="0.06" stroke-width="2"/>
<path d="M944.598 -292.675C1267.4 -136.209 1063.01 157.077 814.125 280.173C672.823 357.249 731.645 542.953 559.136 637.831C382.776 734.823 371.808 430.432 103.05 570.197C-166.602 710.036 -443.144 287.614 -280.528 94.2911C-118.889 -97.9212 -227.368 -101.198 -201.83 -410.758C-176.292 -720.318 292.782 -863.55 432.635 -604.39C569.388 -347.955 593.312 -462.83 944.598 -292.675Z" stroke="url(#paint2_linear_427_5047)" stroke-opacity="0.06" stroke-width="2"/>
<path d="M891.251 -269.59C1185.26 -127.302 1001.95 144.697 773.113 257.246C641.511 328.227 692.814 499.533 534.962 586.348C369.406 677.392 360.258 400.487 113.845 526.653C-134.355 652.969 -392.046 267.584 -239.642 86.711C-89.1909 -91.9406 -191.059 -95.6127 -165.568 -379.526C-140.076 -663.439 288.39 -795.332 419.717 -557.29C544.845 -324.696 569.286 -425.174 891.251 -269.59Z" stroke="url(#paint3_linear_427_5047)" stroke-opacity="0.06" stroke-width="2"/>
<path d="M837.908 -246.507C1103.12 -118.398 940.887 132.314 732.103 234.315C610.201 299.203 653.987 456.11 510.79 534.862C356.038 619.956 348.711 370.539 124.643 483.107C-102.106 595.899 -340.945 247.551 -198.752 79.1276C-59.4894 -85.9633 -154.748 -90.0307 -129.302 -348.298C-103.857 -606.564 284.001 -727.118 406.801 -510.193C520.304 -301.44 545.264 -387.521 837.908 -246.507Z" stroke="url(#paint4_linear_427_5047)" stroke-opacity="0.06" stroke-width="2"/>
<path d="M784.558 -223.423C1020.98 -109.493 879.822 119.933 691.088 211.386C578.885 270.18 615.153 412.688 486.612 483.377C342.664 562.523 337.158 340.592 135.435 439.562C-69.8624 538.831 -289.849 227.52 -157.868 71.5459C-29.7937 -79.9842 -118.443 -84.4471 -93.0429 -317.067C-67.6433 -549.688 279.606 -658.902 393.88 -463.094C495.758 -278.183 521.235 -349.867 784.558 -223.423Z" stroke="url(#paint5_linear_427_5047)" stroke-opacity="0.06" stroke-width="2"/>
<path d="M730.262 -201.167C937.89 -101.416 817.81 106.723 649.126 187.629C546.622 240.33 575.373 368.439 461.488 431.064C328.344 504.261 324.659 309.817 145.28 395.189C-38.5657 480.934 -239.701 206.66 -117.932 63.1361C-1.0449 -74.8333 -83.0841 -79.6915 -57.7304 -286.665C-32.3767 -493.639 274.264 -591.515 380.012 -416.824C470.265 -255.754 496.26 -313.041 730.262 -201.167Z" stroke="url(#paint6_linear_427_5047)" stroke-opacity="0.06" stroke-width="2"/>
<path d="M674.852 -179.898C853.687 -94.3246 754.683 92.5273 606.05 162.886C513.246 209.493 534.479 323.203 435.249 377.765C312.91 445.013 311.045 278.056 154.011 349.83C-8.3827 422.052 -190.666 184.814 -79.1084 53.7401C26.5903 -70.6686 -48.8392 -75.9221 -23.5315 -257.249C1.77608 -438.577 267.808 -525.113 365.031 -371.539C443.658 -234.311 470.171 -277.201 674.852 -179.898Z" stroke="url(#paint7_linear_427_5047)" stroke-opacity="0.06" stroke-width="2"/>
<path d="M619.382 -158.681C769.424 -87.2866 691.498 78.2784 562.914 138.09C479.81 178.603 493.525 277.914 408.952 324.413C297.416 385.713 297.372 246.242 162.683 304.418C21.7405 363.116 -141.691 162.915 -40.3449 44.2911C54.1656 -66.5569 -14.6541 -72.2058 10.6076 -227.886C35.8693 -383.567 261.293 -458.765 349.99 -326.308C416.992 -212.921 444.022 -241.414 619.382 -158.681Z" stroke="url(#paint8_linear_427_5047)" stroke-opacity="0.06" stroke-width="2"/>
<path d="M563.818 -137.541C685.067 -80.3246 628.217 63.9535 519.684 113.218C446.28 147.637 452.477 232.548 382.559 270.984C281.827 326.336 283.604 214.352 171.26 258.93C51.7691 304.104 -92.8106 140.94 -1.67614 34.7659C81.6463 -62.5213 19.4364 -68.5655 44.6521 -198.6C69.8678 -328.634 254.683 -392.493 334.854 -281.152C390.23 -191.607 417.778 -205.703 563.818 -137.541Z" stroke="url(#paint9_linear_427_5047)" stroke-opacity="0.06" stroke-width="2"/>
<path d="M508.119 -116.514C600.575 -73.4766 564.802 49.5146 476.319 88.2316C412.615 116.556 411.295 187.069 356.032 217.442C266.104 266.845 269.702 182.348 179.703 213.328C81.6635 244.978 -44.0645 118.851 36.8585 25.1268C108.993 -58.5996 53.3927 -65.0392 78.5624 -169.427C103.732 -273.814 247.939 -326.334 319.584 -236.111C363.335 -170.407 391.401 -170.106 508.119 -116.514Z" stroke="url(#paint10_linear_427_5047)" stroke-opacity="0.06" stroke-width="2"/>
<path d="M452.211 -95.6559C515.874 -66.7968 501.178 34.9075 432.745 63.0772C378.741 85.3081 369.903 141.422 329.296 163.732C250.172 207.186 255.591 150.176 187.936 167.557C111.349 185.684 4.47241 96.594 75.1838 15.3195C136.13 -54.8462 87.1396 -61.6811 112.263 -140.422C137.387 -219.163 240.986 -260.344 304.104 -191.238C336.23 -149.375 364.814 -134.677 452.211 -95.6559Z" stroke="url(#paint11_linear_427_5047)" stroke-opacity="0.06" stroke-width="2"/>
<g filter="url(#filter0_bf_427_5047)">
<ellipse rx="84.0826" ry="114.112" transform="matrix(1 0 0 -1 -7.9174 -12.888)" fill="#9245DE"/>
<ellipse rx="83.726" ry="113.802" transform="matrix(1 0 0 -1 72.2729 18.1723)" fill="#5F7EFF"/>
<ellipse rx="90.8092" ry="83.1216" transform="matrix(1 0 0 -1 30.0397 66.1499)" fill="#3EA2FF"/>
</g>
<g filter="url(#filter1_bf_427_5047)">
<ellipse rx="73.4264" ry="99.6501" transform="matrix(1 0 0 -1 401.426 490.65)" fill="#9245DE"/>
<ellipse rx="73.115" ry="99.3797" transform="matrix(1 0 0 -1 471.455 517.774)" fill="#5F7EFF"/>
<ellipse rx="79.3005" ry="72.5872" transform="matrix(1 0 0 -1 434.574 559.671)" fill="#3EA2FF"/>
</g>
<defs>
<filter id="filter0_bf_427_5047" x="-1124.05" y="-1159.05" width="2312.1" height="2340.38" filterUnits="userSpaceOnUse" color-interpolation-filters="sRGB">
<feFlood flood-opacity="0" result="BackgroundImageFix"/>
<feGaussianBlur in="BackgroundImage" stdDeviation="516.026"/>
<feComposite in2="SourceAlpha" operator="in" result="effect1_backgroundBlur_427_5047"/>
<feBlend mode="normal" in="SourceGraphic" in2="effect1_backgroundBlur_427_5047" result="shape"/>
<feGaussianBlur stdDeviation="172" result="effect2_foregroundBlur_427_5047"/>
</filter>
<filter id="filter1_bf_427_5047" x="-704.052" y="-641.052" width="2280.67" height="2305.36" filterUnits="userSpaceOnUse" color-interpolation-filters="sRGB">
<feFlood flood-opacity="0" result="BackgroundImageFix"/>
<feGaussianBlur in="BackgroundImage" stdDeviation="516.026"/>
<feComposite in2="SourceAlpha" operator="in" result="effect1_backgroundBlur_427_5047"/>
<feBlend mode="normal" in="SourceGraphic" in2="effect1_backgroundBlur_427_5047" result="shape"/>
<feGaussianBlur stdDeviation="117.5" result="effect2_foregroundBlur_427_5047"/>
</filter>
<linearGradient id="paint0_linear_427_5047" x1="620.555" y1="-298.962" x2="188.907" y2="-1020.99" gradientUnits="userSpaceOnUse">
<stop stop-color="#EAE8F5"/>
<stop offset="1" stop-color="#BFBDCD"/>
</linearGradient>
<linearGradient id="paint1_linear_427_5047" x1="317.364" y1="-67.6179" x2="227.975" y2="-212.27" gradientUnits="userSpaceOnUse">
<stop stop-color="#EAE8F5"/>
<stop offset="1" stop-color="#BFBDCD"/>
</linearGradient>
<linearGradient id="paint2_linear_427_5047" x1="593.627" y1="-277.404" x2="193.335" y2="-945.949" gradientUnits="userSpaceOnUse">
<stop stop-color="#EAE8F5"/>
<stop offset="1" stop-color="#BFBDCD"/>
</linearGradient>
<linearGradient id="paint3_linear_427_5047" x1="566.694" y1="-255.843" x2="197.759" y2="-870.903" gradientUnits="userSpaceOnUse">
<stop stop-color="#EAE8F5"/>
<stop offset="1" stop-color="#BFBDCD"/>
</linearGradient>
<linearGradient id="paint4_linear_427_5047" x1="539.764" y1="-234.284" x2="202.188" y2="-795.859" gradientUnits="userSpaceOnUse">
<stop stop-color="#EAE8F5"/>
<stop offset="1" stop-color="#BFBDCD"/>
</linearGradient>
<linearGradient id="paint5_linear_427_5047" x1="512.827" y1="-212.723" x2="206.613" y2="-720.815" gradientUnits="userSpaceOnUse">
<stop stop-color="#EAE8F5"/>
<stop offset="1" stop-color="#BFBDCD"/>
</linearGradient>
<linearGradient id="paint6_linear_427_5047" x1="485.468" y1="-191.526" x2="210.457" y2="-646.813" gradientUnits="userSpaceOnUse">
<stop stop-color="#EAE8F5"/>
<stop offset="1" stop-color="#BFBDCD"/>
</linearGradient>
<linearGradient id="paint7_linear_427_5047" x1="457.615" y1="-170.768" x2="213.614" y2="-574.051" gradientUnits="userSpaceOnUse">
<stop stop-color="#EAE8F5"/>
<stop offset="1" stop-color="#BFBDCD"/>
</linearGradient>
<linearGradient id="paint8_linear_427_5047" x1="429.734" y1="-150.031" x2="216.729" y2="-501.357" gradientUnits="userSpaceOnUse">
<stop stop-color="#EAE8F5"/>
<stop offset="1" stop-color="#BFBDCD"/>
</linearGradient>
<linearGradient id="paint9_linear_427_5047" x1="401.803" y1="-129.326" x2="219.774" y2="-428.762" gradientUnits="userSpaceOnUse">
<stop stop-color="#EAE8F5"/>
<stop offset="1" stop-color="#BFBDCD"/>
</linearGradient>
<linearGradient id="paint10_linear_427_5047" x1="373.8" y1="-108.669" x2="222.718" y2="-356.315" gradientUnits="userSpaceOnUse">
<stop stop-color="#EAE8F5"/>
<stop offset="1" stop-color="#BFBDCD"/>
</linearGradient>
<linearGradient id="paint11_linear_427_5047" x1="345.679" y1="-88.0827" x2="225.492" y2="-284.096" gradientUnits="userSpaceOnUse">
<stop stop-color="#EAE8F5"/>
<stop offset="1" stop-color="#BFBDCD"/>
</linearGradient>
</defs>
</svg>
