<svg width="1914" height="1369" viewBox="0 0 1914 1369" fill="none" xmlns="http://www.w3.org/2000/svg">
<g filter="url(#filter0_f_304_3150)">
<ellipse cx="893.082" cy="583.112" rx="57.5058" ry="486.017" transform="rotate(90.088 893.082 583.112)" fill="#9245DE"/>
<ellipse cx="1024.92" cy="638.308" rx="57.5058" ry="486.017" transform="rotate(90.088 1024.92 638.308)" fill="#5F7EFF"/>
<ellipse cx="1157.89" cy="609.573" rx="49.7765" ry="283.81" transform="rotate(90.088 1157.89 609.573)" fill="#3EA2FF"/>
</g>
<line x1="567.5" y1="261" x2="567.5" y2="733" stroke="#AEAEAE" stroke-opacity="0.08"/>
<line x1="956.5" y1="109" x2="956.5" y2="733.05" stroke="#AEAEAE" stroke-opacity="0.08"/>
<path d="M1345.5 250.5L1345.5 733" stroke="#AEAEAE" stroke-opacity="0.08"/>
<path d="M1545 684.5C1545 1045.58 1280.23 1332 961 1332C641.773 1332 377 1045.58 377 684.5C377 323.424 641.773 37 961 37C1280.23 37 1545 323.424 1545 684.5Z" stroke="url(#paint0_linear_304_3150)" stroke-opacity="0.55" stroke-width="74"/>
<rect x="322" y="637" width="1289" height="732" fill="#070B14"/>
<rect y="17" width="1914" height="274" fill="url(#paint1_linear_304_3150)"/>
<defs>
<filter id="filter0_f_304_3150" x="84.0654" y="202.602" width="1749.87" height="816.217" filterUnits="userSpaceOnUse" color-interpolation-filters="sRGB">
<feFlood flood-opacity="0" result="BackgroundImageFix"/>
<feBlend mode="normal" in="SourceGraphic" in2="BackgroundImageFix" result="shape"/>
<feGaussianBlur stdDeviation="161.5" result="effect1_foregroundBlur_304_3150"/>
</filter>
<linearGradient id="paint0_linear_304_3150" x1="1131.76" y1="771.985" x2="1113.06" y2="-29.6145" gradientUnits="userSpaceOnUse">
<stop stop-color="#2A232B"/>
<stop offset="1" stop-color="#4E474F" stop-opacity="0"/>
</linearGradient>
<linearGradient id="paint1_linear_304_3150" x1="957.614" y1="100.957" x2="957.614" y2="281.888" gradientUnits="userSpaceOnUse">
<stop stop-color="#070B14"/>
<stop offset="1" stop-color="#070B14" stop-opacity="0"/>
</linearGradient>
</defs>
</svg>
