<svg width="211" height="213" viewBox="0 0 211 213" fill="none" xmlns="http://www.w3.org/2000/svg">
<g style="mix-blend-mode:hard-light" filter="url(#filter0_f_254_3118)">
<path d="M100.229 123.615V117.713C100.229 116.206 101.458 114.984 102.973 114.984H108.515C109.243 114.984 109.941 115.272 110.455 115.784C110.97 116.295 111.259 116.989 111.259 117.713V123.615C111.255 124.242 111.502 124.844 111.946 125.289C112.39 125.733 112.994 125.983 113.624 125.983H117.405C119.17 125.988 120.865 125.294 122.115 124.054C123.365 122.815 124.068 121.132 124.068 119.377V102.561C124.068 101.144 123.436 99.7989 122.342 98.8893L109.481 88.6797C107.244 86.8896 104.039 86.9474 101.869 88.817L89.3018 98.8893C88.1561 99.772 87.4713 101.121 87.4375 102.561V119.36C87.4375 123.018 90.4207 125.983 94.1007 125.983H97.7948C99.1037 125.983 100.168 124.934 100.177 123.633L100.229 123.615Z" stroke="#6A2CAD" stroke-width="4.71537"/>
</g>
<g style="mix-blend-mode:hard-light" filter="url(#filter1_f_254_3118)">
<path d="M100.229 123.615V117.713C100.229 116.206 101.458 114.984 102.973 114.984H108.515C109.243 114.984 109.941 115.272 110.455 115.784C110.97 116.295 111.259 116.989 111.259 117.713V123.615C111.255 124.242 111.502 124.844 111.946 125.289C112.39 125.733 112.994 125.983 113.624 125.983H117.405C119.17 125.988 120.865 125.294 122.115 124.054C123.365 122.815 124.068 121.132 124.068 119.377V102.561C124.068 101.144 123.436 99.7989 122.342 98.8893L109.481 88.6797C107.244 86.8896 104.039 86.9474 101.869 88.817L89.3018 98.8893C88.1561 99.772 87.4713 101.121 87.4375 102.561V119.36C87.4375 123.018 90.4207 125.983 94.1007 125.983H97.7948C99.1037 125.983 100.168 124.934 100.177 123.633L100.229 123.615Z" stroke="#6A2CAD" stroke-width="6.16626"/>
</g>
<g style="mix-blend-mode:hard-light" filter="url(#filter2_ddi_254_3118)">
<path d="M100.229 123.615V117.713C100.229 116.206 101.458 114.984 102.973 114.984H108.515C109.243 114.984 109.941 115.272 110.455 115.784C110.97 116.295 111.259 116.989 111.259 117.713V123.615C111.255 124.242 111.502 124.844 111.946 125.289C112.39 125.733 112.994 125.983 113.624 125.983H117.405C119.17 125.988 120.865 125.294 122.115 124.054C123.365 122.815 124.068 121.132 124.068 119.377V102.561C124.068 101.144 123.436 99.7989 122.342 98.8893L109.481 88.6797C107.244 86.8896 104.039 86.9474 101.869 88.817L89.3018 98.8893C88.1561 99.772 87.4713 101.121 87.4375 102.561V119.36C87.4375 123.018 90.4207 125.983 94.1007 125.983H97.7948C99.1037 125.983 100.168 124.934 100.177 123.633L100.229 123.615Z" stroke="#8350E5" stroke-opacity="0.2" stroke-width="4.71537"/>
</g>
<g filter="url(#filter3_f_254_3118)">
<path d="M100.229 123.615V117.713C100.229 116.206 101.458 114.984 102.973 114.984H108.515C109.243 114.984 109.941 115.272 110.455 115.784C110.97 116.295 111.259 116.989 111.259 117.713V123.615C111.255 124.242 111.502 124.844 111.946 125.289C112.39 125.733 112.994 125.983 113.624 125.983H117.405C119.17 125.988 120.865 125.294 122.115 124.054C123.365 122.815 124.068 121.132 124.068 119.377V102.561C124.068 101.144 123.436 99.7989 122.342 98.8893L109.481 88.6797C107.244 86.8896 104.039 86.9474 101.869 88.817L89.3018 98.8893C88.1561 99.772 87.4713 101.121 87.4375 102.561V119.36C87.4375 123.018 90.4207 125.983 94.1007 125.983H97.7948C99.1037 125.983 100.168 124.934 100.177 123.633L100.229 123.615Z" stroke="#6A2CAD" stroke-width="2.90177"/>
</g>
<g filter="url(#filter4_f_254_3118)">
<path d="M100.229 123.615V117.713C100.229 116.206 101.458 114.984 102.973 114.984H108.515C109.243 114.984 109.941 115.272 110.455 115.784C110.97 116.295 111.259 116.989 111.259 117.713V123.615C111.255 124.242 111.502 124.844 111.946 125.289C112.39 125.733 112.994 125.983 113.624 125.983H117.405C119.17 125.988 120.865 125.294 122.115 124.054C123.365 122.815 124.068 121.132 124.068 119.377V102.561C124.068 101.144 123.436 99.7989 122.342 98.8893L109.481 88.6797C107.244 86.8896 104.039 86.9474 101.869 88.817L89.3018 98.8893C88.1561 99.772 87.4713 101.121 87.4375 102.561V119.36C87.4375 123.018 90.4207 125.983 94.1007 125.983H97.7948C99.1037 125.983 100.168 124.934 100.177 123.633L100.229 123.615Z" stroke="white" stroke-width="1.45088"/>
</g>
<g filter="url(#filter5_b_254_3118)">
<path d="M100.224 123.565V117.67C100.224 116.165 101.452 114.946 102.968 114.946H108.507C109.234 114.946 109.932 115.233 110.447 115.744C110.961 116.255 111.25 116.948 111.25 117.67V123.565C111.246 124.19 111.493 124.792 111.937 125.236C112.381 125.68 112.984 125.929 113.614 125.929H117.393C119.158 125.934 120.853 125.241 122.102 124.003C123.352 122.765 124.054 121.085 124.054 119.332V102.54C124.054 101.124 123.422 99.7814 122.329 98.8732L109.473 88.6779C107.237 86.8903 104.033 86.948 101.863 88.815L89.3011 98.8732C88.1558 99.7547 87.4713 101.102 87.4375 102.54V119.315C87.4375 122.968 90.4196 125.929 94.0982 125.929H97.7909C99.0993 125.929 100.163 124.881 100.172 123.582L100.224 123.565Z" fill="#6A2CAD" fill-opacity="0.01"/>
</g>
<defs>
<filter id="filter0_f_254_3118" x="0.511429" y="0.448929" width="210.483" height="212.461" filterUnits="userSpaceOnUse" color-interpolation-filters="sRGB">
<feFlood flood-opacity="0" result="BackgroundImageFix"/>
<feBlend mode="normal" in="SourceGraphic" in2="BackgroundImageFix" result="shape"/>
<feGaussianBlur stdDeviation="42.2842" result="effect1_foregroundBlur_254_3118"/>
</filter>
<filter id="filter1_f_254_3118" x="56.165" y="56.1024" width="99.1753" height="101.154" filterUnits="userSpaceOnUse" color-interpolation-filters="sRGB">
<feFlood flood-opacity="0" result="BackgroundImageFix"/>
<feBlend mode="normal" in="SourceGraphic" in2="BackgroundImageFix" result="shape"/>
<feGaussianBlur stdDeviation="14.0947" result="effect1_foregroundBlur_254_3118"/>
</filter>
<filter id="filter2_ddi_254_3118" x="48.4335" y="76.5605" width="114.638" height="116.616" filterUnits="userSpaceOnUse" color-interpolation-filters="sRGB">
<feFlood flood-opacity="0" result="BackgroundImageFix"/>
<feColorMatrix in="SourceAlpha" type="matrix" values="0 0 0 0 0 0 0 0 0 0 0 0 0 0 0 0 0 0 127 0" result="hardAlpha"/>
<feOffset dy="18.3232"/>
<feGaussianBlur stdDeviation="7.04737"/>
<feColorMatrix type="matrix" values="0 0 0 0 0.114706 0 0 0 0 0.0382353 0 0 0 0 0.261765 0 0 0 0.7 0"/>
<feBlend mode="multiply" in2="BackgroundImageFix" result="effect1_dropShadow_254_3118"/>
<feColorMatrix in="SourceAlpha" type="matrix" values="0 0 0 0 0 0 0 0 0 0 0 0 0 0 0 0 0 0 127 0" result="hardAlpha"/>
<feOffset dy="28.1895"/>
<feGaussianBlur stdDeviation="18.3232"/>
<feColorMatrix type="matrix" values="0 0 0 0 0.229412 0 0 0 0 0.0764706 0 0 0 0 0.523529 0 0 0 1 0"/>
<feBlend mode="color-dodge" in2="effect1_dropShadow_254_3118" result="effect2_dropShadow_254_3118"/>
<feBlend mode="normal" in="SourceGraphic" in2="effect2_dropShadow_254_3118" result="shape"/>
<feColorMatrix in="SourceAlpha" type="matrix" values="0 0 0 0 0 0 0 0 0 0 0 0 0 0 0 0 0 0 127 0" result="hardAlpha"/>
<feOffset dx="-1.83232" dy="3.66463"/>
<feGaussianBlur stdDeviation="0.916158"/>
<feComposite in2="hardAlpha" operator="arithmetic" k2="-1" k3="1"/>
<feColorMatrix type="matrix" values="0 0 0 0 1 0 0 0 0 1 0 0 0 0 1 0 0 0 0.5 0"/>
<feBlend mode="normal" in2="shape" result="effect3_innerShadow_254_3118"/>
</filter>
<filter id="filter3_f_254_3118" x="85.2611" y="85.1986" width="40.9831" height="42.961" filterUnits="userSpaceOnUse" color-interpolation-filters="sRGB">
<feFlood flood-opacity="0" result="BackgroundImageFix"/>
<feBlend mode="normal" in="SourceGraphic" in2="BackgroundImageFix" result="shape"/>
<feGaussianBlur stdDeviation="0.362721" result="effect1_foregroundBlur_254_3118"/>
</filter>
<filter id="filter4_f_254_3118" x="86.2285" y="86.1659" width="39.0483" height="41.0265" filterUnits="userSpaceOnUse" color-interpolation-filters="sRGB">
<feFlood flood-opacity="0" result="BackgroundImageFix"/>
<feBlend mode="normal" in="SourceGraphic" in2="BackgroundImageFix" result="shape"/>
<feGaussianBlur stdDeviation="0.241814" result="effect1_foregroundBlur_254_3118"/>
</filter>
<filter id="filter5_b_254_3118" x="70.4375" y="70.375" width="70.6167" height="72.5542" filterUnits="userSpaceOnUse" color-interpolation-filters="sRGB">
<feFlood flood-opacity="0" result="BackgroundImageFix"/>
<feGaussianBlur in="BackgroundImage" stdDeviation="8.5"/>
<feComposite in2="SourceAlpha" operator="in" result="effect1_backgroundBlur_254_3118"/>
<feBlend mode="normal" in="SourceGraphic" in2="effect1_backgroundBlur_254_3118" result="shape"/>
</filter>
</defs>
</svg>
