<svg width="216" height="222" viewBox="0 0 216 222" fill="none" xmlns="http://www.w3.org/2000/svg">
<g style="mix-blend-mode:hard-light" filter="url(#filter0_f_254_3125)">
<path fill-rule="evenodd" clip-rule="evenodd" d="M122.669 104.719C123.136 104.714 123.643 104.708 124.105 104.708C124.601 104.708 124.997 105.109 124.997 105.611V121.74C124.997 126.715 121.01 130.747 116.091 130.747H100.3C95.1429 130.747 90.9375 126.514 90.9375 121.299V99.6726C90.9375 94.6974 94.9445 90.625 99.8839 90.625H110.477C110.993 90.625 111.389 91.0463 111.389 91.5478V98.0075C111.389 101.679 114.385 104.688 118.015 104.708C118.863 104.708 119.61 104.714 120.264 104.72C120.773 104.724 121.226 104.728 121.625 104.728C121.907 104.728 122.273 104.724 122.669 104.719ZM101.808 119.493H112.599C113.413 119.493 114.087 118.811 114.087 117.988C114.087 117.166 113.413 116.504 112.599 116.504H101.808C100.995 116.504 100.32 117.166 100.32 117.988C100.32 118.811 100.995 119.493 101.808 119.493ZM108.513 106.473H101.808C100.995 106.473 100.32 107.155 100.32 107.978C100.32 108.8 100.995 109.462 101.808 109.462H108.513C109.326 109.462 110.001 108.8 110.001 107.978C110.001 107.155 109.326 106.473 108.513 106.473Z" stroke="#6A2CAD" stroke-width="4.90029"/>
<path d="M123.216 101.791C121.586 101.797 119.664 101.791 118.281 101.777C116.087 101.777 114.28 99.9494 114.28 97.7307V92.4425C114.28 91.5779 115.317 91.1486 115.91 91.7725C116.984 92.9015 118.459 94.4534 119.928 95.9981C121.393 97.5387 122.851 99.0723 123.897 100.172C124.476 100.78 124.051 101.789 123.216 101.791Z" stroke="#6A2CAD" stroke-width="4.90029"/>
</g>
<g style="mix-blend-mode:hard-light" filter="url(#filter1_f_254_3125)">
<path fill-rule="evenodd" clip-rule="evenodd" d="M122.669 104.719C123.136 104.714 123.643 104.708 124.105 104.708C124.601 104.708 124.997 105.109 124.997 105.611V121.74C124.997 126.715 121.01 130.747 116.091 130.747H100.3C95.1429 130.747 90.9375 126.514 90.9375 121.299V99.6726C90.9375 94.6974 94.9445 90.625 99.8839 90.625H110.477C110.993 90.625 111.389 91.0463 111.389 91.5478V98.0075C111.389 101.679 114.385 104.688 118.015 104.708C118.863 104.708 119.61 104.714 120.264 104.72C120.773 104.724 121.226 104.728 121.625 104.728C121.907 104.728 122.273 104.724 122.669 104.719ZM101.808 119.493H112.599C113.413 119.493 114.087 118.811 114.087 117.988C114.087 117.166 113.413 116.504 112.599 116.504H101.808C100.995 116.504 100.32 117.166 100.32 117.988C100.32 118.811 100.995 119.493 101.808 119.493ZM108.513 106.473H101.808C100.995 106.473 100.32 107.155 100.32 107.978C100.32 108.8 100.995 109.462 101.808 109.462H108.513C109.326 109.462 110.001 108.8 110.001 107.978C110.001 107.155 109.326 106.473 108.513 106.473Z" stroke="#6A2CAD" stroke-width="6.40807"/>
<path d="M123.216 101.791C121.586 101.797 119.664 101.791 118.281 101.777C116.087 101.777 114.28 99.9494 114.28 97.7307V92.4425C114.28 91.5779 115.317 91.1486 115.91 91.7725C116.984 92.9015 118.459 94.4534 119.928 95.9981C121.393 97.5387 122.851 99.0723 123.897 100.172C124.476 100.78 124.051 101.789 123.216 101.791Z" stroke="#6A2CAD" stroke-width="6.40807"/>
</g>
<g style="mix-blend-mode:hard-light" filter="url(#filter2_ddi_254_3125)">
<path fill-rule="evenodd" clip-rule="evenodd" d="M122.669 104.719C123.136 104.714 123.643 104.708 124.105 104.708C124.601 104.708 124.997 105.109 124.997 105.611V121.74C124.997 126.715 121.01 130.747 116.091 130.747H100.3C95.1429 130.747 90.9375 126.514 90.9375 121.299V99.6726C90.9375 94.6974 94.9445 90.625 99.8839 90.625H110.477C110.993 90.625 111.389 91.0463 111.389 91.5478V98.0075C111.389 101.679 114.385 104.688 118.015 104.708C118.863 104.708 119.61 104.714 120.264 104.72C120.773 104.724 121.226 104.728 121.625 104.728C121.907 104.728 122.273 104.724 122.669 104.719ZM101.808 119.493H112.599C113.413 119.493 114.087 118.811 114.087 117.988C114.087 117.166 113.413 116.504 112.599 116.504H101.808C100.995 116.504 100.32 117.166 100.32 117.988C100.32 118.811 100.995 119.493 101.808 119.493ZM108.513 106.473H101.808C100.995 106.473 100.32 107.155 100.32 107.978C100.32 108.8 100.995 109.462 101.808 109.462H108.513C109.326 109.462 110.001 108.8 110.001 107.978C110.001 107.155 109.326 106.473 108.513 106.473Z" stroke="#6A2CAD" stroke-opacity="0.2" stroke-width="4.90029"/>
<path d="M123.216 101.791C121.586 101.797 119.664 101.791 118.281 101.777C116.087 101.777 114.28 99.9494 114.28 97.7307V92.4425C114.28 91.5779 115.317 91.1486 115.91 91.7725C116.984 92.9015 118.459 94.4534 119.928 95.9981C121.393 97.5387 122.851 99.0723 123.897 100.172C124.476 100.78 124.051 101.789 123.216 101.791Z" stroke="#6A2CAD" stroke-opacity="0.2" stroke-width="4.90029"/>
</g>
<g filter="url(#filter3_f_254_3125)">
<path fill-rule="evenodd" clip-rule="evenodd" d="M122.669 104.719C123.136 104.714 123.643 104.708 124.105 104.708C124.601 104.708 124.997 105.109 124.997 105.611V121.74C124.997 126.715 121.01 130.747 116.091 130.747H100.3C95.1429 130.747 90.9375 126.514 90.9375 121.299V99.6726C90.9375 94.6974 94.9445 90.625 99.8839 90.625H110.477C110.993 90.625 111.389 91.0463 111.389 91.5478V98.0075C111.389 101.679 114.385 104.688 118.015 104.708C118.863 104.708 119.61 104.714 120.264 104.72C120.773 104.724 121.226 104.728 121.625 104.728C121.907 104.728 122.273 104.724 122.669 104.719ZM101.808 119.493H112.599C113.413 119.493 114.087 118.811 114.087 117.988C114.087 117.166 113.413 116.504 112.599 116.504H101.808C100.995 116.504 100.32 117.166 100.32 117.988C100.32 118.811 100.995 119.493 101.808 119.493ZM108.513 106.473H101.808C100.995 106.473 100.32 107.155 100.32 107.978C100.32 108.8 100.995 109.462 101.808 109.462H108.513C109.326 109.462 110.001 108.8 110.001 107.978C110.001 107.155 109.326 106.473 108.513 106.473Z" stroke="#6A2CAD" stroke-width="3.01556"/>
<path d="M123.216 101.791C121.586 101.797 119.664 101.791 118.281 101.777C116.087 101.777 114.28 99.9494 114.28 97.7307V92.4425C114.28 91.5779 115.317 91.1486 115.91 91.7725C116.984 92.9015 118.459 94.4534 119.928 95.9981C121.393 97.5387 122.851 99.0723 123.897 100.172C124.476 100.78 124.051 101.789 123.216 101.791Z" stroke="#6A2CAD" stroke-width="3.01556"/>
</g>
<g filter="url(#filter4_f_254_3125)">
<path fill-rule="evenodd" clip-rule="evenodd" d="M122.669 104.719C123.136 104.714 123.643 104.708 124.105 104.708C124.601 104.708 124.997 105.109 124.997 105.611V121.74C124.997 126.715 121.01 130.747 116.091 130.747H100.3C95.1429 130.747 90.9375 126.514 90.9375 121.299V99.6726C90.9375 94.6974 94.9445 90.625 99.8839 90.625H110.477C110.993 90.625 111.389 91.0463 111.389 91.5478V98.0075C111.389 101.679 114.385 104.688 118.015 104.708C118.863 104.708 119.61 104.714 120.264 104.72C120.773 104.724 121.226 104.728 121.625 104.728C121.907 104.728 122.273 104.724 122.669 104.719ZM101.808 119.493H112.599C113.413 119.493 114.087 118.811 114.087 117.988C114.087 117.166 113.413 116.504 112.599 116.504H101.808C100.995 116.504 100.32 117.166 100.32 117.988C100.32 118.811 100.995 119.493 101.808 119.493ZM108.513 106.473H101.808C100.995 106.473 100.32 107.155 100.32 107.978C100.32 108.8 100.995 109.462 101.808 109.462H108.513C109.326 109.462 110.001 108.8 110.001 107.978C110.001 107.155 109.326 106.473 108.513 106.473Z" stroke="white" stroke-width="1.50778"/>
<path d="M123.216 101.791C121.586 101.797 119.664 101.791 118.281 101.777C116.087 101.777 114.28 99.9494 114.28 97.7307V92.4425C114.28 91.5779 115.317 91.1486 115.91 91.7725C116.984 92.9015 118.459 94.4534 119.928 95.9981C121.393 97.5387 122.851 99.0723 123.897 100.172C124.476 100.78 124.051 101.789 123.216 101.791Z" stroke="white" stroke-width="1.50778"/>
</g>
<g filter="url(#filter5_b_254_3125)">
<path fill-rule="evenodd" clip-rule="evenodd" d="M122.657 104.699C123.124 104.694 123.631 104.688 124.092 104.688C124.588 104.688 124.985 105.089 124.985 105.59V121.696C124.985 126.664 120.999 130.691 116.081 130.691H100.297C95.1414 130.691 90.9375 126.464 90.9375 121.256V99.6599C90.9375 94.6917 94.943 90.625 99.8805 90.625H110.469C110.985 90.625 111.382 91.0457 111.382 91.5465V97.9972C111.382 101.663 114.376 104.668 118.005 104.688C118.852 104.688 119.599 104.695 120.253 104.7C120.762 104.704 121.214 104.708 121.614 104.708C121.896 104.708 122.262 104.704 122.657 104.699ZM101.804 119.453H112.591C113.404 119.453 114.078 118.771 114.078 117.95C114.078 117.129 113.404 116.468 112.591 116.468H101.804C100.991 116.468 100.317 117.129 100.317 117.95C100.317 118.771 100.991 119.453 101.804 119.453ZM108.506 106.451H101.804C100.991 106.451 100.317 107.132 100.317 107.954C100.317 108.775 100.991 109.436 101.804 109.436H108.506C109.319 109.436 109.994 108.775 109.994 107.954C109.994 107.132 109.319 106.451 108.506 106.451Z" fill="#6A2CAD" fill-opacity="0.01"/>
<path d="M123.204 101.775C121.574 101.781 119.653 101.775 118.271 101.761C116.077 101.761 114.271 99.9364 114.271 97.7207V92.44C114.271 91.5766 115.308 91.1479 115.901 91.7709C116.974 92.8983 118.449 94.448 119.917 95.9906C121.381 97.529 122.839 99.0604 123.884 100.159C124.463 100.766 124.039 101.773 123.204 101.775Z" fill="#6A2CAD" fill-opacity="0.01"/>
</g>
<defs>
<filter id="filter0_f_254_3125" x="0.602493" y="0.289993" width="214.73" height="220.792" filterUnits="userSpaceOnUse" color-interpolation-filters="sRGB">
<feFlood flood-opacity="0" result="BackgroundImageFix"/>
<feBlend mode="normal" in="SourceGraphic" in2="BackgroundImageFix" result="shape"/>
<feGaussianBlur stdDeviation="43.9424" result="effect1_foregroundBlur_254_3125"/>
</filter>
<filter id="filter1_f_254_3125" x="58.4385" y="58.1261" width="99.0579" height="105.12" filterUnits="userSpaceOnUse" color-interpolation-filters="sRGB">
<feFlood flood-opacity="0" result="BackgroundImageFix"/>
<feBlend mode="normal" in="SourceGraphic" in2="BackgroundImageFix" result="shape"/>
<feGaussianBlur stdDeviation="14.6475" result="effect1_foregroundBlur_254_3125"/>
</filter>
<filter id="filter2_ddi_254_3125" x="50.4039" y="79.3863" width="115.127" height="121.19" filterUnits="userSpaceOnUse" color-interpolation-filters="sRGB">
<feFlood flood-opacity="0" result="BackgroundImageFix"/>
<feColorMatrix in="SourceAlpha" type="matrix" values="0 0 0 0 0 0 0 0 0 0 0 0 0 0 0 0 0 0 127 0" result="hardAlpha"/>
<feOffset dy="19.0417"/>
<feGaussianBlur stdDeviation="7.32373"/>
<feColorMatrix type="matrix" values="0 0 0 0 0.114706 0 0 0 0 0.0382353 0 0 0 0 0.261765 0 0 0 0.7 0"/>
<feBlend mode="multiply" in2="BackgroundImageFix" result="effect1_dropShadow_254_3125"/>
<feColorMatrix in="SourceAlpha" type="matrix" values="0 0 0 0 0 0 0 0 0 0 0 0 0 0 0 0 0 0 127 0" result="hardAlpha"/>
<feOffset dy="29.2949"/>
<feGaussianBlur stdDeviation="19.0417"/>
<feColorMatrix type="matrix" values="0 0 0 0 0.229412 0 0 0 0 0.0764706 0 0 0 0 0.523529 0 0 0 1 0"/>
<feBlend mode="color-dodge" in2="effect1_dropShadow_254_3125" result="effect2_dropShadow_254_3125"/>
<feBlend mode="normal" in="SourceGraphic" in2="effect2_dropShadow_254_3125" result="shape"/>
<feColorMatrix in="SourceAlpha" type="matrix" values="0 0 0 0 0 0 0 0 0 0 0 0 0 0 0 0 0 0 127 0" result="hardAlpha"/>
<feOffset dx="-1.90417" dy="3.80834"/>
<feGaussianBlur stdDeviation="0.952086"/>
<feComposite in2="hardAlpha" operator="arithmetic" k2="-1" k3="1"/>
<feColorMatrix type="matrix" values="0 0 0 0 1 0 0 0 0 1 0 0 0 0 1 0 0 0 0.5 0"/>
<feBlend mode="normal" in2="shape" result="effect3_innerShadow_254_3125"/>
</filter>
<filter id="filter3_f_254_3125" x="88.6758" y="88.3633" width="38.5832" height="44.6457" filterUnits="userSpaceOnUse" color-interpolation-filters="sRGB">
<feFlood flood-opacity="0" result="BackgroundImageFix"/>
<feBlend mode="normal" in="SourceGraphic" in2="BackgroundImageFix" result="shape"/>
<feGaussianBlur stdDeviation="0.376945" result="effect1_foregroundBlur_254_3125"/>
</filter>
<filter id="filter4_f_254_3125" x="89.681" y="89.3685" width="36.5728" height="42.6354" filterUnits="userSpaceOnUse" color-interpolation-filters="sRGB">
<feFlood flood-opacity="0" result="BackgroundImageFix"/>
<feBlend mode="normal" in="SourceGraphic" in2="BackgroundImageFix" result="shape"/>
<feGaussianBlur stdDeviation="0.251297" result="effect1_foregroundBlur_254_3125"/>
</filter>
<filter id="filter5_b_254_3125" x="73.2708" y="72.9583" width="69.3805" height="75.3995" filterUnits="userSpaceOnUse" color-interpolation-filters="sRGB">
<feFlood flood-opacity="0" result="BackgroundImageFix"/>
<feGaussianBlur in="BackgroundImage" stdDeviation="8.83333"/>
<feComposite in2="SourceAlpha" operator="in" result="effect1_backgroundBlur_254_3125"/>
<feBlend mode="normal" in="SourceGraphic" in2="effect1_backgroundBlur_254_3125" result="shape"/>
</filter>
</defs>
</svg>
